<?xml version="1.0" standalone="no"?>
<!DOCTYPE svg PUBLIC "-//W3C//DTD SVG 1.1//EN" "http://www.w3.org/Graphics/SVG/1.1/DTD/svg11.dtd">
<svg xmlns="http://www.w3.org/2000/svg"><metadata>This SVG WebFont was generated by YouWorkForThem.
Copyright (c) 2012 by Yellow Desing Studio. All rights reserved.</metadata><defs><font horiz-adv-x="1230" id="ywftsvg"><font-face ascent="1638" bbox="-244 -569 2787 1935" cap-height="1434" descent="-410" font-family="" font-stretch="normal" font-weight="300" panose-1="2 0 3 0 3 0 0 2 0 4" underline-position="0" underline-thickness="0" unicode-range="U+0020-FB06" units-per-em="2048" x-height="1075"/><missing-glyph horiz-adv-x="550"/><glyph d="M74 973v102h151v178q0 240 217 240q115 0 303 -66l-49 -96q-188 49 -239 49q-106 0 -107 -116v-189h291v-102h-291v-973h-125v973h-151zM782 973v102h150v178q0 240 219 240q113 0 301 -66l-49 -96q-180 49 -240 49q-104 0 -104 -116v-189h295v-102h-295v-973h-127v973 h-150z" glyph-name="uniFB00" horiz-adv-x="1409" unicode="ff"/><glyph d="M872 1309v178h148v-178h-148zM1008 0h-127v1075h127v-1075zM74 973v102h151v178q0 240 211 240q94 0 248 -51l-43 -96q-125 35 -184 34q-106 0 -107 -116v-189h297v-102h-297v-973h-125v973h-151z" glyph-name="uniFB01" horiz-adv-x="1187" unicode="fi"/><glyph d="M1018 0h-127v1493h127v-1493zM74 973v102h151v178q0 240 211 240q94 0 248 -51l-43 -96q-125 35 -184 34q-106 0 -107 -116v-189h297v-102h-297v-973h-125v973h-151z" glyph-name="uniFB02" horiz-adv-x="1208" unicode="fl"/><glyph d="M1579 1309v178h147v-178h-147zM1716 0h-129v1075h129v-1075zM782 973v102h150v178q0 240 211 240q102 0 248 -51l-43 -96q-125 35 -185 34q-104 0 -104 -116v-189h295v-102h-295v-973h-127v973h-150zM74 973v102h151v178q0 240 217 240q115 0 303 -66l-45 -96 q-188 49 -243 49q-106 0 -107 -116v-189h291v-102h-291v-973h-125v973h-151z" glyph-name="uniFB03" horiz-adv-x="1894" unicode="ffi"/><glyph d="M1726 0h-129v1493h129v-1493zM782 973v102h150v178q0 240 211 240q102 0 248 -51l-43 -96q-125 35 -185 34q-104 0 -104 -116v-189h295v-102h-295v-973h-127v973h-150zM74 973v102h151v178q0 240 217 240q115 0 303 -66l-45 -96q-188 49 -243 49q-106 0 -107 -116v-189 h291v-102h-291v-973h-125v973h-151z" glyph-name="uniFB04" horiz-adv-x="1916" unicode="ffl"/><glyph d="M782 973v102h150v178q0 240 211 240q102 0 248 -51l-43 -96q-125 35 -185 34q-104 0 -104 -116v-189h295v-102h-295v-973h-127v973h-150zM74 973v102h151v178q0 240 217 240q115 0 303 -66l-45 -96q-188 49 -243 49q-106 0 -107 -116v-189h291v-102h-291v-973h-125v973 h-151zM2087 987q-209 0 -371 -184v-533q164 -182 371 -182q141 0 215 119t74 331t-74 330t-215 119zM1587 0v1493h129v-565q184 170 374 170t304 -138q115 -138 115 -424q0 -284 -115 -421t-293 -138q-209 0 -385 168v-145h-129z" glyph-name="f_f_b.liga" horiz-adv-x="2629" unicode="ffb"/><glyph d="M782 973v102h150v178q0 240 211 240q102 0 248 -51l-43 -96q-125 35 -185 34q-104 0 -104 -116v-189h295v-102h-295v-973h-127v973h-150zM74 973v102h151v178q0 240 217 240q115 0 303 -66l-45 -96q-188 49 -243 49q-106 0 -107 -116v-189h291v-102h-291v-973h-125v973 h-151zM1716 1493v-578q84 66 206 124t245 59q301 0 301 -328v-770h-127v750q0 240 -201 239q-108 0 -230 -62t-194 -128v-799h-129v1493h129z" glyph-name="f_f_h.liga" horiz-adv-x="2639" unicode="ffh"/><glyph d="M74 973v102h151v178q0 240 211 240q94 0 248 -51l-43 -96q-125 35 -184 34q-106 0 -107 -116v-189h297v-102h-297v-973h-125v973h-151zM1380 987q-106 0 -204 -52t-168 -132v-533q70 -78 168 -130t204 -52q141 0 215 119t74 331t-74 330t-215 119zM881 0v1493h127v-565 q184 170 374 170t305 -138q113 -138 113 -424q0 -284 -114 -421t-291 -138q-211 0 -387 168v-145h-127z" glyph-name="f_b.liga" horiz-adv-x="1923" unicode="fb"/><glyph d="M1577 1309v178h147v-178h-147zM1716 1075v-1138q0 -189 -40 -229q-66 -66 -135 -89q-68 -22 -150 -45l-45 100q116 37 188 77q40 21 50 98q3 24 3 83v1143h129zM782 973v102h150v178q0 240 211 240q102 0 248 -51l-43 -96q-125 35 -185 34q-104 0 -104 -116v-189h295 v-102h-295v-973h-127v973h-150zM74 973v102h151v178q0 240 217 240q115 0 303 -66l-45 -96q-188 49 -243 49q-106 0 -107 -116v-189h291v-102h-291v-973h-125v973h-151z" glyph-name="f_f_j.liga" horiz-adv-x="1894" unicode="ffj"/><glyph d="M782 973v102h150v178q0 240 211 240q102 0 248 -51l-43 -96q-125 35 -185 34q-104 0 -104 -116v-189h295v-102h-295v-973h-127v973h-150zM74 973v102h151v178q0 240 217 240q115 0 303 -66l-45 -96q-188 49 -243 49q-106 0 -107 -116v-189h291v-102h-291v-973h-125v973 h-151zM1716 0h-129v1493h129v-1020l488 602h145l-364 -436l430 -639h-138l-370 545l-191 -230v-315z" glyph-name="f_f_k.liga" horiz-adv-x="2455" unicode="ffk"/><glyph d="M1481 973v102h151v271l125 40v-311h299v-102h-299v-764q0 -119 107 -119q72 0 215 57l51 -98q-152 -72 -281 -72q-217 0 -217 240v756h-151zM74 973v102h151v178q0 240 217 240q115 0 303 -66l-45 -96q-188 49 -243 49q-106 0 -107 -116v-189h291v-102h-291v-973h-125 v973h-151zM782 973v102h150v178q0 240 219 240q113 0 301 -66l-49 -96q-180 49 -240 49q-104 0 -104 -116v-189h291v-102h-291v-973h-127v973h-150z" glyph-name="f_f_t.liga" horiz-adv-x="2164" unicode="fft"/><glyph d="M74 973v102h151v178q0 240 211 240q94 0 248 -51l-43 -96q-125 35 -184 34q-106 0 -107 -116v-189h297v-102h-297v-973h-125v973h-151zM1008 1493v-578q242 182 452 183q301 0 301 -328v-770h-129v750q0 240 -200 239q-109 0 -230 -62t-194 -128v-799h-127v1493h127z" glyph-name="f_h.liga" horiz-adv-x="1931" unicode="fh"/><glyph d="M870 1309v178h148v-178h-148zM1008 1075v-1138q0 -187 -40 -229q-64 -66 -134 -88q-70 -23 -152 -46l-43 100q121 39 188 77q54 28 54 181v1143h127zM74 973v102h151v178q0 240 211 240q94 0 248 -51l-43 -96q-125 35 -184 34q-106 0 -107 -116v-189h297v-102h-297v-973 h-125v973h-151z" glyph-name="f_j.liga" horiz-adv-x="1187" unicode="fj"/><glyph d="M74 973v102h151v178q0 240 211 240q94 0 248 -51l-43 -96q-125 35 -184 34q-106 0 -107 -116v-189h297v-102h-297v-973h-125v973h-151zM1008 0h-127v1493h127v-1022l487 604h145l-362 -436l430 -639h-137l-371 547l-192 -232v-315z" glyph-name="f_k.liga" horiz-adv-x="1748" unicode="fk"/><glyph d="M782 973v102h152v271l125 40v-311h299v-102h-299v-764q0 -119 106 -119q72 0 215 57l52 -98q-150 -72 -281 -72q-217 0 -217 240v756h-152zM74 973v102h151v178q0 240 217 240q115 0 303 -66l-49 -96q-188 49 -239 49q-106 0 -107 -116v-189h291v-102h-291v-973h-125v973 h-151z" glyph-name="f_t.liga" horiz-adv-x="1466" unicode="ft"/><glyph glyph-name=".notdef" horiz-adv-x="550"/><glyph glyph-name="glyph1" horiz-adv-x="0"/><glyph glyph-name="glyph2" horiz-adv-x="681"/><glyph glyph-name="space" horiz-adv-x="583" unicode=" "/><glyph d="M342 1434l-35 -1016h-82l-37 1016h154zM186 0v211h162v-211h-162z" glyph-name="exclam" horiz-adv-x="532" unicode="!"/><glyph d="M295 1434l-27 -523h-94l-24 523h145zM666 1434l-27 -523h-92l-25 523h144z" glyph-name="quotedbl" horiz-adv-x="815" unicode="&quot;"/><glyph d="M594 944l-72 -457h428l72 457h-428zM109 381v106h303l71 457h-286v107h303l61 383h111l-62 -383h428l62 383h108l-59 -383h289v-107h-305l-72 -457h289v-106h-306l-59 -381h-111l60 381h-428l-60 -381h-110l59 381h-286z" glyph-name="numbersign" horiz-adv-x="1548" unicode="#"/><glyph d="M279 1102q0 -112 71 -168q72 -55 221 -107v512q-125 -4 -209 -65q-84 -60 -83 -172zM997 346q0 116 -82 184t-239 123v-559q135 2 228 68t93 184zM676 -205h-105v189q-244 29 -462 161l65 103q195 -117 397 -146v586l-128 44q-47 17 -111 53t-101 73t-63 97 q-27 60 -27 132q0 173 123 269t307 100v184h105v-190q205 -23 399 -123l-63 -102q-162 84 -336 106v-536q268 -88 362 -188q95 -100 95 -247q-1 -182 -135 -280t-322 -103v-182z" glyph-name="dollar" horiz-adv-x="1236" unicode="$"/><glyph d="M1450 1434l-756 -1434h-119l756 1434h119zM461 784q117 0 183 75t65 213q0 138 -66 213q-67 75 -183 75t-179 -75t-63 -213t62 -213q64 -75 181 -75zM823 1071q0 -187 -98 -285t-263 -98t-263 99q-99 99 -99 285t98 284q98 100 264 100q165 0 263 -100t98 -285zM1810 361 q0 138 -65 213q-67 75 -183 75t-180 -75t-63 -213q0 -138 63 -213q62 -74 180 -74t183 74t65 213zM1202 361q0 185 98 285t264 99q166 1 263 -99q98 -100 98 -285t-98 -284t-263 -99q-166 0 -264 98q-98 100 -98 285z" glyph-name="percent" horiz-adv-x="2027" unicode="%"/><glyph d="M391 1164q0 -120 93 -232q32 -37 83 -88q113 76 173 148t60 160q0 87 -48 141q-48 55 -148 55t-156 -56t-57 -128zM598 88q213 0 363 180l-412 426q-131 -92 -197 -165t-66 -171t76 -184t236 -86zM598 -23q-188 -1 -314 99t-126 258t98 269q75 82 211 175q-63 68 -99 111 t-70 117t-34 147q0 151 106 227t237 76t225 -79t94 -209t-73 -220t-206 -186l383 -393q98 172 127 387h133q-33 -266 -172 -477l273 -279h-168l-179 182q-184 -205 -446 -205z" glyph-name="ampersand" horiz-adv-x="1415" unicode="&amp;"/><glyph d="M295 1434l-27 -523h-94l-24 523h145z" glyph-name="quotesingle" horiz-adv-x="444" unicode="'"/><glyph d="M180 53v1317q0 84 7 126t39 87t99 74t185 61l41 -94q-123 -39 -169 -68q-46 -28 -57 -62t-12 -124v-1315q-1 -90 11 -124q12 -35 58 -63t169 -67l-41 -94q-120 33 -186 62t-98 73t-39 85q-7 42 -7 126z" glyph-name="parenleft" horiz-adv-x="624" unicode="("/><glyph d="M442 1370v-1317q0 -117 -19 -169t-55 -76q-88 -57 -251 -101l-43 94q94 31 137 48t68 49t27 60t3 97v1315q0 70 -3 98t-27 59q-25 32 -68 49t-137 48l43 94q119 -34 185 -62t96 -73q32 -45 38 -86t6 -127z" glyph-name="parenright" horiz-adv-x="624" unicode=")"/><glyph d="M436 678l31 317l-268 -186l-64 104l299 134l-297 139l64 104l266 -190l-31 317h123l-29 -315l265 186l61 -106l-299 -133l299 -138l-63 -104l-263 186l29 -315h-123z" glyph-name="asterisk" horiz-adv-x="993" unicode="*"/><glyph d="M567 1141h109v-406h457v-106h-457v-404h-109v404h-454v106h454v406z" glyph-name="plus" horiz-adv-x="1243" unicode="+"/><glyph d="M164 0v217h153l23 -225l-141 -250l-52 51l91 207h-74z" glyph-name="comma" horiz-adv-x="489" unicode=","/><glyph d="M725 524h-559v117h559v-117z" glyph-name="hyphen" horiz-adv-x="892" unicode="-"/><glyph d="M162 0v217h162v-217h-162z" glyph-name="period" horiz-adv-x="487" unicode="."/><glyph d="M850 1618l-686 -1802h-113l686 1802h113z" glyph-name="slash" horiz-adv-x="901" unicode="/"/><glyph d="M668 88q383 0 383 628t-383 627q-197 -1 -291 -165t-94 -461t94 -463t291 -166zM668 1456q256 0 387 -190t131 -548t-131 -550q-131 -190 -387 -190t-389 190t-133 548t132 550q134 190 390 190z" glyph-name="zero" horiz-adv-x="1331" unicode="0"/><glyph d="M512 0h-133v1292l-258 -135l-58 96l332 181h117v-1434z" glyph-name="one" horiz-adv-x="724" unicode="1"/><glyph d="M1040 117v-117h-923v104q0 200 127 333q88 94 284 229q225 131 325 274q52 76 52 170t-81 162t-220 67q-207 0 -381 -127l-67 93q213 152 452 151q195 0 313 -97t117 -261q0 -94 -28 -148q-28 -55 -44 -85q-18 -29 -56 -65t-60 -59t-73 -59q-50 -36 -76 -54 q-26 -19 -169 -114q-142 -96 -208 -179t-66 -218h782z" glyph-name="two" horiz-adv-x="1177" unicode="2"/><glyph d="M582 94q135 0 239 83q105 83 105 208t-78 204q-138 140 -391 140h-64v119h74q159 0 277 72t118 186t-79 174t-210 59q-182 0 -356 -118l-61 90q195 145 432 145q190 0 299 -96t108 -236q1 -102 -69 -193t-215 -140q154 -37 253 -143t99 -263q0 -158 -127 -283t-361 -125 q-143 -1 -274 45t-209 95l64 100q61 -39 176 -81t250 -42z" glyph-name="three" horiz-adv-x="1198" unicode="3"/><glyph d="M817 446v859l-594 -859h594zM80 330v106l700 998h170v-988h221v-116h-221v-330h-133v330h-737z" glyph-name="four" horiz-adv-x="1261" unicode="4"/><glyph d="M991 1434v-117h-639l-41 -479q119 63 264 63q213 0 343 -132q130 -131 131 -323q-1 -192 -133 -330t-355 -138t-448 137l63 102q182 -121 348 -121t278 98q110 98 110 246q0 150 -97 248q-96 98 -254 98t-319 -92l-72 37l78 703h743z" glyph-name="five" horiz-adv-x="1171" unicode="5"/><glyph d="M1001 455q-1 143 -85 245t-238 103q-154 0 -260 -71t-144 -154v-13q0 -199 96 -336t272 -137q175 0 267 110t92 253zM862 1341q-204 -1 -370 -153t-207 -449q53 66 152 120t243 54q213 0 334 -131q121 -132 121 -328t-131 -336t-351 -141q-127 -1 -228 51 q-181 92 -254 327q-32 103 -32 216q-2 213 60 386q112 319 394 443q128 56 247 56t180 -16l22 -6l-32 -111q-68 18 -148 18z" glyph-name="six" horiz-adv-x="1249" unicode="6"/><glyph d="M299 0q0 168 51 362t115 340q63 145 159 315t191 300h-745v117h903v-101q-63 -74 -170 -249q-107 -176 -177 -326t-126 -360q-57 -210 -58 -398h-143z" glyph-name="seven" horiz-adv-x="1028" unicode="7"/><glyph d="M934 1104q0 100 -85 171t-213 71t-212 -71t-84 -179t109 -180q75 -50 188 -89q204 67 268 170q29 47 29 107zM262 369q0 -127 108 -203t268 -76t266 75q108 75 108 207t-116 214q-116 83 -261 131q-267 -95 -341 -224q-32 -56 -32 -124zM125 365q0 266 356 407 q-272 119 -272 340q0 156 120 250t307 94t308 -94t121 -250q0 -221 -274 -340q358 -143 358 -407q1 -179 -147 -283t-367 -104t-365 104q-145 105 -145 283z" glyph-name="eight" horiz-adv-x="1273" unicode="8"/><glyph d="M606 1341q-174 1 -267 -109t-93 -253t85 -245t237 -103t259 69q106 70 146 152v16q0 199 -96 336q-97 137 -271 137zM385 92q207 0 371 152t205 448q-53 -66 -153 -119t-241 -53q-213 0 -334 131t-121 328t133 337q132 140 351 140q168 0 288 -90q222 -166 226 -504 q0 -213 -60 -386q-109 -315 -395 -442q-127 -56 -245 -56t-183 16l-22 6l35 111q65 -19 145 -19z" glyph-name="nine" horiz-adv-x="1249" unicode="9"/><glyph d="M168 0v217h162v-217h-162zM168 715v217h162v-217h-162z" glyph-name="colon" horiz-adv-x="497" unicode=":"/><glyph d="M184 0v217h154l22 -225l-141 -250l-51 51l90 207h-74zM184 715v217h158v-217h-158z" glyph-name="semicolon" horiz-adv-x="528" unicode=";"/><glyph d="M84 735l1018 432v-129l-875 -354l875 -356v-129l-1018 434v102z" glyph-name="less" horiz-adv-x="1243" unicode="&lt;"/><glyph d="M113 449v108h1020v-108h-1020zM113 813v107h1020v-107h-1020z" glyph-name="equal" horiz-adv-x="1243" unicode="="/><glyph d="M1159 633l-1018 -434v129l873 356l-873 354v129l1018 -432v-102z" glyph-name="greater" horiz-adv-x="1243" unicode=">"/><glyph d="M82 1307q207 149 463 149q145 0 266 -89t121 -251q0 -297 -440 -409l-11 -289h-100l-12 364q213 47 323 120t109 194q0 121 -82 182t-207 61q-164 0 -362 -122zM352 0v211h158v-211h-158z" glyph-name="question" horiz-adv-x="1034" unicode="?"/><glyph d="M924 145q162 0 325 156v227q-18 2 -114 22t-200 19q-104 0 -160 -63q-56 -64 -56 -162q1 -98 57 -148t148 -51zM1794 522q0 354 -197 576t-573 223q-376 0 -591 -231q-216 -230 -216 -572t211 -571t551 -230q113 0 211 23t141 47l41 23l53 -66q-55 -41 -184 -76t-260 -35 q-379 0 -615 253t-237 634q0 381 245 633q246 252 654 252t630 -243t224 -642q-2 -250 -104 -406t-281 -155q-225 0 -246 240q-164 -150 -348 -150q-121 0 -209 71q-88 70 -88 226t89 234t220 77q89 -1 206 -27q116 -26 128 -28v121q0 113 -43 163q-42 50 -168 50t-319 -84 l-51 88q209 92 391 92q301 0 301 -295v-440q0 -149 34 -197q34 -49 125 -50q91 -2 183 112t92 360z" glyph-name="at" horiz-adv-x="1994" unicode="@"/><glyph d="M694 1305l-305 -818h612zM1184 0l-140 373h-698l-139 -373h-144l562 1434h141l561 -1434h-143z" glyph-name="A" horiz-adv-x="1388" unicode="A"/><glyph d="M1114 399q0 299 -422 299h-348v-585h434q166 1 251 79t85 207zM680 809q158 -1 256 65t98 188t-85 190t-257 69h-348v-512h336zM1245 381q0 -177 -119 -279t-342 -102h-573v1434h473q229 0 355 -92t126 -244q0 -154 -80 -239t-170 -99q108 -17 208 -93q54 -42 88 -116 t34 -170z" glyph-name="B" horiz-adv-x="1370" unicode="B"/><glyph d="M698 1335q-184 0 -301 -165q-117 -166 -117 -454t118 -453q116 -165 299 -165t456 187l74 -97q-307 -211 -538 -211q-231 -1 -389 185t-159 555q0 369 159 554q160 185 390 185t537 -211l-74 -96q-271 186 -455 186z" glyph-name="C" horiz-adv-x="1320" unicode="C"/><glyph d="M1151 717q0 309 -126 454t-398 146h-283v-1200h283q272 -1 398 145t126 455zM1292 717q0 -717 -661 -717h-420v1434h420q661 0 661 -717z" glyph-name="D" horiz-adv-x="1433" unicode="D"/><glyph d="M1098 0h-887v1434h874v-117h-741v-543h614v-115h-614v-542h754v-117z" glyph-name="E" horiz-adv-x="1218" unicode="E"/><glyph d="M1085 1317h-741v-543h596v-117h-596v-657h-133v1434h874v-117z" glyph-name="F" horiz-adv-x="1159" unicode="F"/><glyph d="M1145 0v176q-231 -199 -459 -199q-228 1 -387 187q-158 186 -158 554t159 553q160 185 404 185t547 -225l-77 -98q-86 59 -136 91t-149 72q-100 40 -187 39q-186 0 -304 -165q-118 -164 -118 -452t118 -456q116 -168 308 -168t439 223v338h-414v113h547v-768h-133z" glyph-name="G" horiz-adv-x="1437" unicode="G"/><glyph d="M1108 0v694h-764v-694h-133v1434h133v-625h764v625h133v-1434h-133z" glyph-name="H" horiz-adv-x="1452" unicode="H"/><glyph d="M344 0h-133v1434h133v-1434z" glyph-name="I" horiz-adv-x="555" unicode="I"/><glyph d="M344 1434v-1354q0 -172 -26 -205q-47 -65 -90 -84q-105 -46 -214 -74l-45 105q93 31 139 49t70 50t28 59q3 27 3 96v1358h135z" glyph-name="J" horiz-adv-x="555" unicode="J"/><glyph d="M211 0v1434h133v-848l713 848h157l-585 -693l655 -741h-164l-569 649l-207 -246v-403h-133z" glyph-name="K" horiz-adv-x="1320" unicode="K"/><glyph d="M1063 0h-852v1434h133v-1317h719v-117z" glyph-name="L" horiz-adv-x="1122" unicode="L"/><glyph d="M1376 0v1208l-469 -968h-94l-469 966v-1206h-133v1434h141l508 -1045l506 1045h143v-1434h-133z" glyph-name="M" horiz-adv-x="1718" unicode="M"/><glyph d="M344 0h-133v1434h139l791 -1235v1235h133v-1434h-139l-791 1235v-1235z" glyph-name="N" horiz-adv-x="1484" unicode="N"/><glyph d="M752 96q260 0 367 176q106 176 106 452t-112 444q-111 168 -361 169q-250 0 -361 -169t-110 -451q0 -621 471 -621zM752 1456q462 0 576 -451q34 -130 34 -288q0 -314 -137 -520q-70 -103 -191 -161q-120 -58 -282 -58t-283 56q-121 58 -191 162t-103 234 q-34 129 -34 287t34 288q75 288 294 394q121 57 283 57z" glyph-name="O" horiz-adv-x="1503" unicode="O"/><glyph d="M1081 1004q0 313 -374 313h-363v-627h363q374 1 374 314zM1219 1004q0 -430 -521 -431h-354v-573h-133v1434h487q521 0 521 -430z" glyph-name="P" horiz-adv-x="1308" unicode="P"/><glyph d="M752 96q260 0 367 176q106 176 106 452t-112 444q-111 168 -361 169q-250 0 -361 -169t-110 -451q0 -621 471 -621zM141 717q0 158 34 288q75 288 294 394q121 57 283 57q462 0 576 -451q34 -130 34 -301q0 -374 -194 -572q-105 -108 -265 -140l248 -201l-94 -96 l-305 282q-162 -1 -283 57t-191 162t-103 234q-34 129 -34 287z" glyph-name="Q" horiz-adv-x="1503" unicode="Q"/><glyph d="M1128 1030q0 150 -101 220t-275 69h-408v-580h397q387 0 387 291zM344 625v-625h-133v1434h532q522 0 523 -404q0 -186 -109 -282t-293 -117l404 -631h-152l-387 625h-385z" glyph-name="R" horiz-adv-x="1392" unicode="R"/><glyph d="M1133 360q1 -184 -139 -283t-332 -100q-141 1 -291 51t-262 117l65 103q106 -62 240 -108t262 -46q127 0 224 67t97 197t-121 201t-254 115q-133 43 -180 60t-110 52t-101 72q-37 37 -63 97q-27 60 -27 132q0 173 126 271t315 98q119 0 254 -38t237 -91l-63 -102 q-223 115 -426 114q-129 0 -218 -61t-90 -182q0 -62 22 -106t85 -80q103 -59 289 -115q259 -78 360 -183q101 -104 101 -252z" glyph-name="S" horiz-adv-x="1241" unicode="S"/><glyph d="M1108 1317h-459v-1317h-133v1317h-461v117h1053v-117z" glyph-name="T" horiz-adv-x="1165" unicode="T"/><glyph d="M1235 1434v-928q0 -528 -516 -529q-520 0 -520 529v928h133v-928q0 -194 83 -302t302 -108t302 109t83 301v928h133z" glyph-name="U" horiz-adv-x="1433" unicode="U"/><glyph d="M207 1434l483 -1295l486 1295h147l-561 -1434h-141l-562 1434h148z" glyph-name="V" horiz-adv-x="1384" unicode="V"/><glyph d="M1282 0l-330 1243l-327 -1243h-150l-395 1434h145l328 -1280l334 1280h133l334 -1280l329 1280h148l-399 -1434h-150z" glyph-name="W" horiz-adv-x="1908" unicode="W"/><glyph d="M82 1434h156l389 -631l391 631h156l-478 -723l502 -711h-160l-411 616l-410 -616h-160l500 711z" glyph-name="X" horiz-adv-x="1255" unicode="X"/><glyph d="M573 0v567l-526 867h150l444 -764l442 764h150l-526 -867v-567h-134z" glyph-name="Y" horiz-adv-x="1282" unicode="Y"/><glyph d="M137 1317v117h1004v-109l-891 -1208h901v-117h-1059v109l887 1208h-842z" glyph-name="Z" horiz-adv-x="1257" unicode="Z"/><glyph d="M606 -295h-413v2013h413v-100h-280v-1813h280v-100z" glyph-name="bracketleft" horiz-adv-x="688" unicode="["/><glyph d="M737 -184l-686 1802h111l686 -1802h-111z" glyph-name="backslash" horiz-adv-x="901" unicode="\"/><glyph d="M494 -295h-414v100h280v1813h-280v100h414v-2013z" glyph-name="bracketright" horiz-adv-x="688" unicode="]"/><glyph d="M932 725l-311 596l-314 -596h-143l391 709h129l393 -709h-145z" glyph-name="asciicircum" horiz-adv-x="1243" unicode="^"/><glyph d="M1280 -279h-1114v103h1114v-103z" glyph-name="underscore" horiz-adv-x="1445" unicode="_"/><glyph d="M434 1231h-108l-338 262h196z" glyph-name="grave" horiz-adv-x="423" unicode="`"/><glyph d="M485 90q197 0 385 170v264q-14 2 -129 26t-217 25q-152 -1 -218 -71t-66 -186t66 -172t179 -56zM870 0v147q-188 -170 -409 -170q-134 0 -238 73q-53 38 -85 107t-32 160q0 175 106 265t261 90q99 0 245 -30t152 -32v135q0 127 -52 187t-184 59q-132 0 -405 -96l-49 100 q276 102 463 103q354 0 354 -340v-758h-127z" glyph-name="a" horiz-adv-x="1167" unicode="a"/><glyph d="M680 987q-211 0 -373 -184v-533q164 -182 373 -182q141 0 215 119t74 331t-74 330t-215 119zM180 0v1493h127v-565q185 170 375 170t304 -138t114 -424q0 -284 -114 -421t-292 -138q-211 0 -387 168v-145h-127z" glyph-name="b" horiz-adv-x="1222" unicode="b"/><glyph d="M346 213q94 -123 235 -123t332 127l64 -96q-238 -143 -415 -143t-310 148t-133 412t133 412q133 147 323 148q62 0 101 -10t75 -20q36 -9 95 -41q60 -31 68 -35t34 -22q27 -16 29 -16l-64 -96q-4 2 -66 39t-136 62q-75 26 -131 26q-140 0 -234 -122q-94 -123 -94 -325 t94 -325z" glyph-name="c" horiz-adv-x="1067" unicode="c"/><glyph d="M543 88q207 0 372 182v533q-166 184 -372 184q-141 0 -215 -119q-74 -118 -74 -330t74 -331t215 -119zM1042 0h-127v145q-179 -168 -373 -168q-194 -1 -308 137t-113 423q-1 285 113 423t306 138t375 -170v565h127v-1493z" glyph-name="d" horiz-adv-x="1222" unicode="d"/><glyph d="M604 993q-152 -1 -244 -109t-104 -290h662q8 399 -314 399zM594 84q150 0 393 149l68 -88q-57 -33 -73 -42q-211 -123 -405 -124q-194 -3 -326 145t-132 414t136 412q136 148 349 148t328 -128t115 -335l-11 -133h-782q8 -190 99 -304t241 -114z" glyph-name="e" horiz-adv-x="1171" unicode="e"/><glyph d="M74 973v102h149v178q0 240 219 240q113 0 301 -66l-49 -96q-180 49 -239 49q-104 0 -105 -116v-189h295v-102h-295v-973h-127v973h-149z" glyph-name="f" horiz-adv-x="700" unicode="f"/><glyph d="M543 88q207 0 372 182v533q-166 184 -372 184q-141 0 -215 -119q-74 -118 -74 -330t74 -331t215 -119zM915 1075h127v-1157q0 -356 -391 -356q-217 0 -481 73l31 115q273 -78 425 -78t221 58t68 186v229q-179 -168 -373 -168q-194 -1 -308 137t-113 423q-1 285 113 423 t306 138t375 -170v147z" glyph-name="g" horiz-adv-x="1222" unicode="g"/><glyph d="M307 1493v-578q242 182 453 183q299 0 299 -328v-770h-127v750q0 240 -201 239q-109 0 -231 -62t-193 -128v-799h-127v1493h127z" glyph-name="h" unicode="h"/><glyph d="M172 1309v178h147v-178h-147zM307 0h-127v1075h127v-1075z" glyph-name="i" horiz-adv-x="487" unicode="i"/><glyph d="M307 1075v-1138q0 -189 -40 -229q-66 -66 -135 -89q-68 -22 -150 -45l-43 100q96 32 140 50q45 18 69 50t27 60t3 98v1143h129zM170 1309v178h147v-178h-147z" glyph-name="j" horiz-adv-x="487" unicode="j"/><glyph d="M307 0h-127v1493h127v-1022l488 604h145l-362 -436l430 -639h-138l-372 545l-191 -230v-315z" glyph-name="k" horiz-adv-x="1048" unicode="k"/><glyph d="M317 0h-127v1493h127v-1493z" glyph-name="l" horiz-adv-x="507" unicode="l"/><glyph d="M307 1075v-164q203 187 416 187t268 -205q76 77 190 141t232 64q291 0 291 -328v-770h-127v750q0 240 -193 239q-98 0 -201 -62t-179 -141v-786h-127v750q0 240 -193 239q-174 0 -377 -198v-791h-127v1075h127z" glyph-name="m" horiz-adv-x="1875" unicode="m"/><glyph d="M307 1075v-160q242 182 453 183q299 0 299 -328v-770h-127v750q0 240 -201 239q-109 0 -231 -62t-193 -128v-799h-127v1075h127z" glyph-name="n" unicode="n"/><glyph d="M967 537q0 213 -88 333q-89 120 -271 119q-182 0 -269 -120t-87 -332q0 -451 356 -451q182 0 271 119q88 119 88 332zM1098 537q0 -263 -127 -411t-364 -148t-363 148t-125 412q0 264 127 411q126 149 362 149t363 -150t127 -411z" glyph-name="o" horiz-adv-x="1218" unicode="o"/><glyph d="M680 987q-211 0 -373 -184v-533q164 -182 373 -182q141 0 215 119t74 331t-74 330t-215 119zM307 1075v-147q177 170 371 170t308 -138t114 -424q0 -284 -114 -421t-292 -138q-211 0 -387 168v-563h-127v1493h127z" glyph-name="p" horiz-adv-x="1222" unicode="p"/><glyph d="M543 88q207 0 372 182v533q-166 184 -372 184q-141 0 -215 -119q-74 -118 -74 -330t74 -331t215 -119zM915 -418v563q-179 -168 -373 -168q-194 -1 -308 137t-113 423q-1 285 113 423t306 138t375 -170v147h127v-1493h-127z" glyph-name="q" horiz-adv-x="1222" unicode="q"/><glyph d="M307 1075v-231q18 52 101 140q47 50 129 80t180 23v-122q-102 0 -182 -35t-121 -85q-88 -107 -101 -183l-6 -35v-627h-127v1075h127z" glyph-name="r" horiz-adv-x="770" unicode="r"/><glyph d="M934 263q0 -136 -110 -211t-267 -75q-225 0 -457 129l60 97q213 -119 387 -119q104 0 182 46t78 134q0 138 -238 209q-27 9 -88 25t-101 29q-260 85 -257 284q0 135 102 211t276 76t388 -107l-60 -92q-188 92 -317 92t-196 -45t-66 -129q0 -39 19 -72t43 -51t75 -40 t102 -35q50 -13 56 -15q195 -51 292 -128t97 -213z" glyph-name="s" horiz-adv-x="1034" unicode="s"/><glyph d="M76 973v102h149v271l127 40v-311h297v-102h-297v-764q0 -119 105 -119q80 0 215 57l51 -98q-150 -72 -279 -72q-219 0 -219 240v756h-149z" glyph-name="t" horiz-adv-x="759" unicode="t"/><glyph d="M924 0v158q-238 -180 -455 -181q-297 0 -297 328v770h127v-749q0 -240 201 -240q104 0 225 61t199 127v801h127v-1075h-127z" glyph-name="u" unicode="u"/><glyph d="M625 0h-125l-434 1075h141l354 -938l354 938h144z" glyph-name="v" horiz-adv-x="1122" unicode="v"/><glyph d="M1104 0l-279 920l-278 -920h-131l-340 1075h137l270 -936l279 936h127l276 -936l273 936h135l-340 -1075h-129z" glyph-name="w" horiz-adv-x="1648" unicode="w"/><glyph d="M582 621l348 454h157l-434 -534l459 -541h-162l-370 463l-367 -463h-162l457 541l-434 534h155z" glyph-name="x" horiz-adv-x="1161" unicode="x"/><glyph d="M66 1075h141l354 -921l354 921h144l-608 -1493h-142l189 424z" glyph-name="y" horiz-adv-x="1122" unicode="y"/><glyph d="M94 0v104l670 861h-649v110h805v-104l-666 -860h666v-111h-826z" glyph-name="z" horiz-adv-x="1021" unicode="z"/><glyph d="M68 647v131q236 0 198 258l-26 191q-31 235 81 363t373 128h37v-100h-37q-362 0 -319 -365l28 -194q37 -291 -196 -346q233 -57 196 -346l-28 -195q-43 -365 319 -365h37v-100h-37q-262 0 -374 128t-80 364l26 190q38 258 -198 258z" glyph-name="braceleft" horiz-adv-x="806" unicode="{"/><glyph d="M301 -252h-106v1927h106v-1927z" glyph-name="bar" horiz-adv-x="497" unicode="|"/><glyph d="M739 778v-131q-233 0 -196 -258l24 -190q33 -236 -79 -364t-373 -128h-39v100h39q365 0 315 365l-27 195q-39 289 197 346q-236 55 -197 346l27 194q51 365 -315 365h-39v100h39q263 0 373 -128t77 -363l-24 -191q-38 -258 198 -258z" glyph-name="braceright" horiz-adv-x="806" unicode="}"/><glyph d="M375 694q104 0 261 -76t241 -75q121 0 194 137l94 -39q-102 -217 -299 -217q-104 0 -262 76t-226 76t-115 -29q-46 -29 -93 -109l-96 37q104 219 301 219z" glyph-name="asciitilde" horiz-adv-x="1243" unicode="~"/><glyph glyph-name="uni00A0" horiz-adv-x="583" unicode=" "/><glyph d="M307 1016l35 -1016h-154l35 1016h84zM186 1223v211h162v-211h-162z" glyph-name="exclamdown" horiz-adv-x="532" unicode="¡"/><glyph d="M268 718q0 -192 85 -312t214 -136v893q-129 -12 -214 -133q-85 -120 -85 -312zM672 0h-105v158q-182 10 -307 157t-125 403t125 403q125 146 307 157v156h105v-164q133 -23 342 -152l-66 -94q-4 2 -44 27q-117 73 -232 104v-876q105 26 242 111q32 19 34 22l66 -95 q-2 -2 -28 -17t-83 -49q-115 -69 -231 -87v-164z" glyph-name="cent" horiz-adv-x="1142" unicode="¢"/><glyph d="M158 537v100h217q-14 68 -104 213q-89 145 -89 260q0 154 108 250t288 96t432 -135l-70 -96q-223 115 -353 115t-201 -72q-71 -70 -71 -166t88 -236t105 -229h338v-100h-334q-6 -129 -75 -245t-130 -175h678v-117h-850v98q27 21 76 75t82 102t60 120q28 72 32 142h-227z " glyph-name="sterling" horiz-adv-x="1124" unicode="£"/><glyph d="M199 616v99h315l-436 719h149l445 -764l442 764h150l-439 -719h318v-99h-377l-29 -49v-110h406v-99h-406v-358h-133v358h-405v99h405v110l-31 49h-374z" glyph-name="yen" horiz-adv-x="1343" unicode="¥"/><glyph d="M303 -252h-106v846h106v-846zM303 829h-106v846h106v-846z" glyph-name="brokenbar" horiz-adv-x="501" unicode="¦"/><glyph d="M254 688q0 -108 131 -169q54 -25 125 -46q71 -20 74 -20l32 -11q104 6 174 52t70 128q0 83 -82 138t-250 96l-34 8q-104 -6 -172 -52t-68 -124zM129 676q0 186 213 244q-170 84 -170 249q0 135 102 211t278 76t384 -106l-59 -93q-184 92 -342 93q-105 0 -173 -46 t-67 -126q1 -54 21 -77t31 -37t37 -26q26 -14 38 -21t45 -17t72 -24q39 -13 55 -13q199 -53 295 -129t96 -199q0 -190 -215 -248q170 -84 170 -248q0 -135 -102 -211t-276 -76t-388 107l62 92q188 -92 342 -92q102 0 168 46t67 124q0 78 -68 131q-41 32 -104 50 q-62 18 -123 34q-195 51 -292 129t-97 203z" glyph-name="section" horiz-adv-x="1112" unicode="§"/><glyph d="M326 1251v176h145v-176h-145zM-10 1251v176h147v-176h-147z" glyph-name="dieresis" horiz-adv-x="462" unicode="¨"/><glyph d="M219 717q0 -289 172 -475t476 -186q303 0 477 186t174 475t-173 475t-477 186t-477 -186q-172 -186 -172 -475zM137 717q0 323 195 531q194 208 536 208t536 -209t194 -531t-194 -530q-194 -209 -536 -209t-536 209t-195 531zM604 716q0 -161 70 -257q70 -97 192 -97 t267 107l63 -72q-180 -127 -337 -127t-259 117t-102 329t102 328t259 117q157 0 337 -127l-63 -73q-141 111 -265 111t-194 -98q-70 -97 -70 -258z" glyph-name="copyright" horiz-adv-x="1734" unicode="©"/><glyph d="M377 860q115 0 227 94v142q-14 2 -81 15t-122 13q-168 0 -168 -139q1 -125 144 -125zM604 788v86q-115 -100 -254 -100q-92 0 -159 51t-67 155t67 159q67 53 169 53q55 0 244 -35v72q0 71 -32 103t-110 32t-253 -53l-37 75q188 61 301 62q236 0 236 -215v-445h-105z" glyph-name="ordfeminine" horiz-adv-x="872" unicode="ª"/><glyph d="M647 623l627 460v-137l-504 -368l504 -369v-135l-627 461v88zM84 623l627 460v-137l-504 -368l504 -369v-135l-627 461v88z" glyph-name="guillemotleft" horiz-adv-x="1406" unicode="«"/><glyph d="M1206 184h-121v445h-1050v106h1171v-551z" glyph-name="logicalnot" horiz-adv-x="1243" unicode="¬"/><glyph d="M575 1061q72 0 72 56t-67 57h-125v-113h120zM717 1122q0 -47 -29 -79t-74 -42l97 -178h-76l-90 174h-90v-174h-68v412h191q63 0 101 -33t38 -80zM207 1024q0 -152 85 -247t247 -95q161 0 245 95t84 247t-84 247t-246 95t-246 -95q-85 -95 -85 -247zM133 1024 q0 178 109 294t297 116t296 -116q107 -116 107 -294t-108 -294t-295 -116q-188 0 -297 116t-109 294z" glyph-name="registered" horiz-adv-x="1075" unicode="®"/><glyph d="M0 1282v94h588v-94h-588z" glyph-name="macron" horiz-adv-x="587" unicode="¯"/><glyph d="M211 1100q0 -100 71 -172t172 -72t172 72t70 172q0 100 -70 171q-71 71 -171 71t-172 -72q-72 -70 -72 -170zM119 1100q0 137 98 235q97 99 237 99t237 -98t97 -237t-98 -237t-236 -98t-237 99q-98 100 -98 237z" glyph-name="degree" horiz-adv-x="907" unicode="°"/><glyph d="M113 0v100h1020v-100h-1020zM561 1077h111v-346h461v-106h-461v-351h-111v351h-448v106h448v346z" glyph-name="plusminus" horiz-adv-x="1243" unicode="±"/><glyph d="M692 881v-93h-606v70q0 80 44 148t82 96q101 76 163 110q73 47 107 73t66 68t32 93t-48 88t-129 37q-131 0 -239 -78l-53 72q147 98 287 98t216 -61t76 -162q0 -60 -18 -91t-28 -47t-35 -40q-26 -23 -37 -34t-46 -34t-44 -30q-9 -6 -50 -32t-91 -58q-130 -82 -130 -193 h481z" glyph-name="uni00B2" horiz-adv-x="792" unicode="²"/><glyph d="M555 1444q-1 128 -183 127q-92 0 -210 -72l-47 70q57 44 138 69q81 24 148 25q125 0 195 -58t70 -133q0 -150 -172 -208q92 -23 151 -85q59 -61 59 -157t-79 -172t-239 -76t-314 90l53 78q119 -76 258 -76q92 0 153 45q60 45 60 128t-89 127t-198 44h-43v95h49 q96 -1 168 37t72 102z" glyph-name="uni00B3" horiz-adv-x="798" unicode="³"/><glyph d="M98 1231h-110l250 262h196z" glyph-name="acute" horiz-adv-x="423" unicode="´"/><glyph d="M195 -418v1493h127v-770q8 -219 200 -219q106 0 226 61t198 127v801h129v-1075h-129v158q-238 -180 -452 -181q-104 0 -172 39v-434h-127z" glyph-name="uni00B5" unicode="µ"/><glyph d="M940 -381v1815h121v-1815h-121zM580 1434h116v-1813h-121v961q-227 0 -358 110t-131 316q0 426 494 426z" glyph-name="paragraph" horiz-adv-x="1271" unicode="¶"/><glyph d="M166 475v215h162v-215h-162z" glyph-name="periodcentered" horiz-adv-x="493" unicode="·"/><glyph d="M139 -250q119 0 119 100q0 68 -49 134l-14 20h71q84 -84 84 -172t-55 -132t-138 -44t-161 37l37 86q59 -29 106 -29z" glyph-name="cedilla" horiz-adv-x="346" unicode="¸"/><glyph d="M371 788h-111v752l-160 -80l-49 74l217 115h103v-861z" glyph-name="uni00B9" horiz-adv-x="512" unicode="¹"/><glyph d="M444 860q211 0 211 251t-211 251t-211 -251t211 -251zM762 1111q0 -159 -82 -248t-236 -89t-236 89t-81 248q0 159 82 248q81 89 235 89t236 -89t82 -248z" glyph-name="ordmasculine" horiz-adv-x="888" unicode="º"/><glyph d="M1323 623v-88l-627 -461v135l504 369l-504 368v135zM760 535l-627 -461v135l502 369l-502 368v135l627 -458v-88z" glyph-name="guillemotright" horiz-adv-x="1406" unicode="»"/><glyph d="M1284 281v485l-352 -485h352zM389 573h-110v752l-160 -80l-49 74l217 115h102v-861zM1120 1434l-686 -1434h-115l685 1434h116zM1284 0v190h-467v80l432 590h146v-579h139v-91h-139v-190h-111z" glyph-name="onequarter" horiz-adv-x="1624" unicode="¼"/><glyph d="M1559 92v-92h-605v70q0 122 84 202q69 66 132 106t103 66q175 112 175 205q0 59 -47 96t-131 37q-129 0 -238 -77l-53 71q147 98 287 98t217 -61q76 -61 76 -159t-60 -159q-60 -62 -105 -91q-44 -29 -137 -87t-137 -107q-43 -48 -43 -118h482zM1120 1434l-686 -1434h-115 l685 1434h116zM389 573h-110v752l-160 -80l-49 74l217 115h102v-861z" glyph-name="onehalf" horiz-adv-x="1683" unicode="½"/><glyph d="M1530 281v485l-350 -485h350zM1366 1434l-686 -1434h-115l686 1434h115zM394 651q112 0 172 45t60 128t-87 127q-88 44 -197 44h-43v95h49q96 0 167 38t71 100q0 128 -166 128q-109 0 -227 -72l-48 70q123 94 269 94t214 -59t68 -133q-1 -151 -172 -207q94 -23 154 -85 t59 -158q0 -96 -80 -171q-81 -76 -241 -76t-314 90l54 78q126 -76 238 -76zM1061 190v80l436 590h141v-579h140v-91h-140v-190h-108v190h-469z" glyph-name="threequarters" horiz-adv-x="1865" unicode="¾"/><glyph d="M686 1434v-211h-162v211h162zM102 317q0 297 441 410l12 289h100l15 -365q-213 -47 -323 -120q-109 -73 -109 -193t80 -182t224 -62q142 0 345 123l67 -92q-211 -147 -444 -148q-166 0 -287 89t-121 251z" glyph-name="questiondown" horiz-adv-x="1030" unicode="¿"/><glyph d="M840 1540h-109l-338 262h197zM694 1305l-305 -818h612zM1184 0l-140 373h-698l-139 -373h-144l562 1434h141l561 -1434h-143z" glyph-name="Agrave" horiz-adv-x="1388" unicode="À"/><glyph d="M662 1540h-111l250 262h196zM694 1305l-305 -818h612zM1184 0l-140 373h-698l-139 -373h-144l562 1434h141l561 -1434h-143z" glyph-name="Aacute" horiz-adv-x="1388" unicode="Á"/><glyph d="M778 1802l201 -262h-102l-181 184l-180 -184h-102l196 262h168zM694 1305l-305 -818h612zM1184 0l-140 373h-698l-139 -373h-144l562 1434h141l561 -1434h-143z" glyph-name="Acircumflex" horiz-adv-x="1388" unicode="Â"/><glyph d="M567 1755q57 0 141 -49t110 -49q28 0 50 18t52 76l79 -33q-41 -80 -79 -120t-96 -40t-141 51q-83 50 -111 50q-28 -1 -49 -19t-54 -75l-78 32q43 82 81 120t95 38zM694 1305l-305 -818h612zM1184 0l-140 373h-698l-139 -373h-144l562 1434h141l561 -1434h-143z" glyph-name="Atilde" horiz-adv-x="1388" unicode="Ã"/><glyph d="M791 1563v174h145v-174h-145zM455 1563v174h147v-174h-147zM694 1305l-305 -818h612zM1184 0l-140 373h-698l-139 -373h-144l562 1434h141l561 -1434h-143z" glyph-name="Adieresis" horiz-adv-x="1388" unicode="Ä"/><glyph d="M573 1726q0 -53 36 -88q36 -34 89 -34t89 36t36 87t-36 89t-89 38t-89 -38q-36 -37 -36 -90zM492 1727q0 87 59 147t146 61q87 0 147 -60q60 -59 61 -147q0 -88 -60 -148q-59 -60 -147 -60t-147 60t-59 147zM694 1305l-305 -818h612zM1184 0l-140 373h-698l-139 -373 h-144l562 1434h141l561 -1434h-143z" glyph-name="Aring" horiz-adv-x="1388" unicode="Å"/><glyph d="M1014 487v789l-535 -789h535zM1905 0h-891v373h-613l-251 -373h-156l991 1434h905v-117h-741v-543h616v-115h-616v-542h756v-117z" glyph-name="AE" horiz-adv-x="2025" unicode="Æ"/><glyph d="M598 -250q119 0 119 100q0 59 -43 127q-231 11 -382 195t-151 549t159 550t389 185t538 -211l-74 -96q-271 186 -455 186t-301 -165q-117 -166 -117 -454t118 -453q116 -165 299 -165t456 187l74 -97q-279 -190 -479 -208q63 -80 63 -158t-55 -122t-141 -44t-158 37 l35 86q59 -29 106 -29z" glyph-name="Ccedilla" horiz-adv-x="1320" unicode="Ç"/><glyph d="M801 1540h-111l-336 262h195zM1098 0h-887v1434h874v-117h-741v-543h614v-115h-614v-542h754v-117z" glyph-name="Egrave" horiz-adv-x="1218" unicode="È"/><glyph d="M621 1540h-109l248 262h196zM1098 0h-887v1434h874v-117h-741v-543h614v-115h-614v-542h754v-117z" glyph-name="Eacute" horiz-adv-x="1218" unicode="É"/><glyph d="M737 1802l201 -262h-104l-181 184l-178 -184h-102l198 262h166zM1098 0h-887v1434h874v-117h-741v-543h614v-115h-614v-542h754v-117z" glyph-name="Ecircumflex" horiz-adv-x="1218" unicode="Ê"/><glyph d="M750 1561v176h145v-176h-145zM414 1561v176h147v-176h-147zM1098 0h-887v1434h874v-117h-741v-543h614v-115h-614v-542h754v-117z" glyph-name="Edieresis" horiz-adv-x="1218" unicode="Ë"/><glyph d="M422 1540h-111l-336 262h195zM342 0h-133v1434h133v-1434z" glyph-name="Igrave" horiz-adv-x="555" unicode="Ì"/><glyph d="M246 1540h-111l250 262h197zM346 0h-133v1434h133v-1434z" glyph-name="Iacute" horiz-adv-x="555" unicode="Í"/><glyph d="M360 1802l201 -262h-102l-180 184l-179 -184h-104l201 262h163zM346 0h-135v1434h135v-1434z" glyph-name="Icircumflex" horiz-adv-x="555" unicode="Î"/><glyph d="M375 1561v176h145v-176h-145zM37 1561v176h147v-176h-147zM346 0h-135v1434h135v-1434z" glyph-name="Idieresis" horiz-adv-x="555" unicode="Ï"/><glyph d="M1163 717q0 309 -126 454t-400 146h-281v-543h359v-115h-359v-542h281q274 -1 400 145t126 455zM1303 717q0 -717 -662 -717h-418v659h-155v115h155v660h418q662 0 662 -717z" glyph-name="Eth" horiz-adv-x="1441" unicode="Ð"/><glyph d="M626 1759q58 0 141 -50t111 -50t50 18t53 76l78 -33q-41 -80 -80 -120t-96 -39q-57 0 -141 50t-110 50q-28 -1 -50 -19t-54 -75l-77 32q43 82 80 121t95 39zM1141 1434h133v-1434h-139l-791 1235v-1235h-133v1434h139l791 -1235v1235z" glyph-name="Ntilde" horiz-adv-x="1484" unicode="Ñ"/><glyph d="M895 1540h-109l-335 262h194zM752 96q260 0 367 176q106 176 106 452t-112 444q-111 168 -361 169q-250 0 -361 -169t-110 -451q0 -621 471 -621zM752 1456q462 0 576 -451q34 -130 34 -288q0 -314 -137 -520q-70 -103 -191 -161q-120 -58 -282 -58t-283 56 q-121 58 -191 162t-103 234q-34 129 -34 287t34 288q75 288 294 394q121 57 283 57z" glyph-name="Ograve" horiz-adv-x="1503" unicode="Ò"/><glyph d="M717 1540h-111l250 262h197zM752 96q260 0 367 176q106 176 106 452t-112 444q-111 168 -361 169q-250 0 -361 -169t-110 -451q0 -621 471 -621zM752 1456q462 0 576 -451q34 -130 34 -288q0 -314 -137 -520q-70 -103 -191 -161q-120 -58 -282 -58t-283 56 q-121 58 -191 162t-103 234q-34 129 -34 287t34 288q75 288 294 394q121 57 283 57z" glyph-name="Oacute" horiz-adv-x="1503" unicode="Ó"/><glyph d="M834 1802l200 -262h-102l-180 184l-179 -184h-104l199 262h166zM752 96q260 0 367 176q106 176 106 452t-112 444q-111 168 -361 169q-250 0 -361 -169t-110 -451q0 -621 471 -621zM752 1456q462 0 576 -451q34 -130 34 -288q0 -314 -137 -520q-70 -103 -191 -161 q-120 -58 -282 -58t-283 56q-121 58 -191 162t-103 234q-34 129 -34 287t34 288q75 288 294 394q121 57 283 57z" glyph-name="Ocircumflex" horiz-adv-x="1503" unicode="Ô"/><glyph d="M622 1755q58 0 141 -49t111 -49t49 17q22 17 54 77l78 -33q-41 -80 -80 -120q-80 -82 -237 11q-82 50 -110 50q-28 -1 -50 -19t-54 -75l-78 32q43 82 81 120q37 38 95 38zM752 96q260 0 367 176q106 176 106 452t-112 444q-111 168 -361 169q-250 0 -361 -169t-110 -451 q0 -621 471 -621zM752 1456q462 0 576 -451q34 -130 34 -288q0 -314 -137 -520q-70 -103 -191 -161q-120 -58 -282 -58t-283 56q-121 58 -191 162t-103 234q-34 129 -34 287t34 288q75 288 294 394q121 57 283 57z" glyph-name="Otilde" horiz-adv-x="1503" unicode="Õ"/><glyph d="M846 1561v176h145v-176h-145zM510 1561v176h147v-176h-147zM752 96q260 0 367 176q106 176 106 452t-112 444q-111 168 -361 169q-250 0 -361 -169t-110 -451q0 -621 471 -621zM752 1456q462 0 576 -451q34 -130 34 -288q0 -314 -137 -520q-70 -103 -191 -161 q-120 -58 -282 -58t-283 56q-121 58 -191 162t-103 234q-34 129 -34 287t34 288q75 288 294 394q121 57 283 57z" glyph-name="Odieresis" horiz-adv-x="1503" unicode="Ö"/><glyph d="M1020 969l-318 -285l320 -287l-76 -73l-323 288l-320 -286l-78 75l316 285l-320 287l76 78l324 -293l321 289z" glyph-name="multiply" horiz-adv-x="1243" unicode="×"/><glyph d="M279 714q0 -273 96 -427l688 936q-119 115 -313 114q-258 0 -364 -175q-107 -175 -107 -448zM750 96q260 0 367 176q106 176 106 446q0 271 -99 427l-688 -934q115 -115 314 -115zM293 174q-154 195 -154 527t137 537q70 102 191 160t283 58q240 0 391 -129l78 107h118 l-129 -177q152 -193 152 -523t-137 -537q-70 -103 -191 -161t-282 -59q-244 0 -392 129l-77 -106h-117z" glyph-name="Oslash" horiz-adv-x="1497" unicode="Ø"/><glyph d="M862 1540h-108l-336 262h194zM1235 1434v-928q0 -528 -516 -529q-520 0 -520 529v928h133v-928q0 -194 83 -302t302 -108t302 109t83 301v928h133z" glyph-name="Ugrave" horiz-adv-x="1433" unicode="Ù"/><glyph d="M682 1540h-109l250 262h197zM1235 1434v-928q0 -528 -516 -529q-520 0 -520 529v928h133v-928q0 -194 83 -302t302 -108t302 109t83 301v928h133z" glyph-name="Uacute" horiz-adv-x="1433" unicode="Ú"/><glyph d="M801 1802l200 -262h-102l-180 184l-180 -184h-103l197 262h168zM1235 1434v-928q0 -528 -516 -529q-520 0 -520 529v928h133v-928q0 -194 83 -302t302 -108t302 109t83 301v928h133z" glyph-name="Ucircumflex" horiz-adv-x="1431" unicode="Û"/><glyph d="M811 1561v176h147v-176h-147zM475 1561v176h146v-176h-146zM1235 1434v-928q0 -528 -516 -529q-520 0 -520 529v928h133v-928q0 -194 83 -302t302 -108t302 109t83 301v928h133z" glyph-name="Udieresis" horiz-adv-x="1433" unicode="Ü"/><glyph d="M604 1540h-108l249 262h197zM573 0v567l-526 867h150l444 -764l442 764h150l-526 -867v-567h-134z" glyph-name="Yacute" horiz-adv-x="1282" unicode="Ý"/><glyph d="M1081 743q0 309 -381 310h-356v-627h356q381 0 381 317zM1219 743q0 -434 -521 -434h-354v-309h-133v1434h133v-265h354q521 0 521 -426z" glyph-name="Thorn" horiz-adv-x="1331" unicode="Þ"/><glyph d="M653 1456q219 0 346 -101t127 -354v-10l-104 -67q-121 70 -252 69q-86 0 -142 -47q-56 -48 -56 -112t20 -100t66 -63t107 -46q60 -19 66 -21q170 -51 255 -128t85 -214t-96 -211t-237 -74q-205 0 -412 129l57 95q190 -119 342 -119q90 0 155 48q64 48 64 140 q-1 137 -211 205q-137 44 -182 63t-98 55q-107 73 -107 213t90 216t214 76q122 0 247 -45q-12 163 -100 229t-250 66t-251 -76t-89 -268v-1004h-127v999q0 253 127 355t346 102z" glyph-name="germandbls" horiz-adv-x="1273" unicode="ß"/><glyph d="M735 1231h-110l-336 262h196zM485 90q197 0 385 170v264q-14 2 -129 26t-217 25q-152 -1 -218 -71t-66 -186t66 -172t179 -56zM870 0v147q-188 -170 -409 -170q-134 0 -238 73q-53 38 -85 107t-32 160q0 175 106 265t261 90q99 0 245 -30t152 -32v135q0 127 -52 187 t-184 59q-132 0 -405 -96l-49 100q276 102 463 103q354 0 354 -340v-758h-127z" glyph-name="agrave" horiz-adv-x="1167" unicode="à"/><glyph d="M555 1231h-109l248 262h199zM485 90q197 0 385 170v264q-14 2 -129 26t-217 25q-152 -1 -218 -71t-66 -186t66 -172t179 -56zM870 0v147q-188 -170 -409 -170q-134 0 -238 73q-53 38 -85 107t-32 160q0 175 106 265t261 90q99 0 245 -30t152 -32v135q0 127 -52 187 t-184 59q-132 0 -405 -96l-49 100q276 102 463 103q354 0 354 -340v-758h-127z" glyph-name="aacute" horiz-adv-x="1167" unicode="á"/><glyph d="M674 1493l198 -262h-104l-180 184l-178 -184h-103l199 262h168zM485 90q197 0 385 170v264q-14 2 -129 26t-217 25q-152 -1 -218 -71t-66 -186t66 -172t179 -56zM870 0v147q-188 -170 -409 -170q-134 0 -238 73q-53 38 -85 107t-32 160q0 175 106 265t261 90 q99 0 245 -30t152 -32v135q0 127 -52 187t-184 59q-132 0 -405 -96l-49 100q276 102 463 103q354 0 354 -340v-758h-127z" glyph-name="acircumflex" horiz-adv-x="1167" unicode="â"/><glyph d="M461 1446q57 0 140 -49t111 -49t50 17t53 77l78 -33q-41 -80 -80 -120t-96 -40t-140 50q-83 51 -111 51t-50 -19t-54 -76l-77 33q43 82 81 120t95 38zM485 90q197 0 385 170v264q-14 2 -129 26t-217 25q-152 -1 -218 -71t-66 -186t66 -172t179 -56zM870 0v147 q-188 -170 -409 -170q-134 0 -238 73q-53 38 -85 107t-32 160q0 175 106 265t261 90q99 0 245 -30t152 -32v135q0 127 -52 187t-184 59q-132 0 -405 -96l-49 100q276 102 463 103q354 0 354 -340v-758h-127z" glyph-name="atilde" horiz-adv-x="1167" unicode="ã"/><glyph d="M684 1251v176h145v-176h-145zM348 1251v176h148v-176h-148zM485 90q197 0 385 170v264q-14 2 -129 26t-217 25q-152 -1 -218 -71t-66 -186t66 -172t179 -56zM870 0v147q-188 -170 -409 -170q-134 0 -238 73q-53 38 -85 107t-32 160q0 175 106 265t261 90q99 0 245 -30 t152 -32v135q0 127 -52 187t-184 59q-132 0 -405 -96l-49 100q276 102 463 103q354 0 354 -340v-758h-127z" glyph-name="adieresis" horiz-adv-x="1167" unicode="ä"/><glyph d="M465 1417q0 -53 36 -88t89 -35t89 36t36 88t-36 89t-89 37t-89 -37t-36 -90zM383 1418q0 88 59 148q58 60 146 60t148 -60t60 -148t-60 -147q-60 -61 -147 -61t-147 60t-59 148zM485 90q197 0 385 170v264q-14 2 -129 26t-217 25q-152 -1 -218 -71t-66 -186t66 -172 t179 -56zM870 0v147q-188 -170 -409 -170q-134 0 -238 73q-53 38 -85 107t-32 160q0 175 106 265t261 90q99 0 245 -30t152 -32v135q0 127 -52 187t-184 59q-132 0 -405 -96l-49 100q276 102 463 103q354 0 354 -340v-758h-127z" glyph-name="aring" horiz-adv-x="1167" unicode="å"/><glyph d="M1313 993q-152 -1 -244 -109t-104 -290h661q13 399 -313 399zM524 575q-152 -1 -218 -71t-66 -186t66 -172q67 -56 179 -56q199 0 389 182q-43 106 -45 238q-14 4 -66 19q-159 46 -239 46zM1300 84q148 0 398 149l67 -88q-80 -49 -129 -75t-152 -59q-103 -34 -196 -34 q-248 0 -375 213q-205 -213 -452 -213q-134 0 -238 73q-53 38 -85 107t-32 160q0 175 106 265t261 90q109 0 358 -70q6 104 37 184q-8 106 -61 156t-179 49q-126 0 -399 -96l-49 100q276 102 463 103q238 0 315 -154q130 154 350 154t336 -128t115 -335q0 -77 -14 -133h-782 q8 -190 99 -304q90 -114 238 -114z" glyph-name="ae" horiz-adv-x="1882" unicode="æ"/><glyph d="M346 213q94 -123 235 -123t332 127l64 -96q-211 -129 -369 -141q64 -80 64 -158t-56 -122t-139 -44q-84 0 -160 37l37 86q59 -29 107 -29q119 0 119 100q0 59 -45 130q-176 16 -296 162t-120 404t133 404q133 147 323 148q62 0 101 -10t75 -20q65 -17 142 -64 q78 -47 84 -50l-64 -96q-4 2 -66 39t-136 62q-75 26 -131 26q-140 0 -234 -122q-94 -123 -94 -325t94 -325z" glyph-name="ccedilla" horiz-adv-x="1069" unicode="ç"/><glyph d="M750 1231h-109l-338 262h199zM604 993q-152 -1 -244 -109t-104 -290h662q8 399 -314 399zM594 84q150 0 393 149l68 -88q-57 -33 -73 -42q-211 -123 -405 -124q-194 -3 -326 145t-132 414t136 412q136 148 349 148t328 -128t115 -335l-11 -133h-782q8 -190 99 -304 t241 -114z" glyph-name="egrave" horiz-adv-x="1171" unicode="è"/><glyph d="M571 1231h-108l246 262h200zM604 993q-152 -1 -244 -109t-104 -290h662q8 399 -314 399zM594 84q150 0 393 149l68 -88q-57 -33 -73 -42q-211 -123 -405 -124q-194 -3 -326 145t-132 414t136 412q136 148 349 148t328 -128t115 -335l-11 -133h-782q8 -190 99 -304 t241 -114z" glyph-name="eacute" horiz-adv-x="1171" unicode="é"/><glyph d="M688 1493l201 -262h-105l-180 184l-178 -184h-102l198 262h166zM604 993q-152 -1 -244 -109t-104 -290h662q8 399 -314 399zM594 84q150 0 393 149l68 -88q-57 -33 -73 -42q-211 -123 -405 -124q-194 -3 -326 145t-132 414t136 412q136 148 349 148t328 -128t115 -335 l-11 -133h-782q8 -190 99 -304t241 -114z" glyph-name="ecircumflex" horiz-adv-x="1171" unicode="ê"/><glyph d="M700 1251v176h146v-176h-146zM365 1251v176h147v-176h-147zM604 993q-152 -1 -244 -109t-104 -290h662q8 399 -314 399zM594 84q150 0 393 149l68 -88q-57 -33 -73 -42q-211 -123 -405 -124q-194 -3 -326 145t-132 414t136 412q136 148 349 148t328 -128t115 -335 l-11 -133h-782q8 -190 99 -304t241 -114z" glyph-name="edieresis" horiz-adv-x="1171" unicode="ë"/><glyph d="M389 1231h-108l-338 262h196zM309 0h-129v1075h129v-1075z" glyph-name="igrave" horiz-adv-x="487" unicode="ì"/><glyph d="M211 1231h-111l250 262h197zM307 0h-127v1075h127v-1075z" glyph-name="iacute" horiz-adv-x="487" unicode="í"/><glyph d="M326 1493l200 -262h-102l-180 184l-178 -184h-105l199 262h166zM307 0h-127v1075h127v-1075z" glyph-name="icircumflex" horiz-adv-x="487" unicode="î"/><glyph d="M338 1251v176h147v-176h-147zM2 1251v176h148v-176h-148zM307 0h-127v1075h127v-1075z" glyph-name="idieresis" horiz-adv-x="487" unicode="ï"/><glyph d="M977 478q0 184 -93 286q-94 102 -268 102t-268 -108t-94 -285q0 -179 95 -283t265 -104t267 103q96 104 96 289zM405 1325q-66 0 -147 -18l-27 102q74 25 184 25t216 -39l131 98h153l-188 -141q179 -98 281 -304t102 -477q0 -332 -143 -463t-362 -131q-218 -1 -351 135 t-133 362t128 364t339 137q152 0 243 -56q92 -56 119 -96l13 -16q-33 145 -119 275t-219 194l-150 -111h-149l196 148q-51 12 -117 12z" glyph-name="eth" horiz-adv-x="1234" unicode="ð"/><glyph d="M490 1430q58 0 140 -50t110 -51q28 1 51 19t53 75l78 -32q-39 -80 -79 -120q-39 -40 -97 -40t-141 50t-111 50q-50 0 -101 -94l-80 33q43 82 81 121t96 39zM307 1075v-160q242 182 453 183q299 0 299 -328v-770h-127v750q0 240 -201 239q-109 0 -231 -62t-193 -128v-799 h-127v1075h127z" glyph-name="ntilde" unicode="ñ"/><glyph d="M754 1231h-109l-338 262h195zM967 537q0 213 -88 333q-89 120 -271 119q-182 0 -269 -120t-87 -332q0 -451 356 -451q182 0 271 119q88 119 88 332zM1098 537q0 -263 -127 -411t-364 -148t-363 148t-125 412q0 264 127 411q126 149 362 149t363 -150t127 -411z" glyph-name="ograve" horiz-adv-x="1218" unicode="ò"/><glyph d="M575 1231h-110l248 262h196zM967 537q0 213 -88 333q-89 120 -271 119q-182 0 -269 -120t-87 -332q0 -451 356 -451q182 0 271 119q88 119 88 332zM1098 537q0 -263 -127 -411t-364 -148t-363 148t-125 412q0 264 127 411q126 149 362 149t363 -150t127 -411z" glyph-name="oacute" horiz-adv-x="1218" unicode="ó"/><glyph d="M692 1493l201 -262h-105l-180 184l-178 -184h-102l198 262h166zM967 537q0 213 -88 333q-89 120 -271 119q-182 0 -269 -120t-87 -332q0 -451 356 -451q182 0 271 119q88 119 88 332zM1098 537q0 -263 -127 -411t-364 -148t-363 148t-125 412q0 264 127 411 q126 149 362 149t363 -150t127 -411z" glyph-name="ocircumflex" horiz-adv-x="1218" unicode="ô"/><glyph d="M469 1444q55 0 143 -43t119 -43t53 14t50 66l77 -29q-39 -80 -75 -120t-90 -40t-142 43t-120 43q-32 1 -53 -15t-48 -65l-78 29q41 84 75 122t89 38zM967 537q0 213 -88 333q-89 120 -271 119q-182 0 -269 -120t-87 -332q0 -451 356 -451q182 0 271 119q88 119 88 332z M1098 537q0 -263 -127 -411t-364 -148t-363 148t-125 412q0 264 127 411q126 149 362 149t363 -150t127 -411z" glyph-name="otilde" horiz-adv-x="1218" unicode="õ"/><glyph d="M705 1251v176h145v-176h-145zM369 1251v176h147v-176h-147zM967 537q0 213 -88 333q-89 120 -271 119q-182 0 -269 -120t-87 -332q0 -451 356 -451q182 0 271 119q88 119 88 332zM1098 537q0 -263 -127 -411t-364 -148t-363 148t-125 412q0 264 127 411q126 149 362 149 t363 -150t127 -411z" glyph-name="odieresis" horiz-adv-x="1218" unicode="ö"/><glyph d="M514 342q0 41 33 72q33 30 77 30t76 -30t33 -72q0 -41 -33 -71q-32 -29 -76 -29t-77 30t-33 70zM514 1024q0 41 33 71q33 29 77 29t76 -30t33 -70q0 -41 -33 -72q-32 -30 -76 -30t-77 30t-33 72zM113 629v106h1020v-106h-1020z" glyph-name="divide" horiz-adv-x="1243" unicode="÷"/><glyph d="M608 989q-184 1 -271 -119t-87 -324t67 -313l521 678q-90 78 -230 78zM965 537q0 190 -70 305l-518 -680q86 -76 231 -76q357 0 357 451zM1098 536q0 -262 -127 -410t-363 -149q-184 0 -303 91l-53 -68h-113l101 131q-123 143 -123 405t127 412t364 150q180 0 301 -92 l54 69h110l-100 -131q125 -147 125 -408z" glyph-name="oslash" horiz-adv-x="1214" unicode="ø"/><glyph d="M756 1231h-109l-338 262h195zM924 0v158q-238 -180 -455 -181q-297 0 -297 328v770h127v-749q0 -240 201 -240q104 0 225 61t199 127v801h127v-1075h-127z" glyph-name="ugrave" unicode="ù"/><glyph d="M575 1231h-110l250 262h196zM924 0v158q-238 -180 -455 -181q-297 0 -297 328v770h127v-749q0 -240 201 -240q104 0 225 61t199 127v801h127v-1075h-127z" glyph-name="uacute" unicode="ú"/><glyph d="M692 1493l201 -262h-102l-181 184l-178 -184h-102l196 262h166zM924 0v158q-238 -180 -455 -181q-297 0 -297 328v770h127v-749q0 -240 201 -240q104 0 225 61t199 127v801h127v-1075h-127z" glyph-name="ucircumflex" unicode="û"/><glyph d="M707 1251v176h145v-176h-145zM369 1251v176h147v-176h-147zM924 0v158q-238 -180 -455 -181q-297 0 -297 328v770h127v-749q0 -240 201 -240q104 0 225 61t199 127v801h127v-1075h-127z" glyph-name="udieresis" unicode="ü"/><glyph d="M528 1231h-110l248 262h196zM66 1075h141l354 -921l354 921h144l-608 -1493h-142l189 424z" glyph-name="yacute" horiz-adv-x="1122" unicode="ý"/><glyph d="M680 987q-211 0 -373 -184v-533q164 -182 373 -182q141 0 215 119t74 331t-74 330t-215 119zM694 -23q-211 0 -387 168v-563h-127v1911h127v-565q177 170 371 170t308 -138t114 -424q0 -284 -114 -422t-292 -137z" glyph-name="thorn" horiz-adv-x="1222" unicode="þ"/><glyph d="M657 1251v176h146v-176h-146zM322 1251v176h147v-176h-147zM66 1075h141l354 -921l354 921h144l-608 -1493h-142l189 424z" glyph-name="ydieresis" horiz-adv-x="1122" unicode="ÿ"/><glyph d="M401 1591v95h588v-95h-588zM694 1305l-305 -818h612zM1184 0l-140 373h-698l-139 -373h-144l562 1434h141l561 -1434h-143z" glyph-name="Amacron" horiz-adv-x="1388" unicode="Ā"/><glyph d="M295 1284v94h588v-94h-588zM485 90q197 0 385 170v264q-14 2 -129 26t-217 25q-152 -1 -218 -71t-66 -186t66 -172t179 -56zM870 0v147q-188 -170 -409 -170q-134 0 -238 73q-53 38 -85 107t-32 160q0 175 106 265t261 90q99 0 245 -30t152 -32v135q0 127 -52 187 t-184 59q-132 0 -405 -96l-49 100q276 102 463 103q354 0 354 -340v-758h-127z" glyph-name="amacron" horiz-adv-x="1167" unicode="ā"/><glyph d="M973 1751q0 -95 -75 -153t-205 -58t-204 56t-73 155h102q0 -117 177 -117t177 117h101zM694 1305l-305 -818h612zM1184 0l-140 373h-698l-139 -373h-144l562 1434h141l561 -1434h-143z" glyph-name="Abreve" horiz-adv-x="1388" unicode="Ă"/><glyph d="M591 1231q-130 0 -204 56t-74 155h101q0 -117 177 -117t177 117h100q0 -98 -73 -155q-74 -56 -204 -56zM485 90q197 0 385 170v264q-14 2 -129 26t-217 25q-152 -1 -218 -71t-66 -186t66 -172t179 -56zM870 0v147q-188 -170 -409 -170q-134 0 -238 73q-53 38 -85 107 t-32 160q0 175 106 265t261 90q99 0 245 -30t152 -32v135q0 127 -52 187t-184 59q-132 0 -405 -96l-49 100q276 102 463 103q354 0 354 -340v-758h-127z" glyph-name="abreve" horiz-adv-x="1167" unicode="ă"/><glyph d="M694 1305l-305 -818h612zM1147 -124q-29 -34 -29 -69t12 -47t25 -24q14 -12 52 -12h77l-20 -91q-258 0 -258 154q0 115 202 213h-24l-140 373h-698l-139 -373h-144l562 1434h141l561 -1434h-6q-48 -24 -66 -38t-48 -33q-31 -19 -60 -53z" glyph-name="Aogonek" horiz-adv-x="1388" unicode="Ą"/><glyph d="M485 90q197 0 385 170v264q-14 2 -129 26t-217 25q-152 -1 -218 -71t-66 -186t66 -172t179 -56zM870 0v147q-188 -170 -409 -170q-134 0 -238 73q-53 38 -85 107t-32 160q0 175 106 265t261 90q99 0 245 -30t152 -32v135q0 127 -52 187t-184 59q-132 0 -405 -96l-49 100 q276 102 463 103q354 0 354 -340v-758h-6q-5 -4 -27 -15t-31 -17t-29 -19q-113 -70 -118 -146q0 -30 17 -48t32 -22q15 -3 23 -5q16 -4 44 -4h50l-18 -91q-260 0 -260 154q0 117 205 213h-9z" glyph-name="aogonek" horiz-adv-x="1167" unicode="ą"/><glyph d="M737 1540h-108l250 262h196zM698 1335q-184 0 -301 -165q-117 -166 -117 -454t118 -453q116 -165 299 -165t456 187l74 -97q-307 -211 -538 -211q-231 -1 -389 185t-159 555q0 369 159 554q160 185 390 185t537 -211l-74 -96q-271 186 -455 186z" glyph-name="Cacute" horiz-adv-x="1320" unicode="Ć"/><glyph d="M545 1231h-111l250 262h197zM346 213q94 -123 235 -123t332 127l64 -96q-238 -143 -415 -143t-310 148t-133 412t133 412q133 147 323 148q62 0 101 -10t75 -20q36 -9 95 -41q60 -31 68 -35t34 -22q27 -16 29 -16l-64 -96q-4 2 -66 39t-136 62q-75 26 -131 26 q-140 0 -234 -122q-94 -123 -94 -325t94 -325z" glyph-name="cacute" horiz-adv-x="1067" unicode="ć"/><glyph d="M633 1561v176h147v-176h-147zM698 1335q-184 0 -301 -165q-117 -166 -117 -454t118 -453q116 -165 299 -165t456 187l74 -97q-307 -211 -538 -211q-231 -1 -389 185t-159 555q0 369 159 554q160 185 390 185t537 -211l-74 -96q-271 186 -455 186z" glyph-name="Cdotaccent" horiz-adv-x="1320" unicode="Ċ"/><glyph d="M506 1253v177h147v-177h-147zM346 213q94 -123 235 -123t332 127l64 -96q-238 -143 -415 -143t-310 148t-133 412t133 412q133 147 323 148q62 0 101 -10t75 -20q36 -9 95 -41q60 -31 68 -35t34 -22q27 -16 29 -16l-64 -96q-4 2 -66 39t-136 62q-75 26 -131 26 q-140 0 -234 -122q-94 -123 -94 -325t94 -325z" glyph-name="cdotaccent" horiz-adv-x="1067" unicode="ċ"/><glyph d="M1010 1802l-201 -262h-166l-199 262h105l178 -182l180 182h103zM698 1335q-184 0 -301 -165q-117 -166 -117 -454t118 -453q116 -165 299 -165t456 187l74 -97q-307 -211 -538 -211q-231 -1 -389 185t-159 555q0 369 159 554q160 185 390 185t537 -211l-74 -96 q-271 186 -455 186z" glyph-name="Ccaron" horiz-adv-x="1320" unicode="Č"/><glyph d="M862 1493l-198 -262h-168l-199 262h102l179 -182l180 182h104zM346 213q94 -123 235 -123t332 127l64 -96q-238 -143 -415 -143t-310 148t-133 412t133 412q133 147 323 148q62 0 101 -10t75 -20q36 -9 95 -41q60 -31 68 -35t34 -22q27 -16 29 -16l-64 -96q-4 2 -66 39 t-136 62q-75 26 -131 26q-140 0 -234 -122q-94 -123 -94 -325t94 -325z" glyph-name="ccaron" horiz-adv-x="1067" unicode="č"/><glyph d="M1036 1802l-200 -262h-168l-199 262h102l179 -182l182 182h104zM1151 717q0 309 -126 454t-398 146h-283v-1200h283q272 -1 398 145t126 455zM1292 717q0 -717 -661 -717h-420v1434h420q661 0 661 -717z" glyph-name="Dcaron" horiz-adv-x="1433" unicode="Ď"/><glyph d="M1169 1311v182h144l22 -186l-131 -222l-47 48l82 178h-70zM543 88q207 0 372 182v533q-166 184 -372 184q-141 0 -215 -119q-74 -118 -74 -330t74 -331t215 -119zM1042 0h-127v145q-179 -168 -373 -168q-194 -1 -308 137t-113 423q-1 285 113 423t306 138t375 -170v565 h127v-1493z" glyph-name="dcaron" horiz-adv-x="1255" unicode="ď"/><glyph d="M1163 717q0 309 -126 454t-400 146h-281v-543h359v-115h-359v-542h281q274 -1 400 145t126 455zM1303 717q0 -717 -662 -717h-418v659h-155v115h155v660h418q662 0 662 -717z" glyph-name="Dcroat" horiz-adv-x="1441" unicode="Đ"/><glyph d="M543 88q207 0 372 182v533q-166 184 -372 184q-141 0 -215 -119q-74 -118 -74 -330t74 -331t215 -119zM569 1227v94h346v172h127v-172h138v-94h-138v-1227h-127v145q-179 -168 -373 -168q-194 -1 -308 137t-113 423q-1 285 113 423t306 138t375 -170v299h-346z" glyph-name="dcroat" horiz-adv-x="1222" unicode="đ"/><glyph d="M360 1591v95h588v-95h-588zM1098 0h-887v1434h874v-117h-741v-543h614v-115h-614v-542h754v-117z" glyph-name="Emacron" horiz-adv-x="1218" unicode="Ē"/><glyph d="M315 1282v94h588v-94h-588zM604 993q-152 -1 -244 -109t-104 -290h662q8 399 -314 399zM594 84q150 0 393 149l68 -88q-57 -33 -73 -42q-211 -123 -405 -124q-194 -3 -326 145t-132 414t136 412q136 148 349 148t328 -128t115 -335l-11 -133h-782q8 -190 99 -304 t241 -114z" glyph-name="emacron" horiz-adv-x="1171" unicode="ē"/><glyph d="M582 1561v176h147v-176h-147zM1098 0h-887v1434h874v-117h-741v-543h614v-115h-614v-542h754v-117z" glyph-name="Edotaccent" horiz-adv-x="1218" unicode="Ė"/><glyph d="M532 1251v176h146v-176h-146zM604 993q-152 -1 -244 -109t-104 -290h662q8 399 -314 399zM594 84q150 0 393 149l68 -88q-57 -33 -73 -42q-211 -123 -405 -124q-194 -3 -326 145t-132 414t136 412q136 148 349 148t328 -128t115 -335l-11 -133h-782q8 -190 99 -304 t241 -114z" glyph-name="edotaccent" horiz-adv-x="1171" unicode="ė"/><glyph d="M936 -108q-45 -42 -45 -86q1 -42 25 -62q24 -19 62 -20h77l-21 -91q-256 0 -256 154q0 117 201 213h-768v1434h874v-117h-741v-543h614v-115h-614v-542h754v-117h-6q-35 -17 -77 -45q-43 -27 -53 -37z" glyph-name="Eogonek" horiz-adv-x="1218" unicode="Ę"/><glyph d="M604 993q-152 -1 -244 -109t-104 -290h662q8 399 -314 399zM530 -197q0 -30 17 -48t32 -22q15 -3 24 -5q18 -4 45 -4h50l-20 -91q-258 0 -258 154q0 102 160 190q-197 -1 -329 147t-132 414t136 412q136 148 349 148t328 -128t115 -335l-11 -133h-782q8 -190 99 -304 t241 -114t393 149l68 -88q-209 -121 -326 -149q-41 -20 -52 -29q-11 -8 -33 -21q-22 -12 -31 -20t-25 -21t-37 -42q-21 -30 -21 -60z" glyph-name="eogonek" horiz-adv-x="1173" unicode="ę"/><glyph d="M938 1784l-201 -260h-166l-198 260h102l178 -182l181 182h104zM1098 0h-887v1434h874v-117h-741v-543h614v-115h-614v-542h754v-117z" glyph-name="Ecaron" horiz-adv-x="1218" unicode="Ě"/><glyph d="M889 1493l-201 -262h-166l-198 262h102l178 -182l180 182h105zM604 993q-152 -1 -244 -109t-104 -290h662q8 399 -314 399zM594 84q150 0 393 149l68 -88q-57 -33 -73 -42q-211 -123 -405 -124q-194 -3 -326 145t-132 414t136 412q136 148 349 148t328 -128t115 -335 l-11 -133h-782q8 -190 99 -304t241 -114z" glyph-name="ecaron" horiz-adv-x="1171" unicode="ě"/><glyph d="M987 1751q1 -99 -73 -155t-204 -56t-204 56t-74 155h100q0 -117 178 -117t177 117h100zM1145 0v176q-231 -199 -459 -199q-228 1 -387 187q-158 186 -158 554t159 553q160 185 404 185t547 -225l-77 -98q-86 59 -136 91t-149 72q-100 40 -187 39q-186 0 -304 -165 q-118 -164 -118 -452t118 -456q116 -168 308 -168t439 223v338h-414v113h547v-768h-133z" glyph-name="Gbreve" horiz-adv-x="1437" unicode="Ğ"/><glyph d="M543 88q207 0 372 182v533q-166 184 -372 184q-141 0 -215 -119q-74 -118 -74 -330t74 -331t215 -119zM915 1075h127v-1157q0 -356 -391 -356q-217 0 -481 73l31 115q273 -78 425 -78t221 58t68 186v229q-179 -168 -373 -168q-194 -1 -308 137t-113 423q-1 285 113 423 t306 138t375 -170v147zM889 1442q0 -98 -75 -154t-205 -57q-130 0 -205 56t-74 155h102q0 -117 177 -117t177 117h103z" glyph-name="gbreve" horiz-adv-x="1222" unicode="ğ"/><glyph d="M635 1561v176h147v-176h-147zM1145 0v176q-231 -199 -459 -199q-228 1 -387 187q-158 186 -158 554t159 553q160 185 404 185t547 -225l-77 -98q-86 59 -136 91t-149 72q-100 40 -187 39q-186 0 -304 -165q-118 -164 -118 -452t118 -456q116 -168 308 -168t439 223v338 h-414v113h547v-768h-133z" glyph-name="Gdotaccent" horiz-adv-x="1437" unicode="Ġ"/><glyph d="M543 88q207 0 372 182v533q-166 184 -372 184q-141 0 -215 -119q-74 -118 -74 -330t74 -331t215 -119zM915 1075h127v-1157q0 -356 -391 -356q-217 0 -481 73l31 115q273 -78 425 -78t221 58t68 186v229q-179 -168 -373 -168q-194 -1 -308 137t-113 423q-1 285 113 423 t306 138t375 -170v147zM532 1251v176h148v-176h-148z" glyph-name="gdotaccent" horiz-adv-x="1222" unicode="ġ"/><glyph d="M680 -315v182h143l21 -186l-131 -222l-49 47l86 179h-70zM1145 0v176q-231 -199 -459 -199q-228 1 -387 187q-158 186 -158 554t159 553q160 185 404 185t547 -225l-77 -98q-86 59 -136 91t-149 72q-100 40 -187 39q-186 0 -304 -165q-118 -164 -118 -452t118 -456 q116 -168 308 -168t439 223v338h-414v113h547v-768h-133z" glyph-name="Gcommaaccent" horiz-adv-x="1437" unicode="Ģ"/><glyph d="M543 88q207 0 372 182v533q-166 184 -372 184q-141 0 -215 -119q-74 -118 -74 -330t74 -331t215 -119zM915 1075h127v-1157q0 -356 -391 -356q-217 0 -481 73l31 115q273 -78 425 -78t221 58t68 186v229q-179 -168 -373 -168q-194 -1 -308 137t-113 423q-1 285 113 423 t306 138t375 -170v147zM680 1436v-185h-143l-21 189l131 223l47 -47l-82 -180h68z" glyph-name="gcommaaccent" horiz-adv-x="1222" unicode="ģ"/><glyph d="M354 1067v-258h764v258h-764zM1118 0v694h-764v-694h-133v1067h-155v94h155v273h133v-273h764v273h133v-273h154v-94h-154v-1067h-133z" glyph-name="Hbar" horiz-adv-x="1472" unicode="Ħ"/><glyph d="M43 1227v94h137v172h127v-172h348v-94h-348v-312q242 182 455 183q299 0 299 -328v-770h-129v750q0 240 -201 239q-106 0 -226 -61t-198 -129v-799h-127v1227h-137z" glyph-name="hbar" unicode="ħ"/><glyph d="M344 0h-133v1434h133v-1434zM150 1755q58 0 140 -49t110 -49t51 17t53 77l78 -33q-39 -80 -79 -120q-39 -40 -97 -40t-141 51q-83 50 -111 50q-50 0 -101 -94l-80 32q43 82 81 120t96 38z" glyph-name="Itilde" horiz-adv-x="555" unicode="Ĩ"/><glyph d="M307 0h-129v1075h129v-1075zM114 1446q58 0 141 -49t111 -49t50 17t53 77l78 -33q-41 -80 -80 -120t-96 -40t-141 50q-84 51 -110 51q-28 0 -50 -19t-54 -76l-77 33q43 82 80 120t95 38z" glyph-name="itilde" horiz-adv-x="487" unicode="ĩ"/><glyph d="M-16 1591v95h587v-95h-587zM346 0h-135v1434h135v-1434z" glyph-name="Imacron" horiz-adv-x="555" unicode="Ī"/><glyph d="M-51 1282v94h588v-94h-588zM307 0h-129v1075h129v-1075z" glyph-name="imacron" horiz-adv-x="487" unicode="ī"/><glyph d="M344 0h-135v1434h135v-1434zM276 1540q-132 0 -204 56t-72 155h100q0 -117 177 -117t178 117h100q0 -99 -74 -155t-205 -56z" glyph-name="Ibreve" horiz-adv-x="555" unicode="Ĭ"/><glyph d="M307 0h-127v1075h127v-1075zM522 1442q0 -98 -74 -154t-205 -57q-130 0 -203 56t-73 155h101q0 -117 177 -117t177 117h100z" glyph-name="ibreve" horiz-adv-x="487" unicode="ĭ"/><glyph d="M135 -197q-1 -31 11 -43t26 -24t52 -12h77l-18 -91q-179 0 -233 65q-28 34 -27 89q0 115 202 213h-12v1434h133v-1434h-6q-6 -4 -28 -15t-30 -17t-28 -19q-118 -73 -119 -146z" glyph-name="Iogonek" horiz-adv-x="555" unicode="Į"/><glyph d="M168 1309v178h147v-178h-147zM94 -197q0 -31 12 -43t25 -24q14 -12 52 -12h77l-18 -91q-258 0 -258 154q0 115 200 213h-6v1075h127v-1075h-6q-6 -4 -28 -15q-23 -11 -31 -17t-28 -19q-118 -73 -118 -146z" glyph-name="iogonek" horiz-adv-x="487" unicode="į"/><glyph d="M205 1561v176h147v-176h-147zM344 0h-133v1434h133v-1434z" glyph-name="Idotaccent" horiz-adv-x="555" unicode="İ"/><glyph d="M307 0h-127v1075h127v-1075z" glyph-name="dotlessi" horiz-adv-x="487" unicode="ı"/><glyph d="M897 1434v-1354q0 -187 -41 -228q-62 -66 -133 -89t-154 -46l-47 105q96 31 142 49t70 50t27 59t3 96v1358h133zM344 0h-133v1434h133v-1434z" glyph-name="IJ" horiz-adv-x="1110" unicode="Ĳ"/><glyph d="M172 1309v178h147v-178h-147zM309 0h-127v1075h127v-1075zM801 1075v-1138q0 -189 -40 -229q-66 -66 -135 -89q-69 -22 -151 -45l-43 100q96 32 140 50t69 50t28 60t3 98v1143h129zM664 1309v178h145v-178h-145z" glyph-name="ij" horiz-adv-x="972" unicode="ĳ"/><glyph d="M358 1802l201 -262h-102l-181 184l-178 -184h-104l199 262h165zM344 1434v-1354q0 -172 -26 -205q-47 -65 -90 -84q-105 -46 -214 -74l-45 105q93 31 139 49t70 50t28 59q3 27 3 96v1358h135z" glyph-name="Jcircumflex" horiz-adv-x="557" unicode="Ĵ"/><glyph d="M326 1493l200 -262h-102l-180 184l-181 -184h-102l197 262h168zM307 1075v-1138q0 -189 -40 -229q-66 -66 -135 -89q-68 -22 -150 -45l-43 100q96 32 140 50q45 18 69 50t27 60t3 98v1143h129z" glyph-name="jcircumflex" horiz-adv-x="487" unicode="ĵ"/><glyph d="M588 -315v182h143l21 -186l-134 -222l-47 47l84 179h-67zM211 0v1434h133v-848l713 848h157l-585 -693l655 -741h-164l-569 649l-207 -246v-403h-133z" glyph-name="Kcommaaccent" horiz-adv-x="1320" unicode="Ķ"/><glyph d="M475 -315v182h143l21 -186l-129 -222l-49 47l84 179h-70zM307 0h-127v1493h127v-1022l488 604h145l-362 -436l430 -639h-138l-372 545l-191 -230v-315z" glyph-name="kcommaaccent" horiz-adv-x="1048" unicode="ķ"/><glyph d="M307 0h-127v1075h127v-604l488 604h145l-362 -436l430 -639h-138l-372 545l-191 -230v-315z" glyph-name="kgreenlandic" horiz-adv-x="1048" unicode="ĸ"/><glyph d="M246 1540h-111l250 262h197zM1067 0h-854v1434h133v-1317h721v-117z" glyph-name="Lacute" horiz-adv-x="1124" unicode="Ĺ"/><glyph d="M219 1602h-108l247 260h197zM317 0h-129v1493h129v-1493z" glyph-name="lacute" horiz-adv-x="507" unicode="ĺ"/><glyph d="M1063 0h-852v1434h133v-1317h719v-117zM563 -315v182h144l20 -186l-131 -222l-49 47l86 179h-70z" glyph-name="Lcommaaccent" horiz-adv-x="1122" unicode="Ļ"/><glyph d="M317 0h-129v1493h129v-1493zM182 -315v182h144l20 -186l-131 -222l-47 47l82 179h-68z" glyph-name="lcommaaccent" horiz-adv-x="507" unicode="ļ"/><glyph d="M1063 0h-852v1434h133v-1317h719v-117zM473 1251v183h143l21 -187l-131 -221l-45 47l82 178h-70z" glyph-name="Lcaron" horiz-adv-x="1122" unicode="Ľ"/><glyph d="M317 0h-127v1493h127v-1493zM446 1311v182h144l20 -186l-131 -222l-47 48l84 178h-70z" glyph-name="lcaron" horiz-adv-x="532" unicode="ľ"/><glyph d="M786 653v174h148v-174h-148zM1063 0h-852v1434h133v-1317h719v-117z" glyph-name="Ldot" horiz-adv-x="1126" unicode="Ŀ"/><glyph d="M446 653v174h148v-174h-148zM317 0h-127v1493h127v-1493z" glyph-name="ldot" horiz-adv-x="550" unicode="ŀ"/><glyph d="M1077 0h-852v575l-153 -83v133l153 84v725h133v-652l281 156v-135l-281 -156v-530h719v-117z" glyph-name="Lslash" horiz-adv-x="1136" unicode="Ł"/><glyph d="M340 0h-129v643l-143 -78v133l143 80v715h129v-643l141 78v-135l-141 -78v-715z" glyph-name="lslash" horiz-adv-x="546" unicode="ł"/><glyph d="M719 1540h-109l250 262h197zM344 0h-133v1434h139l791 -1235v1235h133v-1434h-139l-791 1235v-1235z" glyph-name="Nacute" horiz-adv-x="1484" unicode="Ń"/><glyph d="M584 1231h-111l250 262h197zM307 1075v-160q242 182 453 183q299 0 299 -328v-770h-127v750q0 240 -201 239q-109 0 -231 -62t-193 -128v-799h-127v1075h127z" glyph-name="nacute" unicode="ń"/><glyph d="M682 -315v182h143l23 -186l-133 -222l-47 47l82 179h-68zM1141 1434h133v-1434h-139l-791 1235v-1235h-133v1434h139l791 -1235v1235z" glyph-name="Ncommaaccent" horiz-adv-x="1484" unicode="Ņ"/><glyph d="M545 -315v182h143l23 -186l-131 -222l-50 47l84 179h-69zM307 1075v-160q242 182 453 183q299 0 299 -328v-770h-127v750q0 240 -201 239q-109 0 -231 -62t-193 -128v-799h-127v1075h127z" glyph-name="ncommaaccent" unicode="ņ"/><glyph d="M1038 1802l-200 -262h-168l-199 262h104l179 -182l182 182h102zM344 0h-133v1434h139l791 -1235v1235h133v-1434h-139l-791 1235v-1235z" glyph-name="Ncaron" horiz-adv-x="1484" unicode="Ň"/><glyph d="M897 1493l-201 -262h-168l-198 262h102l178 -182l183 182h104zM307 1075v-160q242 182 453 183q299 0 299 -328v-770h-127v750q0 240 -201 239q-109 0 -231 -62t-193 -128v-799h-127v1075h127z" glyph-name="ncaron" unicode="ň"/><glyph d="M178 1413v182h144l18 -188l-131 -219l-45 47l82 178h-68zM305 1075v-157q236 180 453 180q297 0 297 -328v-770h-127v750q0 240 -201 239q-104 0 -225 -62t-197 -128v-799h-127v1075h127z" glyph-name="napostrophe" horiz-adv-x="1228" unicode="ŉ"/><glyph d="M1274 1434v-1364q0 -163 -27 -198q-45 -63 -87 -81q-107 -45 -212 -74l-49 105q145 47 190 78q44 31 50 94l-795 1241v-1235h-133v1434h139l791 -1235v1235h133z" glyph-name="Eng" horiz-adv-x="1484" unicode="Ŋ"/><glyph d="M1059 770v-836q0 -183 -41 -226q-58 -62 -131 -86q-72 -25 -154 -48l-43 100q98 32 141 50t70 50t29 60t2 98v818q0 240 -201 239q-109 0 -231 -62t-193 -128v-799h-127v1075h127v-160q242 182 453 183q299 0 299 -328z" glyph-name="eng" unicode="ŋ"/><glyph d="M457 1591v95h587v-95h-587zM752 96q260 0 367 176q106 176 106 452t-112 444q-111 168 -361 169q-250 0 -361 -169t-110 -451q0 -621 471 -621zM752 1456q462 0 576 -451q34 -130 34 -288q0 -314 -137 -520q-70 -103 -191 -161q-120 -58 -282 -58t-283 56 q-121 58 -191 162t-103 234q-34 129 -34 287t34 288q75 288 294 394q121 57 283 57z" glyph-name="Omacron" horiz-adv-x="1503" unicode="Ō"/><glyph d="M315 1282v94h588v-94h-588zM967 537q0 213 -88 333q-89 120 -271 119q-182 0 -269 -120t-87 -332q0 -451 356 -451q182 0 271 119q88 119 88 332zM1098 537q0 -263 -127 -411t-364 -148t-363 148t-125 412q0 264 127 411q126 149 362 149t363 -150t127 -411z" glyph-name="omacron" horiz-adv-x="1218" unicode="ō"/><glyph d="M1030 1751q0 -95 -74 -153t-205 -58q-130 0 -204 56t-74 155h100q1 -117 179 -117t178 117h100zM752 96q260 0 367 176q106 176 106 452t-112 444q-111 168 -361 169q-250 0 -361 -169t-110 -451q0 -621 471 -621zM752 1456q462 0 576 -451q34 -130 34 -288 q0 -314 -137 -520q-70 -103 -191 -161q-120 -58 -282 -58t-283 56q-121 58 -191 162t-103 234q-34 129 -34 287t34 288q75 288 294 394q121 57 283 57z" glyph-name="Obreve" horiz-adv-x="1503" unicode="Ŏ"/><glyph d="M887 1442q0 -98 -74 -154t-204 -57q-130 0 -205 56t-74 155h100q0 -117 178 -117t178 117h101zM967 537q0 213 -88 333q-89 120 -271 119q-182 0 -269 -120t-87 -332q0 -451 356 -451q182 0 271 119q88 119 88 332zM1098 537q0 -263 -127 -411t-364 -148t-363 148 t-125 412q0 264 127 411q126 149 362 149t363 -150t127 -411z" glyph-name="obreve" horiz-adv-x="1218" unicode="ŏ"/><glyph d="M608 1540h-84l158 262h172zM903 1540h-84l156 262h172zM752 96q260 0 367 176q106 176 106 452t-112 444q-111 168 -361 169q-250 0 -361 -169t-110 -451q0 -621 471 -621zM752 1456q462 0 576 -451q34 -130 34 -288q0 -314 -137 -520q-70 -103 -191 -161 q-120 -58 -282 -58t-283 56q-121 58 -191 162t-103 234q-34 129 -34 287t34 288q75 288 294 394q121 57 283 57z" glyph-name="Ohungarumlaut" horiz-adv-x="1503" unicode="Ő"/><glyph d="M465 1231h-84l158 262h172zM758 1231h-82l155 262h170zM967 537q0 213 -88 333q-89 120 -271 119q-182 0 -269 -120t-87 -332q0 -451 356 -451q182 0 271 119q88 119 88 332zM1098 537q0 -263 -127 -411t-364 -148t-363 148t-125 412q0 264 127 411q126 149 362 149 t363 -150t127 -411z" glyph-name="ohungarumlaut" horiz-adv-x="1218" unicode="ő"/><glyph d="M752 96q260 0 367 176q106 176 106 452t-112 444q-111 168 -361 169q-250 0 -361 -169t-110 -451q0 -621 471 -621zM2116 0h-887v201q-156 -223 -477 -224q-162 -1 -283 57t-191 162t-103 234q-34 129 -34 287t34 288q75 288 294 394q121 57 283 57q322 0 477 -223v201 h876v-117h-743v-543h616v-115h-616v-542h754v-117z" glyph-name="OE" horiz-adv-x="2236" unicode="Œ"/><glyph d="M1454 993q-152 1 -245 -107t-105 -292h663q6 399 -313 399zM967 537q0 213 -88 333q-89 120 -271 119q-182 0 -269 -120t-87 -332q0 -451 356 -451q182 0 271 119q88 119 88 332zM1442 84q150 0 393 149l68 -88q-80 -49 -129 -75q-50 -26 -152 -59q-102 -34 -212 -34 q-110 1 -213 63t-163 183q-121 -246 -426 -246q-238 1 -364 149t-125 412q0 264 127 411q127 148 362 149q303 0 426 -250q61 122 172 186t250 64q211 0 326 -128t114 -335q0 -85 -12 -133h-782q8 -188 99 -303t241 -115z" glyph-name="oe" horiz-adv-x="2019" unicode="œ"/><glyph d="M705 1540h-111l250 262h198zM1128 1030q0 150 -101 220t-275 69h-408v-580h397q387 0 387 291zM344 625v-625h-133v1434h532q522 0 523 -404q0 -186 -109 -282t-293 -117l404 -631h-152l-387 625h-385z" glyph-name="Racute" horiz-adv-x="1392" unicode="Ŕ"/><glyph d="M307 1075v-231q18 52 101 140q47 50 129 80t180 23v-122q-102 0 -182 -35t-121 -85q-88 -107 -101 -183l-6 -35v-627h-127v1075h127zM414 1231h-109l248 262h197z" glyph-name="racute" horiz-adv-x="770" unicode="ŕ"/><glyph d="M623 -315v182h143l22 -186l-133 -222l-47 47l82 179h-67zM1128 1030q0 150 -101 220t-275 69h-408v-580h397q387 0 387 291zM344 625v-625h-133v1434h532q522 0 523 -404q0 -186 -109 -282t-293 -117l404 -631h-152l-387 625h-385z" glyph-name="Rcommaaccent" horiz-adv-x="1392" unicode="Ŗ"/><glyph d="M307 1075v-231q18 52 101 140q47 50 129 80t180 23v-122q-102 0 -183 -35t-121 -85q-87 -109 -100 -183l-6 -35v-627h-129v1075h129zM172 -315v182h143l19 -186l-129 -222l-47 47l82 179h-68z" glyph-name="rcommaaccent" horiz-adv-x="770" unicode="ŗ"/><glyph d="M1022 1802l-201 -262h-166l-198 262h104l178 -182l181 182h102zM1128 1030q0 150 -101 220t-275 69h-408v-580h397q387 0 387 291zM344 625v-625h-133v1434h532q522 0 523 -404q0 -186 -109 -282t-293 -117l404 -631h-152l-387 625h-385z" glyph-name="Rcaron" horiz-adv-x="1392" unicode="Ř"/><glyph d="M305 1075v-231q27 61 89 126q125 132 323 117v-122q-102 0 -183 -35t-122 -85q-88 -107 -101 -183l-6 -35v-627h-125v1075h125zM731 1493l-201 -262h-165l-199 262h102l178 -182l181 182h104z" glyph-name="rcaron" horiz-adv-x="770" unicode="ř"/><glyph d="M1133 360q1 -184 -139 -283t-332 -100q-141 1 -291 51t-262 117l65 103q106 -62 240 -108t262 -46q127 0 224 67t97 197t-128 206q-107 64 -304 126q-76 25 -123 42q-48 17 -112 53t-100 73t-62 97q-27 60 -27 132q0 173 126 271t315 98q119 0 254 -38t237 -91l-63 -102 q-223 115 -426 114q-129 0 -218 -61t-90 -182q0 -62 22 -106t85 -80q103 -59 289 -115q259 -78 360 -183q101 -104 101 -252zM584 1540h-109l248 262h199z" glyph-name="Sacute" horiz-adv-x="1241" unicode="Ś"/><glyph d="M934 263q0 -136 -110 -211t-267 -75q-225 0 -457 129l60 97q213 -119 387 -119q104 0 182 46t78 134q0 138 -238 209q-27 9 -88 25t-101 29q-260 85 -257 284q0 135 102 211t276 76t388 -107l-60 -92q-188 92 -317 92t-196 -45t-66 -129q0 -39 19 -72t43 -51t75 -40 t102 -35q50 -13 56 -15q195 -51 292 -128t97 -213zM483 1231h-108l246 262h200z" glyph-name="sacute" horiz-adv-x="1034" unicode="ś"/><glyph d="M1133 360q1 -184 -139 -283t-332 -100q-141 1 -291 51t-262 117l65 103q106 -62 240 -108t262 -46q127 0 224 67t97 197t-128 206q-107 64 -304 126q-76 25 -123 42q-48 17 -112 53t-100 73t-62 97q-27 60 -27 132q0 173 126 271t315 98q119 0 254 -38t237 -91l-63 -102 q-223 115 -426 114q-129 0 -218 -61t-90 -182q0 -62 22 -106t85 -80q103 -59 289 -115q259 -78 360 -183q101 -104 101 -252zM705 1802l198 -262h-102l-183 184l-178 -184h-102l199 262h168z" glyph-name="Scircumflex" horiz-adv-x="1241" unicode="Ŝ"/><glyph d="M934 263q0 -136 -110 -211t-267 -75q-225 0 -457 129l60 97q213 -119 387 -119q104 0 182 46t78 134q0 138 -238 209q-27 9 -88 25t-101 29q-260 85 -257 284q0 135 102 211t276 76t388 -107l-60 -92q-188 92 -317 92t-196 -45t-66 -129q0 -39 19 -72t43 -51t75 -40 t102 -35q50 -13 56 -15q195 -51 292 -128t97 -213zM602 1493l201 -262h-105l-180 184l-178 -184h-102l198 262h166z" glyph-name="scircumflex" horiz-adv-x="1034" unicode="ŝ"/><glyph d="M780 -178q0 -78 -55 -122t-140 -44t-159 37l35 86q63 -29 108 -29q117 0 117 100q0 59 -43 127q-270 8 -534 168l65 103q106 -62 240 -108t262 -46q127 0 224 67t97 197t-128 206q-107 64 -304 126q-76 25 -123 42q-48 17 -112 53t-100 73t-62 97q-27 60 -27 132 q0 173 126 271t315 98q119 0 254 -38t237 -91l-63 -102q-223 115 -426 114q-129 0 -218 -61t-90 -182q0 -62 22 -106t85 -80q103 -59 289 -115q259 -78 360 -183t101 -263q0 -159 -120 -257t-296 -112q63 -80 63 -158z" glyph-name="Scedilla" horiz-adv-x="1243" unicode="Ş"/><glyph d="M934 268q0 -131 -94 -205t-238 -83q62 -82 62 -159t-56 -121t-139 -44q-84 0 -162 37l37 86q63 -29 107 -29q121 0 120 100q0 59 -45 130q-219 8 -426 126l60 97q213 -119 387 -119q104 0 182 46t78 134q0 138 -238 209q-27 9 -88 25t-101 29q-260 85 -257 284 q0 135 102 211t276 76t388 -107l-60 -92q-188 92 -317 92t-196 -45t-66 -129q0 -39 19 -72t43 -51t75 -40t102 -35q50 -13 56 -15q195 -51 292 -128t97 -208z" glyph-name="scedilla" horiz-adv-x="1034" unicode="ş"/><glyph d="M1133 360q1 -184 -139 -283t-332 -100q-141 1 -291 51t-262 117l65 103q106 -62 240 -108t262 -46q127 0 224 67t97 197t-128 206q-107 64 -304 126q-76 25 -123 42q-48 17 -112 53t-100 73t-62 97q-27 60 -27 132q0 173 126 271t315 98q119 0 254 -38t237 -91l-63 -102 q-223 115 -426 114q-129 0 -218 -61t-90 -182q0 -62 22 -106t85 -80q103 -59 289 -115q259 -78 360 -183q101 -104 101 -252zM903 1802l-198 -262h-168l-199 262h102l178 -182l183 182h102z" glyph-name="Scaron" horiz-adv-x="1241" unicode="Š"/><glyph d="M934 263q0 -136 -110 -211t-267 -75q-225 0 -457 129l60 97q213 -119 387 -119q104 0 182 46t78 134q0 138 -238 209q-27 9 -88 25t-101 29q-260 85 -257 284q0 135 102 211t276 76t388 -107l-60 -92q-188 92 -317 92t-196 -45t-66 -129q0 -39 19 -72t43 -51t75 -40 t102 -35q50 -13 56 -15q195 -51 292 -128t97 -213zM801 1493l-201 -262h-164l-200 262h104l178 -182l180 182h103z" glyph-name="scaron" horiz-adv-x="1034" unicode="š"/><glyph d="M485 -250q119 0 119 100q0 70 -59 150h-29v1317h-461v117h1053v-117h-459v-1317h-31q80 -96 80 -176t-55 -124t-141 -44t-160 37l35 86q63 -29 108 -29z" glyph-name="Tcommaaccent" horiz-adv-x="1165" unicode="Ţ"/><glyph d="M76 973v102h149v271l127 40v-311h297v-102h-297v-764q0 -119 105 -119q74 0 217 57l49 -98q-121 -57 -240 -69q61 -78 61 -157t-54 -123q-56 -44 -141 -44t-159 37l35 86q63 -29 107 -29q121 0 121 100q0 59 -45 130q-182 18 -183 237v756h-149z" glyph-name="tcommaaccent" horiz-adv-x="757" unicode="ţ"/><glyph d="M864 1802l-200 -262h-166l-199 262h104l179 -182l180 182h102zM1108 1317h-459v-1317h-133v1317h-461v117h1053v-117z" glyph-name="Tcaron" horiz-adv-x="1165" unicode="Ť"/><glyph d="M494 1413v182h143l20 -188l-131 -219l-45 47l82 178h-69zM76 973v102h149v271l127 40v-311h297v-102h-297v-764q0 -119 105 -119q80 0 215 57l51 -98q-150 -72 -279 -72q-219 0 -219 240v756h-149z" glyph-name="tcaron" horiz-adv-x="759" unicode="ť"/><glyph d="M295 481v92h233v744h-460v117h1054v-117h-460v-744h233v-92h-233v-481h-134v481h-233z" glyph-name="Tbar" horiz-adv-x="1187" unicode="Ŧ"/><glyph d="M76 973v102h149v271l127 40v-311h297v-102h-297v-291h234v-94h-234v-379q0 -119 105 -119q80 0 215 57l51 -98q-150 -72 -279 -72q-219 0 -219 240v371h-108v94h108v291h-149z" glyph-name="tbar" horiz-adv-x="759" unicode="ŧ"/><glyph d="M1235 1434v-928q0 -528 -516 -529q-520 0 -520 529v928h133v-928q0 -194 83 -302t302 -108t302 109t83 301v928h133zM590 1755q57 0 140 -49t111 -49q27 0 49 18t52 76l80 -33q-41 -80 -80 -120t-96 -40t-140 51q-83 50 -111 50q-28 -1 -49 -19t-54 -75l-78 32 q43 82 81 120t95 38z" glyph-name="Utilde" horiz-adv-x="1433" unicode="Ũ"/><glyph d="M504 1446q57 0 140 -49t111 -49q29 0 51 17t52 77l80 -33q-41 -80 -80 -120t-96 -40t-141 50t-113 51q-49 -1 -100 -95l-80 33q43 82 81 120t95 38zM924 0v158q-238 -180 -455 -181q-297 0 -297 328v770h127v-749q0 -240 201 -240q104 0 225 61t199 127v801h127v-1075 h-127z" glyph-name="utilde" unicode="ũ"/><glyph d="M424 1591v95h588v-95h-588zM1235 1434v-928q0 -528 -516 -529q-520 0 -520 529v928h133v-928q0 -194 83 -302t302 -108t302 109t83 301v928h133z" glyph-name="Umacron" horiz-adv-x="1433" unicode="Ū"/><glyph d="M317 1282v94h588v-94h-588zM924 0v158q-238 -180 -455 -181q-297 0 -297 328v770h127v-749q0 -240 201 -240q104 0 225 61t199 127v801h127v-1075h-127z" glyph-name="umacron" unicode="ū"/><glyph d="M1235 1434v-928q0 -528 -516 -529q-520 0 -520 529v928h133v-928q0 -194 83 -302t302 -108t302 109t83 301v928h133zM716 1540q-130 0 -203 56t-73 155h101q0 -117 177 -117t177 117h100q0 -96 -74 -154q-75 -57 -205 -57z" glyph-name="Ubreve" horiz-adv-x="1433" unicode="Ŭ"/><glyph d="M887 1442q0 -98 -74 -154t-204 -57q-129 0 -203 56t-74 155h100q0 -117 177 -117t177 117h101zM924 0v158q-238 -180 -455 -181q-297 0 -297 328v770h127v-749q0 -240 201 -240q104 0 225 61t199 127v801h127v-1075h-127z" glyph-name="ubreve" unicode="ŭ"/><glyph d="M1235 1434v-928q0 -528 -516 -529q-520 0 -520 529v928h133v-928q0 -194 83 -302t302 -108t302 109t83 301v928h133zM596 1726q0 -53 36 -88q36 -34 89 -34t89 36t36 87t-36 89t-89 38t-89 -38q-36 -37 -36 -90zM514 1727q0 87 59 147t147 61q88 0 147 -60 q61 -59 61 -147t-60 -148t-148 -60q-87 0 -147 60q-59 60 -59 147z" glyph-name="Uring" horiz-adv-x="1433" unicode="Ů"/><glyph d="M487 1417q0 -53 35 -88t88 -35t90 36t37 88t-37 89t-89 37t-88 -37t-36 -90zM403 1418q1 88 61 148t147 60t147 -60t61 -148q0 -88 -60 -147q-59 -61 -147 -61t-148 60t-61 148zM924 0v158q-238 -180 -455 -181q-297 0 -297 328v770h127v-749q0 -240 201 -240 q104 0 225 61t199 127v801h127v-1075h-127z" glyph-name="uring" unicode="ů"/><glyph d="M575 1540h-88l160 262h172zM868 1540h-84l158 262h170zM1235 1434v-928q0 -528 -516 -529q-520 0 -520 529v928h133v-928q0 -194 83 -302t302 -108t302 109t83 301v928h133z" glyph-name="Uhungarumlaut" horiz-adv-x="1433" unicode="Ű"/><glyph d="M760 1231h-84l158 262h170zM467 1231h-84l158 262h172zM924 0v158q-238 -180 -455 -181q-297 0 -297 328v770h127v-749q0 -240 201 -240q104 0 225 61t199 127v801h127v-1075h-127z" glyph-name="uhungarumlaut" unicode="ű"/><glyph d="M702 -197q0 -30 17 -48t32 -22q15 -3 23 -5q16 -4 44 -4h50l-18 -91q-258 0 -258 154q0 100 160 190h-33q-520 0 -520 529v928h133v-928q0 -194 83 -302t302 -108t302 109t83 301v928h133v-928q0 -420 -328 -506q-5 -4 -27 -15t-31 -17t-29 -19q-118 -73 -118 -146z" glyph-name="Uogonek" horiz-adv-x="1433" unicode="Ų"/><glyph d="M922 0v158q-238 -180 -455 -181q-297 0 -297 328v770h127v-749q0 -240 201 -240q104 0 225 61t199 127v801h127v-1075h-9q-44 -22 -89 -53q-44 -31 -56 -44q-11 -13 -33 -36t-22 -59t16 -54q28 -30 90 -30h60l-23 -91q-256 0 -256 154q0 117 201 213h-6z" glyph-name="uogonek" unicode="ų"/><glyph d="M1038 1802l199 -262h-104l-181 184l-178 -184h-102l198 262h168zM1282 0l-330 1243l-327 -1243h-150l-395 1434h145l328 -1280l334 1280h133l334 -1280l329 1280h148l-399 -1434h-150z" glyph-name="Wcircumflex" horiz-adv-x="1908" unicode="Ŵ"/><glyph d="M907 1493l201 -262h-102l-181 184l-178 -184h-104l200 262h164zM1104 0l-279 920l-278 -920h-131l-340 1075h137l270 -936l279 936h127l276 -936l273 936h135l-340 -1075h-129z" glyph-name="wcircumflex" horiz-adv-x="1648" unicode="ŵ"/><glyph d="M645 1493l201 -262h-105l-180 184l-178 -184h-102l196 262h168zM66 1075h141l354 -921l354 921h144l-608 -1493h-142l189 424z" glyph-name="ycircumflex" horiz-adv-x="1122" unicode="ŷ"/><glyph d="M737 1561v176h144v-176h-144zM397 1561v176h148v-176h-148zM573 0v567l-526 867h150l444 -764l442 764h150l-526 -867v-567h-134z" glyph-name="Ydieresis" horiz-adv-x="1282" unicode="Ÿ"/><glyph d="M604 1540h-108l249 262h197zM137 1317v117h1004v-109l-891 -1208h901v-117h-1059v109l887 1208h-842z" glyph-name="Zacute" horiz-adv-x="1257" unicode="Ź"/><glyph d="M473 1231h-111l250 262h197zM94 0v104l670 861h-649v110h805v-104l-666 -860h666v-111h-826z" glyph-name="zacute" horiz-adv-x="1021" unicode="ź"/><glyph d="M565 1561v174h148v-174h-148zM137 1317v117h1004v-109l-891 -1208h901v-117h-1059v109l887 1208h-842z" glyph-name="Zdotaccent" horiz-adv-x="1257" unicode="Ż"/><glyph d="M430 1251v176h148v-176h-148zM94 0v104l670 861h-649v110h805v-104l-666 -860h666v-111h-826z" glyph-name="zdotaccent" horiz-adv-x="1021" unicode="ż"/><glyph d="M924 1802l-201 -262h-168l-199 262h105l178 -182l182 182h103zM1151 117v-117h-1059v109l887 1208h-842v117h1004v-109l-891 -1208h901z" glyph-name="Zcaron" horiz-adv-x="1257" unicode="Ž"/><glyph d="M791 1493l-201 -262h-168l-197 262h105l178 -182l180 182h103zM94 0v104l670 861h-649v110h805v-104l-666 -860h666v-111h-826z" glyph-name="zcaron" horiz-adv-x="1021" unicode="ž"/><glyph d="M74 973v102h149v178q0 240 219 240q113 0 301 -66l-49 -96q-180 49 -239 49q-104 0 -105 -116v-1264h-127v973h-149z" glyph-name="longs" horiz-adv-x="571" unicode="ſ"/><glyph d="M732 1493q100 0 315 -72l-70 -94q-143 53 -241 52t-124 -117l-45 -187h297l-22 -102h-299l-334 -1391h-127l334 1391h-154l27 102h151l43 180q33 137 91 187t158 51z" glyph-name="florin" horiz-adv-x="1073" unicode="ƒ"/><glyph d="M1067 1540h-111l250 262h199zM1014 487v789l-535 -789h535zM1905 0h-891v373h-613l-251 -373h-156l991 1434h905v-117h-741v-543h616v-115h-616v-542h756v-117z" glyph-name="AEacute" horiz-adv-x="2025" unicode="Ǽ"/><glyph d="M899 1231h-108l249 262h197zM1313 993q-152 -1 -244 -109t-104 -290h661q13 399 -313 399zM524 575q-152 -1 -218 -71t-66 -186t66 -172q67 -56 179 -56q199 0 389 182q-43 106 -45 238q-14 4 -66 19q-159 46 -239 46zM1300 84q148 0 398 149l67 -88q-80 -49 -129 -75 t-152 -59q-103 -34 -196 -34q-248 0 -375 213q-205 -213 -452 -213q-134 0 -238 73q-53 38 -85 107t-32 160q0 175 106 265t261 90q109 0 358 -70q6 104 37 184q-8 106 -61 156t-179 49q-126 0 -399 -96l-49 100q276 102 463 103q238 0 315 -154q130 154 350 154t336 -128 t115 -335q0 -77 -14 -133h-782q8 -190 99 -304q90 -114 238 -114z" glyph-name="aeacute" horiz-adv-x="1882" unicode="ǽ"/><glyph d="M715 1540h-111l250 262h197zM279 714q0 -273 96 -427l688 936q-119 115 -313 114q-258 0 -364 -175q-107 -175 -107 -448zM750 96q260 0 367 176q106 176 106 446q0 271 -99 427l-688 -934q115 -115 314 -115zM293 174q-154 195 -154 527t137 537q70 102 191 160t283 58 q240 0 391 -129l78 107h118l-129 -177q152 -193 152 -523t-137 -537q-70 -103 -191 -161t-282 -59q-244 0 -392 129l-77 -106h-117z" glyph-name="Oslashacute" horiz-adv-x="1497" unicode="Ǿ"/><glyph d="M571 1231h-108l246 262h198zM608 989q-184 1 -271 -119t-87 -324t67 -313l521 678q-90 78 -230 78zM965 537q0 190 -70 305l-518 -680q86 -76 231 -76q357 0 357 451zM1098 536q0 -262 -127 -410t-363 -149q-184 0 -303 91l-53 -68h-113l101 131q-123 143 -123 405 t127 412t364 150q180 0 301 -92l54 69h110l-100 -131q125 -147 125 -408z" glyph-name="oslashacute" horiz-adv-x="1214" unicode="ǿ"/><glyph d="M1133 360q1 -184 -139 -283t-332 -100q-141 1 -291 51t-262 117l65 103q106 -62 240 -108t262 -46q127 0 224 67t97 197t-128 206q-107 64 -304 126q-76 25 -123 42q-48 17 -112 53t-100 73t-62 97q-27 60 -27 132q0 173 126 271t315 98q119 0 254 -38t237 -91l-63 -102 q-223 115 -426 114q-129 0 -218 -61t-90 -182q0 -62 22 -106t85 -80q103 -59 289 -115q259 -78 360 -183q101 -104 101 -252zM551 -315v182h143l23 -186l-133 -222l-47 47l81 179h-67z" glyph-name="Scommaaccent" horiz-adv-x="1241" unicode="Ș"/><glyph d="M934 263q0 -136 -110 -211t-267 -75q-225 0 -457 129l60 97q213 -119 387 -119q104 0 182 46t78 134q0 138 -238 209q-27 9 -88 25t-101 29q-260 85 -257 284q0 135 102 211t276 76t388 -107l-60 -92q-188 92 -317 92t-196 -45t-66 -129q0 -39 19 -72t43 -51t75 -40 t102 -35q50 -13 56 -15q195 -51 292 -128t97 -213zM446 -315v182h144l18 -186l-131 -222l-45 47l82 179h-68z" glyph-name="scommaaccent" horiz-adv-x="1034" unicode="ș"/><glyph d="M1108 1317h-459v-1317h-133v1317h-461v117h1053v-117zM508 -315v182h143l23 -186l-131 -222l-49 47l84 179h-70z" glyph-name="uni021A" horiz-adv-x="1165" unicode="Ț"/><glyph d="M279 -315v182h143l22 -186l-133 -222l-47 47l82 179h-67zM76 973v102h149v271l127 40v-311h297v-102h-297v-764q0 -119 105 -119q80 0 215 57l51 -98q-150 -72 -279 -72q-219 0 -219 240v756h-149z" glyph-name="uni021B" horiz-adv-x="759" unicode="ț"/><glyph d="M227 1683v-342q141 106 281 107q190 0 190 -201v-459h-106v441q0 133 -115 133q-63 0 -135 -34t-115 -71v-469h-106v895h106z" glyph-name="uni02B0" horiz-adv-x="811" unicode="ʰ"/><glyph d="M225 1434v-668q0 -63 -3 -90q-2 -27 -24 -59t-67 -51t-129 -40l-35 80q113 35 133 57t21 97v674h104zM113 1561v120h118v-120h-118z" glyph-name="uni02B2" horiz-adv-x="346" unicode="ʲ"/><glyph d="M696 788l-166 525l-168 -525h-100l-215 646h113l157 -539l164 539h99l163 -543l158 543h111l-209 -646h-107z" glyph-name="uni02B7" horiz-adv-x="1060" unicode="ʷ"/><glyph d="M39 1434h115l208 -521l211 521h113l-379 -895h-114l116 256z" glyph-name="uni02B8" horiz-adv-x="724" unicode="ʸ"/><glyph d="M352 1493l201 -262h-104l-181 184l-178 -184h-102l198 262h166z" glyph-name="circumflex" horiz-adv-x="540" unicode="ˆ"/><glyph d="M553 1493l-201 -262h-166l-198 262h102l178 -182l181 182h104z" glyph-name="caron" horiz-adv-x="540" unicode="ˇ"/><glyph d="M545 1442q0 -98 -74 -154t-204 -57q-130 0 -204 56t-73 155h100q0 -117 177 -117t177 117h101z" glyph-name="breve" horiz-adv-x="534" unicode="˘"/><glyph d="M-6 1251v176h147v-176h-147z" glyph-name="dotaccent" horiz-adv-x="137" unicode="˙"/><glyph d="M80 1417q0 -53 36 -88t88 -35t89 36t37 88t-37 89t-89 37t-88 -37t-36 -90zM-4 1418q0 88 60 148t148 60t147 -60q61 -60 61 -148t-60 -147q-60 -61 -148 -61t-148 60t-60 148z" glyph-name="ring" horiz-adv-x="407" unicode="˚"/><glyph d="M102 -194q0 -34 24 -58t68 -24h74l-18 -91q-179 0 -233 65q-27 34 -27 96t72 123q73 60 184 106l65 -21q-5 -4 -27 -15t-31 -17t-29 -19q-20 -11 -32 -21t-28 -22t-39 -40q-23 -27 -23 -62z" glyph-name="ogonek" horiz-adv-x="311" unicode="˛"/><glyph d="M162 1446q57 0 141 -49t112 -49q27 0 49 18t52 76l80 -33q-41 -80 -80 -120t-96 -40t-141 50t-113 51q-49 -1 -100 -95l-80 33q43 82 81 120t95 38z" glyph-name="tilde" horiz-adv-x="581" unicode="˜"/><glyph d="M76 1231h-88l159 262h172zM367 1231h-82l155 262h172z" glyph-name="hungarumlaut" horiz-adv-x="600" unicode="˝"/><glyph d="M608 788l-217 271l-215 -271h-131l285 324l-271 322h127l205 -265l205 265h127l-268 -322l282 -324h-129z" glyph-name="uni02E3" horiz-adv-x="778" unicode="ˣ"/><glyph d="M1077 1075v-117h-184v-958h-123v958h-385v-958h-125v958h-182v117h999z" glyph-name="pi" horiz-adv-x="1155" unicode="π"/><glyph d="M1100 1540h-111l-336 262h195zM1282 0l-330 1243l-327 -1243h-150l-395 1434h145l328 -1280l334 1280h133l334 -1280l329 1280h148l-399 -1434h-150z" glyph-name="Wgrave" horiz-adv-x="1908" unicode="Ẁ"/><glyph d="M971 1231h-109l-338 262h195zM1104 0l-279 920l-278 -920h-131l-340 1075h137l270 -936l279 936h127l276 -936l273 936h135l-340 -1075h-129z" glyph-name="wgrave" horiz-adv-x="1648" unicode="ẁ"/><glyph d="M920 1540h-111l250 262h196zM1282 0l-330 1243l-327 -1243h-150l-395 1434h145l328 -1280l334 1280h133l334 -1280l329 1280h148l-399 -1434h-150z" glyph-name="Wacute" horiz-adv-x="1908" unicode="Ẃ"/><glyph d="M791 1231h-111l250 262h198zM1104 0l-279 920l-278 -920h-131l-340 1075h137l270 -936l279 936h127l276 -936l273 936h135l-340 -1075h-129z" glyph-name="wacute" horiz-adv-x="1648" unicode="ẃ"/><glyph d="M1053 1561v176h143v-176h-143zM713 1561v176h147v-176h-147zM1282 0l-330 1243l-327 -1243h-150l-395 1434h145l328 -1280l334 1280h133l334 -1280l329 1280h148l-399 -1434h-150z" glyph-name="Wdieresis" horiz-adv-x="1908" unicode="Ẅ"/><glyph d="M922 1251v176h145v-176h-145zM584 1251v176h147v-176h-147zM1104 0l-279 920l-278 -920h-131l-340 1075h137l270 -936l279 936h127l276 -936l273 936h135l-340 -1075h-129z" glyph-name="wdieresis" horiz-adv-x="1648" unicode="ẅ"/><glyph d="M786 1540h-108l-338 262h195zM573 0v567l-526 867h150l444 -764l442 764h150l-526 -867v-567h-134z" glyph-name="Ygrave" horiz-adv-x="1282" unicode="Ỳ"/><glyph d="M707 1231h-109l-338 262h195zM66 1075h141l354 -921l354 921h144l-608 -1493h-142l189 424z" glyph-name="ygrave" horiz-adv-x="1122" unicode="ỳ"/><glyph d="M993 526h-827v115h827v-115z" glyph-name="endash" horiz-adv-x="1161" unicode="–"/><glyph d="M1208 526h-1042v115h1042v-115z" glyph-name="emdash" horiz-adv-x="1374" unicode="—"/><glyph d="M315 1217v-218h-155l-23 224l142 252l51 -54l-90 -204h75z" glyph-name="quoteleft" horiz-adv-x="473" unicode="‘"/><glyph d="M160 1217v217h153l23 -224l-141 -252l-52 54l90 205h-73z" glyph-name="quoteright" horiz-adv-x="456" unicode="’"/><glyph d="M164 0v217h153l23 -225l-141 -250l-52 51l91 207h-74z" glyph-name="quotesinglbase" horiz-adv-x="489" unicode="‚"/><glyph d="M664 1217v-218h-156l-23 224l144 252l51 -54l-90 -204h74zM315 1217v-218h-155l-23 224l142 252l51 -54l-90 -204h75z" glyph-name="quotedblleft" horiz-adv-x="823" unicode="“"/><glyph d="M160 1217v217h153l23 -224l-141 -252l-52 54l90 205h-73zM506 1217v217h158l22 -224l-143 -252l-51 54l90 205h-76z" glyph-name="quotedblright" horiz-adv-x="806" unicode="”"/><glyph d="M164 0v217h153l23 -225l-141 -250l-52 51l91 207h-74zM510 0v217h158l22 -225l-143 -250l-51 51l90 207h-76z" glyph-name="quotedblbase" horiz-adv-x="837" unicode="„"/><glyph d="M532 1434h109v-508l465 16v-119l-465 17v-1258h-109v1258l-460 -17v119l460 -16v508z" glyph-name="dagger" horiz-adv-x="1177" unicode="†"/><glyph d="M582 1434h110v-508l463 16v-119l-463 17v-451l463 17v-119l-463 16v-721h-110v721l-461 -16v119l461 -17v451l-461 -17v119l461 -16v508z" glyph-name="daggerdbl" horiz-adv-x="1277" unicode="‡"/><glyph d="M193 582q0 102 70 174q71 72 172 72t173 -72t72 -174t-72 -173t-173 -71t-172 71q-70 71 -70 173z" glyph-name="bullet" horiz-adv-x="874" unicode="•"/><glyph d="M946 0v217h160v-217h-160zM555 0v217h160v-217h-160zM162 0v217h162v-217h-162z" glyph-name="ellipsis" horiz-adv-x="1269" unicode="…"/><glyph d="M1450 1434l-754 -1434h-118l753 1434h119zM2671 361q0 138 -65 213q-66 75 -182 75t-180 -75t-65 -213q0 -138 65 -213q66 -74 182 -74t180 74t65 213zM2425 745q164 1 263 -99t99 -285t-99 -284t-263 -99t-262 98q-99 100 -99 285t98 285t263 99zM1810 361 q0 138 -65 213q-67 75 -183 75t-180 -75t-63 -213q0 -138 63 -213q62 -74 180 -74t183 74t65 213zM1202 361q0 185 98 285t264 99q166 1 263 -99q98 -100 98 -285t-98 -284t-263 -99q-166 0 -264 98q-98 100 -98 285zM461 784q117 0 183 75t65 213q0 138 -66 213 q-67 75 -183 75t-179 -75t-63 -213t62 -213q64 -75 181 -75zM823 1071q0 -187 -98 -285t-263 -98t-263 99q-99 99 -99 285t98 284q98 100 264 100q165 0 263 -100t98 -285z" glyph-name="perthousand" horiz-adv-x="2887" unicode="‰"/><glyph d="M84 623l627 460v-137l-504 -368l504 -369v-135l-627 461v88z" glyph-name="guilsinglleft" horiz-adv-x="843" unicode="‹"/><glyph d="M760 623v-88l-627 -461v135l502 369l-502 368v135z" glyph-name="guilsinglright" horiz-adv-x="843" unicode="›"/><glyph d="M557 1434l-684 -1434h-117l686 1434h115z" glyph-name="fraction" horiz-adv-x="309" unicode="⁄"/><glyph d="M445 862q229 0 229 356t-228 357q-228 -1 -229 -357q0 -356 228 -356zM104 1219q0 215 86 329t253 115q167 0 253 -116q86 -115 86 -329t-86 -329t-253 -115t-253 115t-86 330z" glyph-name="uni2070" horiz-adv-x="886" unicode="⁰"/><glyph d="M537 1069v485l-351 -485h351zM68 979v80l434 590h145v-580h137v-90h-137v-191h-110v191h-469z" glyph-name="uni2074" horiz-adv-x="858" unicode="⁴"/><glyph d="M662 1649v-93h-404l-25 -253q76 33 160 32q139 0 223 -80q84 -81 84 -197t-85 -200t-232 -84t-299 90l51 80q109 -76 215 -76t170 54t64 135q0 82 -56 135t-153 53q-96 0 -193 -53l-61 33l49 424h492z" glyph-name="uni2075" horiz-adv-x="792" unicode="⁵"/><glyph d="M449 1251q-89 0 -150 -38t-86 -80q4 -125 61 -196q58 -71 158 -71t154 58t55 137q0 78 -51 134q-52 56 -141 56zM573 1571q-137 0 -232 -88t-120 -240q95 94 235 94q140 1 218 -77t78 -197t-86 -204t-240 -85t-240 109t-86 274q0 217 132 361t339 145q63 0 105 -12l16 -2 l-24 -86q-44 8 -95 8z" glyph-name="uni2076" horiz-adv-x="835" unicode="⁶"/><glyph d="M317 788h-114q0 122 43 258t130 284t148 226h-458v93h583v-82q-39 -46 -105 -148t-110 -189t-81 -210q-36 -123 -36 -232z" glyph-name="uni2077" horiz-adv-x="704" unicode="⁷"/><glyph d="M250 1446q0 -94 172 -154q174 59 174 154q0 55 -49 94t-124 39t-124 -39t-49 -94zM643 1016q0 70 -60 114t-161 80q-100 -37 -160 -81q-60 -43 -61 -113q0 -70 63 -112q62 -42 158 -42t159 42q62 42 62 112zM88 1010q0 158 217 243q-162 70 -162 201q0 94 78 152t203 57 q125 0 203 -57t78 -152q0 -129 -166 -201q217 -86 217 -243q0 -109 -93 -172q-93 -64 -239 -64t-242 64q-94 64 -94 172z" glyph-name="uni2078" horiz-adv-x="841" unicode="⁸"/><glyph d="M386 1186q90 0 152 37t87 82q-5 123 -63 195t-158 71q-100 1 -153 -59q-54 -60 -54 -138t50 -133t139 -55zM262 866q137 0 233 87q95 87 121 241q-88 -94 -232 -94t-221 78t-77 196t86 204q86 85 238 85t240 -110q87 -110 87 -275q0 -215 -132 -359t-341 -145 q-56 0 -104 12l-15 2l29 86q39 -8 88 -8z" glyph-name="uni2079" horiz-adv-x="835" unicode="⁹"/><glyph d="M367 1477h86v-238h280v-82h-280v-237h-86v237h-281v82h281v238z" glyph-name="uni207A" horiz-adv-x="821" unicode="⁺"/><glyph d="M129 844v745q0 57 4 84t26 58q23 31 67 49t126 39l33 -68q-104 -33 -126 -57t-21 -95v-765q0 -72 22 -96t125 -58l-33 -68q-154 37 -188 80t-35 152z" glyph-name="uni207D" horiz-adv-x="456" unicode="⁽"/><glyph d="M328 1589v-745q0 -109 -36 -152t-190 -80l-30 68q104 35 125 58q20 24 20 96v765q0 74 -20 97t-125 55l30 68q154 -37 190 -81t36 -149z" glyph-name="uni207E" horiz-adv-x="456" unicode="⁾"/><glyph d="M227 1434v-93q141 106 281 107q190 0 190 -201v-459h-106v441q0 133 -115 133q-63 0 -135 -34t-115 -71v-469h-106v646h106z" glyph-name="uni207F" horiz-adv-x="811" unicode="ⁿ"/><glyph d="M217 123q0 -356 228 -356t229 356q0 356 -228 356t-229 -356zM104 123q0 215 86 329t253 115t253 -115t86 -330t-86 -329t-253 -115t-253 115t-86 330z" glyph-name="uni2080" horiz-adv-x="886" unicode="₀"/><glyph d="M369 -307h-111v751l-160 -79l-49 73l217 115h103v-860z" glyph-name="uni2081" horiz-adv-x="509" unicode="₁"/><glyph d="M692 -215v-92h-606v69q0 80 44 148t93 105t136 93q89 56 123 82t66 67q32 42 32 93t-48 88t-129 37q-131 0 -239 -78l-53 72q147 98 287 98t216 -61t76 -162q0 -61 -18 -91t-28 -47t-35 -40q-26 -23 -37 -34t-46 -34t-69 -47t-74 -45q-92 -59 -132 -105t-40 -116h481z " glyph-name="uni2082" horiz-adv-x="792" unicode="₂"/><glyph d="M557 348q-1 127 -183 127q-92 0 -210 -72l-47 70q56 43 137 69q82 25 149 25q125 0 195 -58q70 -59 70 -133q0 -150 -172 -208q92 -23 151 -85q59 -61 59 -157t-79 -172t-239 -76t-314 91l53 77q119 -76 258 -75q92 0 153 45q60 45 60 128t-89 127t-198 44h-43v94h49 q96 0 168 38t72 101z" glyph-name="uni2083" horiz-adv-x="800" unicode="₃"/><glyph d="M537 -27v486l-351 -486h351zM68 -117v80l434 590h145v-580h137v-90h-137v-190h-110v190h-469z" glyph-name="uni2084" horiz-adv-x="858" unicode="₄"/><glyph d="M664 553v-92h-404l-24 -254q76 33 159 33q139 0 223 -80t84 -197t-85 -201t-232 -84t-299 91l51 79q109 -76 215 -76t170 54q64 53 64 135t-56 135q-56 54 -153 54q-96 0 -193 -54l-61 33l49 424h492z" glyph-name="uni2085" horiz-adv-x="792" unicode="₅"/><glyph d="M641 -35q1 79 -51 135t-141 56t-150 -38t-86 -81q4 -125 61 -196q58 -71 158 -71t155 59q54 58 54 136zM573 475q-137 0 -232 -88t-120 -240q95 95 235 95t218 -78t78 -197t-86 -204t-240 -85t-240 109t-86 274q0 217 132 361t339 145q65 0 121 -14l-24 -86q-44 8 -95 8z " glyph-name="uni2086" horiz-adv-x="835" unicode="₆"/><glyph d="M317 -307h-114q0 121 51 282t205 395q33 50 65 91h-458v92h583v-82q-39 -46 -105 -148t-110 -189t-81 -210q-36 -123 -36 -231z" glyph-name="uni2087" horiz-adv-x="704" unicode="₇"/><glyph d="M250 350q0 -94 172 -153q174 59 174 153q0 55 -49 94t-124 39t-124 -39t-49 -94zM643 -80q0 70 -60 114t-161 81q-100 -37 -160 -81t-61 -114q0 -70 63 -112q62 -42 158 -41q96 -1 158 41t63 112zM88 -86q0 158 217 244q-162 70 -162 200q0 94 78 152t203 57 q125 0 203 -57t78 -152q0 -129 -166 -200q217 -86 217 -244q0 -109 -93 -172q-93 -64 -239 -64t-242 64q-94 64 -94 172z" glyph-name="uni2088" horiz-adv-x="841" unicode="₈"/><glyph d="M384 90q90 0 152 37t87 82q-5 123 -63 195t-158 71q-100 0 -153 -59q-54 -60 -54 -138t50 -133t139 -55zM260 -229q137 0 233 88q95 88 121 239q-88 -94 -232 -94t-221 78t-77 196t86 204q86 85 238 85q152 1 240 -109q87 -110 87 -276q0 -215 -132 -359t-341 -145 q-55 0 -119 15l29 86q39 -8 88 -8z" glyph-name="uni2089" horiz-adv-x="835" unicode="₉"/><glyph d="M129 -252v746q0 57 4 84q4 28 26 58q23 30 67 48t126 39l33 -68q-104 -33 -126 -57t-21 -94v-766q0 -72 22 -96t125 -58l-33 -67q-154 37 -188 79t-35 152z" glyph-name="uni208D" horiz-adv-x="452" unicode="₍"/><glyph d="M324 494v-746q0 -110 -36 -152t-190 -79l-30 67q104 35 125 58q20 23 20 96v766q0 74 -20 96t-125 55l30 68q154 -37 190 -80t36 -149z" glyph-name="uni208E" horiz-adv-x="452" unicode="₎"/><glyph d="M492 295q31 -14 77 -23l197 856q-49 20 -76 27zM279 719q0 -248 133 -371l188 817q-139 -5 -230 -125t-91 -321zM145 719q1 264 135 411t324 148l23 -2l37 158h92l-39 -170q27 -6 76 -23l45 193h94l-53 -230q43 -23 147 -86l-68 -94q-60 40 -106 63l-188 -813 q114 22 265 119q28 18 29 19l68 -95q-2 -2 -28 -17t-47 -30t-80 -42q-134 -62 -234 -70l-37 -158h-94l37 162q-37 6 -78 18l-41 -180h-92l51 219q-109 66 -173 193q-65 127 -65 307z" glyph-name="colonmonetary" horiz-adv-x="1150" unicode="₡"/><glyph d="M166 668v96h166q-12 23 -45 76t-49 83q-46 86 -48 187q0 154 108 250t289 96t429 -135l-68 -96q-223 115 -353 115t-202 -72q-72 -70 -71 -172q0 -58 22 -110t65 -122q44 -70 60 -100h385v-96h-346q14 -58 14 -98t-2 -54h334v-94h-354q-29 -96 -85 -179t-100 -126h676 v-117h-848v98q7 6 19 16q89 75 162 201q31 53 47 107h-205v94h225l2 39q0 59 -18 113h-209z" glyph-name="lira" horiz-adv-x="1132" unicode="₤"/><glyph d="M711 690q346 0 372 271h-731v-271h359zM352 1317v-275h731q-25 274 -372 275h-359zM152 961v81h65v392h485q498 0 523 -392h55v-81h-55q-27 -387 -523 -388h-350v-573h-135v961h-65z" glyph-name="peseta" horiz-adv-x="1359" unicode="₧"/><glyph d="M1356 487l86 -333l86 333h-172zM557 487l84 -333l88 333h-172zM1262 844l67 -258h223l66 258h-356zM465 844l65 -258h224l67 258h-356zM139 487v99h262l-71 258h-193v96h166l-137 494h147l127 -494h408l129 494h131l129 -494h405l127 494h148l-137 -494h166v-96h-193 l-70 -258h263v-99h-291l-133 -487h-152l-328 1243l-329 -1243h-148l-137 487h-289z" glyph-name="uni20A9" horiz-adv-x="2080" unicode="₩"/><glyph d="M117 836v94h141q42 262 190 394t360 132t519 -211l-74 -96q-272 186 -437 186t-270 -106t-145 -299h615v-94h-629q-6 -57 -6 -123t6 -127h629v-94h-613q39 -188 145 -290t253 -104q180 0 452 187l74 -97q-307 -211 -518 -211t-357 129t-192 386h-143v94h131q-6 60 -6 116 t4 134h-129z" glyph-name="Euro" horiz-adv-x="1452" unicode="€"/><glyph d="M1495 387v92h598v-92h-598zM1794 698q128 0 186 77t58 232t-58 233t-186 77q-127 0 -185 -78q-59 -79 -59 -233t58 -231t186 -77zM2159 1008q1 -199 -93 -303q-94 -105 -272 -105t-272 104t-95 304q1 199 95 303t272 104t272 -104t93 -303zM346 0h-133v1434h139 l791 -1235v1235h133v-1434h-139l-791 1235v-1235z" glyph-name="afii61352" horiz-adv-x="2285" unicode="№"/><glyph d="M219 717q0 -289 172 -475t476 -186q303 0 477 186t174 475t-173 475t-477 186t-477 -186q-172 -186 -172 -475zM137 717q0 323 195 531q194 208 536 208t536 -209t194 -531t-194 -530q-194 -209 -536 -209t-536 209t-195 531zM1126 885q0 176 -194 176h-187v-352h187 q194 0 194 176zM930 1147q299 0 299 -263t-299 -263h-185v-336h-102v862h287z" glyph-name="uni2117" horiz-adv-x="1734" unicode="℗"/><glyph d="M584 1100q0 -59 -56 -96t-158 -37t-220 61l40 57q106 -49 172 -49q134 0 134 60q0 27 -30 39q-47 19 -114 35t-102 31t-61 43q-25 28 -25 77t50 85t146 36t197 -51l-41 -56q-94 37 -152 37q-114 0 -114 -55q0 -27 26 -38q44 -19 138 -40q170 -47 170 -139zM1098 975v334 l-148 -258h-57l-145 256v-332h-89v459h93l170 -299l172 299h90v-459h-86z" glyph-name="uni2120" horiz-adv-x="1357" unicode="℠"/><glyph d="M571 1362h-170v-387h-88v387h-166v72h424v-72zM1090 975v334l-148 -258h-55l-150 264v-340h-86v459h94l168 -299l172 299h91v-459h-86z" glyph-name="trademark" horiz-adv-x="1351" unicode="™"/><glyph d="M757 1456q316 0 463 -195q146 -196 146 -536q0 -247 -90 -397t-203 -211h248v-117h-447v113q158 61 256 213t98 420t-109 431q-110 163 -363 162q-471 0 -471 -620q0 -241 98 -393t256 -213v-113h-449v117h244q-109 66 -197 214q-89 148 -90 394q0 339 147 535t463 196z " glyph-name="uni2126" horiz-adv-x="1515" unicode="Ω"/><glyph d="M1208 78q114 0 176 45t62 128t-89 127t-198 44h-41v94h49q96 0 167 38t71 102t-45 95q-45 32 -121 31q-115 0 -227 -71l-49 69q131 94 272 94t210 -59t68 -143q0 -141 -172 -197q95 -23 155 -85t60 -157t-80 -172q-81 -75 -246 -75t-306 90l51 78q119 -76 233 -76z M1120 1434l-686 -1434h-115l685 1434h116zM389 573h-110v752l-160 -80l-49 74l217 115h102v-861z" glyph-name="onethird" horiz-adv-x="1667" unicode="⅓"/><glyph d="M1496 78q114 0 176 45t62 128t-89 127q-90 44 -199 44h-41v94h49q96 0 167 38t71 102t-45 95q-45 32 -119 31q-119 0 -228 -71l-49 69q123 94 267 94t214 -59q69 -59 68 -143q0 -143 -172 -197q94 -23 154 -85t61 -157q0 -95 -81 -171q-80 -76 -240 -76t-314 90l54 78 q120 -76 234 -76zM1407 1434l-686 -1434h-115l686 1434h115zM725 666v-93h-604v70q0 124 84 203q65 63 130 104q63 42 105 68t76 51t66 68t32 94t-47 88t-131 37q-129 0 -237 -78l-54 72q147 98 287 98t217 -62q76 -62 76 -161q1 -93 -59 -155q-24 -26 -49 -50 q-26 -26 -155 -105t-173 -129q-45 -51 -45 -120h481z" glyph-name="twothirds" horiz-adv-x="1951" unicode="⅔"/><glyph d="M1067 657q0 -94 174 -153q174 61 174 153q0 55 -50 95t-125 39q-75 1 -124 -39t-49 -95zM389 573h-110v752l-160 -80l-49 74l217 115h102v-861zM1462 227q0 70 -60 114t-161 81q-103 -37 -163 -81t-60 -114q0 -69 64 -111t159 -42q93 0 157 42t64 111zM1120 1434 l-686 -1434h-115l685 1434h116zM907 221q0 158 217 244q-164 72 -163 201q0 94 77 151q78 57 203 57t204 -57t79 -151q0 -129 -166 -201q215 -86 215 -244q0 -109 -93 -172q-92 -63 -238 -63t-241 63q-94 63 -94 172z" glyph-name="oneeighth" horiz-adv-x="1679" unicode="⅛"/><glyph d="M1315 657q0 -94 174 -153q174 61 174 153q0 55 -50 95t-125 39q-75 1 -124 -39t-49 -95zM1710 227q0 70 -60 114t-161 81q-103 -37 -163 -81t-60 -114q0 -69 64 -111t159 -42q93 0 157 42t64 111zM1366 1434l-686 -1434h-115l684 1434h117zM414 651q92 0 152 45t60 128 t-88 127q-89 44 -198 44h-41v95h47q96 0 168 38t72 100q0 128 -166 128q-109 0 -227 -72l-48 70q123 94 267 94t215 -59q69 -59 69 -133q-1 -151 -172 -207q94 -23 154 -85t59 -158q0 -96 -81 -171q-80 -76 -240 -76t-314 90l54 78q119 -76 258 -76zM1155 221q0 158 217 244 q-164 72 -164 201q0 94 78 151t203 57t204 -57t79 -151q0 -129 -166 -201q217 -86 217 -244q0 -109 -94 -172q-93 -63 -239 -63t-241 63q-94 63 -94 172z" glyph-name="threeeighths" horiz-adv-x="1927" unicode="⅜"/><glyph d="M1272 657q0 -94 172 -153q174 59 174 153q0 55 -48 95t-124 39q-76 1 -125 -39t-49 -95zM1667 227q0 70 -60 114t-163 81q-100 -37 -160 -81t-59 -114q0 -69 63 -111q64 -42 158 -42t158 42t63 111zM1325 1434l-686 -1434h-115l686 1434h115zM688 1434v-93h-403l-25 -254 q76 33 160 33q139 0 223 -80t84 -196t-85 -201q-84 -84 -232 -84t-299 90l51 80q109 -76 214 -76q105 -1 170 53q64 54 64 136t-56 135t-152 53t-193 -53l-62 33l50 424h491zM1110 221q0 158 217 244q-162 70 -162 201q0 94 78 151t203 57t203 -57t77 -151q0 -129 -165 -201 q217 -86 217 -244q0 -109 -94 -172t-239 -63q-146 0 -241 63q-94 63 -94 172z" glyph-name="fiveeighths" horiz-adv-x="1882" unicode="⅝"/><glyph d="M1083 657q0 -94 174 -153q174 61 175 153q0 55 -50 95t-124 39q-75 1 -125 -39t-50 -95zM1481 227q-1 70 -61 114t-163 81q-100 -37 -160 -81q-61 -44 -61 -114q0 -69 64 -111t158 -42q95 0 159 42t64 111zM328 573h-115q0 121 43 257t131 283t150 228h-459v93h581v-82 q-35 -40 -103 -145t-112 -192t-80 -210t-36 -232zM1139 1434l-686 -1434h-115l684 1434h117zM926 221q0 158 215 244q-164 72 -164 201q0 94 78 151q79 57 203 57t203 -57t79 -151q0 -129 -166 -201q217 -86 217 -244q0 -109 -94 -172q-93 -63 -239 -63t-239 63t-93 172z " glyph-name="seveneighths" horiz-adv-x="1697" unicode="⅞"/><glyph d="M975 477q0 185 -94 287q-93 102 -267 102t-268 -108t-94 -285q0 -179 94 -283t265 -104t268 103q96 104 96 288zM431 1325q-94 0 -175 -18l-29 102q76 25 183 25q306 0 502 -242t196 -621q0 -332 -143 -463t-362 -131q-218 -1 -351 135t-133 362t128 364t339 137 q153 0 244 -57t116 -95l12 -16q-42 191 -170 345q-66 79 -164 126t-193 47z" glyph-name="partialdiff" horiz-adv-x="1251" unicode="∂"/><glyph d="M1145 117l-455 1159l-459 -1159h914zM1323 0h-1266l555 1434h152z" glyph-name="uni2206" horiz-adv-x="1380" unicode="∆"/><glyph d="M1339 1434v-117h-223v-1317h-133v1317h-551v-1317h-135v1317h-223v117h1265z" glyph-name="product" horiz-adv-x="1415" unicode="∏"/><glyph d="M119 1434h878v-117h-712l577 -600l-577 -600h712v-117h-878v115l571 602l-571 602v115z" glyph-name="summation" horiz-adv-x="1126" unicode="∑"/><glyph d="M113 629v106h1020v-106h-1020z" glyph-name="minus" horiz-adv-x="1243" unicode="−"/><glyph d="M1122 1434l-614 -1434h-76l-366 696h141l256 -491l516 1229h143z" glyph-name="radical" horiz-adv-x="1161" unicode="√"/><glyph d="M492 315q73 1 115 21q43 20 64 28t77 55q55 46 59 49t35 32l30 28q-126 115 -206 164t-182 49q-102 -1 -163 -67t-61 -146t60 -146t172 -67zM1642 528q0 80 -61 146t-163 67q-102 0 -186 -51q-83 -51 -204 -162l31 -28q31 -29 35 -32t32 -28q28 -26 37 -30q8 -4 35 -24 t40 -24q13 -6 56 -26t115 -21q111 0 172 67q61 66 61 146zM1761 528q0 -134 -100 -226q-101 -91 -239 -91t-236 58t-236 188q-90 -84 -143 -127t-139 -81t-174 -38q-156 0 -255 91t-100 226q-1 134 99 226t250 92t270 -86q68 -49 94 -72t98 -90q197 191 311 225 q75 22 146 23q154 0 254 -92t100 -226z" glyph-name="infinity" horiz-adv-x="1902" unicode="∞"/><glyph d="M336 72v1235q0 229 84 320t311 91h29v-100h-49q-127 0 -191 -64q-42 -42 -49 -178q-2 -39 -2 -125v-1132q0 -231 -84 -321t-311 -91h-29v100h47q95 -1 132 21q36 22 54 36t28 46t20 60t10 102z" glyph-name="integral" horiz-adv-x="804" unicode="∫"/><glyph d="M393 633q97 0 245 -71t226 -70q109 0 178 126l93 -34q-100 -203 -281 -203q-96 0 -244 71t-227 70q-106 0 -178 -129l-92 37q100 203 280 203zM852 854q66 0 107 26q42 26 83 101l93 -37q-100 -201 -281 -201q-96 0 -244 71t-227 71q-106 0 -178 -129l-92 37 q98 201 280 200q97 1 245 -69t214 -70z" glyph-name="approxequal" horiz-adv-x="1243" unicode="≈"/><glyph d="M111 813v107h555l149 348l92 -37l-135 -311h358v-107h-403l-111 -256h514v-108h-561l-147 -345l-90 37l131 308h-352v108h399l108 256h-507z" glyph-name="notequal" horiz-adv-x="1243" unicode="≠"/><glyph d="M104 0v100h1020v-100h-1020zM1124 987l-866 -346l866 -344v-129l-1018 426v96l1018 426v-129z" glyph-name="lessequal" horiz-adv-x="1243" unicode="≤"/><glyph d="M1137 100v-100h-1020v100h1020zM1135 690v-96l-1018 -426v129l864 344l-864 346v129z" glyph-name="greaterequal" horiz-adv-x="1243" unicode="≥"/><glyph d="M436 932h174v162q0 66 -51 112t-125 47q-74 0 -126 -47q-52 -48 -52 -114t52 -113t128 -47zM1069 1094v-162h176q72 0 124 47t52 114t-52 113t-125 47q-73 -1 -124 -47t-51 -112zM717 829v-221h246v221h-246zM610 506h-174q-76 0 -128 -47t-52 -114t52 -114t126 -47 t125 47t51 115v160zM1245 506h-176v-160q0 -68 51 -115t124 -47t125 47t52 114t-52 114t-124 47zM1245 82q-119 0 -201 77t-81 187v160h-246v-160q0 -112 -82 -188t-201 -76t-202 77q-82 77 -82 187t84 186t202 76h174v221h-174q-119 0 -203 78t-83 187q0 110 84 186t200 76 q117 0 200 -77t83 -185v-162h246v162q-1 110 81 186t201 76t201 -77t82 -185t-82 -187q-82 -78 -201 -78h-176v-221h176q117 0 200 -77t83 -187t-82 -186t-201 -76z" glyph-name="uni2318" horiz-adv-x="1679" unicode="⌘"/><glyph d="M893 717l-334 608l-330 -608l330 -608zM641 0h-162l-391 717l391 717h162l393 -717z" glyph-name="lozenge" horiz-adv-x="1116" unicode="◊"/><glyph d="M16 -315v182h144l18 -186l-131 -222l-47 47l84 179h-68z" glyph-name="uniF6C3" horiz-adv-x="151" unicode=""/><glyph d="M201 123q0 -100 46 -166t118 -76v484q-72 -10 -118 -76t-46 -166zM449 -307h-84v96q-115 8 -194 95t-79 240t79 240t194 93v96h84v-100q70 -12 213 -88l-52 -76q-119 63 -161 73v-479q43 10 161 74l52 -78l-40 -20q-96 -48 -173 -66v-100z" glyph-name="uniF6DF" horiz-adv-x="749" unicode=""/><glyph d="M201 1218q0 -101 45 -166t119 -77v485q-72 -10 -118 -76t-46 -166zM449 788h-84v95q-115 8 -194 96t-79 241q0 154 79 240t194 92v97h84v-101q70 -12 213 -88l-52 -76q-119 63 -161 74v-479q66 16 161 74l52 -78q-137 -72 -213 -86v-101z" glyph-name="uniF6E0" horiz-adv-x="749" unicode=""/><glyph d="M123 -307v149h119l16 -157l-106 -158l-37 39l63 127h-55z" glyph-name="uniF6E1" horiz-adv-x="370" unicode=""/><glyph d="M123 788v150h119l16 -158l-106 -157l-37 39l63 126h-55z" glyph-name="uniF6E2" horiz-adv-x="370" unicode=""/><glyph d="M209 346q0 -57 41 -88t121 -55v272q-70 -4 -116 -38t-46 -91zM633 -95q0 60 -46 96t-134 67v-297q76 4 128 39t52 95zM453 -430h-82v115q-158 20 -295 100l53 80q121 -68 242 -88v317q-204 54 -253 150q-22 41 -22 94q0 102 77 164t198 65v111h82v-115q131 -18 256 -76 l-50 -81q-102 45 -206 63v-291q122 -41 182 -78q110 -69 109 -182t-85 -174t-206 -66v-108z" glyph-name="uniF6E3" horiz-adv-x="823" unicode=""/><glyph d="M209 1442q0 -57 41 -88t121 -56v273q-70 -4 -116 -38t-46 -91zM633 1001q0 60 -46 96t-134 66v-297q74 2 127 38t53 97zM453 666h-82v112q-154 18 -295 103l53 80q111 -68 242 -89v318q-203 54 -253 149q-22 41 -22 95q0 102 77 163t198 66v111h82v-115q131 -18 256 -76 l-50 -82q-102 45 -206 64v-291q122 -41 182 -78q110 -69 109 -182t-85 -174t-206 -66v-108z" glyph-name="uniF6E4" horiz-adv-x="823" unicode=""/><glyph d="M121 -307v149h123v-149h-123z" glyph-name="uniF6E7" horiz-adv-x="364" unicode=""/><glyph d="M121 788v150h123v-150h-123z" glyph-name="uniF6E8" horiz-adv-x="364" unicode=""/><glyph d="M326 860q115 0 227 94v142q-14 2 -81 15t-122 13q-168 0 -168 -139q1 -125 144 -125zM553 788v86q-115 -100 -254 -100q-92 0 -159 51q-66 51 -66 155t66 159q67 53 169 53q55 0 244 -35v72q0 71 -32 103q-33 32 -111 32t-252 -53l-37 75q188 61 301 62q236 0 235 -215 v-445h-104z" glyph-name="uniF6E9" horiz-adv-x="772" unicode=""/><glyph d="M446 1362q-123 0 -219 -105v-294q94 -102 219 -103q84 0 127 66t43 186t-43 184q-43 66 -127 66zM121 788v895h106v-333q115 98 234 98t191 -84t71 -253q0 -169 -72 -253q-73 -84 -189 -84t-235 96v-82h-106z" glyph-name="uniF6EA" horiz-adv-x="808" unicode=""/><glyph d="M365 860q121 0 219 103v294q-100 104 -219 105q-84 0 -127 -66t-43 -186t43 -184q43 -66 127 -66zM688 788h-104v84q-111 -98 -233 -98q-121 0 -193 84t-72 253t72 253t192 84t234 -100v335h104v-895z" glyph-name="uniF6EB" horiz-adv-x="808" unicode=""/><glyph d="M397 1366q-88 0 -141 -57t-63 -158h389q-1 215 -185 215zM84 1110q0 160 88 249t226 89t213 -78t75 -203l-8 -82h-485q6 -106 59 -167q53 -62 141 -62t248 88l49 -67q-346 -196 -521 -15q-85 88 -85 248z" glyph-name="uniF6EC" horiz-adv-x="776" unicode=""/><glyph d="M117 1561v120h116v-120h-116zM229 788h-106v646h106v-646z" glyph-name="uniF6ED" horiz-adv-x="346" unicode=""/><glyph d="M225 788h-104v895h104v-895z" glyph-name="uniF6EE" horiz-adv-x="346" unicode=""/><glyph d="M227 1434v-97q121 111 257 111t171 -121q127 121 263 121q186 0 186 -201v-459h-105v441q1 133 -111 133t-222 -111v-463h-107v441q0 133 -112 133t-220 -109v-465h-106v646h106z" glyph-name="uniF6EF" horiz-adv-x="1218" unicode=""/><glyph d="M401 860q211 0 211 251t-211 251t-211 -251t211 -251zM719 1111q0 -159 -82 -248t-236 -89q-153 0 -235 89t-82 248t82 248t236 89t235 -89q82 -89 82 -248z" glyph-name="uniF6F0" horiz-adv-x="804" unicode=""/><glyph d="M227 1434v-140q8 23 30 54q22 32 84 66t142 28v-99q-65 1 -115 -21q-114 -49 -141 -183v-351h-106v646h106z" glyph-name="uniF6F1" horiz-adv-x="532" unicode=""/><glyph d="M351 774q-128 0 -277 80l47 78q135 -72 246 -72q147 0 147 92q0 49 -48 74t-95 37t-85 21q-38 8 -80 26t-81 60t-39 113t66 118t182 47t258 -68l-49 -71q-119 55 -215 55q-139 0 -140 -90q0 -33 20 -48q41 -32 72 -41q31 -10 61 -17q148 -34 213 -84q66 -50 66 -134 t-70 -130q-71 -46 -199 -46z" glyph-name="uniF6F2" horiz-adv-x="694" unicode=""/><glyph d="M55 1354v80h95v161l106 25v-186h186v-80h-186v-420q0 -70 61 -70q53 0 129 35l41 -80q-113 -45 -186 -45q-152 0 -151 164v416h-95z" glyph-name="uniF6F3" horiz-adv-x="540" unicode=""/><glyph d="M745 254q141 0 277 107q135 108 214 261t79 285q0 63 -41 101q25 -37 24 -84q0 -211 -174 -430q-188 -231 -401 -232q-59 0 -100 19q40 -27 122 -27zM946 -20q-12 0 -20 16l-35 61q-20 41 -47 0l-31 -61q-8 -16 -20 -16t-17 20l-20 68q-12 43 -45 10l-47 -55 q-29 -31 -35 12l-4 69q-1 20 -15 26t-30 -5l-54 -43q-16 -12 -26 -7t-6 25l10 68q2 20 -10 30t-31 -1l-62 -31q-18 -8 -26 -1t0 25l22 68q8 18 -2 30t-28 5l-70 -19q-21 -4 -27 6t4 25l39 62q10 16 4 28t-26 13l-72 -5q-20 1 -24 11t8 24l51 49q12 15 8 29t-24 16l-68 13 q-14 2 -24 12t16 25l57 41q2 2 5 4t5 4l2 4q18 16 37 -12l33 -64q10 -18 21 -16q10 2 16 20l18 70q8 24 23 21q14 -3 22 -13l48 -53q30 -30 34 12l4 70q9 44 43 18l58 -43q16 -12 25 -7t5 26l-8 69q-2 21 10 29t27 -2l64 -29q18 -8 26 -1t2 26l-22 67q-8 19 1 29t27 4l15 -2 q40 -78 70 -203t30 -217q-29 -37 -94 -37h-8q0 45 -33 72q18 -20 18 -55v-15q-33 2 -33 42t-27 69q-28 29 -73 29q-44 0 -72 -32t-28 -85t50 -90t138 -37q139 0 276 108q136 109 215 261t79 284q0 58 -37 98t-89 40t-90 -34t-38 -85q0 -106 119 -119q-31 -123 -60 -174 q-27 209 -119 307q90 -119 107 -330l-29 -41q0 156 -51 287t-131 172q-12 23 24 31l70 12q26 4 20 21q-3 8 -14 14l-59 39q-35 31 6 47l64 29q31 9 19 25q-5 7 -19 11l-64 27q-23 10 -20 29q12 6 14 16l35 62q10 18 21 17t16 -19l20 -68q14 -47 45 -10l47 53q13 16 23 13 t12 -23l4 -72q2 -19 15 -25t28 7l57 43q14 12 24 6t7 -27l-10 -70q-2 -20 10 -28t29 2l63 33q19 8 27 0t0 -29l-23 -64q-7 -20 3 -30t28 -4l70 14q20 6 26 -2t-4 -27l-37 -59q-12 -15 -6 -29t27 -12l72 4q20 0 24 -10t-8 -25l-49 -53q-14 -14 -10 -28t24 -15l70 -12 q41 -10 6 -39l-57 -39q-16 -9 -16 -23t22 -22l63 -27q18 -8 19 -18q0 -10 -19 -19l-63 -26q-18 -8 -20 -22t14 -25l57 -41q16 -10 15 -22t-21 -15l-70 -13q-20 -2 -24 -16t10 -29l49 -49q12 -14 8 -24t-24 -11l-72 5q-20 0 -26 -12t5 -29l37 -62q10 -16 4 -25t-26 -6l-70 19 q-18 6 -27 -5t-4 -30l23 -68q8 -18 0 -25t-27 1l-63 31q-16 10 -28 1t-11 -30l10 -68q2 -20 -6 -25t-25 7l-57 43q-17 12 -29 6t-14 -27l-4 -69q-2 -19 -12 -23t-23 11l-47 55q-33 33 -45 -10l-20 -68q-5 -20 -17 -20z" glyph-name="uniF8FF" horiz-adv-x="1755" unicode=""/><glyph d="M1108 973v102h152v72q0 121 -60 193t-184 73q-123 -1 -189 -67q-65 -66 -65 -164t31 -148q57 -25 96 -43l-60 -92q-188 92 -317 92t-196 -45t-66 -129q0 -39 19 -72t43 -51t75 -40t101 -35t57 -15q195 -51 292 -128t97 -213t-110 -211t-267 -75q-225 0 -457 129l60 97 q213 -119 387 -119q104 0 182 46t78 134q0 138 -238 209q-27 9 -88 25t-101 29q-260 85 -257 284q0 135 102 211t262 76q100 0 209 -31q-20 47 -20 115q0 145 93 228t262 83t261 -98t92 -269v-51h299v-102h-299v-764q0 -119 107 -119q78 0 215 57l51 -98q-152 -72 -280 -72 q-217 0 -217 240v756h-152z" glyph-name="uniFB06" horiz-adv-x="1792" unicode="ﬆ"/><glyph d="M252 1231q0 -94 172 -154q174 59 174 154q0 55 -49 94t-124 39t-124 -39t-49 -94zM645 801q0 69 -60 113t-161 81q-100 -37 -160 -81t-61 -114q0 -70 63 -111q62 -42 158 -42t159 42q62 42 62 112zM90 795q0 158 217 243q-162 70 -162 201q0 93 78 151t203 58t203 -57 t78 -152q0 -129 -166 -201q217 -86 217 -243q0 -109 -93 -172t-239 -63t-242 62q-94 64 -94 173z" glyph-name="eight.frac" horiz-adv-x="845"/><glyph d="M498 868q282 0 282 350t-282 351q-282 -1 -283 -351q0 -350 283 -350zM497 1663q204 0 300 -123t96 -305q0 -379 -275 -447l152 -114l-74 -76l-198 176q-205 0 -300 123t-96 322q0 199 96 321t299 123z" glyph-name="Q.ordn" horiz-adv-x="995"/><glyph d="M782 973v102h150v178q0 240 211 240q102 0 248 -51l-43 -96q-125 35 -185 34q-104 0 -104 -116v-189h295v-102h-295v-973h-127v973h-150zM74 973v102h151v178q0 240 217 240q115 0 303 -66l-45 -96q-188 49 -243 49q-106 0 -107 -116v-189h291v-102h-291v-973h-125v973 h-151z" glyph-name="f.calt_f.calt.liga" horiz-adv-x="1409"/><glyph d="M350 1243v-168h518v178q0 37 2 54q-280 53 -362 53q-158 0 -158 -117zM74 973v102h149v158q0 240 262 240q154 0 418 -62q51 82 174 82t312 -66l-50 -96q-180 49 -239 49q-102 0 -103 -116v-189h293v-102h-293v-973h-129v973h-518v-973h-127v973h-149z" glyph-name="f_f.ss01" horiz-adv-x="1345"/><glyph d="M868 1253q0 37 4 54q-278 53 -362 53q-160 0 -160 -117v-168h518v178zM2015 987q-205 0 -370 -182v-537q166 -180 370 -180q141 0 216 119t75 331t-75 330t-216 119zM74 973v102h149v158q0 240 262 240q143 0 426 -64q67 84 221 84t384 -57v57h129v-563q181 168 373 168 t306 -137t113 -423q0 -286 -115 -423t-304 -137t-373 165v-143h-129v1325q-276 55 -360 55q-160 0 -159 -116v-189h293v-102h-293v-973h-129v973h-518v-973h-127v973h-149z" glyph-name="f_f_b.ss01" horiz-adv-x="2560"/><glyph d="M868 1253q0 37 4 54q-278 53 -362 53q-160 0 -160 -117v-168h518v178zM74 973v102h149v158q0 240 262 240q143 0 426 -64q67 84 221 84t384 -57v57h129v-575q81 63 205 121t245 59q299 0 299 -328v-770h-127v750q0 240 -201 239q-106 0 -226 -61t-195 -127v-801h-129 v1325q-276 55 -360 55q-160 0 -159 -116v-189h293v-102h-293v-973h-129v973h-518v-973h-127v973h-149z" glyph-name="f_f_h.ss01" horiz-adv-x="2566"/><glyph d="M868 1253q0 37 4 54q-278 53 -362 53q-160 0 -160 -117v-168h518v178zM74 973v102h149v158q0 240 262 240q143 0 426 -64q66 84 223 84t404 -66l-53 -98q-283 51 -346 51q-142 0 -142 -116v-189h594v-1075h-127v973h-467v-973h-129v973h-518v-973h-127v973h-149z" glyph-name="f_f_i.ss01" horiz-adv-x="1769"/><glyph d="M872 1253q0 37 5 54q-281 53 -364 53q-159 0 -159 -117v-168h518v178zM78 973v102h149v158q0 240 262 240q143 0 426 -64q66 84 223 84t404 -66l-53 -98q-281 51 -345 51q-143 0 -143 -116v-189h594v-1138q0 -189 -40 -229q-65 -66 -133 -88t-150 -46l-45 100 q121 39 188 77q40 21 50 98q3 24 3 83v1041h-467v-973h-129v973h-518v-973h-127v973h-149z" glyph-name="f_f_j.ss01" horiz-adv-x="1769"/><glyph d="M868 1253q0 37 4 54q-278 53 -362 53q-160 0 -160 -117v-168h518v178zM74 973v102h149v158q0 240 262 240q143 0 426 -64q67 84 221 84t384 -57v57h129v-1020l487 602h145l-364 -438l432 -637h-141l-369 545l-190 -230v-315h-129v1325q-276 55 -360 55q-160 0 -159 -116 v-189h293v-102h-293v-973h-129v973h-518v-973h-127v973h-149z" glyph-name="f_f_k.ss01" horiz-adv-x="2385"/><glyph d="M74 973v102h151v178q0 240 211 240q94 0 248 -51l-43 -96q-125 35 -184 34q-106 0 -107 -116v-189h297v-102h-297v-973h-125v973h-151z" glyph-name="f.calt" horiz-adv-x="700"/><glyph d="M868 1253q0 37 4 54q-278 53 -362 53q-160 0 -160 -117v-168h518v178zM74 973v102h149v158q0 240 262 240q143 0 426 -64q67 84 221 84t384 -57v57h129v-1493h-129v1325q-276 55 -360 55q-160 0 -159 -116v-189h293v-102h-293v-973h-129v973h-518v-973h-127v973h-149z " glyph-name="f_f_l.ss01" horiz-adv-x="1837"/><glyph d="M868 1253q0 37 2 54q-280 53 -362 53q-158 0 -158 -117v-168h518v178zM74 973v102h149v158q0 240 262 240q154 0 418 -62q51 82 174 82t312 -66l-50 -96q-188 49 -239 49q-104 0 -105 -116v-189h484v271l125 40v-311h299v-102h-299v-764q0 -119 106 -119q72 0 215 57 l49 -98q-152 -72 -278 -72q-217 0 -217 240v756h-484v-973h-127v973h-518v-973h-127v973h-149z" glyph-name="f_f_t.ss01" horiz-adv-x="2011"/><glyph d="M74 973v102h149v178q0 240 262 240q127 0 385 -57v57h129v-575q82 66 205 122t246 58q299 0 299 -328v-770h-127v750q0 240 -201 239q-106 0 -225 -61t-197 -129v-799h-129v1325q-276 55 -360 55t-122 -28t-38 -88v-189h295v-102h-295v-973h-127v973h-149z" glyph-name="f_h.ss01" horiz-adv-x="1921"/><glyph d="M258 1649l-31 -605h-65l-31 605h127zM135 788v142h121v-142h-121z" glyph-name="exclam.ordn" horiz-adv-x="393"/><glyph d="M74 973v102h149v178q0 240 266 240q156 0 404 -66l-53 -98q-280 51 -346 51q-144 0 -144 -116v-189h596v-1075h-127v973h-469v-973h-127v973h-149z" glyph-name="f_i.ss01" horiz-adv-x="1124"/><glyph d="M78 973v102h149v178q0 240 267 240q156 0 403 -66l-53 -98q-281 51 -346 51q-144 0 -144 -116v-189h596v-1138q0 -189 -40 -229q-66 -66 -134 -88t-149 -46l-45 100q116 37 188 77q40 21 50 98q3 24 3 83v1041h-469v-973h-127v973h-149z" glyph-name="f_j.ss01" horiz-adv-x="1124"/><glyph d="M74 973v102h149v178q0 240 262 240q127 0 385 -57v57h129v-1020l488 602h145l-366 -438l434 -637h-141l-369 545l-191 -228v-317h-129v1325q-276 55 -360 55t-122 -28t-38 -88v-189h295v-102h-295v-973h-127v973h-149z" glyph-name="f_k.ss01" horiz-adv-x="1740"/><glyph d="M256 553l-31 -604h-65l-31 604h127zM133 -307v141h121v-141h-121z" glyph-name="exclam.sinf" horiz-adv-x="389"/><glyph d="M74 973v102h149v178q0 240 262 240q127 0 385 -57v57h129v-1493h-129v1325q-276 55 -360 55t-122 -28t-38 -88v-189h295v-102h-295v-973h-127v973h-149z" glyph-name="f_l.ss01" horiz-adv-x="1191"/><glyph d="M74 973v102h149v178q0 240 219 240q113 0 301 -66l-49 -96q-180 49 -239 49q-104 0 -105 -116v-189h481v271l127 40v-311h299v-102h-299v-764q0 -119 105 -119q80 0 217 57l51 -98q-152 -72 -280 -72q-219 0 -220 240v756h-481v-973h-127v973h-149z" glyph-name="f_t.ss01" horiz-adv-x="1368"/><glyph d="M57 258v80h95v88q0 162 151 162q78 0 201 -41l-39 -78q-100 31 -146 31q-61 0 -61 -70v-92h182v-80h-182v-565h-106v565h-95z" glyph-name="f.sinf" horiz-adv-x="489"/><glyph d="M227 1393l31 -605h-127l31 605h65zM135 1507v142h121v-142h-121z" glyph-name="exclamdown.ordn" horiz-adv-x="391"/><glyph d="M662 860v-92h-404l-25 -254q76 33 160 33q139 0 222 -80t83 -197q0 -116 -84 -200t-231 -84t-299 90l51 80q109 -76 215 -76t170 53t64 135t-56 135t-152 53q-95 0 -196 -53l-59 33l49 424h492z" glyph-name="five.dnom" horiz-adv-x="792"/><glyph d="M662 1434v-93h-404l-25 -254q76 33 160 33q139 0 222 -80t83 -196t-84 -201q-84 -84 -231 -84t-299 90l51 80q109 -76 215 -76q106 -1 170 53t64 136t-56 135t-152 53q-95 0 -196 -53l-59 33l49 424h492z" glyph-name="five.frac" horiz-adv-x="792"/><glyph d="M983 1176v-117h-639l-41 -479q119 63 264 63q213 0 343 -132q130 -131 130 -323t-132 -330t-355 -138t-449 137l64 102q93 -60 190 -90q97 -31 170 -31q154 0 265 97t111 247t-98 248q-97 98 -254 98t-319 -92l-71 37l78 703h743z" glyph-name="five.oldstyle" horiz-adv-x="1157"/><glyph d="M1036 1434v-117h-639l-41 -479q119 63 265 63q213 0 343 -132q130 -131 130 -323t-132 -330t-356 -138t-448 137l63 102q93 -60 191 -91q98 -30 172 -30q152 0 262 98t110 246q0 150 -97 248t-254 98t-318 -92l-72 37l78 703h743z" glyph-name="five.tnum" horiz-adv-x="1259"/><glyph d="M225 297l31 -604h-127l31 604h65zM133 412v141h121v-141h-121z" glyph-name="exclamdown.sinf" horiz-adv-x="389"/><glyph d="M1122 537q0 -78 152 -123q152 41 151 123q0 45 -43 77q-42 32 -108 33q-66 -1 -109 -33t-43 -77zM1468 186q0 94 -194 160q-193 -61 -193 -160q1 -57 57 -91t138 -34t137 34t55 91zM1169 1176l-598 -1176h-98l596 1176h100zM614 1176v-78h-352l-18 -205q68 27 137 27 q123 0 195 -67t71 -162q0 -95 -73 -164q-74 -69 -200 -69t-261 74l45 68q96 -61 187 -61t148 43q56 43 56 108q0 66 -49 110t-135 44t-166 -45l-54 28l43 349h426zM983 182q0 129 191 199q-143 59 -144 166q0 76 69 123t176 47t176 -47t69 -123q0 -109 -146 -166 q193 -74 193 -199q0 -88 -82 -141t-209 -53t-210 53t-83 141z" glyph-name="fiveeighths.aalt" horiz-adv-x="1671"/><glyph d="M301 829l35 -829h-146l33 829h78zM188 991v185h150v-185h-150z" glyph-name="exclamdown.sc" horiz-adv-x="524"/><glyph d="M1423 463q-90 0 -152 -38t-85 -83q4 -123 63 -194q59 -70 159 -70t154 58t54 136t-51 135q-52 56 -142 56zM1325 1434l-686 -1434h-115l686 1434h115zM688 1434v-93h-403l-25 -254q76 33 160 33q139 0 223 -80t84 -196t-85 -201q-84 -84 -232 -84t-299 90l51 80 q109 -76 214 -76q105 -1 170 53q64 54 64 136t-56 135t-152 53t-193 -53l-62 33l50 424h491zM1546 782q-135 0 -231 -88t-121 -239q94 94 236 94t218 -78t76 -197q0 -120 -85 -204t-239 -84t-239 108q-86 108 -86 275q0 215 132 360t337 145q67 0 123 -14l-25 -86 q-45 8 -96 8z" glyph-name="glyph477" horiz-adv-x="1837"/><glyph d="M1423 224q0 62 -44 108t-124 45q-80 0 -133 -31t-73 -67q4 -101 54 -157t138 -56t135 48t47 110zM1169 1176l-598 -1176h-98l596 1176h100zM614 1176v-78h-352l-18 -205q68 27 137 27q123 0 195 -67t71 -162q0 -95 -73 -164q-74 -69 -200 -69t-261 74l45 68 q96 -61 187 -61t148 43q56 43 56 108q0 66 -49 110t-135 44t-166 -45l-54 28l43 349h426zM1364 641q-121 0 -205 -72t-104 -198q80 80 204 80q123 0 191 -65t68 -162t-74 -167q-74 -69 -208 -69t-210 89t-76 226q0 176 116 295t296 119q68 0 104 -12l-20 -72q-39 8 -82 8z " glyph-name="glyph478" horiz-adv-x="1630"/><glyph d="M336 1176l-35 -830h-76l-35 830h146zM188 0v184h150v-184h-150z" glyph-name="exclam.sc" horiz-adv-x="524"/><glyph d="M395 270q-88 0 -141 -57t-64 -158h390q-1 215 -185 215zM82 14q0 160 88 249t226 89t213 -78t75 -202l-8 -82h-486q6 -104 60 -166t141 -64q88 0 248 88l49 -67q-346 -197 -521 -15q-85 88 -85 248z" glyph-name="e.sinf" horiz-adv-x="772"/><glyph d="M334 1104q0 -180 295 -275q297 96 297 275q0 100 -85 171t-212 71t-211 -71t-84 -171zM1004 369q0 181 -241 291q-58 28 -134 57q-267 -95 -341 -224q-32 -56 -32 -124q0 -129 106 -204t266 -75t268 75t108 204zM117 365q0 264 356 407q-272 119 -272 340q0 156 121 250 t308 94t308 -94t121 -250q0 -219 -275 -338q356 -147 357 -409q-1 -179 -147 -283t-365 -104t-366 104q-146 105 -146 283z" glyph-name="eight.tnum" horiz-adv-x="1259"/><glyph d="M537 281v485l-353 -485h353zM68 190v80l432 590h145v-579h139v-91h-139v-190h-108v190h-469z" glyph-name="four.dnom" horiz-adv-x="856"/><glyph d="M537 854v485l-353 -485h353zM68 764v80l432 590h145v-580h139v-90h-139v-191h-108v191h-469z" glyph-name="four.frac" horiz-adv-x="856"/><glyph d="M815 188v859l-594 -859h594zM76 72v106l702 998h170v-988h221v-116h-221v-330h-133v330h-739z" glyph-name="four.oldstyle" horiz-adv-x="1253"/><glyph d="M819 446v863l-596 -863h596zM80 330v106l702 998h168v-988h219v-116h-219v-330h-131v330h-739z" glyph-name="four.tnum" horiz-adv-x="1259"/><glyph d="M549 854v485l-350 -485h350zM1417 1434l-686 -1434h-115l684 1434h117zM1812 860v-92h-405l-23 -254q76 33 162 33q139 0 221 -80t82 -197q0 -116 -85 -200t-234 -84t-295 90l49 80q118 -76 220 -76t168 53t65 134q1 81 -57 135t-155 54t-194 -53l-59 33l47 424h493z M80 764v80l434 590h143v-580h140v-90h-140v-191h-108v191h-469z" glyph-name="glyph486" horiz-adv-x="1970"/><glyph d="M498 700v400l-308 -400h308zM1251 1176l-596 -1176h-100l594 1176h102zM1595 705v-76h-352l-20 -209q68 29 139 29q120 0 192 -66t72 -162t-73 -165q-73 -68 -195 -68t-264 73l45 68q25 -19 82 -39t125 -20t125 43t57 108t-49 109t-141 43q-92 0 -160 -45l-54 28l41 349 h430zM88 625v67l379 484h123v-476h121v-75h-121v-154h-92v154h-410z" glyph-name="glyph487" horiz-adv-x="1746"/><glyph d="M934 1104q0 100 -85 171t-213 71t-212 -71t-84 -179t109 -180q75 -50 188 -89q204 67 268 170q29 47 29 107zM262 369q0 -127 108 -203t268 -76t266 75q108 75 108 207t-116 214q-116 83 -261 131q-267 -95 -341 -224q-32 -56 -32 -124zM125 365q0 266 356 407 q-272 119 -272 340q0 156 120 250t307 94t308 -94t121 -250q0 -221 -274 -340q358 -143 358 -407q1 -179 -147 -283t-367 -104t-365 104q-145 105 -145 283z" glyph-name="eight.oldstyle" horiz-adv-x="1273"/><glyph d="M252 657q0 -94 172 -153q174 59 174 153q0 55 -49 95t-124 39q-75 1 -124 -39t-49 -95zM645 227q0 70 -60 114t-161 81q-100 -37 -160 -81t-61 -114q0 -69 63 -111q62 -42 158 -42t158 42t63 111zM90 221q0 158 217 244q-162 70 -162 201q0 94 78 151t203 57t203 -57 t78 -151q0 -129 -166 -201q217 -86 217 -244q0 -109 -93 -172t-239 -63t-242 63q-94 63 -94 172z" glyph-name="eight.dnom" horiz-adv-x="845"/><glyph d="M283 898q0 -87 60 -130t187 -84v401q-106 -4 -176 -52t-71 -135zM899 287q0 90 -69 142t-203 97v-436q115 2 193 54t79 143zM627 -168h-97v156q-205 23 -405 135l61 94q170 -96 344 -121v463q-130 32 -254 108q-124 75 -123 218t108 224q108 81 269 85v152h97v-158 q182 -20 350 -103l-62 -94q-133 66 -288 88v-424q224 -68 312 -151q87 -85 87 -205q0 -149 -116 -231t-283 -86v-150z" glyph-name="dollar.oldstyle" horiz-adv-x="1144"/><glyph d="M121 283v94h117v1057h874v-117h-741v-543h594v-117h-594v-280h368v-94h-368v-283h-133v283h-117z" glyph-name="glyph491" horiz-adv-x="1200"/><glyph d="M119 225v86h102v865h770v-111h-641v-424h510v-109h-510v-221h320v-86h-320v-225h-129v225h-102z" glyph-name="glyph492" horiz-adv-x="1087"/><glyph d="M90 -147v67h74v633h573v-92h-461v-293h369v-90h-369v-158h234v-67h-234v-160h-112v160h-74z" glyph-name="glyph493" horiz-adv-x="806"/><glyph d="M90 948v68h74v633h573v-93h-461v-292h369v-90h-369v-158h234v-68h-234v-160h-112v160h-74z" glyph-name="glyph494" horiz-adv-x="808"/><glyph d="M57 1354v80h95v88q0 162 151 161q78 0 201 -41l-39 -77q-100 31 -146 30q-61 0 -61 -69v-92h182v-80h-182v-566h-106v566h-95z" glyph-name="f.ordn" horiz-adv-x="489"/><glyph d="M365 266q-170 0 -170 -252q0 -118 43 -184t127 -66q119 0 219 105v293q-100 104 -219 104zM688 -307h-104v84q-117 -99 -236 -99q-118 0 -190 84t-72 253t72 253t192 84t234 -100v336h104v-895z" glyph-name="d.sinf" horiz-adv-x="808"/><glyph d="M379 1358q-78 0 -132 -68t-54 -180t54 -178q54 -68 138 -68t215 80l51 -76q-171 -94 -283 -94t-198 89t-86 249t86 248t198 88t283 -94l-51 -76q-143 80 -221 80z" glyph-name="c.ordn" horiz-adv-x="722"/><glyph d="M203 588q0 -238 143 -390t397 -153q254 0 399 153q144 152 144 390t-144 390t-398 152t-398 -152q-143 -152 -143 -390zM133 588q0 264 163 435q162 171 448 171t447 -171t161 -435t-161 -435t-447 -171t-448 171t-163 435zM742 297q104 0 223 88l53 -59 q-154 -104 -283 -104t-215 95t-86 269t86 270t215 96t283 -104l-53 -60q-123 90 -225 90t-159 -80q-59 -81 -59 -212t58 -210t162 -79z" glyph-name="copyright.aalt" horiz-adv-x="1484"/><glyph d="M125 788v150h121v-150h-121zM125 1206v150h121v-150h-121z" glyph-name="colon.ordn" horiz-adv-x="372"/><glyph d="M326 987q25 -8 49 -12l117 471l-50 14zM205 1208q0 -116 67 -184l105 438q-76 -8 -124 -74q-48 -64 -48 -180zM96 1219q0 159 85 247t208 88h10l23 95h67l-24 -103q33 -8 47 -14l29 117h63l-35 -140q23 -10 57 -28t40 -21l-52 -76l-65 37l-109 -444q72 14 174 76l52 -78 q-162 -84 -248 -92l-23 -95h-65l22 97q-33 4 -49 10l-24 -107h-64l31 132q-150 86 -150 299z" glyph-name="colonmonetary.ordn" horiz-adv-x="753"/><glyph d="M440 567q319 0 320 -276v-6l-70 -60q-86 43 -150 43t-95 -24t-31 -57q0 -34 15 -55q15 -22 29 -28t19 -10q16 -10 102 -33q86 -22 149 -72q62 -50 62 -134t-62 -130q-62 -47 -176 -47t-255 80l45 78q123 -72 217 -72q53 0 89 23t36 61t-16 57t-30 26q-13 7 -28 16t-42 16 q-28 7 -56 19q-57 16 -95 33t-72 59t-34 114q-1 70 57 117t132 47t151 -22q-18 152 -211 151q-106 0 -159 -43t-54 -149v-596h-106v598q0 276 319 276z" glyph-name="germandbls.sinf" horiz-adv-x="862"/><glyph d="M440 1663q319 0 320 -277v-6l-70 -59q-86 43 -150 43t-95 -24t-31 -57t10 -48q10 -13 15 -21t19 -14t19 -10t23 -10l24 -8t26 -8q118 -30 179 -80t61 -134t-62 -130t-176 -46t-255 80l45 78q123 -72 217 -72q53 0 89 23t36 59t-10 48l-17 22q-10 14 -47 29q-36 16 -44 18 t-27 9q-20 7 -52 16q-32 8 -70 26t-72 60t-34 113q-1 71 57 118t132 47t151 -23q-18 152 -211 152q-106 0 -159 -43t-54 -150v-596h-106v598q0 277 319 277z" glyph-name="germandbls.ordn" horiz-adv-x="862"/><glyph d="M365 266q-170 0 -170 -252q0 -118 43 -184t127 -66q119 0 219 105v293q-100 104 -219 104zM584 338h104v-682q0 -225 -256 -225q-145 0 -315 45l24 88q165 -47 263 -47q98 -1 139 31t41 106v123q-117 -99 -236 -99q-118 0 -190 84t-72 253t72 253t192 84t234 -100v86z " glyph-name="g.sinf" horiz-adv-x="808"/><glyph d="M324 -106q23 -10 49 -15l116 471l-49 15zM203 110q0 -116 67 -180l105 437q-76 -8 -124 -74q-48 -67 -48 -183zM94 123q0 160 85 248t208 88h10l23 94h67l-24 -102q33 -8 47 -15l29 117h63l-35 -139q23 -10 57 -28t40 -21l-52 -76l-65 37l-109 -445q72 14 174 76l52 -78 q-160 -84 -248 -90l-23 -96h-65l22 96q-16 2 -49 10l-25 -106h-63l31 131q-150 88 -150 299z" glyph-name="colonmonetary.sinf" horiz-adv-x="751"/><glyph d="M442 252q33 -14 66 -16l166 679q-23 8 -68 21zM260 572q0 -174 109 -273l155 645q-116 -6 -190 -102t-74 -270zM133 590q0 217 118 338t284 121h16l31 127h84l-35 -140q37 -6 67 -18l39 158h84l-47 -189q31 -14 78 -39t53 -28l-59 -91q-30 15 -96 54l-158 -645 q94 16 254 110l59 -90q-215 -121 -340 -129l-30 -129h-84l32 133q-33 2 -67 12l-35 -145h-84l43 178q-94 54 -150 158t-57 254z" glyph-name="colonmonetary.oldstyle" horiz-adv-x="1034"/><glyph d="M125 -307v149h121v-149h-121zM125 111v149h121v-149h-121z" glyph-name="colon.sinf" horiz-adv-x="372"/><glyph d="M365 860q121 0 219 103v294q-100 104 -219 105q-84 0 -127 -66t-43 -186t43 -184q43 -66 127 -66zM584 1434h104v-682q0 -225 -256 -226q-145 0 -315 45l24 88q165 -47 263 -47t139 32t41 106v122q-111 -98 -233 -98q-121 0 -193 84t-72 253t72 253t192 84t234 -100v86z " glyph-name="g.ordn" horiz-adv-x="808"/><glyph d="M377 262q-78 0 -132 -68q-55 -68 -55 -179t54 -179t139 -68q84 0 215 80l51 -75q-171 -95 -283 -95t-198 90t-86 248q0 160 86 248t198 88t283 -94l-51 -76q-143 80 -221 80z" glyph-name="c.sinf" horiz-adv-x="720"/><glyph d="M258 589q0 -151 70 -247t180 -109v709q-110 -10 -180 -106t-70 -247zM604 0h-96v129q-160 10 -268 130t-109 330q0 210 109 329t268 129v129h96v-134q116 -17 258 -99q37 -21 41 -23l-59 -91q-6 4 -88 48t-152 59v-696q100 23 240 108l59 -90q-33 -16 -55 -30 q-125 -75 -244 -93v-135z" glyph-name="cent.aalt" horiz-adv-x="1032"/><glyph d="M348 213q94 -123 235 -123t332 127l64 -96q-239 -143 -415 -143t-310 148t-135 412q0 264 134 412q134 147 325 148q86 0 180 -35q-20 49 -21 119q0 143 91 227t249 84t250 -99t92 -268v-51h299v-102h-299v-764q0 -119 107 -119q72 0 215 57l51 -98q-150 -72 -281 -72 q-217 0 -217 240v756h-151v102h151v72q0 121 -59 193t-172 73q-113 -1 -177 -67t-65 -166q0 -100 41 -160q25 -12 117 -66l-64 -96q-4 2 -66 39t-136 62q-75 26 -131 26q-140 0 -234 -122q-94 -123 -94 -325t94 -325z" glyph-name="c_t.dlig" horiz-adv-x="1826"/><glyph d="M348 213q94 -123 235 -123t332 127l64 -96q-239 -143 -415 -143t-310 148t-135 412q0 264 134 412q134 147 325 148q74 0 182 -35q-23 47 -23 123q0 143 87 225t237 82h325v-1493h-129v1413h-192q-113 -1 -179 -67t-65 -166q0 -100 43 -162q29 -14 115 -64l-64 -96 q-4 2 -66 39t-136 62q-75 26 -131 26q-140 0 -234 -122q-94 -123 -94 -325t94 -325z" glyph-name="c_l.dlig" horiz-adv-x="1574"/><glyph d="M348 213q94 -123 235 -123t332 127l64 -96q-239 -143 -415 -143t-310 148t-135 412q0 264 134 412q134 147 325 148q74 0 182 -35q-23 47 -23 123q0 143 87 225t237 82h313v-1022l488 604h147l-364 -436l430 -639h-138l-370 547l-193 -232v-315h-127v1413h-182 q-113 -1 -179 -67t-65 -166q0 -100 43 -162q29 -14 115 -64l-64 -96q-4 2 -66 39t-136 62q-75 26 -131 26q-140 0 -234 -122q-94 -123 -94 -325t94 -325z" glyph-name="c_k.dlig" horiz-adv-x="2115"/><glyph d="M348 213q94 -123 235 -123t332 127l64 -96q-239 -143 -415 -143t-310 148t-135 412q0 264 134 412q134 147 325 148q74 0 182 -35q-23 47 -23 123q0 143 87 225t237 82h313v-578q242 182 453 183q301 0 301 -328v-770h-129v750q0 240 -199 239q-108 0 -230 -62t-196 -128 v-799h-127v1413h-182q-113 -1 -179 -67t-65 -166q0 -100 43 -162q29 -15 115 -64l-64 -96q-4 2 -66 39t-136 62q-75 26 -131 26q-140 0 -234 -122q-94 -123 -94 -325t94 -325z" glyph-name="c_h.dlig" horiz-adv-x="2297"/><glyph d="M227 588v-342q141 106 281 106q190 0 190 -200v-459h-106v440q0 133 -115 133q-63 0 -135 -34t-115 -70v-469h-106v895h106z" glyph-name="h.sinf" horiz-adv-x="811"/><glyph d="M307 -207h-100v694h100v-694zM307 680h-100v694h100v-694z" glyph-name="brokenbar.aalt" horiz-adv-x="514"/><glyph d="M356 612h-282v72h174v1063h-174v72h282v-1207z" glyph-name="bracketright.ordn" horiz-adv-x="493"/><glyph d="M356 -483h-282v71h174v1063h-174v72h282v-1206z" glyph-name="bracketright.sinf" horiz-adv-x="493"/><glyph d="M467 -242h-369v90h242v1471h-242v90h369v-1651z" glyph-name="bracketright.sc" horiz-adv-x="673"/><glyph d="M420 612h-283v1207h283v-72h-174v-1063h174v-72z" glyph-name="bracketleft.ordn" horiz-adv-x="493"/><glyph d="M420 -483h-283v1206h283v-72h-174v-1063h174v-71z" glyph-name="bracketleft.sinf" horiz-adv-x="493"/><glyph d="M573 -242h-368v1651h368v-90h-241v-1471h241v-90z" glyph-name="bracketleft.sc" horiz-adv-x="673"/><glyph d="M502 1260v-89q-141 0 -123 -149l14 -115q39 -295 -295 -295h-24v72h24q211 0 185 209l-15 111q-25 178 133 210q-158 33 -133 213l15 113q27 209 -185 209h-24v70h24q332 0 293 -293l-14 -115q-18 -151 125 -151z" glyph-name="braceright.ordn" horiz-adv-x="565"/><glyph d="M502 164v-88q-141 0 -123 -150l14 -114q39 -295 -295 -295h-24v71h24q211 0 185 209l-15 111q-25 178 133 211q-158 33 -133 213l15 112q27 209 -185 209h-24v70h24q332 0 293 -293l-14 -115q-18 -151 125 -151z" glyph-name="braceright.sinf" horiz-adv-x="565"/><glyph d="M117 465v121h116v-121h-116zM229 -307h-106v645h106v-645z" glyph-name="i.sinf" horiz-adv-x="346"/><glyph d="M682 641v-113q-203 0 -172 -211l22 -153q29 -193 -70 -298t-329 -106h-35v88h35q307 0 268 291l-22 158q-37 244 178 287q-213 45 -178 288l22 156q39 291 -268 291h-35v90h35q227 0 325 -104t72 -299l-20 -156q-27 -209 172 -209z" glyph-name="braceright.sc" horiz-adv-x="778"/><glyph d="M63 1171v89q150 0 125 151l-16 113q-20 141 54 218q75 77 241 77h25v-70h-25q-209 0 -184 -209l16 -113q25 -178 -137 -213q162 -35 137 -210l-16 -111q-25 -209 184 -209h25v-72h-25q-166 0 -241 77t-54 220l16 113q22 149 -125 149z" glyph-name="braceleft.ordn" horiz-adv-x="567"/><glyph d="M63 76v88q150 0 125 151l-16 113q-20 141 54 218q75 77 241 77h25v-70h-25q-209 0 -184 -209l16 -112q25 -178 -137 -213q162 -35 137 -211l-16 -111q-25 -209 184 -209h25v-71h-25q-166 1 -241 77t-54 220l16 112q22 150 -125 150z" glyph-name="braceleft.sinf" horiz-adv-x="567"/><glyph d="M96 528v113q201 0 174 209l-20 156q-26 195 72 299t325 104h33v-90h-33q-309 0 -270 -291l22 -156q35 -242 -180 -288q217 -43 180 -287l-22 -158q-39 -291 270 -291h33v-88h-33q-453 0 -397 404l20 155q27 209 -174 209z" glyph-name="braceleft.sc" horiz-adv-x="776"/><glyph d="M616 14q0 252 -170 252q-123 0 -219 -104v-293q96 -104 219 -105q84 0 127 66t43 184zM121 -307v895h106v-334q115 98 234 98t191 -84t71 -253q0 -169 -72 -253q-73 -84 -191 -84t-233 99v-84h-106z" glyph-name="b.sinf" horiz-adv-x="808"/><glyph d="M305 -207h-100v1581h100v-1581z" glyph-name="bar.aalt" horiz-adv-x="512"/><glyph d="M668 -152l-596 1479h102l596 -1479h-102z" glyph-name="backslash.aalt" horiz-adv-x="827"/><glyph d="M770 127q131 0 258 127v174q-174 35 -252 35t-120 -49q-44 -49 -44 -129t43 -119t115 -39zM1470 428q0 291 -158 472q-159 181 -462 181t-476 -189t-173 -469t170 -467t442 -187q90 0 169 19t112 40l34 18l48 -57q-50 -36 -153 -63t-210 -27q-305 0 -496 207 q-190 207 -190 520t199 520q198 207 528 207t509 -200t181 -527q-2 -205 -84 -333t-229 -128q-105 -1 -151 59t-52 138q-131 -121 -278 -121q-100 0 -171 58q-71 59 -71 185t72 190t164 65q92 0 284 -45v98q0 90 -35 130t-139 40t-254 -72l-43 82q176 76 322 76 q250 0 249 -248v-352q0 -121 27 -163t100 -42q72 0 144 93q71 93 71 292z" glyph-name="at.aalt" horiz-adv-x="1656"/><glyph d="M283 1188l26 190l-166 -118l-47 81l193 72l-191 76l45 80l166 -121l-26 190h94l-25 -188l164 119l45 -82l-190 -72l190 -76l-47 -79l-162 116l25 -188h-94z" glyph-name="asterisk.ordn" horiz-adv-x="659"/><glyph d="M225 338v-668q0 -63 -3 -90q-2 -26 -24 -58t-67 -51t-129 -40l-35 80q113 35 133 57t21 96v674h104zM113 465v121h118v-121h-118z" glyph-name="j.sinf" horiz-adv-x="346"/><glyph d="M281 92l26 191l-166 -119l-47 82l193 71l-191 76l45 80l166 -121l-26 191h94l-25 -189l164 119l45 -82l-190 -72l190 -75l-47 -80l-162 117l25 -189h-94z" glyph-name="asterisk.sinf" horiz-adv-x="657"/><glyph d="M252 1473q0 -72 104 -173q66 45 101 84q35 40 35 88t-29 78t-87 31q-58 -1 -91 -31t-33 -77zM386 858q108 0 200 96l-246 238q-74 -51 -112 -93t-38 -94t44 -100q44 -47 152 -47zM369 774q-123 0 -204 62t-81 153t51 149t141 115q-39 39 -61 65q-23 26 -44 70 q-22 44 -21 87q0 90 69 139q70 49 160 49t152 -50q63 -50 63 -127t-46 -132t-130 -113l221 -215q63 102 76 215h106q-20 -158 -110 -283l176 -170h-131l-105 101q-115 -115 -282 -115z" glyph-name="ampersand.ordn" horiz-adv-x="931"/><glyph d="M252 377q0 -72 104 -172q66 45 101 84t35 87t-29 79t-87 31t-91 -32q-33 -30 -33 -77zM371 -238q123 0 215 97l-246 237q-74 -51 -112 -92t-38 -94q0 -52 44 -100t137 -48zM369 -322q-123 0 -204 62t-81 154t51 149t141 115q-40 38 -62 64t-43 70q-22 44 -21 87 q0 90 69 139q70 49 160 49t152 -50q63 -50 63 -127t-46 -132t-130 -113l221 -213q63 104 76 213h106q-20 -156 -110 -282l176 -170h-131l-105 100q-115 -115 -282 -115z" glyph-name="ampersand.sinf" horiz-adv-x="933"/><glyph d="M334 940q0 -102 151 -246q95 60 147 118t52 128t-42 113t-127 43t-133 -45t-48 -111zM510 82q180 0 307 141l-350 340q-107 -72 -163 -131t-56 -137q0 -77 64 -145t198 -68zM213 942q0 124 93 188t212 64t202 -66t83 -172t-65 -182t-179 -151l324 -312q86 137 110 310 h125q-29 -217 -151 -392l239 -229h-157l-152 145q-160 -164 -389 -163q-166 0 -276 83t-110 209t71 204q70 78 198 159q-55 53 -88 90t-61 96q-29 59 -29 119z" glyph-name="ampersand.sc" horiz-adv-x="1269"/><glyph d="M227 -307h-106v895h106v-588l287 338h121l-229 -260l268 -385h-113l-221 311l-113 -127v-184z" glyph-name="k.sinf" horiz-adv-x="708"/><glyph d="M227 788h-106v895h106v-589l287 340h121l-229 -260l268 -386h-113l-221 312l-113 -127v-185z" glyph-name="k.ordn" horiz-adv-x="708"/><glyph d="M326 -236q111 0 227 95v141q-14 2 -83 16t-120 13q-168 0 -168 -140q1 -125 144 -125zM553 -307v86q-115 -100 -254 -101q-92 0 -159 52t-66 155q0 104 66 158q67 53 169 53q55 0 244 -35v72q0 70 -32 103q-33 32 -111 32t-252 -53l-37 76q188 61 301 61q236 0 235 -215 v-444h-104z" glyph-name="a.sinf" horiz-adv-x="770"/><glyph d="M106 1556v93h648v-84l-541 -684h547v-93h-682v86l538 682h-510z" glyph-name="Z.ordn" horiz-adv-x="847"/><glyph d="M106 461v92h648v-84l-541 -684h547v-92h-682v86l538 682h-510z" glyph-name="Z.sinf" horiz-adv-x="847"/><glyph d="M500 1303v176h145v-176h-145zM133 1067v109h883v-103l-766 -964h776v-109h-932v104l766 963h-727z" glyph-name="zdotaccent.aalt" horiz-adv-x="1128"/><glyph d="M856 1544l-201 -262h-163l-201 262h104l178 -182l181 182h102zM1026 109v-109h-932v104l766 963h-727v109h883v-103l-766 -964h776z" glyph-name="zcaron.aalt" horiz-adv-x="1128"/><glyph d="M539 1282h-109l248 262h199zM133 1067v109h883v-103l-766 -964h776v-109h-932v104l766 963h-727z" glyph-name="zacute.aalt" horiz-adv-x="1128"/><glyph d="M133 1065v111h883v-101l-764 -964h774v-111h-932v102l762 963h-723z" glyph-name="z.sc" horiz-adv-x="1128"/><glyph d="M225 -307h-104v895h104v-895z" glyph-name="l.sinf" horiz-adv-x="346"/><glyph d="M367 788v340l-330 521h123l262 -439l260 439h125l-330 -521v-340h-110z" glyph-name="Y.ordn" horiz-adv-x="845"/><glyph d="M162 549v82h135q-6 12 -45 70q-74 108 -74 221q0 114 95 193t255 79t379 -115l-61 -88q-193 94 -305 94q-113 0 -173 -55t-61 -135q-1 -47 17 -87t57 -98t51 -79h334v-82h-297q12 -39 12 -73t-2 -44h287v-84h-305q-43 -127 -156 -239h582v-109h-746v92q58 43 116 116 t81 140h-176v84h192l2 21q0 45 -18 96h-176z" glyph-name="lira.oldstyle" horiz-adv-x="1030"/><glyph d="M571 12v-65h-221q-33 -94 -106 -162h413v-92h-555v78q104 72 144 176h-131v65h145v13q0 37 -12 69h-133v66h98l-18 27q-14 22 -20 31q-44 79 -44 138q0 94 70 152q69 58 187 59q118 0 284 -88l-51 -73q-242 122 -338 31q-41 -38 -41 -81q0 -42 10 -70t40 -72t36 -54h243 v-66h-215q11 -57 6 -82h209z" glyph-name="lira.sinf" horiz-adv-x="759"/><glyph d="M215 1255q-82 123 -82 207t70 142q69 58 187 59q118 0 284 -88l-51 -74q-139 70 -219 70t-120 -38t-40 -81t10 -71q10 -27 40 -71t36 -55h243v-65h-215q8 -41 9 -64l-2 -18h208v-66h-221q-35 -102 -106 -161h413v-93h-555v78q104 70 144 176h-131v66h145v12q0 35 -12 70 h-133v65h98z" glyph-name="lira.ordn" horiz-adv-x="761"/><glyph d="M365 -307v340l-330 520h123l262 -438l260 438h125l-330 -520v-340h-110z" glyph-name="Y.sinf" horiz-adv-x="841"/><glyph d="M737 1282h-110l-336 262h196zM520 0v463l-459 713h144l379 -615l379 615h141l-457 -709v-467h-127z" glyph-name="ygrave.aalt" horiz-adv-x="1167"/><glyph d="M678 1303v176h145v-176h-145zM342 1303v176h147v-176h-147zM520 0v463l-459 713h144l379 -615l379 615h141l-457 -709v-467h-127z" glyph-name="ydieresis.aalt" horiz-adv-x="1167"/><glyph d="M551 1282h-109l246 262h199zM520 0v463l-459 713h144l379 -615l379 615h141l-457 -709v-467h-127z" glyph-name="yacute.aalt" horiz-adv-x="1167"/><glyph d="M520 0v463l-459 713h144l379 -615l379 615h141l-457 -709v-467h-127z" glyph-name="y.sc" horiz-adv-x="1167"/><glyph d="M68 1649h125l229 -365l233 365h125l-295 -432l312 -429h-131l-244 359l-242 -359h-129l311 429z" glyph-name="X.ordn" horiz-adv-x="847"/><glyph d="M68 553h125l229 -365l233 365h125l-295 -432l312 -428h-131l-244 358l-242 -358h-129l311 428z" glyph-name="X.sinf" horiz-adv-x="847"/><glyph d="M227 338v-96q121 110 257 110t171 -121q127 121 263 121q186 0 186 -200v-459h-105v440q1 133 -111 133t-222 -110v-463h-107v440q0 133 -112 133t-220 -108v-465h-106v645h106z" glyph-name="m.sinf" horiz-adv-x="1218"/><glyph d="M84 1176h145l334 -514l332 514h149l-411 -592l434 -584h-154l-350 502l-348 -502h-154l433 586z" glyph-name="x.sc" horiz-adv-x="1128"/><glyph d="M815 788l-197 715l-194 -715h-119l-250 861h123l191 -734l200 734h103l196 -734l193 734h123l-252 -861h-117z" glyph-name="W.ordn" horiz-adv-x="1236"/><glyph d="M815 -307l-197 715l-194 -715h-119l-250 860h123l191 -733l200 733h103l196 -733l193 733h123l-252 -860h-117z" glyph-name="W.sinf" horiz-adv-x="1236"/><glyph d="M997 1282h-108l-338 262h197zM1135 0l-283 1004l-281 -1004h-141l-344 1176h139l281 -1039l287 1039h120l285 -1037l281 1037h141l-346 -1176h-139z" glyph-name="wgrave.aalt" horiz-adv-x="1705"/><glyph d="M948 1303v176h144v-176h-144zM623 1303v176h147v-176h-147zM1135 0l-283 1004l-281 -1004h-141l-344 1176h139l281 -1039l287 1039h120l285 -1037l281 1037h141l-346 -1176h-139z" glyph-name="wdieresis.aalt" horiz-adv-x="1705"/><glyph d="M936 1544l201 -262h-105l-180 184l-180 -184h-103l199 262h168zM1135 0l-283 1004l-281 -1004h-141l-344 1176h139l281 -1039l287 1039h120l285 -1037l281 1037h141l-346 -1176h-139z" glyph-name="wcircumflex.aalt" horiz-adv-x="1705"/><glyph d="M817 1282h-108l247 262h197zM1135 0l-283 1004l-281 -1004h-141l-344 1176h139l281 -1039l287 1039h120l285 -1037l281 1037h141l-346 -1176h-139z" glyph-name="wacute.aalt" horiz-adv-x="1705"/><glyph d="M1135 0l-283 1004l-281 -1004h-141l-344 1176h139l281 -1039l287 1039h120l285 -1037l281 1037h141l-346 -1176h-139z" glyph-name="w.sc" horiz-adv-x="1705"/><glyph d="M170 1649l287 -760l286 760h123l-348 -861h-121l-350 861h123z" glyph-name="V.ordn" horiz-adv-x="911"/><glyph d="M168 553l287 -760l286 760h123l-348 -860h-121l-350 860h123z" glyph-name="V.sinf" horiz-adv-x="909"/><glyph d="M197 586q0 -78 50 -134t139 -55q90 0 150 35t87 80q-5 127 -61 199q-56 71 -156 71t-155 -59q-54 -59 -54 -137zM262 78q135 0 231 87q95 87 121 238q-92 -92 -233 -92t-218 78t-77 197t86 204q86 84 238 84t240 -110q87 -110 87 -275q0 -215 -132 -359t-341 -144 q-67 0 -119 14l29 86q39 -8 88 -8z" glyph-name="nine.dnom" horiz-adv-x="835"/><glyph d="M386 971q90 0 150 35t87 79q-5 127 -61 199t-156 72t-155 -60q-54 -60 -54 -137q0 -78 50 -133t139 -55zM262 651q135 0 231 87q95 87 121 239q-92 -92 -233 -92t-218 78q-77 79 -77 197t86 203t238 85t240 -110q87 -110 87 -275q0 -215 -132 -359t-341 -145 q-66 0 -119 14l29 86q39 -8 88 -8z" glyph-name="nine.frac" horiz-adv-x="835"/><glyph d="M967 604q-1 199 -97 335t-270 136q-174 -1 -267 -109t-93 -251t85 -245t237 -103q152 1 259 69q106 68 146 150v18zM379 -172q205 0 370 152t205 446q-146 -170 -376 -170t-351 131t-121 328t132 337t352 140q168 0 288 -90q222 -166 226 -504q0 -213 -60 -386 q-111 -318 -395 -442q-201 -89 -426 -40l-22 6l32 110q66 -18 146 -18z" glyph-name="nine.oldstyle"/><glyph d="M612 1341q-174 1 -267 -109t-93 -253t86 -245t240 -103q154 0 259 70q105 71 144 155v12q0 199 -97 336q-98 137 -272 137zM393 92q207 0 371 153t205 449q-141 -174 -394 -174q-215 0 -335 131t-121 328q0 197 132 337q131 140 365 140t366 -176t134 -404t-59 -400 q-111 -316 -394 -442q-128 -56 -246 -56t-181 16l-23 6l33 111q65 -19 147 -19z" glyph-name="nine.tnum" horiz-adv-x="1259"/><glyph d="M217 1176l412 -1049l411 1049h144l-486 -1176h-139l-485 1176h143z" glyph-name="v.sc" horiz-adv-x="1255"/><glyph d="M1094 1176v-754q0 -440 -456 -440t-456 440v754h127v-756q0 -154 72 -240t258 -86t257 86t71 240v756h127zM510 1497q57 0 140 -49t111 -49q27 0 49 17t54 77l78 -33q-41 -80 -80 -120t-96 -40t-140 50t-112 51q-49 0 -100 -94l-80 32q43 82 81 120t95 38z" glyph-name="utilde.aalt" horiz-adv-x="1275"/><glyph d="M227 338v-92q141 106 281 106q190 0 190 -200v-459h-106v440q0 133 -115 133q-63 0 -135 -34t-115 -70v-469h-106v645h106z" glyph-name="n.sinf" horiz-adv-x="811"/><glyph d="M811 1649v-545q0 -330 -339 -330t-339 330v545h111v-551q0 -109 49 -169q49 -61 179 -61t179 60t49 170v551h111z" glyph-name="U.ordn" horiz-adv-x="944"/><glyph d="M1094 1176v-754q0 -440 -456 -440t-456 440v754h127v-756q0 -154 72 -240t258 -86t257 86t71 240v756h127zM512 1468q0 -53 36 -88q36 -34 89 -34t89 36t36 87t-36 89t-89 38t-89 -38q-36 -37 -36 -90zM430 1469q0 87 59 147t147 61q88 0 147 -60q61 -59 61 -147 t-60 -148t-148 -60q-87 0 -147 60q-59 60 -59 147z" glyph-name="uring.aalt" horiz-adv-x="1275"/><glyph d="M611 -240q11 -12 26 -24t53 -12h76l-18 -91q-260 0 -261 154q0 102 168 195h-14q-459 0 -459 440v754h127v-756q0 -154 72 -240t258 -86t257 86t71 240v756h127v-754q0 -350 -289 -422q-6 -4 -28 -15t-31 -17t-47 -31q-99 -62 -99 -133q0 -32 11 -44z" glyph-name="uogonek.aalt" horiz-adv-x="1275"/><glyph d="M342 1333v94h590v-94h-590zM1094 1176v-754q0 -440 -456 -440t-456 440v754h127v-756q0 -154 72 -240t258 -86t257 86t71 240v756h127z" glyph-name="umacron.aalt" horiz-adv-x="1275"/><glyph d="M543 768l-60 -362h363l59 362h-362zM115 307v99h264l59 362h-245v98h262l51 310h104l-51 -310h363l53 310h102l-53 -310h250v-98h-266l-60 -362h248v-99h-264l-51 -307h-103l51 307h-362l-51 -307h-105l51 307h-247z" glyph-name="numbersign.oldstyle" horiz-adv-x="1386"/><glyph d="M399 250l-41 -256h250l41 256h-250zM82 -88v82h188l41 256h-174v82h189l36 221h87l-37 -221h252l36 221h84l-36 -221h176v-82h-189l-41 -256h176v-82h-190l-35 -219h-86l35 219h-250l-35 -219h-88l35 219h-174z" glyph-name="numbersign.sinf" horiz-adv-x="1005"/><glyph d="M399 1346l-41 -256h250l41 256h-250zM82 1008v82h188l41 256h-174v81h189l36 222h87l-37 -222h252l36 222h84l-36 -222h176v-81h-189l-41 -256h176v-82h-190l-35 -220h-86l35 220h-250l-35 -220h-88l35 220h-174z" glyph-name="numbersign.ordn" horiz-adv-x="1005"/><glyph d="M811 553v-545q0 -330 -339 -330t-339 330v545h111v-551q0 -109 49 -169t179 -60t179 60t49 169v551h111z" glyph-name="U.sinf" horiz-adv-x="944"/><glyph d="M496 1282h-86l157 262h172zM788 1282h-83l157 262h170zM1094 1176v-754q0 -440 -456 -440t-456 440v754h127v-756q0 -154 72 -240t258 -86t257 86t71 240v756h127z" glyph-name="uhungarumlaut.aalt" horiz-adv-x="1275"/><glyph d="M784 1282h-110l-336 262h194zM1094 1176v-754q0 -440 -456 -440t-456 440v754h127v-756q0 -154 72 -240t258 -86t257 86t71 240v756h127z" glyph-name="ugrave.aalt" horiz-adv-x="1275"/><glyph d="M733 1303v176h146v-176h-146zM397 1303v176h146v-176h-146zM1094 1176v-754q0 -440 -456 -440t-456 440v754h127v-756q0 -154 72 -240t258 -86t257 86t71 240v756h127z" glyph-name="udieresis.aalt" horiz-adv-x="1275"/><glyph d="M721 1544l201 -262h-103l-182 184l-178 -184h-105l199 262h168zM1094 1176v-754q0 -440 -456 -440t-456 440v754h127v-756q0 -154 72 -240t258 -86t257 86t71 240v756h127z" glyph-name="ucircumflex.aalt" horiz-adv-x="1275"/><glyph d="M1094 1176v-754q0 -440 -456 -440t-456 440v754h127v-756q0 -154 72 -240t258 -86t257 86t71 240v756h127zM636 1282q-130 0 -203 56t-73 155h101q0 -117 177 -117t177 117h100q0 -96 -74 -154q-75 -57 -205 -57z" glyph-name="ubreve.aalt" horiz-adv-x="1275"/><glyph d="M602 1282h-108l249 262h197zM1094 1176v-754q0 -440 -456 -440t-456 440v754h127v-756q0 -154 72 -240t258 -86t257 86t71 240v756h127z" glyph-name="uacute.aalt" horiz-adv-x="1275"/><glyph d="M1094 1176v-754q0 -440 -456 -440t-456 440v754h127v-756q0 -154 72 -240t258 -86t257 86t71 240v756h127z" glyph-name="u.sc" horiz-adv-x="1275"/><glyph d="M735 1556h-284v-768h-109v768h-285v93h678v-93z" glyph-name="T.ordn" horiz-adv-x="794"/><glyph d="M401 -236q211 0 211 251t-211 251t-211 -251t211 -251zM719 15q0 -159 -82 -247t-236 -90q-153 0 -235 90t-82 248t82 247t236 89t235 -89q82 -89 82 -248z" glyph-name="o.sinf" horiz-adv-x="804"/><glyph d="M735 461h-284v-768h-109v768h-285v92h678v-92z" glyph-name="T.sinf" horiz-adv-x="794"/><glyph d="M952 610q0 242 -327 242h-303v-494h303q327 0 327 252zM1083 610q0 -360 -456 -360h-305v-250h-127v1176h127v-213h305q456 -1 456 -353z" glyph-name="thorn.aalt" horiz-adv-x="1191"/><glyph d="M369 0h-109v752l-162 -80l-47 73l217 115h101v-860z" glyph-name="one.dnom" horiz-adv-x="514"/><glyph d="M369 573h-109v752l-162 -80l-47 74l217 115h101v-861z" glyph-name="one.frac" horiz-adv-x="514"/><glyph d="M518 0h-133v1034l-258 -135l-59 96l331 181h119v-1176z" glyph-name="one.oldstyle" horiz-adv-x="716"/><glyph d="M174 0v117h418v1175l-359 -188l-59 94l436 236h117v-1317h420v-117h-973z" glyph-name="one.tnum" horiz-adv-x="1259"/><glyph d="M430 -252q119 0 119 100q0 78 -60 152h-30v1065h-398v111h924v-111h-397v-1065h-27q82 -82 82 -170t-55 -132t-140 -44t-159 37l35 86q63 -29 106 -29z" glyph-name="tcommaaccent.aalt" horiz-adv-x="1046"/><glyph d="M944 537q0 -78 150 -123q152 41 151 123q0 45 -42 77t-106 33q-65 -1 -109 -33t-44 -77zM352 471h-94v614l-137 -67l-43 63l188 95h86v-705zM1290 186q0 94 -196 160q-193 -63 -193 -160q0 -57 56 -91q55 -34 139 -34t139 34t55 91zM991 1176l-596 -1176h-102l598 1176 h100zM805 182q0 127 190 201q-145 59 -145 164q0 76 70 123t178 47t174 -47q68 -47 67 -123q0 -109 -143 -166q190 -74 190 -199q0 -88 -82 -141t-207 -53q-126 0 -209 53t-83 141z" glyph-name="oneeighth.aalt" horiz-adv-x="1492"/><glyph d="M389 573h-110v752l-160 -80l-49 74l217 115h102v-861zM1120 1434l-686 -1434h-115l685 1434h116zM1516 860v-92h-404l-25 -254q76 33 162 33q139 0 222 -80t83 -197q0 -116 -85 -200t-232 -84t-299 90l51 80q109 -76 215 -76t172 53q64 53 64 135t-58 135t-153 53 q-96 0 -193 -53l-61 33l49 424h492z" glyph-name="glyph603" horiz-adv-x="1677"/><glyph d="M352 471h-94v614l-137 -67l-43 63l188 95h86v-705zM991 1176l-596 -1176h-102l598 1176h100zM1335 705v-76h-354l-18 -209q66 29 139 29q122 0 194 -66t72 -162t-73 -165q-73 -68 -197 -68t-264 73l45 68q94 -59 186 -59t148 42q57 42 57 108t-49 110t-141 43 q-92 0 -165 -45l-49 28l41 349h428z" glyph-name="glyph604" horiz-adv-x="1490"/><glyph d="M807 1544l-201 -262h-168l-198 262h104l178 -182l183 182h102zM985 1065h-397v-1065h-129v1065h-398v111h924v-111z" glyph-name="tcaron.aalt" horiz-adv-x="1046"/><glyph d="M1374 78v-78h-526v57q0 108 81 175q45 40 71 56t86 53q60 35 109 69q50 34 66 65q15 31 15 67t-41 66q-41 31 -111 31q-121 0 -211 -66l-45 64q130 80 252 80t188 -50t64 -130q0 -80 -46 -125t-80 -67q-34 -23 -46 -31q-20 -14 -133 -78t-113 -158h420zM991 1176 l-596 -1176h-102l598 1176h100zM352 471h-94v614l-137 -67l-43 63l188 95h86v-705z" glyph-name="onehalf.aalt" horiz-adv-x="1497"/><glyph d="M268 389v86h201v590h-397v111h923v-111h-397v-590h199v-86h-199v-389h-129v389h-201z" glyph-name="tbar.aalt" horiz-adv-x="1067"/><glyph d="M985 1065h-397v-1065h-129v1065h-398v111h924v-111z" glyph-name="t.sc" horiz-adv-x="1046"/><glyph d="M1135 231v396l-306 -396h306zM352 471h-94v614l-137 -67l-43 63l188 95h86v-705zM991 1176l-596 -1176h-102l598 1176h100zM1135 0v156h-408v67l377 482h125v-474h121v-75h-121v-156h-94z" glyph-name="onequarter.aalt" horiz-adv-x="1445"/><glyph d="M389 573h-110v752l-160 -80l-49 74l217 115h102v-861zM1220 463q-90 0 -151 -38t-86 -81q5 -125 63 -196q58 -70 158 -70t155 58q54 58 54 136t-51 135q-52 56 -142 56zM1120 1434l-686 -1434h-115l685 1434h116zM1343 782q-137 0 -232 -88t-120 -239q93 94 233 94 t219 -78t79 -197q0 -120 -86 -204t-240 -84t-239 108t-85 275q0 215 132 360t337 145q72 0 121 -14l-26 -86q-42 8 -93 8z" glyph-name="glyph610" horiz-adv-x="1636"/><glyph d="M352 471h-94v614l-137 -67l-43 63l188 95h86v-705zM1245 224q0 62 -45 108t-123 45q-78 0 -132 -31t-75 -67q4 -97 56 -155t138 -58q87 0 134 48t47 110zM991 1176l-596 -1176h-102l598 1176h100zM1184 641q-119 0 -202 -72t-105 -196q85 78 205 78t189 -65t69 -162 t-76 -167q-74 -69 -207 -69t-207 89t-74 226q0 176 114 295t292 119q72 0 108 -12l-22 -72q-39 8 -84 8z" glyph-name="glyph611" horiz-adv-x="1452"/><glyph d="M643 1005q0 67 -59 103q-70 42 -238 92t-218 138q-22 40 -22 94q0 106 82 168t222 63q140 0 309 -80l-49 -82q-147 70 -247 70q-204 0 -204 -133q0 -61 50 -91t151 -61t145 -49q43 -18 91 -48q98 -61 98 -176q0 -114 -88 -176t-215 -63q-178 0 -365 107l53 80 q168 -94 310 -95q82 0 138 36t56 103z" glyph-name="S.ordn" horiz-adv-x="839"/><glyph d="M446 -229q82 0 139 35q56 36 56 103t-59 103t-132 58q-72 24 -106 34q-171 51 -218 139q-22 40 -22 93q0 106 82 168t222 63q140 0 309 -80l-49 -81q-147 70 -271 69q-76 0 -128 -34t-52 -97t50 -93t151 -61t145 -49q43 -18 91 -48q98 -61 98 -176q0 -114 -88 -176 t-215 -63q-178 0 -365 107l53 80q168 -94 309 -94z" glyph-name="S.sinf" horiz-adv-x="837"/><glyph d="M1239 536q1 103 -159 103q-80 0 -185 -59l-39 59q30 25 98 51t163 27q95 0 155 -48t61 -118q0 -115 -149 -162q80 -17 132 -69t52 -130t-70 -140t-201 -62t-278 73l45 66q106 -61 205 -61t152 36t53 105t-76 103t-174 34h-35v80h43q84 0 146 30q61 30 61 82zM991 1176 l-596 -1176h-102l598 1176h100zM352 471h-94v614l-137 -67l-43 63l188 95h86v-705z" glyph-name="onethird.aalt" horiz-adv-x="1480"/><glyph d="M592 -18q-240 0 -488 141l62 94q231 -127 430 -127q115 0 198 52t83 151q-1 68 -59 121q-58 52 -110 74q-125 52 -200 73q-74 21 -116 35q-117 40 -188 110t-71 181q0 143 111 225t301 82t411 -109l-61 -94q-203 94 -375 94q-106 0 -182 -49t-76 -136t61 -130 q23 -16 39 -26t52 -24t55 -20q18 -6 107 -34q169 -52 289 -122q141 -82 141 -240t-121 -240t-293 -82zM494 -315v182h143l22 -186l-131 -222l-49 47l84 179h-69z" glyph-name="scommaaccent.aalt" horiz-adv-x="1110"/><glyph d="M592 -18q-240 0 -488 141l62 94q231 -127 430 -127q115 0 198 52t83 151q-1 68 -59 121q-58 52 -110 74q-125 52 -200 73q-74 21 -116 35q-117 40 -188 110t-71 181q0 143 111 225t301 82t411 -109l-61 -94q-203 94 -375 94q-106 0 -182 -49t-76 -136t61 -130 q23 -16 39 -26t52 -24t55 -20q18 -6 107 -34q169 -52 289 -122q141 -82 141 -240t-121 -240t-293 -82zM639 1544l199 -262h-101l-182 184l-178 -184h-105l199 262h168z" glyph-name="scircumflex.aalt" horiz-adv-x="1110"/><glyph d="M503 -346q-85 0 -159 37l35 86q63 -29 108 -29q117 0 117 100q0 61 -47 136q-231 10 -453 139l62 94q231 -127 430 -127q115 0 198 52t83 151q-1 68 -59 121q-58 52 -110 74q-125 52 -200 73q-74 21 -116 35q-117 40 -188 110t-71 181q0 143 111 225t301 82t411 -109 l-61 -94q-203 94 -375 94q-106 0 -182 -49t-76 -136t61 -130q23 -16 39 -26t52 -24t55 -20q18 -6 107 -34q169 -52 289 -122q141 -82 141 -235t-108 -234t-267 -91q67 -80 67 -161t-55 -125t-140 -44z" glyph-name="scedilla.aalt" horiz-adv-x="1110"/><glyph d="M592 -18q-240 0 -488 141l62 94q231 -127 430 -127q115 0 198 52t83 151q-1 68 -59 121q-58 52 -110 74q-125 52 -200 73q-74 21 -116 35q-117 40 -188 110t-71 181q0 143 111 225t301 82t411 -109l-61 -94q-203 94 -375 94q-106 0 -182 -49t-76 -136t61 -130 q23 -16 39 -26t52 -24t55 -20q18 -6 107 -34q169 -52 289 -122q141 -82 141 -240t-121 -240t-293 -82zM838 1544l-199 -262h-168l-199 262h103l180 -182l182 182h101z" glyph-name="scaron.aalt" horiz-adv-x="1110"/><glyph d="M592 -18q-240 0 -488 141l62 94q231 -127 430 -127q115 0 198 52t83 151q-1 68 -59 121q-58 52 -110 74q-125 52 -200 73q-74 21 -116 35q-117 40 -188 110t-71 181q0 143 111 225t301 82t411 -109l-61 -94q-203 94 -375 94q-106 0 -182 -49t-76 -136t61 -130 q23 -16 39 -26t52 -24t55 -20q18 -6 107 -34q169 -52 289 -122q141 -82 141 -240t-121 -240t-293 -82zM520 1282h-108l250 262h196z" glyph-name="sacute.aalt" horiz-adv-x="1110"/><glyph d="M592 -18q-240 0 -488 141l62 94q231 -127 430 -127q115 0 198 52t83 151q-1 68 -59 121q-58 52 -110 74q-125 52 -200 73q-74 21 -116 35q-117 40 -188 110t-71 181q0 143 111 225t301 82t411 -109l-61 -94q-203 94 -375 94q-106 0 -182 -49t-76 -136t61 -130 q23 -16 39 -26t52 -24t55 -20q18 -6 107 -34q169 -52 289 -122q141 -82 141 -240t-121 -240t-293 -82z" glyph-name="s.sc" horiz-adv-x="1110"/><glyph d="M489 1241q230 0 230 160t-223 160h-242v-320h235zM254 1153v-365h-111v861h353q336 0 335 -250q0 -211 -243 -242l246 -369h-121l-240 365h-219z" glyph-name="R.ordn" horiz-adv-x="923"/><glyph d="M489 145q230 0 230 160t-223 160h-242v-320h235zM254 57v-364h-111v860h353q336 0 335 -250q0 -211 -243 -242l246 -368h-121l-240 364h-219z" glyph-name="R.sinf" horiz-adv-x="925"/><glyph d="M840 -313v1489h112v-1489h-112zM522 1176h109v-1487h-113v776q-200 0 -316 91t-116 263q0 357 436 357z" glyph-name="paragraph.aalt" horiz-adv-x="1148"/><glyph d="M545 -315v182h141l21 -186l-132 -222l-47 47l84 179h-67zM991 841q0 228 -321 228h-348v-457h340q329 1 329 229zM322 506v-506h-127v1176h471q459 0 458 -336q0 -291 -346 -330l348 -510h-143l-332 506h-329z" glyph-name="rcommaaccent.aalt" horiz-adv-x="1243"/><glyph d="M190 59v1051q0 74 7 110q16 94 120 138q59 25 166 51l39 -84q-147 -47 -176 -78t-29 -131v-1065q0 -98 29 -130t176 -77l-39 -84q-105 27 -165 52q-108 45 -121 138q-7 35 -7 109z" glyph-name="parenleft.sc" horiz-adv-x="616"/><glyph d="M942 1544l-201 -262h-166l-196 262h102l178 -182l181 182h102zM991 841q0 228 -321 228h-348v-457h340q329 1 329 229zM322 506v-506h-127v1176h471q459 0 458 -336q0 -291 -346 -330l348 -510h-143l-332 506h-329z" glyph-name="rcaron.aalt" horiz-adv-x="1243"/><glyph d="M625 1282h-111l250 262h197zM991 841q0 228 -321 228h-348v-457h340q329 1 329 229zM322 506v-506h-127v1176h471q459 0 458 -336q0 -291 -346 -330l348 -510h-143l-332 506h-329z" glyph-name="racute.aalt" horiz-adv-x="1243"/><glyph d="M991 841q0 228 -321 228h-348v-457h340q329 1 329 229zM322 506v-506h-127v1176h471q459 0 458 -336q0 -291 -346 -330l348 -510h-143l-332 506h-329z" glyph-name="r.sc" horiz-adv-x="1243"/><glyph d="M424 1110v-1051q0 -75 -5 -109t-33 -74t-87 -64t-166 -52l-39 84q80 25 118 39t60 41q22 26 23 48q2 22 2 79v1065q0 100 -28 132t-175 77l39 84q105 -27 165 -51t88 -65q28 -39 33 -73t5 -110z" glyph-name="parenright.sc" horiz-adv-x="614"/><glyph d="M1370 987q-205 0 -371 -182v-537q166 -180 371 -180q141 0 216 119t75 331t-75 330t-216 119zM74 973v102h149v178q0 240 262 240q127 0 385 -57v57h129v-563q181 168 373 168t306 -137t114 -423t-115 -423t-305 -137t-373 165v-143h-129v1325q-276 55 -360 55t-122 -28 t-38 -88v-189h295v-102h-295v-973h-127v973h-149z" glyph-name="f_b.ss01" horiz-adv-x="1914"/><glyph d="M498 -227q283 0 282 350q0 350 -282 350t-283 -350q0 -350 283 -350zM497 567q204 0 300 -123t96 -304q0 -377 -275 -447l152 -115l-74 -76l-198 176q-205 0 -300 123t-96 322q0 199 96 321t299 123z" glyph-name="Q.sinf" horiz-adv-x="995"/><glyph d="M670 94q403 0 403 494t-403 493q-212 0 -308 -134t-96 -359t95 -360q96 -134 309 -134zM133 589q0 271 130 438t407 167q186 0 310 -84t174 -215t50 -294t-38 -282t-127 -207t-224 -116l213 -160l-90 -92l-270 238q-274 2 -405 169q-130 167 -130 438z" glyph-name="q.sc" horiz-adv-x="1337"/><glyph d="M690 1384q0 172 -223 172h-213v-344h213q223 0 223 172zM803 1385q0 -263 -336 -263h-213v-334h-111v861h324q336 -1 336 -264z" glyph-name="P.ordn" horiz-adv-x="876"/><glyph d="M631 879q-1 109 -57 169t-154 60t-154 -60t-55 -169q0 -109 55 -168q56 -59 154 -59t154 58q56 60 57 169zM737 879q0 -152 -87 -233t-230 -81t-231 81q-87 81 -87 233q0 151 87 233t231 82t230 -82q87 -82 87 -233zM1284 1176l-655 -1176h-111l656 1176h110zM1589 298 q0 108 -54 167q-55 59 -153 59t-153 -59t-55 -167t55 -168t152 -60t153 59q55 61 55 169zM1700 295q0 -152 -87 -233q-87 -80 -231 -80t-230 80q-87 80 -87 233q0 151 87 233t230 82q142 0 230 -82t88 -233z" glyph-name="percent.oldstyle" horiz-adv-x="1800"/><glyph d="M1149 -90q0 78 -37 119q-38 41 -106 41t-106 -42t-38 -118t38 -118t107 -42t105 41t37 119zM1237 -90q0 -111 -62 -171q-63 -61 -169 -61t-170 60t-64 172q0 111 64 170t170 59t168 -59t63 -170zM940 553l-483 -875h-90l481 875h92zM451 336q0 76 -38 118t-107 42 q-70 0 -106 -42t-36 -118t37 -118t105 -42t107 42q38 42 38 118zM541 336q0 -111 -65 -170q-64 -60 -172 -60t-169 60t-61 171q0 112 61 171t169 59t172 -60q65 -60 65 -171z" glyph-name="percent.sinf" horiz-adv-x="1312"/><glyph d="M1149 1006q0 78 -37 118q-38 40 -106 41q-68 0 -106 -42q-38 -41 -38 -117t38 -118t107 -42t105 41t37 119zM1237 1006q0 -111 -62 -171q-63 -61 -169 -61t-170 60t-64 172q0 111 64 170t170 59t168 -59t63 -170zM940 1649l-483 -875h-90l481 875h92zM451 1432 q0 76 -38 118t-107 41q-70 0 -106 -42q-36 -41 -36 -117t37 -118t105 -42t107 42q38 42 38 118zM541 1432q0 -111 -65 -170q-64 -60 -172 -60t-169 60t-61 171q0 112 61 171t169 59t172 -60q65 -60 65 -171z" glyph-name="percent.ordn" horiz-adv-x="1312"/><glyph d="M690 289q0 172 -223 172h-213v-344h213q223 0 223 172zM467 553q336 0 336 -263t-336 -263h-213v-334h-111v860h324z" glyph-name="P.sinf" horiz-adv-x="876"/><glyph d="M631 573q321 0 321 247t-321 247h-309v-494h309zM1083 820q0 -355 -456 -355h-305v-465h-127v1176h432q456 -1 456 -356z" glyph-name="p.sc" horiz-adv-x="1171"/><glyph d="M536 1497q58 0 141 -49t111 -49t50 17q23 17 53 77l80 -33q-41 -80 -80 -120t-96 -40t-141 50t-113 51q-50 0 -101 -94l-80 32q43 82 81 120q37 38 95 38zM668 94q403 0 403 494t-403 493q-212 0 -308 -134t-96 -359t95 -360q96 -134 309 -134zM668 1194q186 0 310 -84 t174 -215t50 -307q0 -270 -130 -438t-405 -168t-406 168q-130 168 -130 439t130 438q131 167 407 167z" glyph-name="otilde.aalt" horiz-adv-x="1335"/><glyph d="M498 868q282 0 282 350t-282 351q-282 -1 -283 -351q0 -350 283 -350zM497 1663q204 0 300 -123q96 -124 96 -322t-96 -321t-300 -123t-299 123t-96 322q0 199 96 321t299 123z" glyph-name="O.ordn" horiz-adv-x="995"/><glyph d="M629 1282h-109l250 262h197zM666 94q403 0 403 494q0 219 -82 340l-588 -748q99 -86 267 -86zM666 1081q-212 0 -308 -134t-96 -357t82 -344l586 747q-98 88 -264 88zM1202 595q0 -277 -131 -445t-405 -168q-211 0 -342 102l-66 -84h-106l112 143q-135 161 -135 439 t130 445t407 167q209 0 340 -104l67 86h109l-115 -146q135 -158 135 -435z" glyph-name="oslashacute.aalt" horiz-adv-x="1329"/><glyph d="M1284 1176l-655 -1176h-111l656 1176h110zM2343 298q0 108 -55 167q-56 59 -154 59t-154 -59t-55 -167q0 -108 55 -168q56 -60 154 -60t154 59q55 61 55 169zM2451 295q0 -152 -87 -233q-87 -80 -231 -80t-231 80t-87 234t87 234t231 80t231 -82t87 -233zM1589 298 q0 108 -54 167q-55 59 -153 59t-153 -59t-55 -167t55 -168t152 -60t153 59q55 61 55 169zM1700 295q0 -152 -87 -233q-87 -80 -231 -80t-230 80q-87 80 -87 233q0 151 87 233t230 82q142 0 230 -82t88 -233zM631 879q-1 109 -57 169t-154 60t-154 -60t-55 -169 q0 -109 55 -168q56 -59 154 -59t154 58q56 60 57 169zM737 879q0 -152 -87 -233t-230 -81t-231 81q-87 81 -87 233q0 151 87 233t231 82t230 -82q87 -82 87 -233z" glyph-name="perthousand.aalt" horiz-adv-x="2551"/><glyph d="M373 1333v94h588v-94h-588zM670 94q403 0 403 494t-403 493q-212 0 -308 -134t-96 -359t95 -360q96 -134 309 -134zM670 1194q186 0 310 -84t174 -215t50 -307q0 -270 -130 -438t-405 -168t-406 168q-130 168 -130 439t130 438q131 167 407 167z" glyph-name="omacron.aalt" horiz-adv-x="1337"/><glyph d="M641 573q295 0 317 211h-626v-211h309zM332 1067v-215h626q-18 215 -317 215h-309zM150 784v68h55v324h430q199 0 321 -77t134 -247h49v-68h-49q-23 -319 -455 -319h-303v-465h-127v784h-55z" glyph-name="peseta.oldstyle" horiz-adv-x="1226"/><glyph d="M467 117q203 0 221 141h-434v-141h213zM254 461v-144h434q-18 143 -221 144h-213zM104 258v59h41v236h320q319 0 336 -236h37v-59h-37q-18 -231 -336 -231h-211v-334h-109v565h-41z" glyph-name="peseta.sinf" horiz-adv-x="901"/><glyph d="M467 1212q203 0 221 142h-434v-142h213zM254 1556v-143h434q-18 143 -221 143h-213zM104 1354v59h41v236h320q319 0 336 -236h37v-59h-37q-18 -231 -336 -232h-211v-334h-109v566h-41z" glyph-name="peseta.ordn" horiz-adv-x="901"/><glyph d="M498 -227q283 0 282 350q0 350 -282 350t-283 -350q0 -350 283 -350zM497 567q204 0 300 -123q96 -124 96 -322t-96 -321t-300 -123t-299 123t-96 322q0 199 96 321t299 123z" glyph-name="O.sinf" horiz-adv-x="995"/><glyph d="M616 14q0 252 -170 252q-123 0 -219 -104v-293q96 -104 219 -105q84 0 127 66t43 184zM227 338v-84q115 98 234 98t191 -84t71 -253q0 -169 -72 -253q-73 -84 -191 -84t-233 99v-334h-106v895h106z" glyph-name="p.sinf" horiz-adv-x="808"/><glyph d="M526 1282h-86l160 262h170zM817 1282h-82l156 262h172zM670 94q403 0 403 494t-403 493q-212 0 -308 -134t-96 -359t95 -360q96 -134 309 -134zM670 1194q186 0 310 -84t174 -215t50 -307q0 -270 -130 -438t-405 -168t-406 168q-130 168 -130 439t130 438 q131 167 407 167z" glyph-name="ohungarumlaut.aalt" horiz-adv-x="1337"/><glyph d="M367 381h86v-238h280v-82h-280v-237h-86v237h-281v82h281v238z" glyph-name="plus.sinf" horiz-adv-x="821"/><glyph d="M815 1282h-108l-338 262h194zM670 94q403 0 403 494t-403 493q-212 0 -308 -134t-96 -359t95 -360q96 -134 309 -134zM670 1194q186 0 310 -84t174 -215t50 -307q0 -270 -130 -438t-405 -168t-406 168q-130 168 -130 439t130 438q131 167 407 167z" glyph-name="ograve.aalt" horiz-adv-x="1337"/><glyph d="M766 1303v176h143v-176h-143zM426 1303v176h147v-176h-147zM670 94q403 0 403 494t-403 493q-212 0 -308 -134t-96 -359t95 -360q96 -134 309 -134zM670 1194q186 0 310 -84t174 -215t50 -307q0 -270 -130 -438t-405 -168t-406 168q-130 168 -130 439t130 438 q131 167 407 167z" glyph-name="odieresis.aalt" horiz-adv-x="1337"/><glyph d="M752 1544l198 -262h-100l-182 184l-179 -184h-104l201 262h166zM670 94q403 0 403 494t-403 493q-212 0 -308 -134t-96 -359t95 -360q96 -134 309 -134zM670 1194q186 0 310 -84t174 -215t50 -307q0 -270 -130 -438t-405 -168t-406 168q-130 168 -130 439t130 438 q131 167 407 167z" glyph-name="ocircumflex.aalt" horiz-adv-x="1337"/><glyph d="M446 1362q-123 0 -219 -105v-292q96 -104 219 -105q84 0 127 66t43 186t-43 184q-43 66 -127 66zM227 1434v-84q115 98 234 98t191 -84t71 -253q0 -169 -72 -253q-73 -84 -189 -84t-235 96v-331h-106v895h106z" glyph-name="p.ordn" horiz-adv-x="808"/><glyph d="M668 1282q-131 0 -204 56t-73 155h101q0 -117 177 -117t177 117h100q0 -99 -74 -155t-204 -56zM670 94q403 0 403 494t-403 493q-212 0 -308 -134t-96 -359t95 -360q96 -134 309 -134zM670 1194q186 0 310 -84t174 -215t50 -307q0 -270 -130 -438t-405 -168t-406 168 q-130 168 -130 439t130 438q131 167 407 167z" glyph-name="obreve.aalt" horiz-adv-x="1337"/><glyph d="M365 266q-170 0 -170 -252q0 -118 43 -184t127 -66q119 0 219 105v293q-100 104 -219 104zM584 -557v334q-117 -99 -236 -99q-118 0 -190 84t-72 253t72 253t192 84t234 -100v86h104v-895h-104z" glyph-name="q.sinf" horiz-adv-x="808"/><glyph d="M365 860q121 0 219 103v294q-100 104 -219 105q-84 0 -127 -66t-43 -186t43 -184q43 -66 127 -66zM584 539v333q-111 -98 -233 -98q-121 0 -193 84t-72 253t72 253t192 84t234 -100v86h104v-895h-104z" glyph-name="q.ordn" horiz-adv-x="808"/><glyph d="M631 1282h-109l250 262h197zM670 94q403 0 403 494t-403 493q-212 0 -308 -134t-96 -359t95 -360q96 -134 309 -134zM670 1194q186 0 310 -84t174 -215t50 -307q0 -270 -130 -438t-405 -168t-406 168q-130 168 -130 439t130 438q131 167 407 167z" glyph-name="oacute.aalt" horiz-adv-x="1337"/><glyph d="M829 911q0 -242 -387 -340l-8 -225h-96l-10 297q184 39 278 96t94 153t-69 144q-69 49 -191 49t-299 -100l-63 86q193 123 391 123q150 0 255 -74t105 -209zM311 0v184h150v-184h-150z" glyph-name="question.sc" horiz-adv-x="927"/><glyph d="M670 94q403 0 403 494t-403 493q-212 0 -308 -134t-96 -359t95 -360q96 -134 309 -134zM1860 0h-781v156q-137 -174 -411 -174t-405 168q-130 168 -130 439t130 438q131 167 403 167t413 -174v156h768v-111h-641v-422h531v-111h-531v-421h654v-111z" glyph-name="oe.aalt" horiz-adv-x="1976"/><glyph d="M618 1176v-185h-151v185h151zM100 264q0 244 383 338l13 227h92l14 -299q-184 -37 -279 -94q-95 -56 -95 -152t69 -145q71 -49 193 -49t294 100l66 -86q-186 -123 -391 -122q-145 0 -252 74t-107 208z" glyph-name="questiondown.sc" horiz-adv-x="931"/><glyph d="M465 553v-141h-125v141h125zM74 -113q0 182 282 250l6 160h78l11 -217q-133 -27 -201 -67t-68 -106q0 -65 48 -101t133 -36t212 72l52 -71q-139 -93 -269 -93t-206 56q-78 56 -78 153z" glyph-name="questiondown.sinf" horiz-adv-x="684"/><glyph d="M465 1649v-142h-125v142h125zM74 983q0 182 282 250l6 160h78l11 -217q-133 -27 -201 -67q-68 -41 -68 -107t48 -101t133 -35t212 72l52 -72q-139 -92 -269 -92t-206 56q-78 56 -78 153z" glyph-name="questiondown.ordn" horiz-adv-x="686"/><glyph d="M610 358q0 -182 -284 -249l-7 -160h-75l-11 217q133 26 200 66t67 106t-47 102q-47 35 -133 35t-214 -72l-51 72q143 92 271 92q128 1 206 -55t78 -154zM219 -307v141h125v-141h-125z" glyph-name="question.sinf" horiz-adv-x="684"/><glyph d="M612 1454q0 -182 -284 -250l-6 -160h-76l-10 218q134 26 200 66t66 106t-47 102q-47 35 -133 35t-213 -72l-52 72q143 92 271 92t206 -55q78 -56 78 -154zM221 788v142h125v-142h-125z" glyph-name="question.ordn" horiz-adv-x="686"/><glyph d="M670 94q403 0 403 494t-403 493q-212 0 -308 -134t-96 -359t95 -360q96 -134 309 -134zM670 1194q186 0 310 -84t174 -215t50 -307q0 -270 -130 -438t-405 -168t-406 168q-130 168 -130 439t130 438q131 167 407 167z" glyph-name="o.sc" horiz-adv-x="1337"/><glyph d="M542 1497q58 0 142 -49t112 -49t50 18t51 76l80 -33q-41 -80 -80 -120t-96 -40t-141 50t-113 51q-50 0 -101 -94l-79 32q43 82 80 120t95 38zM322 0h-127v1176h135l674 -1000v1000h126v-1176h-133l-675 999v-999z" glyph-name="ntilde.aalt" horiz-adv-x="1325"/><glyph d="M254 788h-111v861h115l469 -705v705h113v-861h-117l-469 705v-705z" glyph-name="N.ordn" horiz-adv-x="980"/><glyph d="M254 -307h-111v860h115l469 -703v703h113v-860h-117l-469 704v-704z" glyph-name="N.sinf" horiz-adv-x="980"/><glyph d="M598 -315v182h143l23 -186l-131 -222l-49 47l82 179h-68zM1004 1176h126v-1176h-133l-675 999v-999h-127v1176h135l674 -1000v1000z" glyph-name="ncommaaccent.aalt" horiz-adv-x="1325"/><glyph d="M954 1544l-198 -262h-166l-199 262h103l178 -182l182 182h100zM322 0h-127v1176h135l674 -1000v1000h126v-1176h-133l-675 999v-999z" glyph-name="ncaron.aalt" horiz-adv-x="1325"/><glyph d="M627 1282h-111l250 262h199zM322 0h-127v1176h135l674 -1000v1000h126v-1176h-133l-675 999v-999z" glyph-name="nacute.aalt" horiz-adv-x="1325"/><glyph d="M322 0h-127v1176h135l674 -1000v1000h126v-1176h-133l-675 999v-999z" glyph-name="n.sc" horiz-adv-x="1325"/><glyph d="M874 788v687l-274 -543h-72l-274 543v-687h-111v861h115l305 -602l307 602h113v-861h-109z" glyph-name="M.ordn" horiz-adv-x="1124"/><glyph d="M874 -307v686l-274 -543h-72l-274 543v-686h-111v860h115l305 -600l307 600h113v-860h-109z" glyph-name="M.sinf" horiz-adv-x="1124"/><glyph d="M1206 0v975l-397 -778h-88l-399 782v-979h-127v1176h135l434 -844l434 844h135v-1176h-127z" glyph-name="m.sc" horiz-adv-x="1527"/><glyph d="M700 788h-557v861h111v-768h446v-93z" glyph-name="L.ordn" horiz-adv-x="755"/><glyph d="M958 0h-751v465l-133 -70v123l133 70v588h127v-523l246 129v-123l-246 -129v-419h624v-111z" glyph-name="lslash.aalt" horiz-adv-x="1019"/><glyph d="M700 -307h-557v860h111v-768h446v-92z" glyph-name="L.sinf" horiz-adv-x="755"/><glyph d="M227 338v-139q8 23 30 53t84 66q62 34 142 28v-98q-65 0 -115 -22t-87 -66t-50 -94l-4 -23v-350h-106v645h106z" glyph-name="r.sinf" horiz-adv-x="532"/><glyph d="M694 528v174h146v-174h-146zM946 0h-751v1176h127v-1067h624v-109z" glyph-name="ldot.aalt" horiz-adv-x="1011"/><glyph d="M494 -315v182h143l22 -186l-131 -222l-47 47l82 179h-69zM946 0h-751v1176h127v-1067h624v-109z" glyph-name="lcommaaccent.aalt" horiz-adv-x="1007"/><glyph d="M422 993v183h143l21 -187l-131 -221l-45 47l82 178h-70zM946 0h-751v1176h127v-1067h624v-109z" glyph-name="lcaron.aalt" horiz-adv-x="1007"/><glyph d="M1341 1493v-578q242 182 455 183q297 0 297 -328v-770h-127v750q0 240 -201 239q-109 0 -229 -62t-195 -128v-799h-127v1413h-202q-119 1 -185 -65q-65 -66 -65 -162t35 -154q57 -19 92 -41l-60 -92q-188 92 -317 92t-196 -45t-66 -129q0 -39 19 -72t43 -51t75 -40 t101 -35t57 -15q195 -51 292 -128t97 -213t-110 -211t-267 -75q-225 0 -457 129l60 97q213 -119 387 -119q104 0 182 46t78 134q0 138 -238 209q-27 9 -88 25t-101 29q-260 85 -257 284q0 135 102 211t262 76q94 0 211 -33q-23 55 -22 121q0 143 90 225t246 82h329z" glyph-name="s_h.dlig" horiz-adv-x="2265"/><glyph d="M1341 0h-127v1413h-202q-119 1 -185 -65q-65 -66 -65 -162t35 -154q57 -19 92 -41l-60 -92q-188 92 -317 92t-196 -45t-66 -129q0 -39 19 -72t43 -51t75 -40t101 -35t57 -15q195 -51 292 -128t97 -213t-110 -211t-267 -75q-225 0 -457 129l60 97q213 -119 387 -119 q104 0 182 46t78 134q0 138 -238 209q-27 9 -88 25t-101 29q-260 85 -257 284q0 135 102 211t262 76q94 0 211 -33q-23 55 -22 121q0 143 90 225t246 82h329v-1022l488 604h145l-362 -436l430 -639h-137l-373 545l-191 -230v-315z" glyph-name="s_k.dlig" horiz-adv-x="2082"/><glyph d="M1352 0h-127v1413h-213q-119 1 -185 -65q-65 -66 -65 -162t35 -154q57 -19 92 -41l-60 -92q-188 92 -317 92t-196 -45t-66 -129q0 -39 19 -72t43 -51t75 -40t101 -35t57 -15q195 -51 292 -128t97 -213t-110 -211t-267 -75q-225 0 -457 129l60 97q213 -119 387 -119 q104 0 182 46t78 134q0 138 -238 209q-27 9 -88 25t-101 29q-260 85 -257 284q0 135 102 211t262 76q94 0 211 -33q-23 55 -22 121q0 143 90 225t246 82h340v-1493z" glyph-name="s_l.dlig" horiz-adv-x="1542"/><glyph d="M223 1282h-108l247 262h197zM944 0h-749v1176h129v-1067h620v-109z" glyph-name="lacute.aalt" horiz-adv-x="1007"/><glyph d="M946 0h-751v1176h127v-1065h624v-111z" glyph-name="l.sc" horiz-adv-x="1007"/><glyph d="M143 788v861h111v-486l426 486h129l-367 -416l406 -445h-131l-338 373l-125 -141v-232h-111z" glyph-name="K.ordn" horiz-adv-x="886"/><glyph d="M143 -307v860h111v-485l426 485h129l-367 -416l406 -444h-131l-338 373l-125 -140v-233h-111z" glyph-name="K.sinf" horiz-adv-x="886"/><glyph d="M528 -315v182h142l22 -186l-133 -222l-47 47l84 179h-68zM195 0v1176h127v-687l610 687h151l-508 -566l568 -610h-156l-487 524l-178 -198v-326h-127z" glyph-name="kcommaaccent.aalt" horiz-adv-x="1185"/><glyph d="M195 0v1176h127v-687l610 687h151l-508 -566l568 -610h-156l-487 524l-178 -198v-326h-127z" glyph-name="k.sc" horiz-adv-x="1185"/><glyph d="M252 1649v-805q0 -61 -4 -88t-24 -60t-67 -51q-46 -18 -130 -39l-37 82q110 34 132 58t21 96v807h109z" glyph-name="J.ordn" horiz-adv-x="395"/><glyph d="M252 553v-805q0 -61 -4 -88q-12 -78 -91 -111q-46 -18 -130 -38l-37 81q110 35 132 58t21 96v807h109z" glyph-name="J.sinf" horiz-adv-x="395"/><glyph d="M135 -307v149h119l16 -157l-106 -158l-37 39l63 127h-55zM135 111v149h121v-149h-121z" glyph-name="semicolon.sinf" horiz-adv-x="393"/><glyph d="M135 788v150h119l16 -158l-106 -157l-37 39l63 126h-55zM135 1206v150h121v-150h-121z" glyph-name="semicolon.ordn" horiz-adv-x="393"/><glyph d="M336 1544l201 -262h-103l-180 184l-178 -184h-103l199 262h164zM319 1176v-1106q0 -108 -16 -156q-16 -46 -48 -66q-83 -51 -230 -88l-43 99q154 47 182 78t29 131v1108h126z" glyph-name="jcircumflex.aalt" horiz-adv-x="516"/><glyph d="M324 1176v-1106q0 -66 -3 -96q-9 -94 -62 -127q-86 -51 -230 -87l-43 99q154 47 182 78t29 131v1108h127z" glyph-name="j.sc" horiz-adv-x="518"/><glyph d="M313 0h-112q0 121 51 282t205 395q33 50 65 91h-459v92h582v-82q-39 -44 -105 -147q-67 -103 -111 -190t-80 -210t-36 -231z" glyph-name="seven.dnom" horiz-adv-x="700"/><glyph d="M313 573h-112q0 121 51 282t205 395q33 50 65 91h-459v93h582v-82q-39 -44 -105 -147q-67 -103 -111 -190t-80 -210t-36 -232z" glyph-name="seven.frac" horiz-adv-x="700"/><glyph d="M295 -258q0 168 51 362t115 340q63 145 159 315t191 300h-745v117h903v-101q-71 -83 -174 -254t-173 -321t-128 -360q-57 -210 -58 -398h-141z" glyph-name="seven.oldstyle" horiz-adv-x="1021"/><glyph d="M559 0h-143q0 168 51 362t115 340q63 145 159 315t191 300h-746v117h904v-101q-63 -74 -170 -249q-107 -176 -177 -326t-127 -360t-57 -398z" glyph-name="seven.tnum" horiz-adv-x="1259"/><glyph d="M322 0h-127v1176h127v-1176zM129 1497q57 0 140 -49t111 -49t50 17t53 77l78 -33q-39 -80 -79 -120t-97 -40t-140 50t-112 51q-49 0 -100 -94l-80 32q43 82 81 120t95 38z" glyph-name="itilde.aalt" horiz-adv-x="516"/><glyph d="M963 537q0 -78 151 -123q150 39 150 123q0 45 -43 77t-108 33q-65 -1 -107 -33t-43 -77zM1307 186q0 94 -197 160q-188 -63 -188 -160q0 -57 54 -91t137 -34t139 34t55 91zM205 471q0 268 278 627h-397v78h506v-68q-32 -32 -90 -118q-58 -87 -98 -159t-70 -172t-31 -188 h-98zM1008 1176l-596 -1176h-101l596 1176h101zM823 182q0 129 191 199q-143 59 -144 166q0 76 68 123t176 47t178 -47q68 -47 68 -123q0 -104 -146 -166q190 -70 191 -199q0 -88 -82 -141t-209 -53t-209 53t-82 141z" glyph-name="seveneighths.aalt" horiz-adv-x="1513"/><glyph d="M254 788h-111v861h111v-861z" glyph-name="I.ordn" horiz-adv-x="395"/><glyph d="M2 -210q0 112 203 210h-8v1176h129v-1176h-7q-5 -4 -27 -15t-31 -17t-46 -30q-46 -28 -73 -65t-27 -69t22 -56t68 -24h76l-19 -91q-82 -1 -143 15q-117 30 -117 142z" glyph-name="iogonek.aalt" horiz-adv-x="518"/><glyph d="M367 -236q147 0 147 93q0 49 -48 73t-95 37q-47 11 -85 21t-80 27t-81 59t-39 114q0 70 66 117t182 47t258 -67l-49 -72q-119 55 -215 55q-139 0 -140 -90q0 -33 20 -48q41 -32 73 -42t61 -16q146 -34 212 -84q66 -49 66 -133t-70 -130q-71 -47 -199 -47t-277 80l47 78 q135 -72 246 -72z" glyph-name="s.sinf" horiz-adv-x="694"/><glyph d="M-37 1333v94h588v-94h-588zM319 0h-124v1176h124v-1176z" glyph-name="imacron.aalt" horiz-adv-x="516"/><glyph d="M448 463q-90 0 -151 -38t-86 -81q4 -125 62 -196q59 -70 159 -70t155 58q54 58 54 136t-51 135q-52 56 -142 56zM571 782q-135 0 -231 -88t-121 -239q95 94 235 94t218 -78t78 -197q0 -120 -86 -204t-239 -84t-239 108t-86 275q0 215 132 360t337 145q72 0 121 -14 l-24 -86q-44 8 -95 8z" glyph-name="six.dnom" horiz-adv-x="835"/><glyph d="M448 1036q-90 0 -151 -38t-86 -80q4 -125 62 -196q59 -71 159 -71q100 1 154 59t55 136q0 78 -51 134q-52 56 -142 56zM571 1356q-135 0 -231 -88t-121 -240q95 94 235 94t218 -78t78 -196t-86 -204q-86 -85 -239 -85t-239 109t-86 274q0 214 132 360t337 146 q72 0 121 -14l-24 -86q-44 8 -95 8z" glyph-name="six.frac" horiz-adv-x="835"/><glyph d="M1001 455q-1 143 -85 245t-238 103q-154 0 -260 -71t-144 -154v-13q0 -199 96 -336t272 -137q175 0 267 110t92 253zM862 1341q-204 -1 -370 -153t-207 -449q53 66 152 120t243 54q213 0 334 -131q121 -132 121 -328t-131 -336t-351 -141q-127 -1 -228 51 q-181 92 -254 327q-32 103 -32 216q-2 213 60 386q112 319 394 443q128 56 247 56t180 -16l22 -6l-32 -111q-68 18 -148 18z" glyph-name="six.oldstyle" horiz-adv-x="1249"/><glyph d="M682 803q-154 0 -260 -71t-143 -154v-13q0 -199 97 -336t272 -137t267 110q93 110 93 253t-86 245t-240 103zM866 1341q-208 -1 -372 -153t-205 -449q55 66 154 120t241 54q215 0 336 -131q121 -132 121 -328t-132 -336t-365 -140q-234 0 -366 176t-134 403t59 400 q112 317 394 443q128 56 247 56t180 -16l23 -6l-33 -111q-66 18 -148 18z" glyph-name="six.tnum" horiz-adv-x="1259"/><glyph d="M254 -307h-111v860h111v-860z" glyph-name="I.sinf" horiz-adv-x="395"/><glyph d="M406 1282h-109l-338 262h195zM324 0h-129v1176h129v-1176z" glyph-name="igrave.aalt" horiz-adv-x="518"/><glyph d="M354 1303v176h146v-176h-146zM16 1303v176h148v-176h-148zM324 0h-127v1176h127v-1176z" glyph-name="idieresis.aalt" horiz-adv-x="516"/><glyph d="M760 1327l-596 -1479h-105l596 1479h105z" glyph-name="slash.sc" horiz-adv-x="829"/><glyph d="M340 1544l201 -262h-103l-180 184l-178 -184h-105l201 262h164zM322 0h-127v1176h127v-1176z" glyph-name="icircumflex.aalt" horiz-adv-x="516"/><glyph glyph-name="space.sinf" horiz-adv-x="372"/><glyph glyph-name="space.ordn" horiz-adv-x="372"/><glyph d="M322 0h-127v1176h127v-1176zM258 1282q-131 0 -204 56t-72 155h100q0 -117 177 -117t177 117h101q0 -99 -74 -155t-205 -56z" glyph-name="ibreve.aalt" horiz-adv-x="516"/><glyph d="M223 1282h-108l247 262h197zM324 0h-129v1176h129v-1176z" glyph-name="iacute.aalt" horiz-adv-x="518"/><glyph d="M156 436v92h184q-14 51 -58 116q-44 66 -76 130t-32 135q0 129 94 207t254 78t379 -115l-61 -88q-194 94 -306 94t-172 -55t-61 -132q0 -78 76 -190t90 -180h295v-92h-289q-14 -168 -174 -327h582v-109h-746v92q23 18 65 60q142 142 150 284h-194z" glyph-name="sterling.aalt" horiz-adv-x="1024"/><glyph d="M809 1176v-1106q0 -82 -4 -116t-32 -76t-87 -66t-170 -52l-43 99q84 27 122 41q39 14 61 41t24 49t2 78v1108h127zM322 0h-127v1176h127v-1176z" glyph-name="ij.aalt" horiz-adv-x="1034"/><glyph d="M322 0h-127v1176h127v-1176z" glyph-name="i.sc" horiz-adv-x="516"/><glyph d="M707 788v406h-453v-406h-111v861h111v-363h453v363h110v-861h-110z" glyph-name="H.ordn" horiz-adv-x="958"/><glyph d="M707 -307v405h-453v-405h-111v860h111v-363h453v363h110v-860h-110z" glyph-name="H.sinf" horiz-adv-x="958"/><glyph d="M330 874v-202h653v202h-653zM983 0v561h-653v-561h-127v874h-135v84h135v218h127v-218h653v218h127v-218h133v-84h-133v-874h-127z" glyph-name="hbar.aalt" horiz-adv-x="1312"/><glyph d="M975 0v561h-653v-561h-127v1176h127v-504h653v504h127v-1176h-127z" glyph-name="h.sc" horiz-adv-x="1296"/><glyph d="M729 788v101q-143 -115 -284 -115t-242 113q-100 113 -101 332q0 219 102 331t259 113q158 0 356 -135l-57 -78q-2 2 -26 15t-30 17t-28 17q-23 11 -34 17q-97 48 -177 49q-113 0 -181 -92t-69 -254q0 -162 69 -256q70 -95 184 -95t259 121v180h-250v91h357v-472h-107z " glyph-name="G.ordn" horiz-adv-x="950"/><glyph d="M555 656q1 128 -183 126q-94 0 -212 -71l-45 69q46 41 133 68q86 26 153 26q125 0 194 -59t69 -133q0 -150 -172 -207q94 -23 153 -85t59 -157t-79 -171q-80 -76 -243 -76t-310 90l53 78q119 -76 233 -76t176 45q60 45 60 128t-88 127t-197 44h-43v94h49q96 0 168 38 t72 102z" glyph-name="three.dnom" horiz-adv-x="800"/><glyph d="M555 1228q1 128 -183 128q-94 0 -212 -72l-45 70q47 42 133 68q86 25 153 26q125 0 194 -59t69 -133q0 -151 -172 -207q94 -23 153 -85t59 -158t-79 -171q-80 -76 -243 -76t-310 90l53 78q119 -76 233 -76t176 45q60 45 60 128t-88 127t-197 44h-43v95h49q96 0 168 38 q72 36 72 100z" glyph-name="three.frac" horiz-adv-x="800"/><glyph d="M574 -168q135 0 239 83q105 83 105 208t-78 204q-138 140 -391 140h-64v119h74q159 0 277 72t118 198q0 102 -79 162t-210 59q-182 0 -356 -119l-62 91q195 145 433 145q190 0 299 -96t108 -236q1 -102 -69 -193t-216 -141q154 -37 253 -142t99 -263t-126 -283 q-127 -125 -361 -125q-143 -1 -274 45t-209 95l63 100q61 -39 177 -81t250 -42z" glyph-name="three.oldstyle" horiz-adv-x="1175"/><glyph d="M614 94q136 0 240 83t104 208t-77 204q-138 140 -392 140h-63v119h74q160 0 278 72t117 186q0 114 -79 174t-210 59q-182 0 -356 -118l-62 90q195 145 433 145q190 0 299 -96t108 -236q0 -102 -70 -193t-215 -140q154 -37 253 -143q100 -106 100 -263q0 -158 -128 -283 t-362 -125q-141 -1 -272 45t-211 95l65 100q62 -39 176 -81t250 -42z" glyph-name="three.tnum" horiz-adv-x="1259"/><glyph d="M729 -307v102q-139 -117 -282 -117t-244 113q-100 113 -101 332q0 219 102 332t259 113q158 0 356 -136l-57 -78q-2 2 -26 16t-30 17q-10 7 -76 40q-83 42 -163 42q-113 0 -181 -92t-69 -254q0 -162 69 -256q70 -94 186 -94t257 123v178h-250v90h357v-471h-107z" glyph-name="G.sinf" horiz-adv-x="952"/><glyph d="M1157 537q0 -78 152 -123q150 39 149 123q0 45 -42 77t-106 33q-64 -1 -109 -33q-44 -32 -44 -77zM1501 186q0 94 -192 160q-193 -63 -193 -160q0 -57 55 -91t139 -34t137 34q54 34 54 91zM1204 1176l-598 -1176h-98l596 1176h100zM354 535q102 -1 155 37q54 38 54 105 t-78 103t-172 35h-37v78h41q84 0 146 31q61 31 61 83q0 103 -143 103q-102 0 -197 -59l-41 59q29 26 98 52t163 26t156 -49q60 -49 61 -119q0 -113 -148 -160q80 -18 132 -70t52 -129t-69 -140q-70 -63 -212 -63t-270 74l46 66q100 -63 202 -63zM1018 182q0 129 190 199 q-143 61 -143 166q0 76 68 123q67 47 177 47t178 -47t66 -123q0 -109 -143 -166q188 -74 188 -199q1 -88 -81 -141t-208 -53t-209 53t-83 141z" glyph-name="threeeighths.aalt" horiz-adv-x="1708"/><glyph d="M1366 1434l-686 -1434h-115l686 1434h115zM394 651q112 0 172 45t60 128t-87 127q-88 44 -197 44h-43v95h49q96 0 167 38t71 100q0 128 -166 128q-109 0 -227 -72l-48 70q123 94 269 94t214 -59t68 -133q-1 -151 -172 -207q94 -23 154 -85t59 -158q0 -96 -80 -171 q-81 -76 -241 -76t-314 90l54 78q126 -76 238 -76zM1761 860v-92h-403l-23 -254q76 33 160 33q139 0 221 -80t82 -197q0 -116 -84 -200t-236 -84t-292 90l49 80q119 -76 219 -76t166 53t66 135t-58 135t-154 53q-97 0 -194 -53l-59 33l47 424h493z" glyph-name="glyph736" horiz-adv-x="1921"/><glyph d="M1204 1176l-598 -1176h-98l596 1176h100zM354 535q102 -1 155 37q54 38 54 105t-78 103t-172 35h-37v78h41q84 0 146 31q61 31 61 83q0 103 -143 103q-102 0 -197 -59l-41 59q29 26 98 52t163 26t156 -49q60 -49 61 -119q0 -113 -148 -160q80 -18 132 -70t52 -129 t-69 -140q-70 -63 -212 -63t-270 74l46 66q100 -63 202 -63zM1548 705v-76h-352l-18 -207q68 27 137 27q121 0 193 -66t73 -162q0 -96 -74 -165q-74 -68 -197 -68t-263 73l43 68q94 -59 187 -59t149 43t56 108t-49 109q-51 44 -141 43q-90 0 -162 -45l-51 28l43 349h426z " glyph-name="glyph737" horiz-adv-x="1703"/><glyph d="M559 1303v176h148v-176h-148zM1004 0v143q-197 -161 -397 -161t-337 152t-137 454t138 454t357 152t478 -186l-72 -93q-248 164 -408 164t-259 -131q-101 -131 -101 -360q0 -230 100 -362t266 -132q167 0 372 174v262h-353v107h477v-637h-124z" glyph-name="gdotaccent.aalt" horiz-adv-x="1277"/><glyph d="M590 -315v182h143l21 -186l-129 -222l-50 47l84 179h-69zM1004 0v143q-197 -161 -397 -161t-337 152t-137 454t138 454t357 152t478 -186l-72 -93q-248 164 -408 164t-259 -131q-101 -131 -101 -360q0 -230 100 -362t266 -132q167 0 372 174v262h-353v107h477v-637h-124z " glyph-name="gcommaaccent.aalt" horiz-adv-x="1277"/><glyph d="M1346 231v396l-304 -396h304zM1204 1176l-598 -1176h-98l596 1176h100zM354 535q102 -1 155 37q54 38 54 105t-78 103t-172 35h-37v78h41q84 0 146 31q61 31 61 83q0 103 -143 103q-102 0 -197 -59l-41 59q29 26 98 52t163 26t156 -49q60 -49 61 -119q0 -113 -148 -160 q80 -18 132 -70t52 -129t-69 -140q-70 -63 -212 -63t-270 74l46 66q100 -63 202 -63zM940 156v67l377 482h125v-474h121v-75h-121v-156h-96v156h-406z" glyph-name="threequarters.aalt" horiz-adv-x="1660"/><glyph d="M630 1282q-130 0 -204 56t-74 155h101q0 -117 177 -117t177 117h100q0 -98 -73 -155q-74 -56 -204 -56zM1004 0v143q-197 -161 -397 -161t-337 152t-137 454t138 454t357 152t478 -186l-72 -93q-248 164 -408 164t-259 -131q-101 -131 -101 -360q0 -230 100 -362 t266 -132q167 0 372 174v262h-353v107h477v-637h-124z" glyph-name="gbreve.aalt" horiz-adv-x="1277"/><glyph d="M1004 0v143q-197 -161 -397 -161t-337 152t-137 454t138 454t357 152t478 -186l-72 -93q-248 164 -408 164t-259 -131q-101 -131 -101 -360q0 -230 100 -362t266 -132q167 0 372 174v262h-353v107h477v-637h-124z" glyph-name="g.sc" horiz-adv-x="1277"/><glyph d="M55 258v80h95v162l106 24v-186h186v-80h-186v-420q0 -70 61 -69q53 0 129 34l41 -79q-113 -45 -186 -46q-152 0 -151 164v416h-95z" glyph-name="t.sinf" horiz-adv-x="542"/><glyph d="M715 1556h-461v-292h369v-90h-369v-386h-111v861h572v-93z" glyph-name="F.ordn" horiz-adv-x="780"/><glyph d="M715 461h-461v-293h369v-90h-369v-385h-111v860h572v-92z" glyph-name="F.sinf" horiz-adv-x="780"/><glyph d="M967 1067h-645v-426h516v-109h-516v-532h-127v1176h772v-109z" glyph-name="f.sc" horiz-adv-x="1044"/><glyph d="M692 92v-92h-606v70q0 123 84 202q69 66 131 106q63 40 103 66q176 110 176 205q0 59 -48 96t-131 37q-129 0 -237 -77l-53 71q147 98 287 98t216 -61t76 -162q0 -61 -18 -91t-28 -47t-35 -40q-26 -23 -37 -34t-46 -33t-44 -30q-9 -7 -50 -33q-41 -25 -91 -57t-91 -78 t-41 -116h483z" glyph-name="two.dnom" horiz-adv-x="792"/><glyph d="M692 666v-93h-606v70q0 124 84 203q65 63 130 104q64 40 104 66t76 53t68 69t32 93t-48 88t-131 37q-129 0 -237 -78l-53 72q147 98 287 98t216 -62t76 -161q0 -60 -18 -91t-28 -48q-10 -18 -35 -40q-26 -22 -37 -33t-46 -34t-44 -30q-16 -13 -145 -92 q-128 -80 -128 -191h483z" glyph-name="two.frac" horiz-adv-x="792"/><glyph d="M119 0v102q0 161 131 270q103 85 301 181t262 147q92 76 92 173t-78 151t-213 55q-211 0 -389 -127l-67 92q215 150 458 150q193 0 307 -82t113 -242q0 -112 -86 -214q-65 -75 -303 -192q-237 -118 -310 -180t-77 -169h778v-115h-919z" glyph-name="two.oldstyle" horiz-adv-x="1177"/><glyph d="M1081 117v-117h-925v104q0 202 127 333q88 94 284 229q225 131 325 274q52 76 52 170t-81 162t-206 68t-227 -41q-102 -40 -166 -87l-69 93q213 152 452 151q195 0 314 -97t118 -261q0 -87 -42 -179q-15 -36 -54 -80t-61 -68q-46 -51 -236 -179q-190 -127 -252 -180 q-135 -117 -135 -295h782z" glyph-name="two.tnum" horiz-adv-x="1259"/><glyph d="M1405 1434l-686 -1434h-115l684 1434h117zM723 666v-93h-604v70q0 124 84 203q65 63 130 104q63 42 105 68t76 51t66 68t32 93t-48 88t-130 38q-129 0 -237 -78l-54 72q147 98 287 98t216 -62q75 -62 75 -161q-1 -61 -19 -92q-18 -30 -27 -47q-9 -18 -35 -40t-37 -33 t-46 -34t-44 -30q-16 -13 -144 -92q-127 -79 -127 -191h481zM1800 860v-92h-403l-25 -254q76 33 162 33q139 0 221 -80t82 -198q0 -119 -83 -201t-231 -82t-300 90l53 80q30 -23 96 -50q66 -26 144 -26t144 53q64 53 64 135t-56 135t-154 53t-193 -53l-61 33l49 424h491z " glyph-name="glyph751" horiz-adv-x="1959"/><glyph d="M1239 1176l-598 -1176h-98l596 1176h100zM647 547v-76h-526v57q0 106 77 169t156 111q80 48 110 68t58 56t29 76q0 40 -42 71t-129 31t-192 -66l-45 62q125 82 248 82t190 -50t67 -125t-28 -106q-26 -31 -41 -51t-59 -45q-43 -26 -90 -53q-47 -28 -89 -52 q-114 -66 -114 -159h420zM1585 705v-76h-354l-19 -209q66 29 140 29q122 0 194 -66t72 -162t-74 -165q-74 -68 -198 -68t-265 73l43 68q111 -59 196 -59t141 43q57 43 57 108t-48 109t-141 43q-92 0 -164 -45l-49 28l41 349h428z" glyph-name="glyph752" horiz-adv-x="1738"/><glyph d="M86 1284v64h88q29 156 123 236t231 79q137 0 336 -127l-57 -78q-173 106 -271 106q-192 1 -245 -216h366v-64h-378q-9 -88 2 -137h376v-64h-366q57 -211 249 -211q100 0 267 107l57 -78q-199 -127 -335 -127t-230 78t-123 231h-90v64h80q-2 23 -2 70t2 67h-80z" glyph-name="Euro.ordn" horiz-adv-x="952"/><glyph d="M291 -12q57 -211 249 -211q100 0 267 106l57 -78q-199 -127 -335 -127t-230 78t-123 232h-90v63h80q-2 23 -2 70t2 67h-80v64h88q29 156 123 236t231 79q137 0 336 -127l-57 -78q-173 106 -271 106q-193 1 -245 -216h366v-64h-378q-9 -88 2 -137h376v-63h-366z" glyph-name="Euro.sinf" horiz-adv-x="952"/><glyph d="M119 682v80h123q39 216 166 324q126 108 314 108t454 -174l-66 -90q-240 152 -380 152t-231 -85q-91 -84 -124 -235h526v-80h-541q-4 -61 -4 -105t6 -94h539v-80h-524q35 -147 125 -228t230 -81t378 152l66 -92q-268 -172 -454 -172t-312 105q-127 105 -166 316h-125v80 h112q-4 66 -4 117t4 82h-112z" glyph-name="Euro.oldstyle" horiz-adv-x="1306"/><glyph d="M1316 66q98 0 152 36t54 105t-77 103t-173 34h-35v80h41q84 0 145 30t61 82q1 103 -143 103q-109 0 -196 -59l-43 59q104 78 232 78t188 -48q61 -48 61 -118q0 -111 -151 -162q82 -16 134 -68t52 -130q0 -79 -71 -141t-199 -62t-283 73l47 66q106 -61 204 -61zM1239 1176 l-598 -1176h-98l596 1176h100zM645 547v-76h-524v57q0 106 81 173q46 41 72 57t93 58q69 42 97 62t58 54q30 36 29 76q0 40 -42 71t-130 31t-193 -66l-43 62q121 82 245 82t191 -50t67 -123t-26 -105t-39 -47t-47 -39t-48 -32t-56 -33q-43 -25 -87 -51q-116 -67 -116 -161 h418z" glyph-name="twothirds.aalt" horiz-adv-x="1730"/><glyph d="M1024 588q0 248 -109 362t-344 115h-237v-422h307v-111h-307v-421h237q237 1 345 115t108 362zM1155 588q0 -588 -577 -588h-371v532h-135v111h135v533h371q577 0 577 -588z" glyph-name="eth.aalt" horiz-adv-x="1288"/><glyph d="M723 788h-580v861h572v-93h-461v-292h383v-90h-383v-293h469v-93z" glyph-name="E.ordn" horiz-adv-x="813"/><glyph d="M777 -240q11 -12 26 -24t53 -12h76l-19 -91q-260 0 -260 154q0 117 205 213h-663v1176h772v-109h-645v-424h534v-111h-534v-423h655v-109h-6q-6 -4 -28 -15t-31 -17t-47 -31q-99 -62 -99 -133q0 -32 11 -44z" glyph-name="eogonek.aalt" horiz-adv-x="1093"/><glyph d="M1130 1176v-1117q0 -77 -5 -111t-33 -73t-87 -63q-58 -24 -167 -52l-43 99q125 37 163 61t43 76l-679 1003v-999h-127v1176h135l674 -1000v1000h126z" glyph-name="eng.aalt" horiz-adv-x="1325"/><glyph d="M289 1333v94h588v-94h-588zM977 0h-782v1176h772v-109h-645v-424h534v-111h-534v-423h655v-109z" glyph-name="emacron.aalt" horiz-adv-x="1093"/><glyph d="M723 -307h-580v860h572v-92h-461v-293h383v-90h-383v-293h469v-92z" glyph-name="E.sinf" horiz-adv-x="813"/><glyph d="M731 1282h-110l-336 262h194zM977 0h-782v1176h772v-109h-645v-424h534v-111h-534v-423h655v-109z" glyph-name="egrave.aalt" horiz-adv-x="1093"/><glyph d="M588 -307v92q-147 -106 -281 -107q-190 0 -190 201v459h104v-440q0 -133 117 -134q63 0 134 34t116 71v469h104v-645h-104z" glyph-name="u.sinf" horiz-adv-x="811"/><glyph d="M510 1303v176h147v-176h-147zM977 0h-782v1176h772v-109h-645v-424h534v-111h-534v-423h655v-109z" glyph-name="edotaccent.aalt" horiz-adv-x="1093"/><glyph d="M680 1303v176h145v-176h-145zM342 1303v176h147v-176h-147zM977 0h-782v1176h772v-109h-645v-424h534v-111h-534v-423h655v-109z" glyph-name="edieresis.aalt" horiz-adv-x="1093"/><glyph d="M668 1544l198 -262h-100l-182 184l-178 -184h-105l199 262h168zM977 0h-782v1176h772v-109h-645v-424h534v-111h-534v-423h655v-109z" glyph-name="ecircumflex.aalt" horiz-adv-x="1093"/><glyph d="M866 1544l-198 -262h-168l-199 262h105l178 -182l182 182h100zM977 0h-782v1176h772v-109h-645v-424h534v-111h-534v-423h655v-109z" glyph-name="ecaron.aalt" horiz-adv-x="1093"/><glyph d="M451 -315v182h143l22 -186l-133 -222l-47 47l82 179h-67zM985 1065h-397v-1065h-129v1065h-398v111h924v-111z" glyph-name="uni021A.aalt" horiz-adv-x="1046"/><glyph d="M549 1282h-109l250 262h197zM977 0h-782v1176h772v-109h-645v-424h534v-111h-534v-423h655v-109z" glyph-name="eacute.aalt" horiz-adv-x="1093"/><glyph d="M977 0h-782v1176h772v-109h-645v-424h534v-111h-534v-423h655v-109z" glyph-name="e.sc" horiz-adv-x="1093"/><glyph d="M510 401l70 -262l73 262h-143zM1202 401l74 -266l72 266h-146zM430 696l55 -207h193l55 207h-303zM1120 696l58 -207h192l57 207h-307zM137 401v88h225l-61 207h-164v88h139l-114 392h139l105 -392h352l108 392h121l109 -392h354l106 392h138l-115 -392h139v-88h-166 l-59 -207h225v-88h-252l-116 -401h-140l-280 1006l-283 -1006h-139l-119 401h-252z" glyph-name="uni20A9.oldstyle" horiz-adv-x="1853"/><glyph d="M883 -12l47 -170l43 170h-90zM383 -12l45 -172l47 172h-92zM823 203l39 -144h129l39 144h-207zM328 203l37 -144h131l39 144h-207zM100 -12v71h160l-43 144h-117v71h97l-80 279h121l71 -279h244l78 279h96l76 -279h246l73 279h119l-82 -279h101v-71h-121l-41 -144h162 v-71h-183l-84 -295h-116l-197 713l-199 -713h-114l-86 295h-181z" glyph-name="uni20A9.sinf" horiz-adv-x="1357"/><glyph d="M883 1083l47 -170l43 170h-90zM383 1083l45 -172l47 172h-92zM823 1298l39 -143h129l39 143h-207zM328 1298l37 -143h131l39 143h-207zM100 1083v72h160l-43 143h-117v72h97l-80 279h121l71 -279h244l78 279h96l76 -279h246l73 279h119l-82 -279h101v-72h-121l-41 -143 h162v-72h-183l-84 -295h-116l-197 713l-199 -713h-114l-86 295h-181z" glyph-name="uni20A9.ordn" horiz-adv-x="1357"/><glyph d="M735 1219q0 176 -77 257t-242 80h-162v-675h162q166 0 242 81t77 257zM846 1219q0 -430 -422 -431h-281v861h281q422 0 422 -430z" glyph-name="D.ordn" horiz-adv-x="948"/><glyph d="M1323 309v84h528v-84h-528zM1794 823q0 246 -207 246t-207 -246q0 -123 50 -183t158 -60t157 60t49 183zM1907 823q0 -164 -82 -250t-238 -86q-157 0 -237 86t-80 251t81 251t237 86t237 -87q82 -87 82 -251zM326 0h-127v1176h135l676 -1004v1004h127v-1176h-133 l-678 1001v-1001z" glyph-name="afii61352.oldstyle" horiz-adv-x="2033"/><glyph d="M1323 309v84h528v-84h-528zM1794 823q0 246 -207 246t-207 -246q0 -123 50 -183t158 -60t157 60t49 183zM1907 823q0 -164 -82 -250t-238 -86q-157 0 -237 86t-80 251t81 251t237 86t237 -87q82 -87 82 -251zM326 0h-127v1176h135l676 -1004v1004h127v-1176h-133 l-678 1001v-1001z" glyph-name="afii61352.sc" horiz-adv-x="2031"/><glyph d="M735 123q0 176 -77 257t-242 81h-162v-676h162q166 0 242 81t77 257zM846 123q0 -430 -422 -430h-281v860h281q422 0 422 -430z" glyph-name="D.sinf" horiz-adv-x="948"/><glyph d="M203 588q0 -238 143 -390t397 -153q254 0 399 153q144 152 144 390t-144 390t-398 152t-398 -152q-143 -152 -143 -390zM133 588q0 264 163 435q162 171 448 171t447 -171t161 -435t-161 -435t-447 -171t-448 171t-163 435zM797 582q161 0 161 144t-161 144h-156v-288 h156zM797 940q247 0 247 -216t-247 -216h-156v-275h-86v707h242z" glyph-name="uni2117.aalt" horiz-adv-x="1484"/><glyph d="M1024 588q0 248 -109 362t-344 115h-237v-422h307v-111h-307v-421h237q237 1 345 115t108 362zM1155 588q0 -588 -577 -588h-371v532h-135v111h135v533h371q577 0 577 -588z" glyph-name="dcroat.aalt" horiz-adv-x="1288"/><glyph d="M952 1544l-198 -262h-168l-199 262h105l178 -182l180 182h102zM1014 588q0 248 -109 364t-346 115h-235v-958h235q239 -1 347 115t108 364zM1147 588q0 -588 -580 -588h-372v1176h372q580 0 580 -588z" glyph-name="dcaron.aalt" horiz-adv-x="1280"/><glyph d="M1014 588q0 248 -109 362t-346 115h-235v-954h235q239 1 347 115t108 362zM1147 588q0 -588 -580 -588h-372v1176h372q580 0 580 -588z" glyph-name="d.sc" horiz-adv-x="1280"/><glyph d="M588 788v91q-154 -104 -281 -105q-190 0 -190 201v459h104v-441q0 -133 117 -133q63 0 135 34t115 71v469h104v-646h-104z" glyph-name="u.ordn" horiz-adv-x="811"/><glyph d="M217 1219q0 -162 68 -254q67 -93 179 -93t284 107l57 -78q-203 -127 -353 -127t-249 113q-100 113 -101 332q0 219 100 331t250 113q150 0 353 -127l-57 -78q-178 106 -287 106t-177 -91q-68 -92 -67 -254z" glyph-name="C.ordn" horiz-adv-x="886"/><glyph d="M217 123q0 -162 68 -254q67 -92 179 -92t284 106l57 -78q-203 -127 -353 -127t-249 113q-100 113 -101 332q0 219 100 332q207 233 603 -15l-57 -78q-178 106 -287 106t-177 -91q-68 -92 -67 -254z" glyph-name="C.sinf" horiz-adv-x="886"/><glyph d="M412 -307h-101l-274 645h113l210 -543l213 543h111z" glyph-name="v.sinf" horiz-adv-x="720"/><glyph d="M414 788h-101l-274 646h113l210 -543l213 543h111z" glyph-name="v.ordn" horiz-adv-x="724"/><glyph d="M555 1303v176h147v-176h-147zM620 96q154 0 398 150l69 -90q-269 -174 -473 -174t-343 152q-138 153 -138 454q0 302 138 454t342 152t474 -174l-69 -92q-240 152 -396 152t-256 -132q-100 -131 -100 -360q0 -228 100 -360t254 -132z" glyph-name="cdotaccent.aalt" horiz-adv-x="1185"/><glyph d="M512 -252q119 0 119 100q0 59 -49 136q-197 12 -323 164t-126 446q0 296 138 448q139 152 343 152t473 -174l-69 -92q-240 152 -396 152t-256 -132q-100 -131 -100 -360q0 -228 100 -360t254 -132t398 150l69 -90q-252 -160 -432 -172q68 -84 68 -163t-55 -123t-138 -44 t-161 37l37 86q59 -29 106 -29z" glyph-name="ccedilla.aalt" horiz-adv-x="1185"/><glyph d="M928 1544l-199 -262h-168l-199 262h105l178 -182l182 182h101zM620 96q154 0 398 150l69 -90q-269 -174 -473 -174t-343 152q-138 153 -138 454q0 302 138 454t342 152t474 -174l-69 -92q-240 152 -396 152t-256 -132q-100 -131 -100 -360q0 -228 100 -360t254 -132z" glyph-name="ccaron.aalt" horiz-adv-x="1185"/></font>
</defs>
</svg>
