<?xml version="1.0" standalone="no"?>
<!DOCTYPE svg PUBLIC "-//W3C//DTD SVG 1.1//EN" "http://www.w3.org/Graphics/SVG/1.1/DTD/svg11.dtd">
<svg xmlns="http://www.w3.org/2000/svg"><metadata>This SVG WebFont was generated by YouWorkForThem.
Copyright (c) 2012 by Yellow Desing Studio. All rights reserved.</metadata><defs><font horiz-adv-x="1304" id="ywftsvg"><font-face ascent="1638" bbox="-248 -606 2900 1958" cap-height="1434" descent="-410" font-family="" font-stretch="normal" font-weight="700" panose-1="2 0 8 0 3 0 0 2 0 4" underline-position="0" underline-thickness="0" unicode-range="U+0020-FB06" units-per-em="2048" x-height="1075"/><missing-glyph horiz-adv-x="540"/><glyph d="M45 858v217h148v55q0 186 76 275q77 88 239 88t358 -84l-98 -211q-139 41 -185 41t-72 -20t-26 -80v-64h242v-217h-242v-858h-292v858h-148zM821 858v217h148v55q0 186 77 274q76 88 238 89q162 0 358 -84l-98 -211q-139 41 -185 41t-72 -20t-25 -80v-64h268v-217h-268 v-858h-293v858h-148z" glyph-name="uniFB00" horiz-adv-x="1560" unicode="ff"/><glyph d="M905 1231v256h312v-256h-312zM1206 0h-295v1075h295v-1075zM45 858v217h148v55q0 362 307 363q139 0 291 -68l-70 -215q-92 29 -138 29t-72 -20t-26 -80v-64h269v-217h-269v-858h-292v858h-148z" glyph-name="uniFB01" horiz-adv-x="1333" unicode="fi"/><glyph d="M1210 0h-292v1493h292v-1493zM45 858v217h148v55q0 362 307 363q139 0 291 -68l-70 -215q-92 29 -138 29t-72 -20t-26 -80v-64h269v-217h-269v-858h-292v858h-148z" glyph-name="uniFB02" horiz-adv-x="1343" unicode="fl"/><glyph d="M1681 1231v256h312v-256h-312zM1982 0h-294v1075h294v-1075zM821 858v217h148v55q0 362 307 363q139 0 291 -68l-70 -215q-98 29 -141 29t-69 -20t-25 -80v-64h268v-217h-268v-858h-293v858h-148zM45 858v217h148v55q0 186 76 275q77 88 239 88t358 -84l-78 -211 q-156 41 -204 41t-73 -20q-26 -20 -26 -80v-64h242v-217h-242v-858h-292v858h-148z" glyph-name="uniFB03" horiz-adv-x="2109" unicode="ffi"/><glyph d="M1987 0h-295v1493h295v-1493zM821 858v217h148v55q0 362 307 363q139 0 291 -68l-70 -215q-98 29 -141 29t-69 -20t-25 -80v-64h268v-217h-268v-858h-293v858h-148zM45 858v217h148v55q0 186 76 275q77 88 239 88t358 -84l-78 -211q-156 41 -204 41t-73 -20 q-26 -20 -26 -80v-64h242v-217h-242v-858h-292v858h-148z" glyph-name="uniFB04" horiz-adv-x="2119" unicode="ffl"/><glyph d="M2255 860q-156 0 -273 -139v-369q119 -137 273 -137q207 1 207 323t-207 322zM821 858v217h148v55q0 362 307 363q139 0 291 -68l-70 -215q-98 29 -141 29t-69 -20t-25 -80v-64h268v-217h-268v-858h-293v858h-148zM45 858v217h148v55q0 186 76 275q77 88 239 88t358 -84 l-78 -211q-156 41 -204 41t-73 -20q-26 -20 -26 -80v-64h242v-217h-242v-858h-292v858h-148zM1688 0v1493h294v-539q166 144 358 144t307 -144q114 -144 114 -416t-114 -416q-115 -144 -307 -144t-358 139v-117h-294z" glyph-name="f_f_b.liga" horiz-adv-x="2838" unicode="ffb"/><glyph d="M821 858v217h148v55q0 362 307 363q139 0 291 -68l-70 -215q-98 29 -141 29t-69 -20t-25 -80v-64h268v-217h-268v-858h-293v858h-148zM45 858v217h148v55q0 186 76 275q77 88 239 88t358 -84l-78 -211q-156 41 -204 41t-73 -20q-26 -20 -26 -80v-64h242v-217h-242v-858 h-292v858h-148zM1982 1493v-547q217 152 418 152q322 0 322 -338v-760h-295v692q0 176 -141 176q-76 0 -161 -43t-143 -96v-729h-294v1493h294z" glyph-name="f_f_h.liga" horiz-adv-x="2840" unicode="ffh"/><glyph d="M1479 860q-156 0 -273 -139v-369q119 -137 273 -137q209 1 209 323t-209 322zM45 858v217h148v55q0 362 307 363q139 0 291 -68l-70 -215q-92 29 -138 29t-72 -20t-26 -80v-64h269v-217h-269v-858h-292v858h-148zM911 0v1493h295v-539q166 144 358 144t307 -142 q114 -142 114 -417q0 -273 -114 -417q-115 -144 -307 -144t-358 139v-117h-295z" glyph-name="f_b.liga" horiz-adv-x="2062" unicode="fb"/><glyph d="M1679 1231v256h312v-256h-312zM1982 1075v-1124q0 -91 -9 -121t-19 -63t-26 -49t-41 -42q-23 -25 -55 -40q-127 -61 -288 -97l-96 213q94 31 139 50q45 18 70 52t27 60t4 92v1069h294zM821 858v217h148v55q0 362 307 363q139 0 291 -68l-70 -215q-98 29 -141 29t-69 -20 t-25 -80v-64h268v-217h-268v-858h-293v858h-148zM45 858v217h148v55q0 186 76 275q77 88 239 88t358 -84l-78 -211q-156 41 -204 41t-73 -20q-26 -20 -26 -80v-64h242v-217h-242v-858h-292v858h-148z" glyph-name="f_f_j.liga" horiz-adv-x="2109" unicode="ffj"/><glyph d="M821 858v217h148v55q0 362 307 363q139 0 291 -68l-70 -215q-98 29 -141 29t-69 -20t-25 -80v-64h268v-217h-268v-858h-293v858h-148zM45 858v217h148v55q0 186 76 275q77 88 239 88t358 -84l-78 -211q-156 41 -204 41t-73 -20q-26 -20 -26 -80v-64h242v-217h-242v-858 h-292v858h-148zM1982 0h-294v1493h294v-862l351 444h333l-362 -426l426 -649h-309l-293 440l-146 -172v-268z" glyph-name="f_f_k.liga" horiz-adv-x="2727" unicode="ffk"/><glyph d="M1599 858v217h148v271l293 40v-311h293v-217h-293v-522q0 -61 25 -82q26 -20 70 -20t167 49l102 -220q-188 -86 -346 -86q-311 0 -311 363v518h-148zM821 858v217h148v55q0 186 77 274q76 88 238 89q162 0 358 -84l-98 -211q-139 41 -185 41t-72 -20t-25 -80v-64h245 v-217h-245v-858h-293v858h-148zM45 858v217h148v55q0 186 76 275q77 88 239 88t358 -84l-78 -211q-156 41 -204 41t-73 -20q-26 -20 -26 -80v-64h242v-217h-242v-858h-292v858h-148z" glyph-name="f_f_t.liga" horiz-adv-x="2410" unicode="fft"/><glyph d="M45 858v217h148v55q0 362 307 363q139 0 291 -68l-70 -215q-92 29 -138 29t-72 -20t-26 -80v-64h269v-217h-269v-858h-292v858h-148zM1206 1493v-547q217 152 418 152q322 0 322 -338v-760h-295v692q0 176 -142 176q-77 0 -161 -43t-142 -96v-729h-295v1493h295z" glyph-name="f_h.liga" horiz-adv-x="2064" unicode="fh"/><glyph d="M903 1231v256h311v-256h-311zM1206 1075v-1124q0 -91 -9 -121t-19 -63t-26 -49t-41 -42q-23 -25 -55 -40q-127 -61 -288 -97l-94 213q92 31 137 50q45 18 70 52t27 60t3 92v1069h295zM45 858v217h148v55q0 362 307 363q139 0 291 -68l-70 -215q-92 29 -138 29t-72 -20 t-26 -80v-64h269v-217h-269v-858h-292v858h-148z" glyph-name="f_j.liga" horiz-adv-x="1333" unicode="fj"/><glyph d="M45 858v217h148v55q0 362 307 363q139 0 291 -68l-70 -215q-92 29 -138 29t-72 -20t-26 -80v-64h269v-217h-269v-858h-292v858h-148zM1206 0h-295v1493h295v-862l350 444h334l-362 -426l428 -649h-311l-293 440l-146 -172v-268z" glyph-name="f_k.liga" horiz-adv-x="1951" unicode="fk"/><glyph d="M827 858v217h148v271l293 40v-311h293v-217h-293v-522q0 -61 25 -82q26 -20 70 -20t167 49l102 -220q-188 -86 -346 -86q-311 0 -311 363v518h-148zM45 858v217h148v55q0 186 76 275q77 88 239 88t358 -84l-98 -211q-139 41 -185 41t-72 -20t-26 -80v-64h242v-217h-242 v-858h-292v858h-148z" glyph-name="f_t.liga" horiz-adv-x="1638" unicode="ft"/><glyph glyph-name=".notdef" horiz-adv-x="540"/><glyph glyph-name="glyph1" horiz-adv-x="0"/><glyph glyph-name="glyph2" horiz-adv-x="681"/><glyph glyph-name="space" horiz-adv-x="555" unicode=" "/><glyph d="M469 1434l-90 -971h-178l-90 971h358zM137 0v311h305v-311h-305z" glyph-name="exclam" horiz-adv-x="579" unicode="!"/><glyph d="M373 1434l-49 -560h-187l-47 560h283zM801 1434l-49 -560h-185l-47 560h281z" glyph-name="quotedbl" horiz-adv-x="892" unicode="&quot;"/><glyph d="M631 887l-53 -340h305l53 340h-305zM78 324v223h272l53 340h-239v223h272l51 324h228l-51 -324h305l51 324h227l-51 -324h240v-223h-273l-53 -340h240v-223h-273l-49 -324h-229l49 324h-303l-49 -324h-230l49 324h-237z" glyph-name="numbersign" horiz-adv-x="1513" unicode="#"/><glyph d="M428 1061q0 -88 137 -139v272q-137 -24 -137 -133zM932 379q0 51 -38 85t-114 64v-292q152 28 152 143zM780 -205h-215v195q-270 39 -491 180l137 219q158 -92 354 -139v348l-86 31q-140 50 -256 142q-117 93 -117 268t123 288t336 127v186h215v-196q231 -37 426 -135 l-137 -224q-135 63 -289 99v-330q355 -108 439 -285q35 -74 34 -168q0 -179 -129 -293t-344 -128v-185z" glyph-name="dollar" horiz-adv-x="1327" unicode="$"/><glyph d="M1522 1434l-744 -1434h-231l743 1434h232zM643 1071q0 99 -46 151t-130 52q-176 0 -176 -202t176 -202q84 0 130 52t46 149zM864 1072q0 -181 -105 -282q-105 -102 -291 -102t-292 102t-106 282t105 282t291 102t293 -101q105 -102 105 -283zM1780 360q0 98 -46 150 t-131 53q-85 0 -130 -52t-46 -151q0 -201 175 -200q178 -1 178 200zM1999 361q1 -181 -105 -282t-292 -101t-290 100q-104 102 -106 283q0 181 104 283t292 101q186 1 292 -101t105 -283z" glyph-name="percent" horiz-adv-x="2066" unicode="%"/><glyph d="M481 1104q0 -86 127 -213q164 111 164 217q0 53 -36 95t-106 42t-109 -42q-40 -42 -40 -99zM401 373q1 -68 55 -121t170 -53t242 98l-303 303q-164 -125 -164 -227zM111 360q0 129 77 223q78 93 215 179q-90 92 -139 173t-49 179q0 158 121 250t300 92t291 -92t111 -234 q0 -114 -72 -204t-202 -185l258 -260q76 135 86 275h297q-37 -254 -195 -461l297 -295h-342l-123 123q-197 -145 -450 -146q-207 0 -344 108t-137 275z" glyph-name="ampersand" horiz-adv-x="1480" unicode="&amp;"/><glyph d="M373 1434l-49 -560h-187l-47 560h283z" glyph-name="quotesingle" horiz-adv-x="464" unicode="'"/><glyph d="M125 188v1047q0 192 31 259t72 93q103 64 181 88t160 43l76 -168q-151 -51 -183 -93t-32 -154v-1180q0 -113 33 -155t182 -93l-76 -168q-161 39 -279 91q-68 31 -128 118q-37 56 -37 272z" glyph-name="parenleft" horiz-adv-x="679" unicode="("/><glyph d="M555 1235v-1047q0 -198 -24 -244q-39 -85 -79 -109q-118 -70 -187 -89q-70 -20 -152 -39l-76 168q147 51 180 93t33 155v1180q0 113 -33 155t-180 92l76 168q172 -38 236 -72q65 -35 106 -60t68 -86q28 -62 30 -132t2 -133z" glyph-name="parenright" horiz-adv-x="679" unicode=")"/><glyph d="M365 635l81 321l-239 -231l-123 213l322 88l-322 92l125 213l237 -233l-81 319h247l-82 -319l236 233l123 -215l-309 -88l309 -90l-123 -215l-231 223l77 -311h-247z" glyph-name="asterisk" horiz-adv-x="976" unicode="*"/><glyph d="M539 1167h223v-372h416v-224h-416v-372h-223v372h-414v224h414v372z" glyph-name="plus" unicode="+"/><glyph d="M119 0v338h301l22 -375l-249 -291l-82 101l145 227h-137z" glyph-name="comma" horiz-adv-x="544" unicode=","/><glyph d="M770 463h-649v239h649v-239z" glyph-name="hyphen" horiz-adv-x="890" unicode="-"/><glyph d="M117 0v338h307v-338h-307z" glyph-name="period" horiz-adv-x="540" unicode="."/><glyph d="M938 1618l-674 -1802h-225l674 1802h225z" glyph-name="slash" horiz-adv-x="976" unicode="/"/><glyph d="M697 215q288 0 288 501t-288 501t-288 -501t288 -501zM698 1456q293 0 445 -192q151 -192 151 -547q0 -354 -152 -547t-446 -193t-446 193t-152 547q0 355 154 547t446 192z" glyph-name="zero" horiz-adv-x="1390" unicode="0"/><glyph d="M688 0h-305v1147l-250 -131l-121 201l387 217h289v-1434z" glyph-name="one" horiz-adv-x="847" unicode="1"/><glyph d="M1153 254v-254h-1081v141q0 210 144 360q73 75 141 126t169 116q101 64 119 76q141 94 169 142t28 101q0 52 -56 96t-157 44q-166 0 -383 -133l-137 199q268 188 561 188q229 0 355 -110t126 -285q0 -96 -34 -175t-119 -152q-85 -74 -129 -104q-62 -43 -247 -150 q-185 -108 -186 -226h717z" glyph-name="two" horiz-adv-x="1253" unicode="2"/><glyph d="M602 236q117 0 188 49q70 49 70 125q-1 137 -143 185q-120 40 -262 40h-64v256h74q133 0 233 41t101 133q0 63 -50 100t-143 37q-166 0 -373 -121l-127 193q252 182 547 182q221 0 337 -99t116 -247q0 -219 -242 -319q135 -39 221 -141t86 -232q0 -176 -119 -301 q-60 -63 -166 -101t-245 -39q-305 1 -598 179l135 209q240 -129 424 -129z" glyph-name="three" horiz-adv-x="1259" unicode="3"/><glyph d="M799 530v648l-439 -648h439zM47 276v216l653 942h406v-904h217v-254h-217v-276h-307v276h-752z" glyph-name="four" horiz-adv-x="1380" unicode="4"/><glyph d="M1102 1434v-254h-643l-19 -273q102 31 209 31q242 0 375 -137t133 -339t-141 -343t-414 -141t-543 176l136 221q203 -135 376 -135q117 0 196 61t79 159t-70 165q-70 65 -200 65t-281 -80l-168 103l78 721h897z" glyph-name="five" horiz-adv-x="1239" unicode="5"/><glyph d="M930 465q0 97 -66 163t-172 66q-108 0 -183 -43t-108 -96q0 -154 79 -241t200 -87q122 0 186 71t64 167zM934 1206q-170 0 -309 -96t-195 -305q137 119 344 119t334 -125t127 -329t-150 -348t-399 -145q-290 1 -442 179t-152 432q-2 395 237 632t603 236q119 0 186 -16 l27 -6l-72 -240q-63 12 -139 12z" glyph-name="six" horiz-adv-x="1300" unicode="6"/><glyph d="M537 0h-318q0 150 49 322q79 276 257 569q111 183 198 289h-674v254h1008v-236q-21 -25 -57 -71t-124 -185t-158 -275q-69 -135 -125 -321t-56 -346z" glyph-name="seven" horiz-adv-x="1091" unicode="7"/><glyph d="M465 1075q0 -117 201 -194q203 78 202 194q0 61 -56 109t-146 47q-90 0 -146 -47q-55 -48 -55 -109zM387 407q0 -87 79 -141t201 -55q123 1 201 55t78 141t-75 146t-205 111q-129 -50 -204 -110t-75 -147zM76 385q0 252 319 395q-229 127 -229 324q0 158 133 255t367 97 t367 -97q134 -97 134 -255q0 -195 -231 -324q319 -145 319 -395q1 -188 -157 -298t-432 -110t-433 110q-157 110 -157 298z" glyph-name="eight" horiz-adv-x="1331" unicode="8"/><glyph d="M624 1206q-122 0 -187 -70t-65 -167q0 -96 66 -163t174 -67t181 43q74 43 108 97q0 155 -78 241q-77 86 -199 86zM369 227q170 1 309 97t192 305q-137 -119 -343 -119q-207 0 -333 125t-126 329t149 348q150 144 401 144q150 0 266 -51t186 -138q143 -178 140 -421 q2 -395 -236 -632t-601 -237q-118 0 -189 17l-26 6l73 240q62 -13 138 -13z" glyph-name="nine" horiz-adv-x="1302" unicode="9"/><glyph d="M129 0v338h305v-338h-305zM129 645v338h305v-338h-305z" glyph-name="colon" horiz-adv-x="561" unicode=":"/><glyph d="M135 0v338h301l23 -375l-250 -291l-82 101l145 227h-137zM135 645v338h303v-338h-303z" glyph-name="semicolon" horiz-adv-x="577" unicode=";"/><glyph d="M96 784l1051 420v-252l-737 -268l737 -272v-250l-1051 420v202z" glyph-name="less" unicode="&lt;"/><glyph d="M125 379v223h1053v-223h-1053zM125 768v223h1053v-223h-1053z" glyph-name="equal" unicode="="/><glyph d="M1208 582l-1052 -420v250l735 272l-735 268v252l1052 -420v-202z" glyph-name="greater" unicode=">"/><glyph d="M1030 1083q0 -317 -471 -436l-16 -184h-187l-16 342q209 43 296 91t87 131t-55 129t-154 46q-145 0 -326 -112l-129 204q248 162 504 162q203 0 335 -100t132 -273zM299 0v311h303v-311h-303z" glyph-name="question" horiz-adv-x="1103" unicode="?"/><glyph d="M913 215q135 0 269 121v166q-190 33 -242 33q-96 1 -142 -45t-46 -122t44 -115q44 -38 117 -38zM950 -260q109 0 206 22t140 41l43 23l68 -86q-18 -12 -52 -30t-154 -47q-120 -30 -255 -30q-382 0 -620 251t-238 638t249 635t669 248t648 -244t230 -641 q-2 -252 -102 -417t-309 -164q-141 -1 -209 75t-80 170q-150 -137 -336 -137q-135 0 -225 80q-91 79 -91 227t94 228t240 80q74 0 193 -24t123 -24v88q0 90 -38 129t-134 39q-152 0 -338 -79l-76 153q246 94 438 94t278 -81q85 -81 85 -257v-348q0 -214 55 -255 q27 -19 72 -19q98 0 174 112t76 336q0 338 -196 555t-574 217t-591 -221q-212 -221 -212 -560q-1 -339 205 -558t544 -219z" glyph-name="at" horiz-adv-x="1959" unicode="@"/><glyph d="M725 1157l-203 -631h408zM1102 0l-92 285h-566l-92 -285h-334l541 1434h336l539 -1434h-332z" glyph-name="A" horiz-adv-x="1452" unicode="A"/><glyph d="M1040 436q0 205 -317 205h-262v-403h303q276 -1 276 198zM963 1034q0 162 -250 162h-252v-334h246q256 0 256 172zM1343 385q0 -181 -129 -283t-389 -102h-671v1434h577q264 0 399 -89t136 -260q0 -135 -76 -220t-160 -99q94 -16 197 -97q51 -42 83 -116t33 -168z" glyph-name="B" horiz-adv-x="1415" unicode="B"/><glyph d="M722 1182q-150 0 -234 -125t-82 -340q0 -215 82 -340t233 -125q150 0 426 158l143 -226q-168 -98 -310 -152t-298 -55q-264 -1 -428 187t-164 553t164 552t428 187q156 0 298 -54t310 -153l-143 -225q-275 158 -425 158z" glyph-name="C" horiz-adv-x="1339" unicode="C"/><glyph d="M1079 717q0 250 -107 353q-108 103 -333 104h-178v-914h178q225 0 333 104t107 353zM1386 717q0 -375 -182 -546t-538 -171h-512v1434h512q356 0 538 -171t182 -546z" glyph-name="D" horiz-adv-x="1478" unicode="D"/><glyph d="M1174 0h-1020v1434h1007v-260h-700v-330h573v-254h-573v-330h713v-260z" glyph-name="E" horiz-adv-x="1261" unicode="E"/><glyph d="M1161 1174h-700v-330h557v-256h-557v-588h-307v1434h1007v-260z" glyph-name="F" horiz-adv-x="1204" unicode="F"/><glyph d="M1053 0v141q-188 -164 -398 -164q-241 -1 -403 189t-162 552t166 550t432 188q166 0 316 -56t321 -157l-145 -225q-94 51 -154 81q-60 31 -146 57q-85 26 -155 26q-150 0 -235 -125q-84 -125 -84 -342t80 -347t235 -130q154 0 332 161v181h-338v241h628v-821h-290z" glyph-name="G" horiz-adv-x="1458" unicode="G"/><glyph d="M1034 0v625h-573v-625h-307v1434h307v-555h573v555h305v-1434h-305z" glyph-name="H" horiz-adv-x="1492" unicode="H"/><glyph d="M461 0h-307v1434h307v-1434z" glyph-name="I" horiz-adv-x="614" unicode="I"/><glyph d="M461 1434v-1305q0 -226 -35 -277q-54 -88 -127 -119q-128 -57 -283 -93l-100 227q92 31 138 51t70 51t27 57t3 87v1321h307z" glyph-name="J" horiz-adv-x="614" unicode="J"/><glyph d="M154 0v1434h307v-689l565 689h360l-575 -680l608 -754h-364l-428 537l-166 -197v-340h-307z" glyph-name="K" horiz-adv-x="1419" unicode="K"/><glyph d="M1139 0h-985v1434h307v-1174h678v-260z" glyph-name="L" horiz-adv-x="1175" unicode="L"/><glyph d="M1296 0v942l-333 -702h-168l-334 700v-940h-307v1434h313l412 -865l409 865h316v-1434h-308z" glyph-name="M" horiz-adv-x="1755" unicode="M"/><glyph d="M461 0h-307v1434h311l602 -979v979h305v-1434h-311l-600 975v-975z" glyph-name="N" horiz-adv-x="1525" unicode="N"/><glyph d="M778 240q373 0 373 477q0 219 -89 348t-284 129q-373 0 -373 -477t373 -477zM778 1456q519 0 649 -448q39 -131 39 -291q0 -332 -169 -536t-520 -204t-519 204t-168 537q0 334 168 536t520 202z" glyph-name="O" horiz-adv-x="1556" unicode="O"/><glyph d="M731 760q277 0 277 210t-277 210h-270v-420h270zM745 1434q574 0 574 -463t-574 -463h-284v-508h-307v1434h591z" glyph-name="P" horiz-adv-x="1368" unicode="P"/><glyph d="M778 240q373 0 373 477q0 219 -89 348t-284 129q-373 0 -373 -477t373 -477zM90 718q0 334 168 536t520 202q519 0 649 -448q39 -131 39 -291q0 -242 -90 -420t-276 -260l223 -176l-203 -209l-342 325q-352 0 -520 204t-168 537z" glyph-name="Q" horiz-adv-x="1556" unicode="Q"/><glyph d="M1055 994q0 198 -281 198h-313v-395h309q285 -1 285 197zM461 555v-555h-307v1434h634q575 0 576 -439q0 -350 -356 -422l358 -573h-330l-338 555h-237z" glyph-name="R" horiz-adv-x="1441" unicode="R"/><glyph d="M713 -23q-173 -1 -351 57t-301 136l138 219q105 -59 251 -108q275 -92 407 -12q63 38 63 112t-90 119q-53 28 -180 68q-126 40 -192 64q-260 93 -331 249q-33 72 -33 159q0 186 137 301t375 115q147 0 307 -42t281 -105l-137 -224q-96 45 -221 81t-213 36q-87 0 -147 -36 t-60 -109t86 -112q45 -22 211 -73t246 -90q79 -39 146 -89q136 -101 136 -292q0 -190 -144 -307t-384 -117z" glyph-name="S" unicode="S"/><glyph d="M1188 1174h-420v-1174h-307v1174h-426v260h1153v-260z" glyph-name="T" horiz-adv-x="1224" unicode="T"/><glyph d="M1331 1434v-856q-1 -266 -117 -424q-129 -175 -477 -176t-480 176q-118 156 -118 424v856h307v-881q0 -149 62 -231t227 -82q166 0 229 83q62 83 62 230v881h305z" glyph-name="U" horiz-adv-x="1472" unicode="U"/><glyph d="M369 1434l352 -1100l354 1100h355l-539 -1434h-338l-539 1434h355z" glyph-name="V" horiz-adv-x="1447" unicode="V"/><glyph d="M1249 0l-256 991l-258 -991h-303l-399 1434h348l227 -1026l260 1026h250l258 -1020l230 1020h350l-402 -1434h-305z" glyph-name="W" horiz-adv-x="1986" unicode="W"/><glyph d="M35 1434h354l287 -531l289 531h354l-459 -713l483 -721h-364l-303 514l-301 -514h-365l482 721z" glyph-name="X" horiz-adv-x="1351" unicode="X"/><glyph d="M524 0v567l-516 867h344l326 -613l326 613h344l-519 -869l2 -565h-307z" glyph-name="Y" horiz-adv-x="1357" unicode="Y"/><glyph d="M111 1174v260h1108v-236l-756 -938h766v-260h-1163v236l755 938h-710z" glyph-name="Z" horiz-adv-x="1310" unicode="Z"/><glyph d="M696 -293h-557v2011h557v-176h-252v-1661h252v-174z" glyph-name="bracketleft" horiz-adv-x="741" unicode="["/><glyph d="M713 -184l-674 1802h225l672 -1802h-223z" glyph-name="backslash" horiz-adv-x="976" unicode="\"/><glyph d="M600 -293h-555v174h250v1661h-250v176h555v-2011z" glyph-name="bracketright" horiz-adv-x="741" unicode="]"/><glyph d="M868 670l-217 489l-217 -489h-317l385 764h301l385 -764h-320z" glyph-name="asciicircum" unicode="^"/><glyph d="M1333 -358h-1214v211h1214v-211z" glyph-name="underscore" horiz-adv-x="1454" unicode="_"/><glyph d="M537 1210h-242l-352 283h338z" glyph-name="grave" horiz-adv-x="479" unicode="`"/><glyph d="M524 207q152 0 285 115v157q-168 35 -254 35q-197 0 -197 -160q0 -74 45 -110t121 -37zM809 0v127q-162 -150 -377 -150q-162 -1 -267 95t-105 259t109 254q110 91 284 91q92 0 356 -51v82q0 90 -42 129q-42 38 -159 38t-383 -81l-92 204q307 101 535 101t332 -93 q103 -93 104 -311v-694h-295z" glyph-name="a" horiz-adv-x="1220" unicode="a"/><glyph d="M694 860q-156 0 -272 -139v-369q119 -137 272 -137q207 1 207 323t-207 322zM127 0v1493h295v-539q166 144 358 144t306 -144t114 -416t-114 -416t-306 -144t-358 139v-117h-295z" glyph-name="b" horiz-adv-x="1277" unicode="b"/><glyph d="M438 762q-64 -84 -63 -224q0 -140 63 -224t165 -85q102 0 216 57q12 5 49 21l39 19l119 -217q-268 -131 -469 -131t-342 144t-141 416t141 416t335 144t476 -131l-119 -217l-39 16q-164 80 -265 80t-165 -84z" glyph-name="c" horiz-adv-x="1071" unicode="c"/><glyph d="M582 215q154 0 272 137v369q-121 139 -272 139q-207 0 -207 -322t207 -323zM1149 0h-295v117q-170 -139 -360 -139t-304 142q-114 144 -114 418t113 417q115 143 305 143t360 -144v539h295v-1493z" glyph-name="d" horiz-adv-x="1277" unicode="d"/><glyph d="M612 887q-201 0 -233 -254h448q2 254 -215 254zM1116 623q0 -74 -16 -150h-723q25 -276 237 -276q145 0 396 131l112 -185q-303 -166 -532 -166q-228 1 -372 143t-144 412t143 417q143 149 391 149t378 -131t130 -344z" glyph-name="e" horiz-adv-x="1191" unicode="e"/><glyph d="M45 858v217h148v55q0 186 76 275q77 88 239 88t358 -84l-98 -211q-139 41 -185 41t-72 -20t-26 -80v-64h269v-217h-269v-858h-292v858h-148z" glyph-name="f" horiz-adv-x="784" unicode="f"/><glyph d="M582 215q154 0 272 137v369q-121 139 -272 139q-207 0 -207 -322t207 -323zM854 1075h295v-1079q0 -222 -116 -328q-115 -106 -363 -106t-547 86l59 235q286 -84 428 -84t193 43t51 140v135q-170 -139 -360 -139t-304 142q-114 144 -114 418t113 417q115 143 305 143 t360 -144v121z" glyph-name="g" horiz-adv-x="1277" unicode="g"/><glyph d="M422 1493v-547q217 152 418 152q322 0 321 -338v-760h-295v692q0 176 -141 176q-76 0 -161 -43t-142 -96v-729h-295v1493h295z" glyph-name="h" horiz-adv-x="1280" unicode="h"/><glyph d="M121 1231v256h311v-256h-311zM424 0h-295v1075h295v-1075z" glyph-name="i" horiz-adv-x="548" unicode="i"/><glyph d="M420 1075v-1124q0 -91 -9 -121q-28 -94 -45 -112q-17 -17 -41 -42t-56 -40q-129 -61 -287 -97l-95 213q91 31 137 50q46 18 70 52t28 60q3 26 3 92v1069h295zM117 1231v256h311v-256h-311z" glyph-name="j" horiz-adv-x="548" unicode="j"/><glyph d="M422 0h-295v1493h295v-862l350 444h334l-363 -426l426 -649h-309l-293 440l-145 -172v-268z" glyph-name="k" horiz-adv-x="1167" unicode="k"/><glyph d="M426 0h-295v1493h295v-1493z" glyph-name="l" horiz-adv-x="559" unicode="l"/><glyph d="M422 1075v-137q184 160 369 160q225 0 292 -185q70 70 175 127t219 58q317 0 317 -338v-760h-295v692q0 84 -28 130q-27 46 -99 46t-142 -44t-124 -101v-723h-293v692q0 84 -28 130t-103 46q-129 0 -260 -139v-729h-295v1075h295z" glyph-name="m" horiz-adv-x="1912" unicode="m"/><glyph d="M422 1075v-129q217 152 418 152q322 0 321 -338v-760h-295v692q0 176 -141 176q-76 0 -161 -43t-142 -96v-729h-295v1075h295z" glyph-name="n" horiz-adv-x="1280" unicode="n"/><glyph d="M631 205q258 0 258 333t-258 332q-258 0 -258 -332t258 -333zM1186 537q0 -267 -144 -413t-412 -146t-412 146t-144 414t144 413q144 147 412 147t412 -148t144 -413z" glyph-name="o" horiz-adv-x="1259" unicode="o"/><glyph d="M694 860q-156 0 -272 -139v-369q119 -137 272 -137q207 1 207 323t-207 322zM422 1075v-121q166 144 358 144t306 -144t114 -416t-114 -416t-306 -144t-358 139v-535h-295v1493h295z" glyph-name="p" horiz-adv-x="1277" unicode="p"/><glyph d="M582 215q154 0 272 137v369q-121 139 -272 139q-207 0 -207 -322t207 -323zM854 -418v535q-170 -139 -360 -139t-304 142q-114 144 -114 418t113 417q115 143 305 143t360 -144v121h295v-1493h-295z" glyph-name="q" horiz-adv-x="1277" unicode="q"/><glyph d="M422 1075v-225q77 177 258 225q68 18 145 12v-276q-102 0 -181 -36t-119 -86q-83 -104 -97 -185l-6 -37v-467h-295v1075h295z" glyph-name="r" horiz-adv-x="860" unicode="r"/><glyph d="M1036 296q0 -148 -116 -233q-116 -86 -316 -86q-145 0 -297 42t-252 98l117 207q92 -45 215 -83t198 -38q75 1 115 25t39 63q0 39 -42 64q-42 26 -118 47q-77 21 -143 37q-135 34 -236 102q-122 82 -122 232t110 238q110 87 332 87t469 -117l-115 -193q-211 86 -358 86 q-66 0 -104 -24t-39 -62q-1 -37 25 -54q54 -36 109 -49q54 -13 91 -23t55 -13q175 -43 279 -124t104 -229z" glyph-name="s" horiz-adv-x="1091" unicode="s"/><glyph d="M51 858v217h148v271l293 40v-311h292v-217h-292v-522q0 -61 25 -82q26 -20 73 -20t162 49l104 -220q-188 -86 -346 -86q-311 0 -311 363v518h-148z" glyph-name="t" horiz-adv-x="862" unicode="t"/><glyph d="M858 0v129q-223 -152 -420 -152q-319 0 -319 338v760h295v-692q0 -84 30 -130t108 -46q77 0 163 42t143 95v731h293v-1075h-293z" glyph-name="u" horiz-adv-x="1280" unicode="u"/><glyph d="M741 0h-290l-428 1075h317l254 -770l256 770h317z" glyph-name="v" horiz-adv-x="1191" unicode="v"/><glyph d="M1075 0l-215 723l-215 -723h-278l-334 1075h313l178 -766l213 766h246l211 -766l180 766h312l-334 -1075h-277z" glyph-name="w" horiz-adv-x="1718" unicode="w"/><glyph d="M877 0l-263 381l-260 -381h-348l428 539l-405 536h336l249 -370l248 370h338l-405 -536l430 -539h-348z" glyph-name="x" horiz-adv-x="1232" unicode="x"/><glyph d="M25 1075h317l254 -721l254 721h319l-594 -1493h-315l186 420z" glyph-name="y" horiz-adv-x="1191" unicode="y"/><glyph d="M68 0v207l587 624h-567v244h967v-207l-588 -624h588v-244h-987z" glyph-name="z" horiz-adv-x="1132" unicode="z"/><glyph d="M23 621v184q119 0 165 58t29 173l-24 191q-33 247 108 369t424 122h37v-170h-37q-260 0 -225 -295l22 -161q18 -174 -50 -263q-69 -88 -228 -116q160 -29 228 -117t50 -262l-22 -162q-35 -295 225 -295h37v-170h-37q-283 0 -425 123t-107 369l26 190q31 232 -196 232z " glyph-name="braceleft" horiz-adv-x="808" unicode="{"/><glyph d="M360 -252h-219v1927h219v-1927z" glyph-name="bar" horiz-adv-x="499" unicode="|"/><glyph d="M784 805v-184q-225 0 -194 -232l24 -190q33 -246 -108 -369t-424 -123h-37v170h37q98 0 155 46q56 47 68 109t0 140l-20 162q-23 172 47 261t229 118q-159 29 -229 117t-47 262l20 161q18 125 -31 210t-192 85h-37v170h37q283 0 423 -123t107 -368l-24 -191 q-31 -231 196 -231z" glyph-name="braceright" horiz-adv-x="808" unicode="}"/><glyph d="M901 604q106 0 182 135l174 -69q-129 -309 -364 -310q-102 0 -258 76q-157 76 -221 76t-105 -28t-90 -107l-174 69q133 309 365 310q106 0 260 -76t231 -76z" glyph-name="asciitilde" unicode="~"/><glyph glyph-name="uni00A0" horiz-adv-x="555" unicode=" "/><glyph d="M379 971l90 -971h-358l90 971h178zM137 1122v312h305v-312h-305z" glyph-name="exclamdown" horiz-adv-x="579" unicode="¡"/><glyph d="M391 719q0 -227 148 -293v584q-70 -30 -109 -106t-39 -185zM752 0h-213v158q-193 14 -321 158t-128 402t128 402q128 143 321 156v158h213v-179q131 -29 315 -118l-121 -217q-154 70 -194 84v-572q68 20 194 84l121 -217q-184 -90 -315 -121v-178z" glyph-name="cent" horiz-adv-x="1150" unicode="¢"/><glyph d="M123 510v178h188q-14 31 -63 111q-49 79 -75 149t-26 150q0 166 115 262t318 96q106 0 217 -32t168 -62t141 -78l-135 -199q-213 117 -336 117q-88 0 -134 -42t-46 -110q-1 -68 71 -185q72 -118 90 -177h332v-178h-317q-13 -84 -59 -154t-89 -102h600v-254h-983v207 q8 4 24 11t55 35q40 27 72 59t59 85q28 53 34 113h-221z" glyph-name="sterling" horiz-adv-x="1185" unicode="£"/><glyph d="M201 586v174h256l-402 674h344l326 -613l326 613h344l-404 -674h258v-174h-360l-12 -21v-94h372v-174h-372l2 -297h-308v297h-370v174h370v96l-10 19h-360z" glyph-name="yen" horiz-adv-x="1452" unicode="¥"/><glyph d="M362 -252h-219v846h219v-846zM362 829h-219v846h219v-846z" glyph-name="brokenbar" horiz-adv-x="503" unicode="¦"/><glyph d="M770 562q34 32 35 66t-17 52t-30 28t-35 18q-23 9 -38 15q-15 7 -44 15t-43 12t-46 11t-44 12q-72 -13 -106 -45t-34 -66t24 -63q23 -28 115 -57q93 -29 157 -42q72 12 106 44zM86 645q0 170 174 246q-135 89 -135 239t112 238t332 88t467 -117l-114 -192 q-208 86 -356 86t-148 -84q0 -50 67 -79q75 -30 217 -62q176 -45 280 -124t105 -220q0 -170 -176 -246q135 -92 135 -240t-111 -237q-112 -88 -331 -88t-471 116l115 193q211 -86 356 -86t146 84q0 37 -26 55q-42 30 -96 45q-54 16 -157 39q-385 96 -385 346z" glyph-name="section" horiz-adv-x="1173" unicode="§"/><glyph d="M322 1231v235h235v-235h-235zM-49 1231v235h237v-235h-237z" glyph-name="dieresis" horiz-adv-x="507" unicode="¨"/><glyph d="M174 717q0 -289 172 -475t476 -186t477 186t174 475t-173 475t-478 186t-476 -186t-172 -475zM92 717q0 323 195 531t537 208t535 -209t193 -531t-194 -530q-194 -209 -535 -209q-343 0 -537 209t-194 531zM559 716q0 -161 70 -257q71 -97 193 -97t265 107l64 -72 q-180 -127 -337 -127t-259 117t-102 329t102 328t259 117q157 0 337 -127l-64 -73q-141 111 -265 111t-194 -98q-70 -97 -69 -258z" glyph-name="copyright" horiz-adv-x="1642" unicode="©"/><glyph d="M373 930q92 0 172 59v78q-123 20 -150 20q-115 0 -114 -81q0 -76 92 -76zM545 788v72q-102 -86 -221 -86t-185 60q-65 60 -65 155q0 96 69 152q70 55 183 55q55 0 219 -29v39q0 48 -26 68q-25 20 -103 20t-234 -45l-63 137q203 62 349 62t214 -58t68 -194v-408h-205z" glyph-name="ordfeminine" horiz-adv-x="862" unicode="ª"/><glyph d="M664 645l624 434v-276l-379 -248l379 -246v-278l-624 436v178zM59 645l625 434v-276l-379 -248l379 -246v-278l-625 436v178z" glyph-name="guillemotleft" horiz-adv-x="1396" unicode="«"/><glyph d="M1243 184h-239v387h-965v224h1204v-611z" glyph-name="logicalnot" unicode="¬"/><glyph d="M530 1061q72 0 72 56t-67 57h-125v-113h120zM532 1235q64 0 102 -33t38 -80t-29 -79t-74 -42l97 -178h-76l-90 174h-90v-174h-68v412h190zM162 1024q0 -152 85 -247t247 -95t246 95t83 247q0 152 -84 247q-83 95 -245 95t-247 -95t-85 -247zM88 1024q0 178 109 294 t297 116t296 -116t108 -294t-108 -294t-296 -116t-297 116t-109 294z" glyph-name="registered" horiz-adv-x="987" unicode="®"/><glyph d="M0 1262v174h629v-174h-629z" glyph-name="macron" horiz-adv-x="628" unicode="¯"/><glyph d="M244 1073q0 -78 55 -133t133 -55t134 55t57 133q-1 78 -57 134q-56 57 -134 57t-133 -56t-55 -135zM70 1073q0 150 106 256q106 107 256 107t256 -106t106 -256q0 -151 -106 -257t-256 -106t-256 106t-106 256z" glyph-name="degree" horiz-adv-x="864" unicode="°"/><glyph d="M125 0v193h1053v-193h-1053zM535 1112h225v-285h418v-223h-418v-285h-225v285h-410v223h410v285z" glyph-name="plusminus" unicode="±"/><glyph d="M756 963v-175h-699v91q0 117 78 201t250 186q127 70 151 118q5 12 5 36t-32 46t-91 23q-98 0 -242 -80l-94 133q182 121 346 121t246 -70t82 -181t-102 -193q-54 -43 -86 -63t-103 -58q-150 -78 -150 -135h441z" glyph-name="uni00B2" horiz-adv-x="831" unicode="²"/><glyph d="M399 950q68 0 109 26t41 71q0 109 -248 108h-43v176h49q205 0 205 90q0 68 -111 68t-237 -74l-86 131q150 117 356 117q143 0 216 -60t73 -151q0 -131 -148 -188q83 -23 135 -84t52 -138q0 -112 -81 -190t-265 -78t-379 113l94 143q145 -80 268 -80z" glyph-name="uni00B3" horiz-adv-x="827" unicode="³"/><glyph d="M184 1210h-241l256 283h338z" glyph-name="acute" horiz-adv-x="479" unicode="´"/><glyph d="M141 -418v1493h295v-715q6 -154 142 -153q74 0 160 42t143 95v731h295v-1075h-295v129q-223 -152 -420 -152h-25v-395h-295z" glyph-name="uni00B5" horiz-adv-x="1286" unicode="µ"/><glyph d="M1044 -381v1815h250v-1815h-250zM625 1434h245v-1813h-249v834q-246 0 -402 123q-156 122 -156 368t149 367t413 121z" glyph-name="paragraph" horiz-adv-x="1458" unicode="¶"/><glyph d="M121 416v336h307v-336h-307z" glyph-name="periodcentered" horiz-adv-x="546" unicode="·"/><glyph d="M139 -209q98 0 99 78q0 57 -43 115l-15 20h131q82 -88 82 -186t-64 -146q-65 -47 -168 -47t-179 45l59 146q49 -25 98 -25z" glyph-name="cedilla" horiz-adv-x="374" unicode="¸"/><glyph d="M467 788h-211v666l-156 -78l-86 137l252 136h201v-861z" glyph-name="uni00B9" horiz-adv-x="583" unicode="¹"/><glyph d="M432 1292q-152 0 -152 -181t152 -181t152 181t-152 181zM788 1111q0 -161 -92 -249t-264 -88t-264 89t-92 249t92 248t264 88t264 -88t92 -249z" glyph-name="ordmasculine" horiz-adv-x="864" unicode="º"/><glyph d="M731 467l-622 -436v278l374 246l-374 248v274l622 -432v-178zM1337 645v-178l-624 -436v278l377 246l-377 248v274z" glyph-name="guillemotright" horiz-adv-x="1396" unicode="»"/><glyph d="M1389 332v362l-256 -362h256zM502 573h-211v666l-156 -78l-86 137l252 136h201v-861zM1268 1434l-674 -1434h-227l673 1434h228zM1389 0v158h-474v145l406 557h283v-528h135v-174h-135v-158h-215z" glyph-name="onequarter" horiz-adv-x="1816" unicode="¼"/><glyph d="M1737 174v-174h-697v90q0 117 81 206t246 181q32 17 44 25t36 22t45 36t25 35q5 13 5 37t-32 46t-91 22q-102 0 -240 -79l-94 133q176 120 344 120t248 -70t80 -181q0 -112 -102 -193q-54 -43 -86 -62t-103 -59q-150 -78 -150 -135h441zM1268 1434l-674 -1434h-227 l673 1434h228zM502 573h-211v666l-156 -78l-86 137l252 136h201v-861z" glyph-name="onehalf" horiz-adv-x="1837" unicode="½"/><glyph d="M1589 332v362l-256 -362h256zM1468 1434l-675 -1434h-226l674 1434h227zM430 735q68 0 109 26t41 70q0 109 -248 109h-41v176h47q205 0 205 90q0 68 -111 68t-237 -74l-86 131q158 117 356 117q143 0 216 -60t73 -151q0 -131 -148 -188q84 -23 136 -83t52 -156t-81 -174 q-82 -78 -262 -77q-180 0 -383 113l94 143q145 -80 268 -80zM1589 0v158h-475v145l408 557h278v-528h137v-174h-137v-158h-211z" glyph-name="threequarters" horiz-adv-x="2009" unicode="¾"/><glyph d="M811 1434v-312h-305v312h305zM385 406q0 -82 55 -128t154 -47q145 0 326 113l127 -207q-254 -160 -504 -160q-203 1 -335 101t-132 280t141 281t332 147l14 185h189l18 -342q-209 -43 -297 -92t-88 -131z" glyph-name="questiondown" horiz-adv-x="1101" unicode="¿"/><glyph d="M936 1520h-242l-352 282h338zM725 1157l-203 -631h408zM1102 0l-92 285h-566l-92 -285h-334l541 1434h336l539 -1434h-332z" glyph-name="Agrave" horiz-adv-x="1452" unicode="À"/><glyph d="M762 1520h-244l256 282h338zM725 1157l-203 -631h408zM1102 0l-92 285h-566l-92 -285h-334l541 1434h336l539 -1434h-332z" glyph-name="Aacute" horiz-adv-x="1452" unicode="Á"/><glyph d="M870 1802l217 -282h-204l-156 153l-156 -153h-202l213 282h288zM725 1157l-203 -631h408zM1102 0l-92 285h-566l-92 -285h-334l541 1434h336l539 -1434h-332z" glyph-name="Acircumflex" horiz-adv-x="1452" unicode="Â"/><glyph d="M725 1157l-203 -631h408zM587 1808q52 0 149 -48t126 -48q53 0 105 94l135 -65q-51 -96 -84 -140q-33 -43 -67 -58t-86 -15t-150 49t-127 49q-52 0 -105 -94l-133 63q49 96 83 140q34 43 68 58t86 15zM1102 0l-92 285h-566l-92 -285h-334l541 1434h336l539 -1434h-332z " glyph-name="Atilde" horiz-adv-x="1452" unicode="Ã"/><glyph d="M795 1548v234h237v-234h-237zM424 1548v234h238v-234h-238zM725 1157l-203 -631h408zM1102 0l-92 285h-566l-92 -285h-334l541 1434h336l539 -1434h-332z" glyph-name="Adieresis" horiz-adv-x="1452" unicode="Ä"/><glyph d="M643 1729q0 -37 25 -62q26 -25 62 -25t62 25t25 62q1 37 -25 63t-63 25q-37 1 -61 -25t-25 -63zM725 1157l-203 -631h408zM500 1729q0 93 68 161t161 68q94 0 162 -68q67 -68 67 -162t-68 -161q-68 -68 -161 -68q-94 0 -162 68q-67 68 -67 162zM1102 0l-92 285h-566 l-92 -285h-334l541 1434h336l539 -1434h-332z" glyph-name="Aring" horiz-adv-x="1452" unicode="Å"/><glyph d="M1063 532v625l-406 -625h406zM2085 0h-1022v285h-565l-185 -285h-366l975 1434h1151v-260h-703v-330h578v-254h-578v-330h715v-260z" glyph-name="AE" horiz-adv-x="2172" unicode="Æ"/><glyph d="M582 -209q100 0 100 78q0 47 -39 111q-249 12 -401 198t-152 545t164 546t428 187q156 0 298 -54t310 -153l-143 -225q-275 158 -425 158t-234 -125t-82 -340q0 -215 82 -340t233 -125q150 0 426 158l143 -226q-305 -178 -516 -200q64 -84 64 -174t-65 -138t-169 -47 q-104 0 -178 45l57 146q51 -25 99 -25z" glyph-name="Ccedilla" horiz-adv-x="1339" unicode="Ç"/><glyph d="M874 1520h-243l-350 282h335zM1174 0h-1020v1434h1007v-260h-700v-330h573v-254h-573v-330h713v-260z" glyph-name="Egrave" horiz-adv-x="1261" unicode="È"/><glyph d="M698 1520h-241l256 282h336zM1174 0h-1020v1434h1007v-260h-700v-330h573v-254h-573v-330h713v-260z" glyph-name="Eacute" horiz-adv-x="1261" unicode="É"/><glyph d="M807 1802l217 -282h-205l-155 153l-156 -153h-205l217 282h287zM1174 0h-1020v1434h1007v-260h-700v-330h573v-254h-573v-330h713v-260z" glyph-name="Ecircumflex" horiz-adv-x="1261" unicode="Ê"/><glyph d="M731 1540v236h238v-236h-238zM360 1540v236h238v-236h-238zM1174 0h-1020v1434h1007v-260h-700v-330h573v-254h-573v-330h713v-260z" glyph-name="Edieresis" horiz-adv-x="1261" unicode="Ë"/><glyph d="M514 1520h-242l-350 282h336zM459 0h-305v1434h305v-1434z" glyph-name="Igrave" horiz-adv-x="614" unicode="Ì"/><glyph d="M342 1520h-242l256 282h338zM461 0h-305v1434h305v-1434z" glyph-name="Iacute" horiz-adv-x="614" unicode="Í"/><glyph d="M451 1802l217 -282h-205l-156 153l-155 -153h-205l217 282h287zM461 0h-307v1434h307v-1434z" glyph-name="Icircumflex" horiz-adv-x="614" unicode="Î"/><glyph d="M373 1538v236h237v-236h-237zM2 1538v236h238v-236h-238zM459 0h-307v1434h307v-1434z" glyph-name="Idieresis" horiz-adv-x="614" unicode="Ï"/><glyph d="M1110 717q0 250 -109 353t-333 104h-176v-338h296v-238h-296v-338h176q226 0 334 104t108 353zM1415 717q0 -375 -182 -546t-539 -171h-510v598h-151v238h151v598h510q356 0 538 -171t183 -546z" glyph-name="Eth" horiz-adv-x="1507" unicode="Ð"/><glyph d="M919 1540q-57 0 -155 49t-127 49q-52 0 -107 -94l-133 66q29 51 36 65q7 13 34 53t44 53q53 40 114 41t159 -48t127 -50q51 0 105 95l133 -64q-35 -69 -57 -107t-69 -73q-46 -35 -104 -35zM1067 1434h305v-1434h-311l-600 975v-975h-307v1434h311l602 -979v979z" glyph-name="Ntilde" horiz-adv-x="1525" unicode="Ñ"/><glyph d="M985 1520h-240l-352 282h336zM778 240q373 0 373 477q0 219 -89 348t-284 129q-373 0 -373 -477t373 -477zM778 1456q519 0 649 -448q39 -131 39 -291q0 -332 -169 -536t-520 -204t-519 204t-168 537q0 334 168 536t520 202z" glyph-name="Ograve" horiz-adv-x="1556" unicode="Ò"/><glyph d="M813 1520h-244l256 282h336zM778 240q373 0 373 477q0 219 -89 348t-284 129q-373 0 -373 -477t373 -477zM778 1456q519 0 649 -448q39 -131 39 -291q0 -332 -169 -536t-520 -204t-519 204t-168 537q0 334 168 536t520 202z" glyph-name="Oacute" horiz-adv-x="1556" unicode="Ó"/><glyph d="M922 1802l217 -282h-205l-156 153l-155 -153h-205l217 282h287zM778 240q373 0 373 477q0 219 -89 348t-284 129q-373 0 -373 -477t373 -477zM778 1456q519 0 649 -448q39 -131 39 -291q0 -332 -169 -536t-520 -204t-519 204t-168 537q0 334 168 536t520 202z" glyph-name="Ocircumflex" horiz-adv-x="1556" unicode="Ô"/><glyph d="M636 1808q52 0 150 -48t127 -48q53 0 105 94l133 -65q-35 -70 -57 -107q-22 -38 -69 -72q-46 -34 -104 -34q-57 0 -155 49t-127 49q-52 0 -107 -94l-133 63q56 104 88 143q31 40 64 55t85 15zM778 240q373 0 373 477q0 219 -89 348t-284 129q-373 0 -373 -477t373 -477z M778 1456q519 0 649 -448q39 -131 39 -291q0 -332 -169 -536t-520 -204t-519 204t-168 537q0 334 168 536t520 202z" glyph-name="Otilde" horiz-adv-x="1556" unicode="Õ"/><glyph d="M846 1540v236h235v-236h-235zM475 1540v236h238v-236h-238zM778 240q373 0 373 477q0 219 -89 348t-284 129q-373 0 -373 -477t373 -477zM778 1456q519 0 649 -448q39 -131 39 -291q0 -332 -169 -536t-520 -204t-519 204t-168 537q0 334 168 536t520 202z" glyph-name="Odieresis" horiz-adv-x="1556" unicode="Ö"/><glyph d="M1106 946l-283 -260l285 -260l-162 -162l-291 266l-288 -264l-166 164l282 258l-284 262l161 162l291 -268l291 266z" glyph-name="multiply" unicode="×"/><glyph d="M776 240q373 0 373 477q0 170 -49 276l-539 -694q84 -59 215 -59zM776 1194q-195 0 -284 -129t-89 -325t50 -302l538 695q-88 61 -215 61zM1464 720q0 -334 -169 -539q-169 -204 -519 -204q-233 0 -391 97l-57 -74h-215l141 182q-166 195 -166 526t158 533 q170 215 556 215q206 0 365 -96l58 74h217l-144 -185q166 -195 166 -529z" glyph-name="Oslash" horiz-adv-x="1554" unicode="Ø"/><glyph d="M944 1520h-239l-353 282h336zM1331 1434v-856q-1 -266 -117 -424q-129 -175 -477 -176t-480 176q-118 156 -118 424v856h307v-881q0 -149 62 -231t227 -82q166 0 229 83q62 83 62 230v881h305z" glyph-name="Ugrave" horiz-adv-x="1472" unicode="Ù"/><glyph d="M770 1520h-242l256 282h336zM1331 1434v-856q-1 -266 -117 -424q-129 -175 -477 -176t-480 176q-118 156 -118 424v856h307v-881q0 -149 62 -231t227 -82q166 0 229 83q62 83 62 230v881h305z" glyph-name="Uacute" horiz-adv-x="1472" unicode="Ú"/><glyph d="M881 1802l217 -282h-205l-156 153l-157 -153h-203l215 282h289zM1331 1434v-856q-1 -266 -117 -424q-129 -175 -477 -176t-480 176q-118 156 -118 424v856h307v-881q0 -149 62 -231t227 -82q166 0 229 83q62 83 62 230v881h305z" glyph-name="Ucircumflex" horiz-adv-x="1470" unicode="Û"/><glyph d="M803 1540v236h237v-236h-237zM432 1540v236h236v-236h-236zM1331 1434v-856q-1 -266 -117 -424q-129 -175 -477 -176t-480 176q-118 156 -118 424v856h307v-881q0 -149 62 -231t227 -82q166 0 229 83q62 83 62 230v881h305z" glyph-name="Udieresis" horiz-adv-x="1472" unicode="Ü"/><glyph d="M711 1520h-240l256 282h336zM524 0v567l-516 867h344l326 -613l326 613h344l-519 -869l2 -565h-307z" glyph-name="Yacute" horiz-adv-x="1357" unicode="Ý"/><glyph d="M1008 741q0 117 -78 162t-238 45h-231v-418h231q160 0 238 47t78 164zM1319 741q0 -463 -574 -462h-284v-279h-307v1434h307v-230h284q574 0 574 -463z" glyph-name="Thorn" horiz-adv-x="1384" unicode="Þ"/><glyph d="M739 1456q317 0 465 -126t148 -339v-10l-140 -182q-53 27 -138 51q-164 47 -225 1q-30 -24 -30 -58q1 -34 13 -48q36 -40 88 -57q53 -17 86 -26q198 -56 294 -137q97 -81 97 -229q-1 -148 -103 -234q-102 -85 -286 -85q-132 0 -272 42t-232 98l114 207q76 -43 186 -81 t168 -38q58 -1 93 23t35 69t-52 70q-52 26 -76 33t-54 17t-81 24q-109 32 -212 108t-103 225q0 148 100 236t279 88q68 0 139 -13q-51 143 -301 144q-182 0 -250 -67t-67 -204v-958h-295v985q0 219 147 345q148 126 465 126z" glyph-name="germandbls" horiz-adv-x="1456" unicode="ß"/><glyph d="M827 1210h-241l-350 283h335zM524 207q152 0 285 115v157q-168 35 -254 35q-197 0 -197 -160q0 -74 45 -110t121 -37zM809 0v127q-162 -150 -377 -150q-162 -1 -267 95t-105 259t109 254q110 91 284 91q92 0 356 -51v82q0 90 -42 129q-42 38 -159 38t-383 -81l-92 204 q307 101 535 101t332 -93q103 -93 104 -311v-694h-295z" glyph-name="agrave" horiz-adv-x="1220" unicode="à"/><glyph d="M651 1210h-239l254 283h338zM524 207q152 0 285 115v157q-168 35 -254 35q-197 0 -197 -160q0 -74 45 -110t121 -37zM809 0v127q-162 -150 -377 -150q-162 -1 -267 95t-105 259t109 254q110 91 284 91q92 0 356 -51v82q0 90 -42 129q-42 38 -159 38t-383 -81l-92 204 q307 101 535 101t332 -93q103 -93 104 -311v-694h-295z" glyph-name="aacute" horiz-adv-x="1220" unicode="á"/><glyph d="M524 207q152 0 285 115v157q-168 35 -254 35q-197 0 -197 -160q0 -74 45 -110t121 -37zM762 1493l215 -283h-205l-156 154l-153 -154h-205l217 283h287zM809 0v127q-162 -150 -377 -150q-162 -1 -267 95t-105 259t109 254q110 91 284 91q92 0 356 -51v82q0 90 -42 129 q-42 38 -159 38t-383 -81l-92 204q307 101 535 101t332 -93q103 -93 104 -311v-694h-295z" glyph-name="acircumflex" horiz-adv-x="1220" unicode="â"/><glyph d="M524 207q152 0 285 115v157q-168 35 -254 35q-197 0 -197 -160q0 -74 45 -110t121 -37zM478 1499q52 0 150 -48t128 -48q53 0 104 94l133 -65q-35 -70 -57 -107t-69 -72q-46 -35 -104 -35q-57 0 -155 50q-98 49 -127 49q-51 0 -106 -94l-133 63q56 104 88 143 q32 40 64 55t84 15zM809 0v127q-162 -150 -377 -150q-162 -1 -267 95t-105 259t109 254q110 91 284 91q92 0 356 -51v82q0 90 -42 129q-42 38 -159 38t-383 -81l-92 204q307 101 535 101t332 -93q103 -93 104 -311v-694h-295z" glyph-name="atilde" horiz-adv-x="1220" unicode="ã"/><glyph d="M686 1231v235h236v-235h-236zM313 1231v235h238v-235h-238zM524 207q152 0 285 115v157q-168 35 -254 35q-197 0 -197 -160q0 -74 45 -110t121 -37zM809 0v127q-162 -150 -377 -150q-162 -1 -267 95t-105 259t109 254q110 91 284 91q92 0 356 -51v82q0 90 -42 129 q-42 38 -159 38t-383 -81l-92 204q307 101 535 101t332 -93q103 -93 104 -311v-694h-295z" glyph-name="adieresis" horiz-adv-x="1220" unicode="ä"/><glyph d="M532 1419q0 -37 25 -61t61 -25q36 0 63 25q26 26 26 62t-26 62t-63 26q-38 0 -62 -26t-24 -63zM524 207q152 0 285 115v157q-168 35 -254 35q-197 0 -197 -160q0 -74 45 -110t121 -37zM389 1419q0 96 68 163q67 67 161 67t162 -67t68 -163t-68 -163q-68 -66 -162 -66 t-162 66t-67 163zM809 0v127q-162 -150 -377 -150q-162 -1 -267 95t-105 259t109 254q110 91 284 91q92 0 356 -51v82q0 90 -42 129q-42 38 -159 38t-383 -81l-92 204q307 101 535 101t332 -93q103 -93 104 -311v-694h-295z" glyph-name="aring" horiz-adv-x="1220" unicode="å"/><glyph d="M1317 887q-201 0 -234 -254h449q2 254 -215 254zM555 514q-197 0 -197 -160q0 -74 45 -110t121 -37q146 0 285 117q-20 63 -27 149q-182 41 -227 41zM1823 623q0 -90 -19 -150h-723q11 -135 73 -206t167 -70q143 0 397 131l111 -185q-303 -166 -537 -166q-285 0 -422 209 q-193 -209 -438 -209q-162 -1 -267 95t-105 259t109 254q110 91 284 91q100 0 331 -51q6 59 23 118q-6 70 -49 101q-43 30 -155 30t-378 -81l-92 204q307 101 533 101t329 -88q131 88 322 88q246 0 376 -131t130 -344z" glyph-name="ae" horiz-adv-x="1900" unicode="æ"/><glyph d="M434 -209q100 0 101 78q0 45 -43 115q-182 23 -301 164q-117 142 -117 402t141 404t335 144t476 -131l-119 -217l-39 16q-164 80 -265 80t-165 -84t-63 -224q0 -140 63 -224t165 -85q102 0 216 57q12 5 49 21l39 19l119 -217q-223 -111 -399 -127q63 -84 63 -173 t-65 -137q-65 -47 -167 -47t-182 45l60 146q51 -25 98 -25z" glyph-name="ccedilla" horiz-adv-x="1073" unicode="ç"/><glyph d="M825 1210h-239l-353 283h338zM612 887q-201 0 -233 -254h448q2 254 -215 254zM1116 623q0 -74 -16 -150h-723q25 -276 237 -276q145 0 396 131l112 -185q-303 -166 -532 -166q-228 1 -372 143t-144 412t143 417q143 149 391 149t378 -131t130 -344z" glyph-name="egrave" horiz-adv-x="1191" unicode="è"/><glyph d="M651 1210h-239l252 283h340zM612 887q-201 0 -233 -254h448q2 254 -215 254zM1116 623q0 -74 -16 -150h-723q25 -276 237 -276q145 0 396 131l112 -185q-303 -166 -532 -166q-228 1 -372 143t-144 412t143 417q143 149 391 149t378 -131t130 -344z" glyph-name="eacute" horiz-adv-x="1191" unicode="é"/><glyph d="M612 887q-201 0 -233 -254h448q2 254 -215 254zM760 1493l217 -283h-205l-156 154l-153 -154h-205l217 283h285zM1116 623q0 -74 -16 -150h-723q25 -276 237 -276q145 0 396 131l112 -185q-303 -166 -532 -166q-228 1 -372 143t-144 412t143 417q143 149 391 149 t378 -131t130 -344z" glyph-name="ecircumflex" horiz-adv-x="1191" unicode="ê"/><glyph d="M686 1231v235h236v-235h-236zM313 1231v235h238v-235h-238zM612 887q-201 0 -233 -254h448q2 254 -215 254zM1116 623q0 -74 -16 -150h-723q25 -276 237 -276q145 0 396 131l112 -185q-303 -166 -532 -166q-228 1 -372 143t-144 412t143 417q143 149 391 149t378 -131 t130 -344z" glyph-name="edieresis" horiz-adv-x="1191" unicode="ë"/><glyph d="M483 1210h-241l-353 283h338zM422 0h-295v1075h295v-1075z" glyph-name="igrave" horiz-adv-x="548" unicode="ì"/><glyph d="M309 1210h-241l256 283h338zM422 0h-293v1075h293v-1075z" glyph-name="iacute" horiz-adv-x="548" unicode="í"/><glyph d="M418 1493l217 -283h-205l-156 154l-155 -154h-205l217 283h287zM422 0h-295v1075h295v-1075z" glyph-name="icircumflex" horiz-adv-x="548" unicode="î"/><glyph d="M342 1231v235h238v-235h-238zM-29 1231v235h238v-235h-238zM424 0h-295v1075h295v-1075z" glyph-name="idieresis" horiz-adv-x="548" unicode="ï"/><glyph d="M383 475q0 -119 66 -195q67 -76 201 -75t200 75t65 196q0 122 -64 197q-65 75 -201 75t-202 -77t-65 -196zM387 1200q-87 0 -147 -12l-21 -4l-37 227q80 23 198 23t220 -23l78 82h248l-140 -145q205 -100 316 -300t110 -454q0 -303 -156 -460t-419 -157q-265 -1 -413 135 t-148 362t136 364t334 137q238 0 359 -141q-31 112 -107 198t-192 129l-92 -94h-246l127 133h-8z" glyph-name="eth" horiz-adv-x="1288" unicode="ð"/><glyph d="M503 1493q52 0 149 -49t126 -49q51 0 105 94l133 -64q-35 -69 -58 -107q-22 -38 -68 -73t-104 -35t-156 50q-97 50 -126 49q-52 -1 -105 -95l-133 66q51 97 88 144q53 69 149 69zM422 1075v-129q217 152 418 152q322 0 321 -338v-760h-295v692q0 176 -141 176 q-76 0 -161 -43t-142 -96v-729h-295v1075h295z" glyph-name="ntilde" horiz-adv-x="1280" unicode="ñ"/><glyph d="M840 1210h-242l-352 283h336zM631 205q258 0 258 333t-258 332q-258 0 -258 -332t258 -333zM1186 537q0 -267 -144 -413t-412 -146t-412 146t-144 414t144 413q144 147 412 147t412 -148t144 -413z" glyph-name="ograve" horiz-adv-x="1259" unicode="ò"/><glyph d="M666 1210h-244l256 283h336zM631 205q258 0 258 333t-258 332q-258 0 -258 -332t258 -333zM1186 537q0 -267 -144 -413t-412 -146t-412 146t-144 414t144 413q144 147 412 147t412 -148t144 -413z" glyph-name="oacute" horiz-adv-x="1259" unicode="ó"/><glyph d="M774 1493l217 -283h-205l-155 154l-156 -154h-205l217 283h287zM631 205q258 0 258 333t-258 332q-258 0 -258 -332t258 -333zM1186 537q0 -267 -144 -413t-412 -146t-412 146t-144 414t144 413q144 147 412 147t412 -148t144 -413z" glyph-name="ocircumflex" horiz-adv-x="1259" unicode="ô"/><glyph d="M774 1219q-49 1 -143 39t-133 40q-72 5 -111 -77l-125 43q25 55 37 82q41 92 100 120q35 16 85 16t144 -38q94 -39 136 -41q72 -4 108 78l127 -43q-26 -78 -79 -148q-54 -71 -146 -71zM631 205q258 0 258 333t-258 332q-258 0 -258 -332t258 -333zM1186 537 q0 -267 -144 -413t-412 -146t-412 146t-144 414t144 413q144 147 412 147t412 -148t144 -413z" glyph-name="otilde" horiz-adv-x="1259" unicode="õ"/><glyph d="M698 1231v235h238v-235h-238zM328 1231v235h237v-235h-237zM631 205q258 0 258 333t-258 332q-258 0 -258 -332t258 -333zM1186 537q0 -267 -144 -413t-412 -146t-412 146t-144 414t144 413q144 147 412 147t412 -148t144 -413z" glyph-name="odieresis" horiz-adv-x="1259" unicode="ö"/><glyph d="M500 312q0 60 45 102t107 43q62 0 106 -42q44 -43 45 -103q0 -60 -44 -102q-45 -42 -107 -42t-107 42t-45 102zM500 1055q0 59 45 102t107 43t106 -43t45 -102q0 -59 -44 -103q-45 -44 -107 -43q-62 -1 -107 43t-45 103zM125 571v224h1053v-224h-1053z" glyph-name="divide" unicode="÷"/><glyph d="M371 539q0 -100 24 -172l379 462q-57 41 -145 41q-258 1 -258 -331zM887 537q0 102 -29 178l-381 -467q59 -43 152 -43q258 0 258 332zM1186 532q0 -262 -144 -408t-413 -147q-186 0 -314 72l-41 -49h-180l111 135q-133 145 -133 407t144 409q144 146 413 147 q180 0 309 -70l39 47h176l-106 -131q139 -150 139 -412z" glyph-name="oslash" horiz-adv-x="1257" unicode="ø"/><glyph d="M842 1210h-240l-352 283h336zM858 0v129q-223 -152 -420 -152q-319 0 -319 338v760h295v-692q0 -84 30 -130t108 -46q77 0 163 42t143 95v731h293v-1075h-293z" glyph-name="ugrave" horiz-adv-x="1280" unicode="ù"/><glyph d="M668 1210h-242l256 283h336zM858 0v129q-223 -152 -420 -152q-319 0 -319 338v760h295v-692q0 -84 30 -130t108 -46q77 0 163 42t143 95v731h293v-1075h-293z" glyph-name="uacute" horiz-adv-x="1280" unicode="ú"/><glyph d="M776 1493l217 -283h-202l-156 154l-156 -154h-205l215 283h287zM858 0v129q-223 -152 -420 -152q-319 0 -319 338v760h295v-692q0 -84 30 -130t108 -46q77 0 163 42t143 95v731h293v-1075h-293z" glyph-name="ucircumflex" horiz-adv-x="1280" unicode="û"/><glyph d="M702 1231v235h236v-235h-236zM330 1231v235h237v-235h-237zM858 0v129q-223 -152 -420 -152q-319 0 -319 338v760h295v-692q0 -84 30 -130t108 -46q77 0 163 42t143 95v731h293v-1075h-293z" glyph-name="udieresis" horiz-adv-x="1280" unicode="ü"/><glyph d="M631 1210h-244l256 283h336zM25 1075h317l254 -721l254 721h319l-594 -1493h-315l186 420z" glyph-name="yacute" horiz-adv-x="1191" unicode="ý"/><glyph d="M694 860q-156 0 -272 -139v-369q119 -137 272 -137q207 1 207 323t-207 322zM780 -23q-192 0 -358 140v-535h-295v1911h295v-539q166 144 358 144t306 -144t114 -416q0 -273 -114 -417t-306 -144z" glyph-name="thorn" horiz-adv-x="1277" unicode="þ"/><glyph d="M293 1231v235h237v-235h-237zM664 1231v235h237v-235h-237zM25 1075h317l254 -721l254 721h319l-594 -1493h-315l186 420z" glyph-name="ydieresis" horiz-adv-x="1191" unicode="ÿ"/><glyph d="M414 1571v174h628v-174h-628zM725 1157l-203 -631h408zM1102 0l-92 285h-566l-92 -285h-334l541 1434h336l539 -1434h-332z" glyph-name="Amacron" horiz-adv-x="1452" unicode="Ā"/><glyph d="M303 1264v174h629v-174h-629zM524 207q152 0 285 115v157q-168 35 -254 35q-197 0 -197 -160q0 -74 45 -110t121 -37zM809 0v127q-162 -150 -377 -150q-162 -1 -267 95t-105 259t109 254q110 91 284 91q92 0 356 -51v82q0 90 -42 129q-42 38 -159 38t-383 -81l-92 204 q307 101 535 101t332 -93q103 -93 104 -311v-694h-295z" glyph-name="amacron" horiz-adv-x="1220" unicode="ā"/><glyph d="M1063 1772q0 -116 -89 -184t-248 -68t-248 68t-89 184h184q0 -90 153 -90t153 90h184zM725 1157l-203 -631h408zM1102 0l-92 285h-566l-92 -285h-334l541 1434h336l539 -1434h-332z" glyph-name="Abreve" horiz-adv-x="1452" unicode="Ă"/><glyph d="M524 207q152 0 285 115v157q-168 35 -254 35q-197 0 -197 -160q0 -74 45 -110t121 -37zM954 1462q0 -116 -88 -184t-247 -68t-247 68t-87 184h182q0 -42 41 -66q42 -24 112 -24t111 24t41 66h182zM809 0v127q-162 -150 -377 -150q-162 -1 -267 95t-105 259t109 254 q110 91 284 91q92 0 356 -51v82q0 90 -42 129q-42 38 -159 38t-383 -81l-92 204q307 101 535 101t332 -93q103 -93 104 -311v-694h-295z" glyph-name="abreve" horiz-adv-x="1220" unicode="ă"/><glyph d="M725 1157l-203 -631h408zM1237 -193q0 -69 104 -69h52l-31 -135h-12q-305 -4 -306 176q0 125 199 221h-141l-92 285h-566l-92 -285h-334l541 1434h336l539 -1434h-7q-139 -83 -174 -137q-16 -27 -16 -56z" glyph-name="Aogonek" horiz-adv-x="1452" unicode="Ą"/><glyph d="M524 207q152 0 285 115v157q-168 35 -254 35q-197 0 -197 -160q0 -74 45 -110t121 -37zM905 -193q0 -69 106 -69h50l-29 -135h-12q-309 -4 -309 176q0 127 200 221h-102v127q-162 -150 -377 -150q-162 -1 -267 95t-105 259t109 254q110 91 284 91q92 0 356 -51v82 q0 90 -42 129q-42 38 -159 38t-383 -81l-92 204q307 101 535 101t332 -93q103 -93 104 -311v-694h-6q-57 -35 -88 -54q-31 -18 -68 -60t-37 -79z" glyph-name="aogonek" horiz-adv-x="1220" unicode="ą"/><glyph d="M811 1520h-240l256 282h336zM722 1182q-150 0 -234 -125t-82 -340q0 -215 82 -340t233 -125q150 0 426 158l143 -226q-168 -98 -310 -152t-298 -55q-264 -1 -428 187t-164 553t164 552t428 187q156 0 298 -54t310 -153l-143 -225q-275 158 -425 158z" glyph-name="Cacute" horiz-adv-x="1339" unicode="Ć"/><glyph d="M614 1210h-241l256 283h338zM438 762q-64 -84 -63 -224q0 -140 63 -224t165 -85q102 0 216 57q12 5 49 21l39 19l119 -217q-268 -131 -469 -131t-342 144t-141 416t141 416t335 144t476 -131l-119 -217l-39 16q-164 80 -265 80t-165 -84z" glyph-name="cacute" horiz-adv-x="1071" unicode="ć"/><glyph d="M592 1540v236h237v-236h-237zM722 1182q-150 0 -234 -125t-82 -340q0 -215 82 -340t233 -125q150 0 426 158l143 -226q-168 -98 -310 -152t-298 -55q-264 -1 -428 187t-164 553t164 552t428 187q156 0 298 -54t310 -153l-143 -225q-275 158 -425 158z" glyph-name="Cdotaccent" horiz-adv-x="1339" unicode="Ċ"/><glyph d="M463 1233v235h237v-235h-237zM438 762q-64 -84 -63 -224q0 -140 63 -224t165 -85q102 0 216 57q12 5 49 21l39 19l119 -217q-268 -131 -469 -131t-342 144t-141 416t141 416t335 144t476 -131l-119 -217l-39 16q-164 80 -265 80t-165 -84z" glyph-name="cdotaccent" horiz-adv-x="1071" unicode="ċ"/><glyph d="M1081 1802l-217 -282h-286l-216 282h205l154 -151l156 151h204zM722 1182q-150 0 -234 -125t-82 -340q0 -215 82 -340t233 -125q150 0 426 158l143 -226q-168 -98 -310 -152t-298 -55q-264 -1 -428 187t-164 553t164 552t428 187q156 0 298 -54t310 -153l-143 -225 q-275 158 -425 158z" glyph-name="Ccaron" horiz-adv-x="1339" unicode="Č"/><glyph d="M940 1493l-215 -283h-289l-215 283h205l154 -152l155 152h205zM438 762q-64 -84 -63 -224q0 -140 63 -224t165 -85q102 0 216 57q12 5 49 21l39 19l119 -217q-268 -131 -469 -131t-342 144t-141 416t141 416t335 144t476 -131l-119 -217l-39 16q-164 80 -265 80t-165 -84 z" glyph-name="ccaron" horiz-adv-x="1071" unicode="č"/><glyph d="M1130 1802l-217 -282h-286l-217 282h204l154 -151l158 151h204zM1079 717q0 250 -107 353q-108 103 -333 104h-178v-914h178q225 0 333 104t107 353zM1386 717q0 -375 -182 -546t-538 -171h-512v1434h512q356 0 538 -171t182 -546z" glyph-name="Dcaron" horiz-adv-x="1478" unicode="Ď"/><glyph d="M1255 1247v246h226l18 -270l-186 -219l-62 73l107 170h-103zM582 215q154 0 272 137v369q-121 139 -272 139q-207 0 -207 -322t207 -323zM1149 0h-295v117q-170 -139 -360 -139t-304 142q-114 144 -114 418t113 417q115 143 305 143t360 -144v539h295v-1493z" glyph-name="dcaron" horiz-adv-x="1398" unicode="ď"/><glyph d="M1110 717q0 250 -109 353t-333 104h-176v-338h296v-238h-296v-338h176q226 0 334 104t108 353zM1415 717q0 -375 -182 -546t-539 -171h-510v598h-151v238h151v598h510q356 0 538 -171t183 -546z" glyph-name="Dcroat" horiz-adv-x="1507" unicode="Đ"/><glyph d="M582 215q154 0 272 137v369q-121 139 -272 139q-207 0 -207 -322t207 -323zM508 1188v172h346v133h295v-133h125v-172h-125v-1188h-295v117q-170 -139 -360 -139t-304 142q-114 144 -114 418t113 417q115 143 305 143t360 -144v234h-346z" glyph-name="dcroat" horiz-adv-x="1277" unicode="đ"/><glyph d="M348 1571v174h629v-174h-629zM1174 0h-1020v1434h1007v-260h-700v-330h573v-254h-573v-330h713v-260z" glyph-name="Emacron" horiz-adv-x="1261" unicode="Ē"/><glyph d="M612 887q-201 0 -233 -254h448q2 254 -215 254zM303 1262v174h629v-174h-629zM1116 623q0 -74 -16 -150h-723q25 -276 237 -276q145 0 396 131l112 -185q-303 -166 -532 -166q-228 1 -372 143t-144 412t143 417q143 149 391 149t378 -131t130 -344z" glyph-name="emacron" horiz-adv-x="1191" unicode="ē"/><glyph d="M545 1540v236h237v-236h-237zM1174 0h-1020v1434h1007v-260h-700v-330h573v-254h-573v-330h713v-260z" glyph-name="Edotaccent" horiz-adv-x="1261" unicode="Ė"/><glyph d="M500 1231v235h235v-235h-235zM612 887q-201 0 -233 -254h448q2 254 -215 254zM1116 623q0 -74 -16 -150h-723q25 -276 237 -276q145 0 396 131l112 -185q-303 -166 -532 -166q-228 1 -372 143t-144 412t143 417q143 149 391 149t378 -131t130 -344z" glyph-name="edotaccent" horiz-adv-x="1191" unicode="ė"/><glyph d="M1012 -116q-36 -40 -35 -76q0 -36 17 -47q36 -23 65 -23h71l-28 -135h-12q-307 -4 -308 176q0 127 201 221h-829v1434h1007v-260h-700v-330h573v-254h-573v-330h713v-260h-7q-55 -32 -87 -54t-68 -62z" glyph-name="Eogonek" horiz-adv-x="1261" unicode="Ę"/><glyph d="M612 887q-201 0 -233 -254h448q2 254 -215 254zM1116 623q0 -74 -16 -150h-723q25 -276 237 -276q145 0 396 131l112 -185q-215 -115 -360 -145q-187 -111 -187 -191q0 -69 107 -69h51l-31 -135h-12q-307 -4 -307 176q0 113 160 201q-209 12 -339 153t-130 405t143 411 q143 149 391 149t378 -131t130 -344z" glyph-name="eogonek" horiz-adv-x="1193" unicode="ę"/><glyph d="M1024 1794l-217 -281h-287l-217 281h205l156 -152l155 152h205zM1174 0h-1020v1434h1007v-260h-700v-330h573v-254h-573v-330h713v-260z" glyph-name="Ecaron" horiz-adv-x="1261" unicode="Ě"/><glyph d="M612 887q-201 0 -233 -254h448q2 254 -215 254zM977 1493l-217 -283h-285l-217 283h205l153 -152l156 152h205zM1116 623q0 -74 -16 -150h-723q25 -276 237 -276q145 0 396 131l112 -185q-303 -166 -532 -166q-228 1 -372 143t-144 412t143 417q143 149 391 149t378 -131 t130 -344z" glyph-name="ecaron" horiz-adv-x="1191" unicode="ě"/><glyph d="M1053 1772q0 -116 -89 -184t-248 -68t-247 68t-88 184h182q0 -43 41 -67t111 -24q154 0 153 91h185zM1053 0v141q-188 -164 -398 -164q-241 -1 -403 189t-162 552t166 550t432 188q166 0 316 -56t321 -157l-145 -225q-94 51 -154 81q-60 31 -146 57q-85 26 -155 26 q-150 0 -235 -125q-84 -125 -84 -342t80 -347t235 -130q154 0 332 161v181h-338v241h628v-821h-290z" glyph-name="Gbreve" horiz-adv-x="1458" unicode="Ğ"/><glyph d="M582 215q154 0 272 137v369q-121 139 -272 139q-207 0 -207 -322t207 -323zM854 1075h295v-1079q0 -222 -116 -328q-115 -106 -363 -106t-547 86l59 235q286 -84 428 -84t193 43t51 140v135q-170 -139 -360 -139t-304 142q-114 144 -114 418t113 417q115 143 305 143 t360 -144v121zM975 1462q0 -116 -89 -184t-248 -68t-248 68t-89 184h184q0 -42 41 -66t111 -24q154 0 154 90h184z" glyph-name="gbreve" horiz-adv-x="1277" unicode="ğ"/><glyph d="M596 1540v236h238v-236h-238zM1053 0v141q-188 -164 -398 -164q-241 -1 -403 189t-162 552t166 550t432 188q166 0 316 -56t321 -157l-145 -225q-94 51 -154 81q-60 31 -146 57q-85 26 -155 26q-150 0 -235 -125q-84 -125 -84 -342t80 -347t235 -130q154 0 332 161v181 h-338v241h628v-821h-290z" glyph-name="Gdotaccent" horiz-adv-x="1458" unicode="Ġ"/><glyph d="M582 215q154 0 272 137v369q-121 139 -272 139q-207 0 -207 -322t207 -323zM854 1075h295v-1079q0 -222 -116 -328q-115 -106 -363 -106t-547 86l59 235q286 -84 428 -84t193 43t51 140v135q-170 -139 -360 -139t-304 142q-114 144 -114 418t113 417q115 143 305 143 t360 -144v121zM518 1231v235h238v-235h-238z" glyph-name="gdotaccent" horiz-adv-x="1277" unicode="ġ"/><glyph d="M639 -362v245h225l19 -270l-189 -219l-63 74l110 170h-102zM1053 0v141q-188 -164 -398 -164q-241 -1 -403 189t-162 552t166 550t432 188q166 0 316 -56t321 -157l-145 -225q-94 51 -154 81q-60 31 -146 57q-85 26 -155 26q-150 0 -235 -125q-84 -125 -84 -342t80 -347 t235 -130q154 0 332 161v181h-338v241h628v-821h-290z" glyph-name="Gcommaaccent" horiz-adv-x="1458" unicode="Ģ"/><glyph d="M582 215q154 0 272 137v369q-121 139 -272 139q-207 0 -207 -322t207 -323zM854 1075h295v-1079q0 -222 -116 -328q-115 -106 -363 -106t-547 86l59 235q286 -84 428 -84t193 43t51 140v135q-170 -139 -360 -139t-304 142q-114 144 -114 418t113 417q115 143 305 143 t360 -144v121zM756 1487v-256h-232l-18 276l194 234l64 -78l-113 -176h105z" glyph-name="gcommaaccent" horiz-adv-x="1277" unicode="ģ"/><glyph d="M483 1055v-176h574v176h-574zM1057 0v625h-574v-625h-305v1055h-155v174h155v205h305v-205h574v205h307v-205h154v-174h-154v-1055h-307z" glyph-name="Hbar" horiz-adv-x="1542" unicode="Ħ"/><glyph d="M2 1188v172h125v133h295v-133h348v-172h-348v-242q217 152 420 152q319 0 319 -338v-760h-295v692q0 176 -141 176q-76 0 -160 -43t-143 -96v-729h-295v1188h-125z" glyph-name="hbar" horiz-adv-x="1280" unicode="ħ"/><glyph d="M459 0h-305v1434h305v-1434zM167 1808q52 0 149 -48t126 -48q53 0 105 94l133 -65q-36 -70 -58 -107q-22 -38 -68 -72t-104 -34t-156 49t-126 49q-52 0 -105 -94l-133 63q49 96 83 140q34 43 68 58t86 15z" glyph-name="Itilde" horiz-adv-x="614" unicode="Ĩ"/><glyph d="M422 0h-295v1075h295v-1075zM134 1499q52 0 150 -48t128 -48q53 0 104 94l133 -65q-35 -70 -57 -107t-69 -72q-46 -35 -104 -35q-57 0 -155 50q-98 49 -127 49q-51 0 -106 -94l-133 63q56 104 88 143q32 40 64 55t84 15z" glyph-name="itilde" horiz-adv-x="548" unicode="ĩ"/><glyph d="M-8 1571v174h629v-174h-629zM461 0h-307v1434h307v-1434z" glyph-name="Imacron" horiz-adv-x="614" unicode="Ī"/><glyph d="M-41 1262v174h629v-174h-629zM422 0h-295v1075h295v-1075z" glyph-name="imacron" horiz-adv-x="548" unicode="ī"/><glyph d="M461 0h-307v1434h307v-1434zM645 1772q0 -116 -90 -184t-249 -68t-247 68t-88 184h185q0 -43 40 -67t110 -24t113 24q42 24 42 67h184z" glyph-name="Ibreve" horiz-adv-x="614" unicode="Ĭ"/><glyph d="M422 0h-295v1075h295v-1075zM610 1462q0 -116 -89 -184t-248 -68t-247 68t-87 184h184q0 -42 40 -66q41 -24 111 -24t112 24t42 66h182z" glyph-name="ibreve" horiz-adv-x="548" unicode="ĭ"/><glyph d="M298 -116q-36 -40 -36 -76t18 -47q37 -23 69 -23h67l-27 -135q-169 0 -245 41t-76 135q0 125 200 221h-114v1434h307v-1434h-6q-55 -32 -88 -54t-69 -62z" glyph-name="Iogonek" horiz-adv-x="614" unicode="Į"/><glyph d="M117 1231v256h311v-256h-311zM221 -193q0 -69 105 -69h51l-27 -135q-170 0 -246 41t-75 135q0 125 200 221h-102v1075h295v-1075h-6q-55 -32 -88 -54t-70 -62t-37 -77z" glyph-name="iogonek" horiz-adv-x="548" unicode="į"/><glyph d="M188 1540v236h238v-236h-238zM461 0h-307v1434h307v-1434z" glyph-name="Idotaccent" horiz-adv-x="614" unicode="İ"/><glyph d="M422 0h-295v1075h295v-1075z" glyph-name="dotlessi" horiz-adv-x="548" unicode="ı"/><glyph d="M1096 1434v-1305q0 -222 -35 -277q-54 -88 -127 -119q-128 -57 -283 -93l-102 227q92 31 139 51t71 51t26 57q3 26 3 87v1321h308zM461 0h-307v1434h307v-1434z" glyph-name="IJ" horiz-adv-x="1228" unicode="Ĳ"/><glyph d="M121 1231v256h311v-256h-311zM424 0h-295v1075h295v-1075zM993 1075v-1046q0 -202 -23 -250q-43 -90 -79 -111q-37 -22 -93 -54t-245 -75l-94 213q94 31 139 50q45 18 70 52q26 34 28 60t2 92v1069h295zM690 1231v256h309v-256h-309z" glyph-name="ij" horiz-adv-x="1097" unicode="ĳ"/><glyph d="M451 1802l217 -282h-205l-156 153l-155 -153h-205l215 282h289zM461 1434v-1305q0 -226 -35 -277q-54 -88 -127 -119q-128 -57 -283 -93l-100 227q92 31 138 51t70 51t27 57t3 87v1321h307z" glyph-name="Jcircumflex" horiz-adv-x="616" unicode="Ĵ"/><glyph d="M416 1493l217 -283h-205l-156 154l-155 -154h-203l213 283h289zM420 1075v-1124q0 -91 -9 -121q-28 -94 -45 -112q-17 -17 -41 -42t-56 -40q-129 -61 -287 -97l-95 213q91 31 137 50q46 18 70 52t28 60q3 26 3 92v1069h295z" glyph-name="jcircumflex" horiz-adv-x="548" unicode="ĵ"/><glyph d="M590 -362v245h225l19 -270l-191 -219l-61 74l108 170h-100zM154 0v1434h307v-689l565 689h360l-575 -680l608 -754h-364l-428 537l-166 -197v-340h-307z" glyph-name="Kcommaaccent" horiz-adv-x="1419" unicode="Ķ"/><glyph d="M483 -362v245h224l18 -270l-186 -219l-64 74l111 170h-103zM422 0h-295v1493h295v-862l350 444h334l-363 -426l426 -649h-309l-293 440l-145 -172v-268z" glyph-name="kcommaaccent" horiz-adv-x="1167" unicode="ķ"/><glyph d="M422 0h-295v1075h295v-444l350 444h334l-363 -426l426 -649h-309l-293 440l-145 -172v-268z" glyph-name="kgreenlandic" horiz-adv-x="1167" unicode="ĸ"/><glyph d="M342 1520h-242l256 282h338zM1143 0h-987v1434h305v-1174h682v-260z" glyph-name="Lacute" horiz-adv-x="1177" unicode="Ĺ"/><glyph d="M313 1583h-241l256 283h336zM426 0h-295v1493h295v-1493z" glyph-name="lacute" horiz-adv-x="559" unicode="ĺ"/><glyph d="M1139 0h-985v1434h307v-1174h678v-260zM524 -362v245h226l18 -270l-188 -219l-64 74l111 170h-103z" glyph-name="Lcommaaccent" horiz-adv-x="1175" unicode="Ļ"/><glyph d="M426 0h-295v1493h295v-1493zM170 -362v245h223l19 -270l-187 -219l-61 74l108 170h-102z" glyph-name="lcommaaccent" horiz-adv-x="559" unicode="ļ"/><glyph d="M1139 0h-985v1434h307v-1174h678v-260zM567 1188v246h226l18 -271l-188 -219l-60 74l107 170h-103z" glyph-name="Lcaron" horiz-adv-x="1175" unicode="Ľ"/><glyph d="M426 0h-295v1493h295v-1493zM535 1247v246h223l18 -270l-186 -219l-64 73l111 170h-102z" glyph-name="lcaron" horiz-adv-x="675" unicode="ľ"/><glyph d="M793 635v235h237v-235h-237zM1139 0h-985v1434h307v-1174h678v-260z" glyph-name="Ldot" horiz-adv-x="1177" unicode="Ŀ"/><glyph d="M535 635v235h237v-235h-237zM426 0h-295v1493h295v-1493z" glyph-name="ldot" horiz-adv-x="757" unicode="ŀ"/><glyph d="M1171 0h-985v485l-143 -79v272l143 80v676h308v-506l270 151v-272l-270 -152v-395h677v-260z" glyph-name="Lslash" horiz-adv-x="1206" unicode="Ł"/><glyph d="M469 0h-295v526l-129 -71v272l129 72v694h295v-528l127 71v-272l-127 -72v-692z" glyph-name="lslash" horiz-adv-x="636" unicode="ł"/><glyph d="M809 1520h-242l256 282h336zM1067 1434h305v-1434h-311l-600 975v-975h-307v1434h311l602 -979v979z" glyph-name="Nacute" horiz-adv-x="1525" unicode="Ń"/><glyph d="M678 1210h-244l256 283h338zM422 1075v-129q217 152 418 152q322 0 321 -338v-760h-295v692q0 176 -141 176q-76 0 -161 -43t-142 -96v-729h-295v1075h295z" glyph-name="nacute" horiz-adv-x="1280" unicode="ń"/><glyph d="M666 -362v245h225l18 -270l-190 -219l-60 74l107 170h-100zM1067 1434h305v-1434h-311l-600 975v-975h-307v1434h311l602 -979v979z" glyph-name="Ncommaaccent" horiz-adv-x="1525" unicode="Ņ"/><glyph d="M532 -362v245h226l18 -270l-186 -219l-64 74l109 170h-103zM422 1075v-129q217 152 418 152q322 0 321 -338v-760h-295v692q0 176 -141 176q-76 0 -161 -43t-142 -96v-729h-295v1075h295z" glyph-name="ncommaaccent" horiz-adv-x="1280" unicode="ņ"/><glyph d="M1137 1802l-217 -282h-289l-217 282h204l156 -151l158 151h205zM1067 1434h305v-1434h-311l-600 975v-975h-307v1434h311l602 -979v979z" glyph-name="Ncaron" horiz-adv-x="1525" unicode="Ň"/><glyph d="M1001 1493l-217 -283h-288l-217 283h204l156 -152l158 152h204zM422 1075v-129q217 152 418 152q322 0 321 -338v-760h-295v692q0 176 -141 176q-76 0 -161 -43t-142 -96v-729h-295v1075h295z" glyph-name="ncaron" horiz-adv-x="1280" unicode="ň"/><glyph d="M127 1395v245h223l17 -270l-187 -219l-61 74l108 170h-100zM422 1075v-127q217 150 416 150q319 0 319 -338v-760h-293v692q0 176 -141 176q-76 0 -161 -42t-140 -95v-731h-295v1075h295z" glyph-name="napostrophe" horiz-adv-x="1277" unicode="ŉ"/><glyph d="M1372 1434v-1352q0 -84 -6 -131q-17 -131 -99 -185q-114 -76 -337 -126l-103 227q125 39 171 65t59 72l-596 971v-975h-307v1434h311l602 -979v979h305z" glyph-name="Eng" horiz-adv-x="1525" unicode="Ŋ"/><glyph d="M1161 760v-733q0 -224 -35 -278q-52 -85 -113 -113q-127 -58 -292 -97l-94 213q94 31 139 50q45 18 70 52q26 34 28 60t2 92v686q0 176 -141 176q-76 0 -161 -43t-142 -96v-729h-295v1075h295v-129q217 152 418 152q321 0 321 -338z" glyph-name="eng" horiz-adv-x="1280" unicode="ŋ"/><glyph d="M463 1571v174h629v-174h-629zM778 240q373 0 373 477q0 219 -89 348t-284 129q-373 0 -373 -477t373 -477zM778 1456q519 0 649 -448q39 -131 39 -291q0 -332 -169 -536t-520 -204t-519 204t-168 537q0 334 168 536t520 202z" glyph-name="Omacron" horiz-adv-x="1556" unicode="Ō"/><glyph d="M315 1262v174h629v-174h-629zM631 205q258 0 258 333t-258 332q-258 0 -258 -332t258 -333zM1186 537q0 -267 -144 -413t-412 -146t-412 146t-144 414t144 413q144 147 412 147t412 -148t144 -413z" glyph-name="omacron" horiz-adv-x="1259" unicode="ō"/><glyph d="M1114 1772q0 -116 -89 -184t-248 -68t-247 68t-88 184h183q0 -43 41 -67t110 -24q154 0 154 91h184zM778 240q373 0 373 477q0 219 -89 348t-284 129q-373 0 -373 -477t373 -477zM778 1456q519 0 649 -448q39 -131 39 -291q0 -332 -169 -536t-520 -204t-519 204t-168 537 q0 334 168 536t520 202z" glyph-name="Obreve" horiz-adv-x="1556" unicode="Ŏ"/><glyph d="M967 1462q0 -116 -89 -184t-248 -68t-247 68t-88 184h182q0 -42 41 -66t111 -24q154 0 153 90h185zM631 205q258 0 258 333t-258 332q-258 0 -258 -332t258 -333zM1186 537q0 -267 -144 -413t-412 -146t-412 146t-144 414t144 413q144 147 412 147t412 -148t144 -413z " glyph-name="obreve" horiz-adv-x="1259" unicode="ŏ"/><glyph d="M649 1520h-174l164 282h272zM1012 1520h-176l163 282h273zM778 240q373 0 373 477q0 219 -89 348t-284 129q-373 0 -373 -477t373 -477zM778 1456q519 0 649 -448q39 -131 39 -291q0 -332 -169 -536t-520 -204t-519 204t-168 537q0 334 168 536t520 202z" glyph-name="Ohungarumlaut" horiz-adv-x="1556" unicode="Ő"/><glyph d="M502 1210h-174l164 283h272zM862 1210h-174l164 283h270zM631 205q258 0 258 333t-258 332q-258 0 -258 -332t258 -333zM1186 537q0 -267 -144 -413t-412 -146t-412 146t-144 414t144 413q144 147 412 147t412 -148t144 -413z" glyph-name="ohungarumlaut" horiz-adv-x="1259" unicode="ő"/><glyph d="M778 240q373 0 373 477q0 219 -89 348t-284 129q-373 0 -373 -477t373 -477zM2173 0h-1018v66q-152 -88 -377 -89q-352 0 -520 204t-168 537q0 334 168 536t520 202q221 0 377 -88v66h1008v-260h-703v-330h576v-254h-576v-330h713v-260z" glyph-name="OE" horiz-adv-x="2263" unicode="Œ"/><glyph d="M1427 887q-201 0 -233 -254h448q0 254 -215 254zM631 205q258 0 258 333t-258 332q-258 0 -258 -332t258 -333zM1931 623q0 -74 -16 -150h-723q25 -276 235 -276q147 0 398 131l110 -185q-295 -166 -529 -166t-372 140q-145 -139 -408 -139q-264 0 -408 146t-144 414 t144 413q144 147 408 147t412 -144q143 144 388 144t375 -131t130 -344z" glyph-name="oe" horiz-adv-x="2007" unicode="œ"/><glyph d="M795 1520h-244l256 282h338zM1055 994q0 198 -281 198h-313v-395h309q285 -1 285 197zM461 555v-555h-307v1434h634q575 0 576 -439q0 -350 -356 -422l358 -573h-330l-338 555h-237z" glyph-name="Racute" horiz-adv-x="1441" unicode="Ŕ"/><glyph d="M422 1075v-225q77 177 258 225q68 18 145 12v-276q-102 0 -181 -36t-119 -86q-83 -104 -97 -185l-6 -37v-467h-295v1075h295zM510 1210h-242l256 283h336z" glyph-name="racute" horiz-adv-x="860" unicode="ŕ"/><glyph d="M606 -362v245h225l19 -270l-191 -219l-59 74l107 170h-101zM1055 994q0 198 -281 198h-313v-395h309q285 -1 285 197zM461 555v-555h-307v1434h634q575 0 576 -439q0 -350 -356 -422l358 -573h-330l-338 555h-237z" glyph-name="Rcommaaccent" horiz-adv-x="1441" unicode="Ŗ"/><glyph d="M422 1075v-225q21 60 103 144q46 46 124 73t174 20v-276q-102 0 -180 -36t-118 -86q-83 -104 -97 -185l-6 -37v-467h-295v1075h295zM164 -362v245h225l17 -270l-187 -219l-61 74l108 170h-102z" glyph-name="rcommaaccent" horiz-adv-x="860" unicode="ŗ"/><glyph d="M1120 1802l-217 -282h-287l-217 282h205l156 -151l155 151h205zM1055 994q0 198 -281 198h-313v-395h309q285 -1 285 197zM461 555v-555h-307v1434h634q575 0 576 -439q0 -350 -356 -422l358 -573h-330l-338 555h-237z" glyph-name="Rcaron" horiz-adv-x="1441" unicode="Ř"/><glyph d="M420 1075v-225q23 61 105 144q46 46 124 73t174 20v-276q-102 0 -181 -36t-119 -86q-83 -104 -97 -185l-6 -37v-467h-293v1075h293zM834 1493l-218 -283h-284l-217 283h204l154 -152l156 152h205z" glyph-name="rcaron" horiz-adv-x="860" unicode="ř"/><glyph d="M713 -23q-173 -1 -351 57t-301 136l138 219q105 -59 251 -108q275 -92 407 -12q63 38 63 113t-91 119q-66 32 -238 86t-241 91t-130 85q-126 101 -126 282t137 296t375 115q147 0 307 -42t281 -105l-137 -224q-96 45 -221 81t-213 36q-87 0 -147 -36t-60 -109t86 -112 q45 -22 211 -73t246 -90q79 -39 146 -89q136 -101 136 -292q0 -190 -144 -307t-384 -117zM684 1520h-240l254 282h338z" glyph-name="Sacute" unicode="Ś"/><glyph d="M1036 296q0 -148 -116 -233q-116 -86 -316 -86q-145 0 -297 42t-252 98l117 207q92 -45 215 -83t198 -38q75 1 115 25t39 63q0 39 -42 64q-42 26 -118 47q-77 21 -143 37q-135 34 -236 102q-122 82 -122 232t110 238q110 87 332 87t469 -117l-115 -193q-211 86 -358 86 q-66 0 -104 -24t-39 -62q-1 -37 25 -54q54 -36 109 -49q54 -13 91 -23t55 -13q175 -43 279 -124t104 -229zM580 1210h-240l252 283h340z" glyph-name="sacute" horiz-adv-x="1091" unicode="ś"/><glyph d="M713 -23q-173 -1 -351 57t-301 136l138 219q105 -59 251 -108q275 -92 407 -12q63 38 63 113t-91 119q-66 32 -238 86t-241 91t-130 85q-126 101 -126 282t137 296t375 115q147 0 307 -42t281 -105l-137 -224q-96 45 -221 81t-213 36q-87 0 -147 -36t-60 -109t86 -112 q45 -22 211 -73t246 -90q79 -39 146 -89q136 -101 136 -292q0 -190 -144 -307t-384 -117zM797 1802l215 -282h-203l-158 153l-155 -153h-205l217 282h289z" glyph-name="Scircumflex" unicode="Ŝ"/><glyph d="M1036 296q0 -148 -116 -233q-116 -86 -316 -86q-145 0 -297 42t-252 98l117 207q92 -45 215 -83t198 -38q75 1 115 25t39 63q0 39 -42 64q-42 26 -118 47q-77 21 -143 37q-135 34 -236 102q-122 82 -122 232t110 238q110 87 332 87t469 -117l-115 -193q-211 86 -358 86 q-66 0 -104 -24t-39 -62q-1 -37 25 -54q54 -36 109 -49q54 -13 91 -23t55 -13q175 -43 279 -124t104 -229zM690 1493l217 -283h-205l-155 154l-154 -154h-205l218 283h284z" glyph-name="scircumflex" horiz-adv-x="1091" unicode="ŝ"/><glyph d="M617 -375q-103 0 -179 45l58 146q53 -25 100 -25q98 0 98 78q0 45 -41 111q-163 10 -323 65t-269 125l138 219q105 -59 251 -108q275 -92 407 -12q63 38 63 113t-91 119q-66 32 -238 86t-241 91t-130 85q-126 101 -126 282t137 296t375 115q147 0 307 -42t281 -105 l-137 -224q-96 45 -221 81t-213 36q-87 0 -147 -36t-60 -109t86 -112q45 -22 211 -73t246 -90q79 -39 146 -89q136 -101 136 -285q0 -182 -122 -296t-331 -130q64 -92 64 -177t-66 -133t-169 -47z" glyph-name="Scedilla" horiz-adv-x="1306" unicode="Ş"/><glyph d="M1036 305q0 -139 -93 -223t-257 -100q64 -86 64 -174t-67 -136t-168 -47q-101 0 -181 45l61 146q51 -25 99 -25q98 0 98 78q0 47 -39 111q-137 8 -272 47t-226 90l117 207q92 -45 215 -83t198 -38q75 1 115 25t39 63q0 39 -42 64q-42 26 -118 47q-77 21 -143 37 q-135 34 -236 102q-122 82 -122 232t110 238q110 87 332 87t469 -117l-115 -193q-211 86 -358 86q-66 0 -104 -24t-39 -62q-1 -37 25 -54q54 -36 109 -49q54 -13 91 -23t55 -13q175 -43 279 -124t104 -220z" glyph-name="scedilla" horiz-adv-x="1093" unicode="ş"/><glyph d="M713 -23q-173 -1 -351 57t-301 136l138 219q105 -59 251 -108q275 -92 407 -12q63 38 63 113t-91 119q-66 32 -238 86t-241 91t-130 85q-126 101 -126 282t137 296t375 115q147 0 307 -42t281 -105l-137 -224q-96 45 -221 81t-213 36q-87 0 -147 -36t-60 -109t86 -112 q45 -22 211 -73t246 -90q79 -39 146 -89q136 -101 136 -292q0 -190 -144 -307t-384 -117zM1012 1802l-215 -282h-287l-217 282h205l153 -151l158 151h203z" glyph-name="Scaron" unicode="Š"/><glyph d="M1036 296q0 -148 -116 -233q-116 -86 -316 -86q-145 0 -297 42t-252 98l117 207q92 -45 215 -83t198 -38q75 1 115 25t39 63q0 39 -42 64q-42 26 -118 47q-77 21 -143 37q-135 34 -236 102q-122 82 -122 232t110 238q110 87 332 87t469 -117l-115 -193q-211 86 -358 86 q-66 0 -104 -24t-39 -62q-1 -37 25 -54q54 -36 109 -49q54 -13 91 -23t55 -13q175 -43 279 -124t104 -229zM911 1493l-217 -283h-286l-218 283h205l156 -152l156 152h204z" glyph-name="scaron" horiz-adv-x="1091" unicode="š"/><glyph d="M504 -209q96 0 96 78q0 66 -55 131h-84v1174h-426v260h1153v-260h-420v-1174h-90q80 -94 80 -187t-66 -141t-169 -47q-103 0 -179 45l59 146q51 -25 101 -25z" glyph-name="Tcommaaccent" horiz-adv-x="1224" unicode="Ţ"/><glyph d="M51 858v217h148v271l293 40v-311h292v-217h-292v-522q0 -61 25 -82q26 -20 74 -20t163 49l104 -220q-152 -68 -289 -81q63 -84 63 -173t-65 -137q-66 -48 -169 -47q-103 0 -179 45l60 146q51 -25 98 -25q98 0 98 78q0 57 -43 115q-233 41 -233 356v518h-148z" glyph-name="tcommaaccent" horiz-adv-x="862" unicode="ţ"/><glyph d="M973 1802l-217 -282h-289l-215 282h205l155 -151l156 151h205zM1188 1174h-420v-1174h-307v1174h-426v260h1153v-260z" glyph-name="Tcaron" horiz-adv-x="1224" unicode="Ť"/><glyph d="M600 1395v245h223l19 -270l-187 -219l-61 74l108 170h-102zM51 858v217h148v271l293 40v-311h292v-217h-292v-522q0 -61 25 -82q26 -20 73 -20t162 49l104 -220q-188 -86 -346 -86q-311 0 -311 363v518h-148z" glyph-name="tcaron" horiz-adv-x="862" unicode="ť"/><glyph d="M274 436v174h197v564h-426v260h1153v-260h-420v-564h195v-174h-195v-436h-307v436h-197z" glyph-name="Tbar" horiz-adv-x="1241" unicode="Ŧ"/><glyph d="M51 858v217h148v271l293 40v-311h292v-217h-292v-164h229v-174h-229v-184q0 -61 25 -82q26 -20 74 -20t163 49l102 -220q-188 -86 -346 -86q-311 0 -311 363v180h-105v174h105v164h-148z" glyph-name="tbar" horiz-adv-x="862" unicode="ŧ"/><glyph d="M1331 1434v-856q-1 -266 -117 -424q-129 -175 -477 -176t-480 176q-118 156 -118 424v856h307v-881q0 -149 62 -231t227 -82q166 0 229 83q62 83 62 230v881h305zM595 1808q52 0 149 -48t126 -48q53 0 105 94l135 -65q-51 -96 -84 -140q-56 -73 -130 -73t-172 49t-128 49 q-51 0 -104 -94l-134 63q49 96 83 140q34 43 68 58t86 15z" glyph-name="Utilde" horiz-adv-x="1472" unicode="Ũ"/><glyph d="M515 1499q53 0 151 -48t125 -48q55 0 106 94l133 -65q-36 -70 -58 -107t-68 -72t-104 -35t-156 50q-98 49 -126 49q-51 0 -106 -94l-133 63q56 104 88 143q31 40 63 55t85 15zM858 0v129q-223 -152 -420 -152q-319 0 -319 338v760h295v-692q0 -84 30 -130t108 -46 q77 0 163 42t143 95v731h293v-1075h-293z" glyph-name="utilde" horiz-adv-x="1280" unicode="ũ"/><glyph d="M422 1571v174h629v-174h-629zM1331 1434v-856q-1 -266 -117 -424q-129 -175 -477 -176t-480 176q-118 156 -118 424v856h307v-881q0 -149 62 -231t227 -82q166 0 229 83q62 83 62 230v881h305z" glyph-name="Umacron" horiz-adv-x="1472" unicode="Ū"/><glyph d="M319 1262v174h629v-174h-629zM858 0v129q-223 -152 -420 -152q-319 0 -319 338v760h295v-692q0 -84 30 -130t108 -46q77 0 163 42t143 95v731h293v-1075h-293z" glyph-name="umacron" horiz-adv-x="1280" unicode="ū"/><glyph d="M1331 1434v-856q-1 -266 -117 -424q-129 -175 -477 -176t-480 176q-118 156 -118 424v856h307v-881q0 -149 62 -231t227 -82q166 0 229 83q62 83 62 230v881h305zM1071 1772q0 -116 -89 -184t-248 -68t-247 68t-88 184h185q0 -43 40 -67t112 -24t112 24q41 24 41 67h182z " glyph-name="Ubreve" horiz-adv-x="1472" unicode="Ŭ"/><glyph d="M633 1210q-160 0 -248 68t-88 184h184q0 -90 152 -90q73 0 113 24t40 66h183q0 -116 -88 -184t-248 -68zM858 0v129q-223 -152 -420 -152q-319 0 -319 338v760h295v-692q0 -84 30 -130t108 -46q77 0 163 42t143 95v731h293v-1075h-293z" glyph-name="ubreve" horiz-adv-x="1280" unicode="ŭ"/><glyph d="M1331 1434v-856q-1 -266 -117 -424q-129 -175 -477 -176t-480 176q-118 156 -118 424v856h307v-881q0 -149 62 -231t227 -82q166 0 229 83q62 83 62 230v881h305zM651 1729q0 -37 26 -62q27 -25 63 -25t62 25t25 62q1 37 -25 63t-63 25q-37 1 -63 -25t-25 -63zM510 1729 q0 93 67 161t163 68t162 -68q67 -68 67 -162t-67 -161q-67 -68 -163 -68q-97 0 -163 68t-66 162z" glyph-name="Uring" horiz-adv-x="1472" unicode="Ů"/><glyph d="M549 1419q1 -37 25 -61t61 -25q37 0 63 25q26 26 25 62q0 36 -26 62q-27 26 -63 26t-61 -26q-24 -26 -24 -63zM406 1419q0 96 67 163q68 67 162 67t162 -67q67 -67 67 -163t-68 -163q-68 -66 -161 -66q-94 0 -162 66q-67 67 -67 163zM858 0v129q-223 -152 -420 -152 q-319 0 -319 338v760h295v-692q0 -84 30 -130t108 -46q77 0 163 42t143 95v731h293v-1075h-293z" glyph-name="uring" horiz-adv-x="1280" unicode="ů"/><glyph d="M608 1520h-178l168 282h270zM969 1520h-176l165 282h271zM1331 1434v-856q-1 -266 -117 -424q-129 -175 -477 -176t-480 176q-118 156 -118 424v856h307v-881q0 -149 62 -231t227 -82q166 0 229 83q62 83 62 230v881h305z" glyph-name="Uhungarumlaut" horiz-adv-x="1472" unicode="Ű"/><glyph d="M866 1210h-176l166 283h270zM506 1210h-176l166 283h272zM858 0v129q-223 -152 -420 -152q-319 0 -319 338v760h295v-692q0 -84 30 -130t108 -46q77 0 163 42t143 95v731h293v-1075h-293z" glyph-name="uhungarumlaut" horiz-adv-x="1280" unicode="ű"/><glyph d="M760 -193q0 -69 105 -69h50l-26 -135q-170 0 -246 41q-76 40 -76 142t158 191q-344 4 -465 172t-121 429v856h307v-881q0 -149 62 -231t227 -82q166 0 229 83q62 83 62 230v881h305v-856q0 -230 -84 -378t-291 -200q-196 -109 -196 -193z" glyph-name="Uogonek" horiz-adv-x="1472" unicode="Ų"/><glyph d="M1057 -262h51l-31 -135h-12q-305 -4 -305 176q0 125 198 221h-100v129q-223 -152 -420 -152q-319 0 -319 338v760h295v-692q0 -84 30 -130t108 -46q77 0 163 42t143 95v731h293v-1075h-8q-142 -85 -174 -137q-16 -27 -17 -56q0 -69 105 -69z" glyph-name="uogonek" horiz-adv-x="1280" unicode="ų"/><glyph d="M1139 1802l215 -282h-205l-156 153l-155 -153h-205l217 282h289zM1249 0l-256 991l-258 -991h-303l-399 1434h348l227 -1026l260 1026h250l258 -1020l230 1020h350l-402 -1434h-305z" glyph-name="Wcircumflex" horiz-adv-x="1986" unicode="Ŵ"/><glyph d="M1004 1493l217 -283h-205l-156 154l-155 -154h-205l217 283h287zM1075 0l-215 723l-215 -723h-278l-334 1075h313l178 -766l213 766h246l211 -766l180 766h312l-334 -1075h-277z" glyph-name="wcircumflex" horiz-adv-x="1718" unicode="ŵ"/><glyph d="M739 1493l217 -283h-204l-156 154l-156 -154h-204l215 283h288zM25 1075h317l254 -721l254 721h319l-594 -1493h-315l186 420z" glyph-name="ycircumflex" horiz-adv-x="1191" unicode="ŷ"/><glyph d="M748 1540v236h233v-236h-233zM373 1540v236h237v-236h-237zM524 0v567l-516 867h344l326 -613l326 613h344l-519 -869l2 -565h-307z" glyph-name="Ydieresis" horiz-adv-x="1357" unicode="Ÿ"/><glyph d="M698 1520h-239l254 282h338zM1229 260v-260h-1163v236l755 938h-710v260h1108v-236l-756 -938h766z" glyph-name="Zacute" horiz-adv-x="1310" unicode="Ź"/><glyph d="M598 1210h-244l256 283h336zM68 0v207l587 624h-567v244h967v-207l-588 -624h588v-244h-987z" glyph-name="zacute" horiz-adv-x="1132" unicode="ź"/><glyph d="M547 1540v236h237v-236h-237zM111 1174v260h1108v-236l-756 -938h766v-260h-1163v236l755 938h-710z" glyph-name="Zdotaccent" horiz-adv-x="1310" unicode="Ż"/><glyph d="M442 1231v235h238v-235h-238zM68 0v207l587 624h-567v244h967v-207l-588 -624h588v-244h-987z" glyph-name="zdotaccent" horiz-adv-x="1132" unicode="ż"/><glyph d="M1026 1802l-217 -282h-289l-215 282h205l154 -151l157 151h205zM1229 260v-260h-1163v236l755 938h-710v260h1108v-236l-756 -938h766z" glyph-name="Zcaron" horiz-adv-x="1310" unicode="Ž"/><glyph d="M924 1493l-217 -283h-289l-215 283h205l155 -152l156 152h205zM68 0v207l587 624h-567v244h967v-207l-588 -624h588v-244h-987z" glyph-name="zcaron" horiz-adv-x="1132" unicode="ž"/><glyph d="M45 858v217h148v55q0 362 311 363q166 0 362 -84l-98 -211q-139 41 -185 41t-72 -20t-26 -80v-1139h-292v858h-148z" glyph-name="longs" horiz-adv-x="653" unicode="ſ"/><glyph d="M790 1493q154 0 384 -86l-140 -215q-139 53 -207 43q-84 -10 -104 -107l-12 -53h286l-45 -217h-295l-303 -1276h-295l303 1276h-147l49 217h150l16 64q43 190 125 272q81 82 235 82z" glyph-name="florin" horiz-adv-x="1200" unicode="ƒ"/><glyph d="M1204 1520h-243l256 282h337zM1063 532v625l-406 -625h406zM2085 0h-1022v285h-565l-185 -285h-366l975 1434h1151v-260h-703v-330h578v-254h-578v-330h715v-260z" glyph-name="AEacute" horiz-adv-x="2172" unicode="Ǽ"/><glyph d="M977 1210h-242l256 283h338zM1317 887q-201 0 -234 -254h449q2 254 -215 254zM555 514q-197 0 -197 -160q0 -74 45 -110t121 -37q146 0 285 117q-20 63 -27 149q-182 41 -227 41zM1823 623q0 -90 -19 -150h-723q11 -135 73 -206t167 -70q143 0 397 131l111 -185 q-303 -166 -537 -166q-285 0 -422 209q-193 -209 -438 -209q-162 -1 -267 95t-105 259t109 254q110 91 284 91q100 0 331 -51q6 59 23 118q-6 70 -49 101q-43 30 -155 30t-378 -81l-92 204q307 101 533 101t329 -88q131 88 322 88q246 0 376 -131t130 -344z" glyph-name="aeacute" horiz-adv-x="1900" unicode="ǽ"/><glyph d="M811 1520h-244l256 282h338zM776 240q373 0 373 477q0 170 -49 276l-539 -694q84 -59 215 -59zM776 1194q-195 0 -284 -129t-89 -325t50 -302l538 695q-88 61 -215 61zM1464 720q0 -334 -169 -539q-169 -204 -519 -204q-233 0 -391 97l-57 -74h-215l141 182 q-166 195 -166 526t158 533q170 215 556 215q206 0 365 -96l58 74h217l-144 -185q166 -195 166 -529z" glyph-name="Oslashacute" horiz-adv-x="1554" unicode="Ǿ"/><glyph d="M651 1210h-241l254 283h337zM371 539q0 -100 24 -172l379 462q-57 41 -145 41q-258 1 -258 -331zM887 537q0 102 -29 178l-381 -467q59 -43 152 -43q258 0 258 332zM1186 532q0 -262 -144 -408t-413 -147q-186 0 -314 72l-41 -49h-180l111 135q-133 145 -133 407t144 409 q144 146 413 147q180 0 309 -70l39 47h176l-106 -131q139 -150 139 -412z" glyph-name="oslashacute" horiz-adv-x="1257" unicode="ǿ"/><glyph d="M713 -23q-173 -1 -351 57t-301 136l138 219q105 -59 251 -108q275 -92 407 -12q63 38 63 113t-91 119q-66 32 -238 86t-241 91t-130 85q-126 101 -126 282t137 296t375 115q147 0 307 -42t281 -105l-137 -224q-96 45 -221 81t-213 36q-87 0 -147 -36t-60 -109t86 -112 q45 -22 211 -73t246 -90q79 -39 146 -89q136 -101 136 -292q0 -190 -144 -307t-384 -117zM551 -362v245h225l19 -270l-189 -219l-61 74l106 170h-100z" glyph-name="Scommaaccent" unicode="Ș"/><glyph d="M1036 296q0 -148 -116 -233q-116 -86 -316 -86q-145 0 -297 42t-252 98l117 207q92 -45 215 -83t198 -38q75 1 115 25t39 63q0 39 -42 64q-42 26 -118 47q-77 21 -143 37q-135 34 -236 102q-122 82 -122 232t110 238q110 87 332 87t469 -117l-115 -193q-211 86 -358 86 q-66 0 -104 -24t-39 -62q-1 -37 25 -54q54 -36 109 -49q54 -13 91 -23t55 -13q175 -43 279 -124t104 -229zM428 -362v245h223l17 -270l-187 -219l-61 74l108 170h-100z" glyph-name="scommaaccent" horiz-adv-x="1091" unicode="ș"/><glyph d="M1188 1174h-420v-1174h-307v1174h-426v260h1153v-260zM502 -362v245h225l18 -270l-186 -219l-63 74l108 170h-102z" glyph-name="uni021A" horiz-adv-x="1224" unicode="Ț"/><glyph d="M276 -362v245h226l18 -270l-188 -219l-62 74l107 170h-101zM51 858v217h148v271l293 40v-311h292v-217h-292v-522q0 -61 25 -82q26 -20 73 -20t162 49l104 -220q-188 -86 -346 -86q-311 0 -311 363v518h-148z" glyph-name="uni021B" horiz-adv-x="862" unicode="ț"/><glyph d="M299 1683v-323q131 88 260 88q203 0 203 -207v-453h-205v406q0 96 -80 96q-92 0 -178 -73v-429h-205v895h205z" glyph-name="uni02B0" horiz-adv-x="847" unicode="ʰ"/><glyph d="M297 1434v-615q0 -65 -2 -95t-16 -71q-15 -41 -45 -61q-87 -57 -226 -86l-65 145q109 35 131 59t20 93v631h203zM86 1516v165h217v-165h-217z" glyph-name="uni02B2" horiz-adv-x="391" unicode="ʲ"/><glyph d="M676 788l-129 414l-129 -414h-191l-209 646h215l105 -439l125 439h166l125 -439l104 439h217l-207 -646h-192z" glyph-name="uni02B7" horiz-adv-x="1095" unicode="ʷ"/><glyph d="M4 1434h221l150 -408l149 408h217l-370 -895h-217l116 254z" glyph-name="uni02B8" horiz-adv-x="747" unicode="ʸ"/><glyph d="M440 1493l217 -283h-204l-156 154l-156 -154h-204l217 283h286z" glyph-name="circumflex" horiz-adv-x="593" unicode="ˆ"/><glyph d="M657 1493l-217 -283h-286l-217 283h204l156 -152l156 152h204z" glyph-name="caron" horiz-adv-x="593" unicode="ˇ"/><glyph d="M623 1462q0 -116 -89 -184t-248 -68t-247 68t-88 184h182q0 -90 152 -90q73 0 113 24t40 66h185z" glyph-name="breve" horiz-adv-x="571" unicode="˘"/><glyph d="M-27 1231v235h238v-235h-238z" glyph-name="dotaccent" horiz-adv-x="186" unicode="˙"/><glyph d="M127 1419q0 -37 25 -61q26 -24 62 -25q36 0 62 25q26 26 25 62q0 36 -26 62q-27 26 -63 26t-60 -26t-25 -63zM-16 1419q0 96 67 163q68 67 162 67t162 -67q67 -67 67 -163t-68 -163q-68 -66 -161 -66q-94 0 -162 66q-67 67 -67 163z" glyph-name="ring" horiz-adv-x="428" unicode="˚"/><glyph d="M143 -193q0 -69 105 -69h51l-29 -135h-12q-307 -4 -307 176q0 139 250 244l139 -21q-43 -27 -65 -40q-132 -78 -132 -155z" glyph-name="ogonek" horiz-adv-x="339" unicode="˛"/><glyph d="M169 1499q52 0 149 -48t126 -48q53 0 107 94l133 -65q-51 -96 -84 -140q-32 -43 -66 -58t-86 -15t-150 49t-128 49q-51 0 -104 -94l-134 63q49 96 83 140q34 43 68 58t86 15z" glyph-name="tilde" horiz-adv-x="616" unicode="˜"/><glyph d="M121 1210h-178l168 283h270zM479 1210h-174l164 283h272z" glyph-name="hungarumlaut" horiz-adv-x="686" unicode="˝"/><glyph d="M557 788l-154 220l-151 -220h-242l269 322l-254 324h233l145 -213l146 213h233l-252 -322l267 -324h-240z" glyph-name="uni02E3" horiz-adv-x="806" unicode="ˣ"/><glyph d="M1151 1075v-252h-170v-823h-254v823h-248v-823h-258v823h-170v252h1100z" glyph-name="pi" horiz-adv-x="1202" unicode="π"/><glyph d="M1202 1520h-244l-348 282h336zM1249 0l-256 991l-258 -991h-303l-399 1434h348l227 -1026l260 1026h250l258 -1020l230 1020h350l-402 -1434h-305z" glyph-name="Wgrave" horiz-adv-x="1986" unicode="Ẁ"/><glyph d="M1069 1210h-242l-352 283h338zM1075 0l-215 723l-215 -723h-278l-334 1075h313l178 -766l213 766h246l211 -766l180 766h312l-334 -1075h-277z" glyph-name="wgrave" horiz-adv-x="1718" unicode="ẁ"/><glyph d="M1026 1520h-242l256 282h338zM1249 0l-256 991l-258 -991h-303l-399 1434h348l227 -1026l260 1026h250l258 -1020l230 1020h350l-402 -1434h-305z" glyph-name="Wacute" horiz-adv-x="1986" unicode="Ẃ"/><glyph d="M895 1210h-244l256 283h340zM1075 0l-215 723l-215 -723h-278l-334 1075h313l178 -766l213 766h246l211 -766l180 766h312l-334 -1075h-277z" glyph-name="wacute" horiz-adv-x="1718" unicode="ẃ"/><glyph d="M1063 1540v236h233v-236h-233zM688 1540v236h238v-236h-238zM1249 0l-256 991l-258 -991h-303l-399 1434h348l227 -1026l260 1026h250l258 -1020l230 1020h350l-402 -1434h-305z" glyph-name="Wdieresis" horiz-adv-x="1986" unicode="Ẅ"/><glyph d="M928 1231v235h237v-235h-237zM557 1231v235h238v-235h-238zM1075 0l-215 723l-215 -723h-278l-334 1075h313l178 -766l213 766h246l211 -766l180 766h312l-334 -1075h-277z" glyph-name="wdieresis" horiz-adv-x="1718" unicode="ẅ"/><glyph d="M887 1520h-240l-352 282h336zM524 0v567l-516 867h344l326 -613l326 613h344l-519 -869l2 -565h-307z" glyph-name="Ygrave" horiz-adv-x="1357" unicode="Ỳ"/><glyph d="M805 1210h-242l-352 283h336zM25 1075h317l254 -721l254 721h319l-594 -1493h-315l186 420z" glyph-name="ygrave" horiz-adv-x="1191" unicode="ỳ"/><glyph d="M1034 465h-913v235h913v-235z" glyph-name="endash" horiz-adv-x="1157" unicode="–"/><glyph d="M1255 465h-1134v235h1134v-235z" glyph-name="emdash" horiz-adv-x="1376" unicode="—"/><glyph d="M418 1147v-338h-301l-23 375l250 291l82 -101l-143 -227h135z" glyph-name="quoteleft" horiz-adv-x="532" unicode="‘"/><glyph d="M109 1096v338h301l22 -375l-250 -291l-82 100l146 228h-137z" glyph-name="quoteright" horiz-adv-x="507" unicode="’"/><glyph d="M119 0v338h301l22 -375l-249 -291l-82 101l145 227h-137z" glyph-name="quotesinglbase" horiz-adv-x="544" unicode="‚"/><glyph d="M879 1147v-338h-304l-22 375l252 291l82 -101l-144 -227h136zM418 1147v-338h-301l-23 375l250 291l82 -101l-143 -227h135z" glyph-name="quotedblleft" horiz-adv-x="993" unicode="“"/><glyph d="M109 1096v338h301l22 -375l-250 -291l-82 100l146 228h-137zM567 1096v338h305l23 -375l-254 -291l-80 100l144 228h-138z" glyph-name="quotedblright" horiz-adv-x="968" unicode="”"/><glyph d="M119 0v338h301l22 -375l-249 -291l-82 101l145 227h-137zM578 0v338h305l22 -375l-254 -291l-80 101l144 227h-137z" glyph-name="quotedblbase" horiz-adv-x="1005" unicode="„"/><glyph d="M506 1434h225v-461l451 28v-237l-451 29v-1211h-225v1211l-449 -29v237l449 -28v461z" glyph-name="dagger" horiz-adv-x="1236" unicode="†"/><glyph d="M532 1434h226v-461l450 28v-237l-450 29v-357l450 29v-238l-450 29v-674h-226v674l-448 -29v238l448 -29v357l-448 -29v237l448 -28v461z" glyph-name="daggerdbl" horiz-adv-x="1294" unicode="‡"/><glyph d="M471 260q-135 0 -229 94t-95 229q1 134 95 229t229 95t230 -95t95 -229q0 -135 -94 -229q-96 -94 -231 -94z" glyph-name="bullet" horiz-adv-x="942" unicode="•"/><glyph d="M1116 0v338h305v-338h-305zM616 0v338h306v-338h-306zM117 0v338h307v-338h-307z" glyph-name="ellipsis" horiz-adv-x="1538" unicode="…"/><glyph d="M1522 1434l-744 -1434h-231l743 1434h232zM2679 360q0 98 -46 150t-131 53q-85 0 -130 -52t-45 -151q0 -201 174 -200q178 -1 178 200zM2900 360q0 -180 -106 -281t-292 -101q-188 0 -292 100q-104 102 -105 282q1 180 105 282t292 103q188 -1 292 -103 q106 -102 106 -282zM1780 360q0 98 -46 150t-131 53q-85 0 -130 -52t-46 -151q0 -201 175 -200q178 -1 178 200zM1999 361q1 -181 -105 -282t-292 -101t-290 100q-104 102 -106 283q0 181 104 283t292 101q186 1 292 -101t105 -283zM643 1071q0 99 -46 151t-130 52 q-176 0 -176 -202t176 -202q84 0 130 52t46 149zM864 1072q0 -181 -105 -282q-105 -102 -291 -102t-292 102t-106 282t105 282t291 102t293 -101q105 -102 105 -283z" glyph-name="perthousand" horiz-adv-x="2965" unicode="‰"/><glyph d="M59 645l625 434v-276l-379 -248l379 -246v-278l-625 436v178z" glyph-name="guilsinglleft" horiz-adv-x="792" unicode="‹"/><glyph d="M731 645v-178l-622 -436v278l374 246l-374 248v274z" glyph-name="guilsinglright" horiz-adv-x="792" unicode="›"/><glyph d="M653 1434l-673 -1434h-228l674 1434h227z" glyph-name="fraction" horiz-adv-x="403" unicode="⁄"/><glyph d="M457 938q172 0 172 281t-172 280q-172 0 -172 -280q0 -149 43 -215t129 -66zM72 1218q0 212 100 328t286 117q187 0 285 -117q99 -116 99 -328t-100 -328t-286 -116q-187 0 -286 116q-98 116 -98 328z" glyph-name="uni2070" horiz-adv-x="913" unicode="⁰"/><glyph d="M516 1120v363l-256 -363h256zM41 946v146l405 557h283v-529h135v-174h-135v-158h-213v158h-475z" glyph-name="uni2074" horiz-adv-x="917" unicode="⁴"/><glyph d="M727 1649v-174h-405l-11 -138q57 18 127 19q156 0 241 -83t85 -205t-90 -208t-261 -86t-360 113l94 151q115 -84 238 -84q72 0 117 31t45 82t-41 86t-122 35t-171 -47l-117 73l49 435h582z" glyph-name="uni2075" horiz-adv-x="829" unicode="⁵"/><glyph d="M444 1188q-113 0 -163 -70q2 -88 48 -131q47 -43 117 -43t108 37t38 87t-39 85t-109 35zM608 1493q-106 0 -188 -52t-117 -161q82 63 210 63q128 -1 209 -75t81 -197t-96 -210t-271 -87t-272 109q-96 109 -96 270q0 221 149 366q150 144 389 144q75 0 123 -12l16 -2 l-47 -164q-41 8 -90 8z" glyph-name="uni2076" horiz-adv-x="860" unicode="⁶"/><glyph d="M147 788q0 106 53 258t198 347q40 53 65 82h-418v174h647v-162q-114 -133 -213 -311q-43 -80 -78 -188t-34 -200h-220z" glyph-name="uni2077" horiz-adv-x="724" unicode="⁷"/><glyph d="M324 1430q0 -59 116 -105q117 45 117 105q0 32 -33 56t-85 24q-51 0 -83 -25q-32 -24 -32 -55zM604 1038q0 78 -164 140q-166 -61 -166 -140q0 -44 48 -74t118 -30q72 0 118 30t46 74zM59 1022q0 154 197 235q-139 81 -139 185t86 162q85 58 237 59q152 0 238 -58 t86 -164t-141 -184q197 -86 196 -235q0 -116 -101 -182q-100 -66 -278 -66t-280 66t-101 182z" glyph-name="uni2078" horiz-adv-x="878" unicode="⁸"/><glyph d="M414 1249q113 0 166 68q-2 90 -50 133t-116 43q-70 0 -108 -38t-38 -88t38 -84t108 -34zM250 944q236 0 307 213q-86 -63 -212 -63t-207 74t-81 198q1 123 97 210t270 87t271 -110t98 -271q0 -219 -150 -363t-391 -145q-73 0 -121 12l-16 2l49 164q39 -8 86 -8z" glyph-name="uni2079" horiz-adv-x="860" unicode="⁹"/><glyph d="M315 1491h154v-217h256v-152h-256v-217h-154v217h-258v152h258v217z" glyph-name="uni207A" horiz-adv-x="782" unicode="⁺"/><glyph d="M96 924v585q0 157 38 197q54 57 119 77q64 19 136 36l51 -111q-92 -30 -112 -56t-21 -91v-689q1 -66 21 -92t112 -55l-51 -113q-155 34 -196 65q-42 30 -66 55t-27 81q-4 56 -4 111z" glyph-name="uni207D" horiz-adv-x="485" unicode="⁽"/><glyph d="M391 1509v-585q0 -80 -5 -116t-33 -79t-88 -69t-167 -48l-53 113q92 29 113 55q20 27 20 92v689q0 65 -20 91t-113 56l53 111q106 -23 166 -49t89 -68q28 -42 33 -79q5 -36 5 -114z" glyph-name="uni207E" horiz-adv-x="485" unicode="⁾"/><glyph d="M299 1434v-74q131 88 260 88q203 0 203 -207v-453h-205v406q0 96 -80 96q-92 0 -178 -73v-429h-205v646h205z" glyph-name="uni207F" horiz-adv-x="847" unicode="ⁿ"/><glyph d="M457 -158q172 0 172 281t-172 280q-172 0 -172 -280q0 -149 43 -215t129 -66zM458 567q187 -1 285 -117q99 -116 99 -328t-100 -328t-286 -116q-187 0 -286 116q-98 116 -98 328t99 329q100 116 287 116z" glyph-name="uni2080" horiz-adv-x="913" unicode="₀"/><glyph d="M467 -307h-211v665l-156 -77l-86 137l252 135h201v-860z" glyph-name="uni2081" horiz-adv-x="583" unicode="₁"/><glyph d="M756 -133v-174h-699v90q0 117 77 201t207 159t149 91q51 45 51 80q0 34 -32 57t-91 22q-98 0 -242 -80l-94 133q180 121 346 121t247 -69q81 -70 81 -182t-102 -193q-54 -43 -86 -63t-103 -58q-150 -78 -150 -135h441z" glyph-name="uni2082" horiz-adv-x="831" unicode="₂"/><glyph d="M551 -49q0 109 -248 108h-43v177h49q205 0 205 90q0 68 -111 68t-237 -75l-86 132q150 117 356 116q143 0 216 -60t73 -151q0 -131 -147 -188q82 -25 134 -84t52 -137q0 -113 -81 -191t-265 -78t-379 113l94 143q145 -80 268 -79q68 -1 109 25t41 71z" glyph-name="uni2083" horiz-adv-x="829" unicode="₃"/><glyph d="M518 25v362l-256 -362h256zM43 -150v146l406 557h282v-528h135v-175h-135v-157h-213v157h-475z" glyph-name="uni2084" horiz-adv-x="917" unicode="₄"/><glyph d="M727 553v-174h-405l-11 -137q57 18 127 18q156 0 241 -83t85 -205t-90 -208t-261 -86t-360 113l94 152q115 -84 238 -84q72 1 117 31t45 81t-41 86t-122 35t-171 -47l-117 74l49 434h582z" glyph-name="uni2085" horiz-adv-x="829" unicode="₅"/><glyph d="M444 92q-113 0 -163 -69q2 -87 48 -131q47 -44 117 -44t108 37t38 87t-39 85t-109 35zM608 397q-106 0 -188 -52t-117 -161q82 64 210 64t209 -75t81 -197t-96 -210t-271 -88t-272 109q-96 109 -96 270q0 221 149 366q150 144 389 144q83 0 139 -14l-47 -164q-41 8 -90 8 z" glyph-name="uni2086" horiz-adv-x="860" unicode="₆"/><glyph d="M147 -307q0 106 54 258t197 346q40 53 65 82h-418v174h647v-162q-208 -243 -291 -499q-35 -108 -34 -199h-220z" glyph-name="uni2087" horiz-adv-x="724" unicode="₇"/><glyph d="M324 334q0 -59 116 -105q117 45 117 105q0 32 -33 56t-85 24q-51 0 -83 -24t-32 -56zM604 -57q0 78 -166 139q-164 -61 -164 -139q0 -45 48 -75t118 -30q72 0 118 30t46 75zM59 -74q0 154 197 236q-139 82 -139 185t86 161q85 58 237 59q152 0 238 -58t86 -164t-141 -183 q197 -86 196 -236q0 -116 -101 -182q-100 -66 -278 -66t-280 66t-101 182z" glyph-name="uni2088" horiz-adv-x="878" unicode="₈"/><glyph d="M412 154q113 0 166 67q-2 90 -50 133t-118 43t-107 -37t-37 -88q0 -50 38 -84t108 -34zM248 -152q104 0 187 52t120 161q-86 -63 -212 -63t-207 75t-81 197q1 122 97 210q96 87 270 87q174 1 271 -109t98 -272q0 -219 -150 -363t-391 -145q-77 0 -137 15l49 164 q39 -9 86 -9z" glyph-name="uni2089" horiz-adv-x="858" unicode="₉"/><glyph d="M96 -172v586q0 156 38 196q17 18 57 47t198 66l51 -111q-92 -30 -112 -56t-21 -91v-688q1 -67 21 -93t112 -55l-51 -112q-157 35 -197 64q-41 30 -65 55t-27 81q-4 56 -4 111z" glyph-name="uni208D" horiz-adv-x="483" unicode="₍"/><glyph d="M389 414v-586q0 -80 -5 -116t-33 -79t-88 -69t-167 -47l-53 112q92 29 113 56q20 27 20 92v688q0 65 -20 91t-113 56l53 111q106 -23 166 -49t89 -68q28 -42 33 -78t5 -114z" glyph-name="uni208E" horiz-adv-x="483" unicode="₎"/><glyph d="M559 422q29 -10 57 -12l138 596q-18 6 -56 14zM403 716q0 -116 46 -196l114 494q-76 -26 -118 -104t-42 -194zM102 719q0 271 142 415t348 144q23 0 33 -2l37 158h133l-41 -177l55 -12l45 189h133l-53 -232q53 -20 147 -65l-120 -217q-6 2 -84 38l-123 -530q68 23 207 88 l120 -217q-233 -111 -389 -133l-37 -166h-133l37 158q-37 4 -59 8l-37 -166h-133l47 205q-125 59 -200 189t-75 325z" glyph-name="colonmonetary" horiz-adv-x="1163" unicode="₡"/><glyph d="M129 678v149h107q-84 147 -84 271q0 166 114 262q115 96 318 96q106 0 217 -32t168 -62t141 -78l-135 -199q-209 117 -336 117q-88 0 -134 -42t-46 -112t50 -145q36 -62 46 -76h397v-149h-327q12 -39 16 -100h311v-148h-338q-45 -117 -127 -176h600v-254h-981v207 q16 5 54 30q129 83 170 193h-201v148h219q-4 35 -29 100h-190z" glyph-name="lira" horiz-adv-x="1191" unicode="₤"/><glyph d="M752 760q233 0 270 147h-539v-147h269zM483 1180v-150h539q-37 150 -270 150h-269zM117 907v123h59v404h590q535 0 573 -404h56v-123h-56q-39 -399 -573 -399h-283v-508h-307v907h-59z" glyph-name="peseta" horiz-adv-x="1454" unicode="₧"/><glyph d="M596 840l94 -426l109 426h-203zM1350 840l108 -430l96 430h-204zM96 489v177h232l-49 174h-185v176h135l-116 418h350l94 -418h287l106 418h248l107 -418h288l93 418h350l-117 -418h133v-176h-182l-49 -174h231v-177h-280l-136 -489h-305l-256 991l-258 -991h-303 l-137 489h-281z" glyph-name="uni20A9" horiz-adv-x="2148" unicode="₩"/><glyph d="M82 782v158h141q47 256 200 386t374 130q154 0 297 -54t311 -153l-143 -225q-276 158 -431 158q-209 0 -282 -242h471v-158h-498q-2 -24 -2 -70t2 -71h498v-160h-467q78 -229 278 -229q154 0 431 158l143 -226q-168 -98 -311 -152t-297 -55q-219 0 -371 127t-201 377 h-143v160h125q-2 25 -2 72t2 69h-125z" glyph-name="Euro" horiz-adv-x="1488" unicode="€"/><glyph d="M1579 303v174h700v-174h-700zM2101 991q0 113 -41 167t-133 54q-172 0 -172 -221q0 -113 41 -167t132 -54t132 54t41 167zM2361 990q1 -204 -111 -314t-322 -109q-210 0 -322 110q-112 109 -113 313q0 204 113 315q114 111 322 111t321 -111q112 -111 112 -315zM467 0 h-305v1434h311l600 -977v977h307v-1434h-311l-602 977v-977z" glyph-name="afii61352" horiz-adv-x="2447" unicode="№"/><glyph d="M174 717q0 -289 172 -475t476 -186t477 186t174 475t-173 475t-478 186t-476 -186t-172 -475zM92 717q0 323 195 531t537 208t535 -209t193 -531t-194 -530q-194 -209 -535 -209q-343 0 -537 209t-194 531zM1081 885q0 176 -194 176h-187v-352h187q194 0 194 176z M885 1147q299 0 299 -263t-299 -263h-185v-336h-102v862h287z" glyph-name="uni2117" horiz-adv-x="1642" unicode="℗"/><glyph d="M334 967q-111 0 -238 67l54 80q106 -49 196 -49t90 37q0 16 -22 24q-23 8 -76 20t-86 21q-143 43 -143 133q0 62 52 102t149 40t227 -58l-56 -79q-100 39 -175 39t-75 -35q1 -17 19 -25t72 -20t84 -19q154 -45 153 -137q0 -61 -57 -101t-168 -40zM1057 975v280l-117 -204 h-76l-119 209v-285h-120v459h127l149 -263l152 263h127v-459h-123z" glyph-name="uni2120" horiz-adv-x="1306" unicode="℠"/><glyph d="M559 1333h-162v-358h-123v358h-157v101h442v-101zM1053 975v285l-119 -209h-74l-121 215v-291h-121v459h130l149 -263l150 263h127v-459h-121z" glyph-name="trademark" horiz-adv-x="1306" unicode="™"/><glyph d="M786 1456q336 0 511 -196t176 -500q0 -193 -76 -327t-178 -179h211v-254h-564v262q143 37 220 161t77 302q0 469 -376 469t-375 -469q0 -178 76 -301t221 -162v-262h-566v254h209q-100 45 -176 179t-76 327q0 304 175 500t511 196z" glyph-name="uni2126" horiz-adv-x="1574" unicode="Ω"/><glyph d="M1382 162q68 0 109 26t41 70q0 109 -250 109h-39v176h47q203 0 203 90q0 67 -110 67t-236 -73l-88 131q166 117 358 116q143 0 216 -60t73 -150q0 -131 -147 -189q82 -25 135 -85t53 -136q0 -113 -83 -191t-266 -78t-378 113l92 144q145 -80 270 -80zM1268 1434 l-674 -1434h-227l673 1434h228zM502 573h-211v666l-156 -78l-86 137l252 136h201v-861z" glyph-name="onethird" horiz-adv-x="1832" unicode="⅓"/><glyph d="M1640 162q70 0 111 26t41 70q0 109 -250 109h-39v176h47q203 0 203 90q1 67 -111 67t-235 -73l-88 131q166 117 356 116q143 0 216 -60t73 -150q0 -133 -147 -189q84 -25 137 -85t53 -136q0 -112 -83 -190t-263 -78t-383 112l94 144q145 -80 268 -80zM1528 1434 l-676 -1434h-225l673 1434h228zM782 748v-175h-696v91q0 117 79 203t247 184q155 86 155 138q1 41 -31 63t-92 22q-102 0 -239 -80l-94 133q176 121 344 121q167 0 247 -70t80 -182t-101 -192q-54 -42 -86 -62t-103 -59q-150 -78 -150 -135h440z" glyph-name="twothirds" horiz-adv-x="2080" unicode="⅔"/><glyph d="M1270 641q0 -59 116 -104q117 45 117 104q0 31 -33 55t-85 25q-51 -1 -83 -25t-32 -55zM1550 250q0 78 -166 139q-164 -61 -163 -139q0 -45 47 -75q46 -30 118 -30t118 30t46 75zM502 573h-211v666l-156 -78l-86 137l252 136h201v-861zM1268 1434l-674 -1434h-227 l673 1434h228zM1006 233q0 154 196 236q-139 81 -139 185t86 162q85 58 237 58t238 -58t86 -162t-141 -185q197 -84 196 -236q0 -115 -101 -181q-100 -66 -278 -66t-279 66t-101 181z" glyph-name="oneeighth" horiz-adv-x="1845" unicode="⅛"/><glyph d="M1470 641q0 -59 117 -104q117 45 117 104q0 31 -32 55t-85 25q-53 -1 -85 -25t-32 -55zM1753 250q0 78 -166 139q-166 -61 -166 -139q0 -45 47 -75t120 -30t119 29t46 76zM1468 1434l-673 -1434h-228l674 1434h227zM432 735q68 0 108 26t40 70q0 109 -248 109h-41v176h47 q205 0 205 90q1 68 -107 68t-241 -74l-84 131q150 117 354 117q143 0 217 -60t74 -151q0 -131 -148 -188q82 -23 134 -83t52 -156t-81 -174q-82 -78 -262 -77q-180 0 -383 113l94 143q145 -80 270 -80zM1208 233q0 154 197 236q-141 81 -141 185t86 162t238 58t237 -58 q86 -58 86 -162t-139 -185q197 -84 196 -236q0 -115 -101 -181t-279 -66t-278 66q-102 66 -102 181z" glyph-name="threeeighths" horiz-adv-x="2039" unicode="⅜"/><glyph d="M1438 641q0 -59 116 -104q117 45 117 104q0 31 -32 55t-84 25q-53 -1 -85 -25t-32 -55zM1720 250q0 78 -168 139q-162 -61 -161 -139q0 -45 46 -75q45 -30 117 -30t119 30t47 75zM1438 1434l-676 -1434h-225l673 1434h228zM748 1434v-174h-406l-10 -138q59 18 127 19 q157 0 241 -83t84 -205t-90 -208t-261 -86t-359 113l94 151q115 -84 238 -84q72 0 116 31t45 82q0 51 -41 86q-42 35 -122 35t-171 -47l-116 73l49 435h582zM1174 233q0 154 196 236q-139 81 -139 185t86 162q85 58 237 58t238 -58t86 -164t-141 -183q197 -86 196 -236 q0 -115 -100 -181q-101 -66 -279 -66t-279 66t-101 181z" glyph-name="fiveeighths" horiz-adv-x="2007" unicode="⅝"/><glyph d="M1249 641q0 -59 117 -104q117 45 117 104q0 31 -32 55t-84 25q-52 -1 -85 -25t-33 -55zM1532 250q0 78 -166 139q-164 -61 -164 -139q0 -45 46 -75t119 -30t119 29t46 76zM385 573h-219q0 107 43 229q79 225 272 458h-418v174h646v-162q-205 -239 -289 -499 q-35 -108 -35 -200zM1249 1434l-674 -1434h-227l674 1434h227zM987 233q0 154 197 236q-142 81 -142 185t86 162t238 58t238 -58t86 -162t-140 -185q197 -84 197 -236q0 -115 -101 -181q-100 -66 -278 -66t-280 66t-101 181z" glyph-name="seveneighths" horiz-adv-x="1818" unicode="⅞"/><glyph d="M387 475q0 -119 66 -195q67 -76 201 -75t200 75t66 196t-65 197t-201 75t-202 -77t-65 -196zM391 1200q-87 0 -147 -12l-21 -4l-37 227q82 23 213 23q381 0 599 -239t219 -601q0 -303 -156 -460t-420 -157q-265 -1 -413 135t-148 362t137 364t334 137q237 0 358 -141 q-43 158 -178 262t-340 104z" glyph-name="partialdiff" horiz-adv-x="1314" unicode="∂"/><glyph d="M1098 254l-344 876l-348 -876h692zM1462 0h-1417l545 1434h323z" glyph-name="uni2206" horiz-adv-x="1509" unicode="∆"/><glyph d="M1427 1434v-254h-194v-1180h-307v1180h-365v-1180h-307v1180h-193v254h1366z" glyph-name="product" horiz-adv-x="1488" unicode="∏"/><glyph d="M82 1434h1036v-254h-590l457 -463l-457 -463h590v-254h-1036v145l547 572l-547 573v144z" glyph-name="summation" horiz-adv-x="1220" unicode="∑"/><glyph d="M125 571v224h1053v-224h-1053z" glyph-name="minus" unicode="−"/><glyph d="M1309 1434l-602 -1434h-328l-361 696h316l201 -405l462 1143h312z" glyph-name="radical" horiz-adv-x="1302" unicode="√"/><glyph d="M324 528q0 -70 51 -116t129 -45q78 0 141 39t158 122q-101 88 -163 125t-139 37t-127 -46t-50 -116zM1375 690q-77 0 -138 -37t-160 -127q89 -84 153 -122t143 -38t131 47q52 45 52 115t-52 116t-129 46zM481 887q129 -1 231 -59t228 -173q123 115 224 173t253 58 t256 -100q105 -100 105 -258t-104 -258t-279 -100q-123 0 -223 56t-232 177q-131 -119 -232 -176t-227 -57q-172 0 -276 101t-105 257q0 156 104 258t277 101z" glyph-name="infinity" horiz-adv-x="1880" unicode="∞"/><glyph d="M252 184v1092q0 250 112 346t394 96h33v-170h-43q-102 0 -148 -62q-41 -55 -41 -245v-1091q0 -252 -112 -348t-394 -95h-33v170h43q101 0 148 63q41 55 41 244z" glyph-name="integral" horiz-adv-x="811" unicode="∫"/><glyph d="M442 680q94 0 228 -67t191 -67q58 0 95 24t76 94l150 -58q-115 -264 -316 -264q-88 0 -226 67t-206 66q-88 0 -158 -119l-149 60q117 264 315 264zM442 1063q94 0 228 -66q134 -65 191 -65q58 0 95 24t76 93l150 -60q-117 -262 -316 -262q-88 0 -226 66q-138 65 -194 65 t-93 -24q-36 -24 -77 -93l-149 60q117 262 315 262z" glyph-name="approxequal" unicode="≈"/><glyph d="M125 768v223h543l125 293l188 -72l-94 -221h291v-223h-385l-72 -166h457v-223h-551l-123 -293l-187 72l93 221h-285v223h379l69 166h-448z" glyph-name="notequal" unicode="≠"/><glyph d="M115 0v193h1052v-193h-1052zM1167 930l-678 -219l678 -219v-248l-1052 381v176l1052 381v-252z" glyph-name="lessequal" unicode="≤"/><glyph d="M1190 193v-193h-1053v193h1053zM1190 801v-176l-1053 -381v248l676 219l-676 219v252z" glyph-name="greaterequal" unicode="≥"/><glyph d="M410 956h131v117q0 47 -39 82t-93 35q-53 0 -93 -34t-40 -83t38 -83t96 -34zM1047 1073v-117h131q55 0 94 34t39 82t-40 83t-94 35t-92 -35t-38 -82zM713 788v-137h161v137h-161zM541 483h-131q-55 0 -95 -33q-39 -34 -39 -83t38 -83t94 -34t94 34q39 34 39 83v116z M1178 483h-131v-116q-1 -49 37 -83t94 -34t94 34q39 34 39 82t-40 82t-93 35zM1179 82q-126 0 -215 83t-90 202v116h-161v-116q0 -119 -89 -202t-215 -83t-215 83t-90 202q0 119 90 201t216 83h131v137h-131q-127 0 -216 84q-90 84 -90 202t90 201t215 83q126 0 215 -83 t89 -202v-117h161v117q0 119 90 202t215 83q126 0 215 -83t89 -201t-89 -202t-216 -84h-131v-137h131q127 0 216 -83q89 -84 89 -202t-89 -201t-215 -83z" glyph-name="uni2318" horiz-adv-x="1591" unicode="⌘"/><glyph d="M852 717l-256 471l-254 -471l254 -471zM750 0h-308l-383 717l383 717h308l387 -717z" glyph-name="lozenge" horiz-adv-x="1193" unicode="◊"/><glyph d="M12 -362v245h226l16 -270l-188 -219l-62 74l109 170h-101z" glyph-name="uniF6C3" horiz-adv-x="256" unicode=""/><glyph d="M270 123q0 -121 84 -154v307q-84 -32 -84 -153zM502 -307h-148v96q-125 6 -208 91t-83 244t83 244t208 89v96h148v-111q86 -20 188 -67l-84 -148q-72 31 -104 41v-291q33 10 104 41l84 -149q-119 -49 -188 -66v-110z" glyph-name="uniF6DF" horiz-adv-x="747" unicode=""/><glyph d="M272 1219q0 -121 84 -156v309q-84 -32 -84 -153zM504 788h-148v95q-125 6 -208 92q-82 86 -82 245q0 160 82 244t208 88v97h148v-111q86 -20 188 -68l-84 -147q-72 31 -104 41v-293q16 4 104 43l84 -149q-119 -49 -188 -66v-111z" glyph-name="uniF6E0" horiz-adv-x="747" unicode=""/><glyph d="M92 -307v221h207l16 -248l-170 -180l-55 68l96 139h-94z" glyph-name="uniF6E1" horiz-adv-x="399" unicode=""/><glyph d="M94 788v222h207l16 -248l-170 -180l-55 67l96 139h-94z" glyph-name="uniF6E2" horiz-adv-x="401" unicode=""/><glyph d="M287 324q0 -43 69 -70v133q-69 -14 -69 -63zM582 -76q0 47 -78 74v-141q78 14 78 67zM504 -430h-148v119q-168 25 -311 110l94 150q102 -55 217 -82v174q-148 43 -219 107q-71 63 -71 164t76 172q77 71 214 81v113h148v-119q150 -25 272 -84l-94 -151q-102 41 -178 57 v-170l59 -18q178 -65 220 -153q22 -44 22 -101q0 -107 -81 -179t-220 -79v-111z" glyph-name="uniF6E3" horiz-adv-x="851" unicode=""/><glyph d="M287 1419q0 -43 69 -69v133q-69 -15 -69 -64zM582 1020q0 43 -78 74v-142q78 15 78 68zM504 666h-148v116q-178 29 -311 113l94 149q98 -57 217 -83v176q-148 43 -219 106t-71 165t76 172q77 71 214 81v113h148v-119q150 -25 272 -84l-94 -152q-102 41 -178 58v-170 l59 -19q178 -65 220 -152q22 -44 22 -102q0 -108 -81 -180t-220 -80v-108z" glyph-name="uniF6E4" horiz-adv-x="851" unicode=""/><glyph d="M92 -307v221h207v-221h-207z" glyph-name="uniF6E7" horiz-adv-x="393" unicode=""/><glyph d="M92 788v222h207v-222h-207z" glyph-name="uniF6E8" horiz-adv-x="393" unicode=""/><glyph d="M254 1006q0 -76 92 -76t172 59v78q-123 20 -149 20q-115 0 -115 -81zM518 788v72q-102 -86 -220 -86t-185 60q-66 60 -66 155t70 151t182 56q53 0 219 -29v39q0 49 -25 69q-26 19 -104 19t-233 -45l-64 137q203 62 349 62t214 -58t68 -194v-408h-205z" glyph-name="uniF6E9" horiz-adv-x="808" unicode=""/><glyph d="M461 1286q-92 0 -162 -76v-200q72 -74 162 -74q121 0 121 175t-121 175zM94 788v895h205v-317q109 82 227 82t189 -87t71 -250t-72 -250t-188 -87q-117 0 -227 80v-66h-205z" glyph-name="uniF6EA" horiz-adv-x="841" unicode=""/><glyph d="M383 936q86 0 160 74v200q-74 76 -160 76q-121 0 -121 -175t121 -175zM748 788h-205v66q-111 -80 -228 -80t-189 87t-71 250q0 163 72 250q71 87 187 87t229 -82v317h205v-895z" glyph-name="uniF6EB" horiz-adv-x="841" unicode=""/><glyph d="M395 1305q-113 0 -131 -131h258q-4 131 -127 131zM401 924q90 0 250 75l74 -125q-193 -100 -341 -100t-240 84q-91 84 -91 247t91 253t251 90t243 -79t83 -208l-10 -92h-449q16 -145 139 -145z" glyph-name="uniF6EC" horiz-adv-x="782" unicode=""/><glyph d="M90 1516v165h213v-165h-213zM299 788h-205v646h205v-646z" glyph-name="uniF6ED" horiz-adv-x="391" unicode=""/><glyph d="M297 788h-203v895h203v-895z" glyph-name="uniF6EE" horiz-adv-x="391" unicode=""/><glyph d="M299 1434v-80q109 94 241 94t175 -107q117 106 243 107q203 0 203 -207v-453h-205v406q0 47 -15 72t-60 24q-76 0 -150 -73v-429h-205v406q0 96 -76 96t-151 -76v-426h-205v646h205z" glyph-name="uniF6EF" horiz-adv-x="1247" unicode=""/><glyph d="M561 1111q1 181 -151 181t-152 -181t152 -181t151 181zM766 1111q0 -161 -92 -249t-264 -88t-265 89q-92 89 -92 249t92 248q93 88 265 88t264 -88t92 -249z" glyph-name="uniF6F0" horiz-adv-x="821" unicode=""/><glyph d="M299 1434v-136q13 39 54 78q76 74 198 66v-191q-63 1 -113 -21t-86 -66q-37 -44 -49 -99l-4 -21v-256h-205v646h205z" glyph-name="uniF6F1" horiz-adv-x="579" unicode=""/><glyph d="M678 973q0 -91 -74 -145t-203 -54q-188 0 -356 86l82 144q152 -74 249 -74t97 37q0 17 -15 25l-27 13q-23 10 -72 21q-50 10 -64 14q-238 57 -238 209q0 87 71 143q70 56 210 56t311 -72l-82 -133q-139 51 -223 51t-84 -39q0 -25 35 -35t80 -20l63 -14q240 -57 240 -213z " glyph-name="uniF6F2" horiz-adv-x="724" unicode=""/><glyph d="M35 1286v148h92v161l207 25v-186h180v-148h-180v-276q0 -59 53 -60q16 0 102 29l70 -150q-117 -55 -225 -55q-207 0 -207 236v276h-92z" glyph-name="uniF6F3" horiz-adv-x="587" unicode=""/><glyph d="M745 254q141 0 277 107q135 108 214 261t79 285q0 63 -41 101q25 -37 24 -84q0 -211 -174 -430q-188 -231 -401 -232q-59 0 -100 19q40 -27 122 -27zM946 -20q-12 0 -20 16l-35 61q-20 41 -47 0l-31 -61q-8 -16 -20 -16t-17 20l-20 68q-12 43 -45 10l-47 -55 q-29 -31 -35 12l-4 69q-1 20 -15 26t-30 -5l-54 -43q-16 -12 -26 -7t-6 25l10 68q2 20 -10 30t-31 -1l-62 -31q-18 -8 -26 -1t0 25l22 68q8 18 -2 30t-28 5l-70 -19q-21 -4 -27 6t4 25l39 62q10 16 4 28t-26 13l-72 -5q-20 1 -24 11t8 24l51 49q12 15 8 29t-24 16l-68 13 q-14 2 -24 12t16 25l57 41q2 2 5 4t5 4l2 4q18 16 37 -12l33 -64q10 -18 21 -16q10 2 16 20l18 70q8 24 23 21q14 -3 22 -13l48 -53q30 -30 34 12l4 70q9 44 43 18l58 -43q16 -12 25 -7t5 26l-8 69q-2 21 10 29t27 -2l64 -29q18 -8 26 -1t2 26l-22 67q-8 19 1 29t27 4l15 -2 q40 -78 70 -203t30 -217q-29 -37 -94 -37h-8q0 45 -33 72q18 -20 18 -55v-15q-33 2 -33 42t-27 69q-28 29 -73 29q-44 0 -72 -32t-28 -85t50 -90t138 -37q139 0 276 108q136 109 215 261t79 284q0 58 -37 98t-89 40t-90 -34t-38 -85q0 -106 119 -119q-31 -123 -60 -174 q-27 209 -119 307q90 -119 107 -330l-29 -41q0 156 -51 287t-131 172q-12 23 24 31l70 12q26 4 20 21q-3 8 -14 14l-59 39q-35 31 6 47l64 29q31 9 19 25q-5 7 -19 11l-64 27q-23 10 -20 29q12 6 14 16l35 62q10 18 21 17t16 -19l20 -68q14 -47 45 -10l47 53q13 16 23 13 t12 -23l4 -72q2 -19 15 -25t28 7l57 43q14 12 24 6t7 -27l-10 -70q-2 -20 10 -28t29 2l63 33q19 8 27 0t0 -29l-23 -64q-7 -20 3 -30t28 -4l70 14q20 6 26 -2t-4 -27l-37 -59q-12 -15 -6 -29t27 -12l72 4q20 0 24 -10t-8 -25l-49 -53q-14 -14 -10 -28t24 -15l70 -12 q41 -10 6 -39l-57 -39q-16 -9 -16 -23t22 -22l63 -27q18 -8 19 -18q0 -10 -19 -19l-63 -26q-18 -8 -20 -22t14 -25l57 -41q16 -10 15 -22t-21 -15l-70 -13q-20 -2 -24 -16t10 -29l49 -49q12 -14 8 -24t-24 -11l-72 5q-20 0 -26 -12t5 -29l37 -62q10 -16 4 -25t-26 -6l-70 19 q-18 6 -27 -5t-4 -30l23 -68q8 -18 0 -25t-27 1l-63 31q-16 10 -28 1t-11 -30l10 -68q2 -20 -6 -25t-25 7l-57 43q-17 12 -29 6t-14 -27l-4 -69q-2 -19 -12 -23t-23 11l-47 55q-33 33 -45 -10l-20 -68q-5 -20 -17 -20z" glyph-name="uniF8FF" horiz-adv-x="1755" unicode=""/><glyph d="M1137 858v217h147v45q0 119 -47 179q-47 61 -149 61t-159 -56q-59 -56 -59 -144t25 -140q18 -6 94 -39l-115 -193q-211 86 -358 86q-66 0 -104 -24t-39 -62q-1 -37 25 -54q54 -36 143 -57q88 -21 112 -28q175 -43 279 -124t104 -229t-116 -233q-116 -86 -316 -86 q-145 0 -297 42t-252 98l117 207q92 -45 215 -83t198 -38q75 1 115 25t39 63q0 39 -42 64q-42 26 -118 47q-77 21 -143 37q-135 34 -236 102q-122 82 -122 232t110 238q111 87 308 87q123 0 247 -33q-14 43 -14 102q1 145 107 235t306 91q200 0 318 -104q117 -104 117 -291 v-23h293v-217h-293v-522q0 -62 25 -82q26 -20 74 -20t163 49l103 -220q-188 -86 -349 -86q-309 0 -309 363v518h-147z" glyph-name="uniFB06" horiz-adv-x="1947" unicode="ﬆ"/><glyph d="M326 1214q0 -59 116 -104q117 45 117 104q0 31 -33 56q-33 24 -85 24t-84 -24q-31 -25 -31 -56zM606 823q0 78 -166 140q-164 -61 -164 -140q0 -45 48 -75t118 -29q72 -1 118 29t46 75zM61 807q0 154 197 235q-139 82 -139 186t86 162q85 58 237 58t238 -58t86 -164 t-141 -184q197 -86 196 -235q0 -115 -101 -181q-100 -66 -278 -67q-178 1 -280 67t-101 181z" glyph-name="eight.frac" horiz-adv-x="882"/><glyph d="M514 954q225 0 225 264t-225 265q-225 -1 -225 -265t225 -264zM514 1663q225 0 334 -123t108 -321q0 -299 -219 -402l137 -100l-139 -144l-221 201q-225 0 -334 123t-108 322q0 199 108 321t334 123z" glyph-name="Q.ordn" horiz-adv-x="1024"/><glyph d="M821 858v217h148v55q0 362 307 363q139 0 291 -68l-70 -215q-98 29 -141 29t-69 -20t-25 -80v-64h268v-217h-268v-858h-293v858h-148zM45 858v217h148v55q0 186 76 275q77 88 239 88t358 -84l-78 -211q-156 41 -204 41t-73 -20q-26 -20 -26 -80v-64h242v-217h-242v-858 h-292v858h-148z" glyph-name="f.calt_f.calt.liga" horiz-adv-x="1560"/><glyph d="M485 1118v-43h435v55q0 31 2 48q-262 41 -320 41q-117 -1 -117 -101zM45 858v217h148v35q0 362 344 363q199 0 452 -78q74 98 241 98t363 -84l-98 -211q-139 41 -185 41t-71 -20t-25 -80v-64h267v-217h-267v-858h-294v858h-435v-858h-292v858h-148z" glyph-name="f_f.ss01" horiz-adv-x="1511"/><glyph d="M920 1130q0 31 2 48q-262 41 -320 41q-117 0 -117 -101v-43h435v55zM2214 860q-150 0 -270 -137v-373q119 -135 270 -135q209 1 209 323t-209 322zM45 858v217h148v35q0 362 344 363q203 0 458 -80q89 100 263 100t391 -59v59h295v-537q172 142 360 142t304 -144 q114 -144 114 -416t-115 -416t-304 -144t-359 139v-117h-295v1196q-242 43 -320 43q-115 0 -115 -100v-64h267v-217h-267v-858h-294v858h-435v-858h-292v858h-148z" glyph-name="f_f_b.ss01" horiz-adv-x="2799"/><glyph d="M920 1130q0 31 2 48q-262 41 -320 41q-117 0 -117 -101v-43h435v55zM45 858v217h148v35q0 362 344 363q203 0 458 -80q89 100 263 100t391 -59v59h295v-545q217 150 415 150q322 0 322 -338v-760h-295v692q0 176 -141 176q-74 0 -158 -42t-143 -95v-731h-295v1196 q-242 43 -320 43q-115 0 -115 -100v-64h267v-217h-267v-858h-294v858h-435v-858h-292v858h-148z" glyph-name="f_f_h.ss01" horiz-adv-x="2799"/><glyph d="M920 1130q0 31 2 48q-262 41 -320 41q-117 0 -117 -101v-43h435v55zM45 858v217h148v35q0 362 344 363q205 0 460 -80q92 100 297 100t473 -84l-98 -213q-258 43 -326 43q-129 0 -129 -100v-64h666v-1075h-295v858h-371v-858h-294v858h-435v-858h-292v858h-148z" glyph-name="f_f_i.ss01" horiz-adv-x="2004"/><glyph d="M922 1130q0 31 2 48q-262 41 -320 41q-117 0 -117 -101v-43h435v55zM47 858v217h148v35q0 362 344 363q205 0 460 -80q92 100 297 100t473 -84l-98 -213q-258 43 -325 43q-129 0 -129 -100v-64h665v-1124q0 -91 -9 -121q-28 -94 -45 -112q-17 -17 -41 -42 q-23 -25 -55 -40q-127 -61 -288 -97l-96 213q94 31 139 50q45 18 69 52t28 60q3 26 3 92v852h-370v-858h-295v858h-435v-858h-292v858h-148z" glyph-name="f_f_j.ss01" horiz-adv-x="2004"/><glyph d="M920 1130q0 31 2 48q-262 41 -320 41q-117 0 -117 -101v-43h435v55zM45 858v217h148v35q0 362 344 363q203 0 458 -80q89 100 263 100t391 -59v59h295v-860l348 442h336l-363 -428l426 -647h-313l-291 438l-143 -170v-268h-295v1196q-242 43 -320 43q-115 0 -115 -100 v-64h267v-217h-267v-858h-294v858h-435v-858h-292v858h-148z" glyph-name="f_f_k.ss01" horiz-adv-x="2689"/><glyph d="M45 858v217h148v55q0 362 307 363q139 0 291 -68l-70 -215q-92 29 -138 29t-72 -20t-26 -80v-64h269v-217h-269v-858h-292v858h-148z" glyph-name="f.calt" horiz-adv-x="784"/><glyph d="M920 1130q0 31 2 48q-262 41 -320 41q-117 0 -117 -101v-43h435v55zM45 858v217h148v35q0 362 344 363q203 0 458 -80q89 100 263 100t391 -59v59h295v-1493h-295v1196q-242 43 -320 43q-115 0 -115 -100v-64h267v-217h-267v-858h-294v858h-435v-858h-292v858h-148z" glyph-name="f_f_l.ss01" horiz-adv-x="2082"/><glyph d="M918 1130q0 31 2 48q-225 41 -318 41q-117 0 -117 -101v-43h433v55zM45 858v217h148v35q0 362 344 363q190 0 450 -78q74 98 241 98t363 -84l-100 -211q-131 41 -181 41t-76 -20q-24 -20 -24 -80v-64h428v271l293 40v-311h293v-217h-293v-522q0 -62 26 -82q25 -20 73 -20 t163 49l103 -220q-188 -86 -346 -86q-311 0 -312 363v518h-428v-858h-292v858h-433v-858h-292v858h-148z" glyph-name="f_f_t.ss01" horiz-adv-x="2301"/><glyph d="M45 858v217h148v55q0 362 344 363q168 0 385 -59v59h295v-545q217 150 415 150q322 0 322 -338v-760h-295v692q0 176 -141 176q-76 0 -159 -42t-142 -95v-731h-295v1196q-242 43 -320 43q-117 0 -117 -100v-64h269v-217h-269v-858h-292v858h-148z" glyph-name="f_h.ss01" horiz-adv-x="2072"/><glyph d="M340 1649l-64 -576h-122l-62 576h248zM113 788v201h209v-201h-209z" glyph-name="exclam.ordn" horiz-adv-x="432"/><glyph d="M45 858v217h148v55q0 362 356 363q223 0 491 -84l-98 -213q-258 43 -326 43q-131 0 -131 -100v-64h668v-1075h-295v858h-373v-858h-292v858h-148z" glyph-name="f_i.ss01" horiz-adv-x="1277"/><glyph d="M47 858v217h148v55q0 362 356 363q223 0 491 -84l-98 -213q-258 43 -326 43q-131 0 -131 -100v-64h668v-1124q0 -91 -9 -121q-28 -94 -45 -112q-17 -17 -41 -42t-56 -40q-127 -61 -287 -97l-96 213q94 31 139 50q46 18 70 52t27 60t3 92v852h-373v-858h-292v858h-148z " glyph-name="f_j.ss01" horiz-adv-x="1277"/><glyph d="M45 858v217h148v55q0 362 344 363q168 0 385 -59v59h295v-860l348 442h336l-365 -428l428 -647h-313l-291 440l-143 -170v-270h-295v1196q-242 43 -320 43q-117 0 -117 -100v-64h269v-217h-269v-858h-292v858h-148z" glyph-name="f_k.ss01" horiz-adv-x="1959"/><glyph d="M338 553l-64 -576h-122l-62 576h248zM111 -307v201h208v-201h-208z" glyph-name="exclam.sinf" horiz-adv-x="428"/><glyph d="M45 858v217h148v55q0 362 344 363q168 0 385 -59v59h295v-1493h-295v1196q-242 43 -320 43q-117 0 -117 -100v-64h269v-217h-269v-858h-292v858h-148z" glyph-name="f_l.ss01" horiz-adv-x="1355"/><glyph d="M45 858v217h148v55q0 186 76 275q77 88 239 88t358 -84l-98 -211q-139 41 -185 41t-72 -20t-26 -80v-64h428v271l293 40v-311h293v-217h-293v-522q0 -102 90 -103q57 0 172 50l105 -220q-188 -86 -348 -86q-311 0 -312 363v518h-428v-858h-292v858h-148z" glyph-name="f_t.ss01" horiz-adv-x="1579"/><glyph d="M45 190v148h92v16q0 233 205 234q115 0 238 -53l-68 -144q-82 25 -117 25q-53 0 -53 -60v-18h166v-148h-166v-497h-205v497h-92z" glyph-name="f.sinf" horiz-adv-x="536"/><glyph d="M274 1364l64 -576h-248l62 576h122zM111 1448v201h208v-201h-208z" glyph-name="exclamdown.ordn" horiz-adv-x="430"/><glyph d="M727 860v-174h-405l-11 -137q57 18 129 18q156 0 240 -82q84 -83 84 -205t-90 -208t-261 -86t-360 112l94 152q121 -84 240 -84q70 0 116 31t46 82t-42 86t-123 35t-171 -48l-117 74l49 434h582z" glyph-name="five.dnom" horiz-adv-x="831"/><glyph d="M727 1434v-174h-405l-11 -138q57 18 129 19q156 0 240 -82t84 -205t-90 -209t-261 -86t-360 113l94 151q121 -84 240 -84q70 0 116 31t46 82t-42 86t-123 35t-171 -47l-117 73l49 435h582z" glyph-name="five.frac" horiz-adv-x="831"/><glyph d="M1092 1176v-254h-643l-19 -275q102 33 211 33q242 0 375 -137t133 -338t-142 -343t-414 -142t-542 176l135 221q203 -135 375 -135q119 0 198 61t79 159t-70 165q-70 65 -200 65t-281 -80l-168 103l78 721h895z" glyph-name="five.oldstyle" horiz-adv-x="1224"/><glyph d="M1171 1434v-254h-643l-18 -275q102 33 211 33q240 0 373 -137t133 -339q1 -202 -141 -343t-414 -141t-541 176l133 221q203 -135 377 -135q117 0 197 61t80 159t-71 165q-71 65 -200 65t-280 -80l-170 103l77 721h897z" glyph-name="five.tnum" horiz-adv-x="1382"/><glyph d="M274 268l64 -575h-248l62 575h122zM111 352v201h208v-201h-208z" glyph-name="exclamdown.sinf" horiz-adv-x="428"/><glyph d="M1233 522q0 -49 110 -86q111 35 111 86q0 30 -31 52t-79 22t-80 -24q-31 -24 -31 -50zM1495 205q0 39 -40 67t-112 52q-71 -27 -111 -54q-40 -28 -40 -66t44 -64t108 -26t108 26q43 26 43 65zM1239 1176l-588 -1176h-182l590 1176h180zM647 1176v-140h-352l-10 -118 q55 16 114 16q135 0 208 -68t73 -167t-78 -170t-226 -71t-302 91l76 121q98 -68 208 -68q63 0 106 27q42 27 42 71t-38 72q-38 29 -111 29t-150 -39l-96 57l45 357h491zM1018 190q0 123 172 195q-123 63 -123 149t75 135q75 48 203 48q127 0 201 -48t74 -134t-123 -150 q172 -72 172 -195q0 -92 -87 -147q-88 -55 -238 -55t-238 55t-88 147z" glyph-name="fiveeighths.aalt" horiz-adv-x="1738"/><glyph d="M356 786l84 -786h-329l84 786h161zM135 901v275h281v-275h-281z" glyph-name="exclamdown.sc" horiz-adv-x="552"/><glyph d="M1513 399q-113 0 -163 -69q2 -88 49 -131t117 -43t108 37q39 37 39 87t-40 84t-110 35zM1438 1434l-676 -1434h-225l673 1434h228zM748 1434v-174h-406l-10 -138q59 18 127 19q157 0 241 -83t84 -205t-90 -208t-261 -86t-359 113l94 151q115 -84 238 -84q72 0 116 31 t45 82q0 51 -41 86q-42 35 -122 35t-171 -47l-116 73l49 435h582zM1677 705q-104 -1 -187 -53t-118 -160q86 63 212 63t207 -75q81 -76 81 -198t-96 -209t-271 -87t-272 108q-96 109 -96 271q0 221 149 365q150 144 389 144q80 0 140 -14l-48 -164q-41 9 -90 9z" glyph-name="glyph477" horiz-adv-x="1951"/><glyph d="M1311 332q-104 0 -154 -64q2 -72 45 -108t109 -35q67 0 101 31q34 32 34 74t-36 72t-99 30zM1239 1176l-588 -1176h-182l590 1176h180zM647 1176v-140h-352l-10 -118q55 16 114 16q135 0 208 -68t73 -167t-78 -170t-226 -71t-302 91l76 121q98 -68 208 -68q63 0 106 27 q42 27 42 71t-38 72q-38 29 -111 29t-150 -39l-96 57l45 357h491zM1448 582q-94 0 -169 -45t-105 -136q78 53 190 53t182 -60q70 -62 70 -162t-83 -172t-231 -72t-233 89q-84 89 -84 222q0 182 128 300t333 118q80 0 119 -12l-37 -130q-37 7 -80 7z" glyph-name="glyph478" horiz-adv-x="1689"/><glyph d="M440 1176l-84 -787h-161l-84 787h329zM135 0v274h281v-274h-281z" glyph-name="exclam.sc" horiz-adv-x="550"/><glyph d="M395 209q-113 0 -131 -131h258q-4 131 -127 131zM401 -172q90 0 250 76l74 -125q-193 -101 -341 -101t-240 84q-91 84 -91 247t91 253t251 90t243 -79t83 -207l-10 -93h-449q16 -145 139 -145z" glyph-name="e.sinf" horiz-adv-x="780"/><glyph d="M489 1075q0 -117 201 -194q203 78 203 194q0 61 -56 109q-57 48 -147 47q-90 1 -146 -47t-55 -109zM691 211q122 1 201 55t79 141t-75 146t-206 111q-129 -50 -204 -110q-74 -60 -74 -147t78 -142q79 -54 201 -54zM100 385q0 252 320 395q-229 127 -230 324 q0 158 134 255t366 97q234 0 368 -97t134 -255q0 -193 -231 -324q319 -143 319 -395q0 -188 -158 -298t-432 -110t-432 110t-158 298z" glyph-name="eight.tnum" horiz-adv-x="1382"/><glyph d="M518 332v362l-256 -362h256zM41 158v145l405 557h283v-528h137v-174h-137v-158h-211v158h-477z" glyph-name="four.dnom" horiz-adv-x="915"/><glyph d="M518 905v363l-256 -363h256zM41 731v146l405 557h283v-529h137v-174h-137v-158h-211v158h-477z" glyph-name="four.frac" horiz-adv-x="915"/><glyph d="M797 272v652l-441 -652h441zM43 18v215l655 943h404v-904h217v-254h-217v-276h-305v276h-754z" glyph-name="four.oldstyle" horiz-adv-x="1372"/><glyph d="M803 530v654l-443 -654h443zM61 276v216l654 942h387v-904h205v-254h-205v-276h-299v276h-742z" glyph-name="four.tnum" horiz-adv-x="1382"/><glyph d="M535 905v363l-256 -363h256zM1556 1434l-673 -1434h-228l674 1434h227zM2005 860v-174h-408l-8 -135q61 16 127 16q156 0 240 -82q84 -83 84 -205t-91 -208t-263 -86t-355 112l90 152q127 -84 240 -84q70 0 117 31t47 82t-42 86t-123 35t-171 -48l-115 74l47 434h584z M59 731v146l406 557h280v-529h138v-174h-138v-158h-210v158h-476z" glyph-name="glyph486" horiz-adv-x="2127"/><glyph d="M475 737v312l-235 -312h235zM1341 1176l-587 -1176h-183l588 1176h182zM1724 705v-138h-354l-10 -121q55 16 117 17q135 0 207 -67t71 -167q0 -100 -77 -171q-77 -70 -222 -70t-305 92l76 119q98 -68 207 -68q63 0 106 27q43 26 43 70t-39 73q-40 29 -114 29t-148 -39 l-94 59l41 355h495zM61 602v115l357 459h227v-439h119v-135h-119v-131h-170v131h-414z" glyph-name="glyph487" horiz-adv-x="1841"/><glyph d="M465 1075q0 -117 201 -194q203 78 202 194q0 61 -56 109t-146 47q-90 0 -146 -47q-55 -48 -55 -109zM387 407q0 -87 79 -141t201 -55q123 1 201 55t78 141t-75 146t-205 111q-129 -50 -204 -110t-75 -147zM76 385q0 252 319 395q-229 127 -229 324q0 158 133 255t367 97 t367 -97q134 -97 134 -255q0 -195 -231 -324q319 -145 319 -395q1 -188 -157 -298t-432 -110t-433 110q-157 110 -157 298z" glyph-name="eight.oldstyle" horiz-adv-x="1331"/><glyph d="M326 641q0 -59 116 -104q117 45 117 104q0 31 -33 55t-85 25q-51 -1 -83 -25t-32 -55zM606 250q0 78 -164 139q-166 -61 -166 -139q0 -45 48 -75t118 -30q72 0 118 30t46 75zM61 233q0 154 197 236q-139 81 -139 185t86 162q85 58 237 58t238 -58t86 -164t-141 -183 q197 -86 196 -236q0 -115 -101 -181q-100 -66 -278 -66t-280 66t-101 181z" glyph-name="eight.dnom" horiz-adv-x="882"/><glyph d="M406 864q0 -61 106 -98v188q-106 -18 -106 -90zM825 315q0 63 -116 105v-201q116 22 116 96zM709 -168h-197v162q-229 33 -430 149l125 201q141 -76 305 -113v246q-197 66 -301 144t-103 223t108 240q108 95 296 108v154h197v-164q199 -29 374 -113l-127 -205 q-131 55 -247 80v-235l75 -25q246 -88 309 -211q30 -59 29 -137q0 -147 -111 -244q-112 -96 -302 -108v-152z" glyph-name="dollar.oldstyle" horiz-adv-x="1204"/><glyph d="M84 219v174h135v1041h1008v-260h-703v-330h555v-256h-555v-195h369v-174h-369v-219h-305v219h-135z" glyph-name="glyph491" horiz-adv-x="1294"/><glyph d="M82 168v158h117v850h891v-240h-607v-234h478v-231h-478v-145h320v-158h-320v-168h-284v168h-117z" glyph-name="glyph492" horiz-adv-x="1159"/><glyph d="M61 -184v114h84v623h652v-176h-437v-168h347v-174h-347v-105h234v-114h-234v-123h-215v123h-84z" glyph-name="glyph493" horiz-adv-x="845"/><glyph d="M61 911v115h84v623h652v-176h-437v-168h347v-175h-347v-104h234v-115h-234v-123h-215v123h-84z" glyph-name="glyph494" horiz-adv-x="847"/><glyph d="M45 1286v148h92v16q0 233 205 233q115 0 238 -53l-68 -143q-82 25 -117 24q-53 0 -53 -59v-18h166v-148h-166v-498h-205v498h-92z" glyph-name="f.ordn" horiz-adv-x="536"/><glyph d="M383 -160q86 0 160 76v199q-74 76 -160 75q-121 0 -121 -175t121 -175zM748 -307h-205v67q-113 -82 -229 -82t-188 88t-71 250q0 162 72 249q71 87 187 87t229 -82v318h205v-895z" glyph-name="d.sinf" horiz-adv-x="841"/><glyph d="M396 1274q-62 0 -98 -44t-36 -119t36 -119t102 -44t188 58l82 -148q-174 -84 -305 -84t-222 86q-90 86 -90 252t90 251q89 85 221 85t306 -84l-82 -147q-130 57 -192 57z" glyph-name="c.ordn" horiz-adv-x="710"/><glyph d="M156 588q0 -238 143 -390t397 -153q254 0 399 153q144 152 144 390t-144 390q-145 152 -399 152t-397 -152t-143 -390zM86 588q0 264 163 435t449 171t446 -171q161 -171 161 -435t-161 -435t-447 -171q-287 0 -449 171t-162 435zM696 297q104 0 222 88l53 -59 q-154 -104 -283 -104t-215 95t-86 269t86 270t215 96t283 -104l-53 -60q-122 90 -224 90t-160 -80q-58 -81 -58 -212t58 -210t162 -79z" glyph-name="copyright.aalt" horiz-adv-x="1390"/><glyph d="M104 788v222h209v-222h-209zM104 1163v221h209v-221h-209z" glyph-name="colon.ordn" horiz-adv-x="417"/><glyph d="M279 1219q0 -51 18 -93l57 244q-75 -38 -75 -151zM369 1061q16 -6 34 -6l78 317q-10 4 -35 8zM70 1219q0 167 89 251t222 84h18l23 95h90l-27 -107q25 -4 35 -8l29 115h88l-35 -140l94 -39l-82 -147l-51 20l-67 -276q29 8 118 47l82 -149q-133 -61 -243 -78l-25 -99h-90 l22 95l-34 4l-23 -99h-88l29 121q-174 78 -174 310z" glyph-name="colonmonetary.ordn" horiz-adv-x="755"/><glyph d="M496 567q209 0 305 -80t96 -202v-4l-92 -129q-113 47 -176 47t-64 -37q0 -31 55 -48q33 -11 85 -24t100 -36q49 -23 86 -69t37 -123t-67 -130t-185 -54q-172 0 -330 86l80 144q45 -28 116 -50t125 -22t54 37q0 28 -59 45q-14 4 -44 12q-194 51 -239 142q-18 37 -19 84 q0 86 64 141t178 55q35 0 72 -6q-41 66 -168 66t-167 -39t-40 -111v-569h-205v590q0 125 96 205t306 79z" glyph-name="germandbls.sinf" horiz-adv-x="974"/><glyph d="M496 1663q209 0 305 -80t96 -203v-4l-92 -129q-113 47 -176 47t-64 -37q0 -36 97 -61t144 -47q48 -23 85 -69t37 -122t-67 -130t-185 -54q-172 0 -330 86l80 144q45 -27 116 -50q71 -22 125 -22t54 37q0 21 -28 33t-93 29q-176 46 -221 136q-18 37 -19 84q0 85 64 141 t178 56q35 0 72 -6q-41 66 -168 66t-167 -40q-40 -39 -40 -110v-570h-205v590q0 125 96 205q97 80 306 80z" glyph-name="germandbls.ordn" horiz-adv-x="974"/><glyph d="M385 -160q86 0 160 74v201q-74 76 -160 75q-121 0 -121 -175t121 -175zM545 338h205v-637q0 -270 -301 -270q-172 0 -363 51l43 162q169 -52 263 -52t124 24t29 77v65q-111 -80 -227 -80t-189 88q-72 88 -72 250t72 249t188 87t228 -82v68z" glyph-name="g.sinf" horiz-adv-x="843"/><glyph d="M274 123q0 -53 19 -92l57 243q-76 -36 -76 -151zM365 -35l34 -6l78 317q-8 2 -35 9zM66 123q0 166 89 251t222 85h18l23 94h90l-27 -107q25 -4 35 -8l29 115h88l-35 -139l94 -39l-82 -148l-51 21l-67 -275q41 12 118 45l82 -149q-145 -61 -243 -76l-25 -100h-90l22 96 q-23 0 -34 2l-23 -98h-88l29 123q-174 74 -174 307z" glyph-name="colonmonetary.sinf" horiz-adv-x="749"/><glyph d="M369 590q0 -84 34 -141l84 354q-118 -49 -118 -213zM502 369q23 -8 51 -9l104 443q-33 8 -49 10zM92 590q0 225 124 342t304 117l25 -2l30 129h119l-35 -142l52 -12l37 154h118l-45 -189q14 -4 131 -53l-108 -199q-55 22 -76 31l-92 -389q70 20 168 65l108 -198 q-197 -88 -334 -109l-32 -135h-119l31 129q-18 0 -52 4l-30 -133h-119l39 166q-112 47 -178 153t-66 271z" glyph-name="colonmonetary.oldstyle" horiz-adv-x="1036"/><glyph d="M104 -307v221h209v-221h-209zM104 68v221h209v-221h-209z" glyph-name="colon.sinf" horiz-adv-x="417"/><glyph d="M385 936q86 0 160 74v200q-74 76 -160 76q-121 0 -121 -175t121 -175zM545 1434h205v-637q0 -270 -301 -271q-172 0 -363 52l43 161q169 -51 263 -51t124 24t29 76v66q-111 -80 -227 -80t-189 87q-72 87 -72 250t72 250t188 87t228 -82v68z" glyph-name="g.ordn" horiz-adv-x="843"/><glyph d="M396 178q-62 0 -98 -44t-36 -119t36 -119t102 -43q66 0 188 57l82 -148q-174 -84 -305 -84t-222 86q-90 86 -90 252t90 251q89 85 221 85t306 -84l-82 -147q-130 57 -192 57z" glyph-name="c.sinf" horiz-adv-x="708"/><glyph d="M362 589q0 -163 117 -214v426q-117 -49 -117 -212zM676 0h-197v129q-169 12 -281 129t-112 331t112 330t281 128v129h197v-148q109 -25 270 -94l-108 -199q-111 47 -162 62v-418q49 16 162 63l108 -198q-145 -68 -270 -97v-147z" glyph-name="cent.aalt" horiz-adv-x="1028"/><glyph d="M1122 858v217h148v45q0 240 -191 240q-86 0 -142 -57t-56 -145t41 -146q26 -10 64 -28t40 -17l-121 -217q-205 96 -304 96t-163 -84t-63 -224q0 -140 63 -224q62 -84 162 -85q100 0 305 97l121 -217q-268 -131 -469 -131t-342 144t-141 416t141 416q141 143 348 144 q88 0 195 -29q-16 45 -17 98q-1 145 103 235t296 91q192 0 308 -104q115 -104 115 -291v-23h292v-217h-292v-522q0 -61 24 -82q25 -20 70 -20t168 49l102 -220q-188 -86 -346 -86q-311 0 -311 363v518h-148z" glyph-name="c_t.dlig" horiz-adv-x="1933"/><glyph d="M1497 0h-295v1360h-102q-100 0 -160 -53t-59 -143q0 -90 45 -152l100 -45l-121 -217q-205 96 -304 96t-163 -84t-63 -224q0 -140 63 -224q62 -84 162 -85q100 0 305 97l121 -217q-268 -131 -469 -131t-342 144t-141 416t141 416q141 143 348 144q92 0 201 -31 q-23 55 -23 121q1 139 95 222t268 83h393v-1493z" glyph-name="c_l.dlig" horiz-adv-x="1628"/><glyph d="M1493 0h-295v1360h-98q-100 0 -160 -53t-59 -143q0 -90 45 -152l100 -45l-121 -217q-205 96 -304 96t-163 -84t-63 -224q0 -140 63 -224q62 -84 162 -85q100 0 305 97l121 -217q-268 -131 -469 -131t-342 144t-141 416t141 416q141 143 348 144q92 0 201 -31 q-23 55 -23 121q1 139 95 222t268 83h389v-860l348 442h336l-362 -426l426 -649h-310l-293 440l-145 -172v-268z" glyph-name="c_k.dlig" horiz-adv-x="2238"/><glyph d="M601 846q-99 0 -163 -84t-63 -224q0 -140 63 -224q62 -84 162 -85q100 0 305 97l121 -217q-268 -131 -469 -131t-342 144t-141 416t141 416q141 143 348 144q92 0 201 -31q-23 55 -23 121q1 139 95 222t268 83h389v-547q217 152 418 152q322 0 321 -338v-760h-295v692 q0 176 -141 176q-76 0 -161 -43t-142 -96v-729h-295v1360h-98q-100 0 -160 -53t-59 -143q0 -90 45 -152l100 -45l-121 -217q-205 96 -304 96z" glyph-name="c_h.dlig" horiz-adv-x="2351"/><glyph d="M299 588v-324q133 88 260 88q203 0 203 -207v-452h-205v405q0 96 -80 97q-92 0 -178 -74v-428h-205v895h205z" glyph-name="h.sinf" horiz-adv-x="847"/><glyph d="M352 -207h-200v694h200v-694zM352 680h-200v694h200v-694z" glyph-name="brokenbar.aalt" horiz-adv-x="501"/><glyph d="M416 612h-367v117h156v973h-156v117h367v-1207z" glyph-name="bracketright.ordn" horiz-adv-x="526"/><glyph d="M416 -483h-367v116h156v973h-156v117h367v-1206z" glyph-name="bracketright.sinf" horiz-adv-x="526"/><glyph d="M559 -240h-498v156h215v1335h-215v158h498v-1649z" glyph-name="bracketright.sc" horiz-adv-x="708"/><glyph d="M477 612h-366v1207h366v-117h-153v-973h153v-117z" glyph-name="bracketleft.ordn" horiz-adv-x="526"/><glyph d="M477 -483h-366v1206h366v-117h-153v-973h153v-116z" glyph-name="bracketleft.sinf" horiz-adv-x="526"/><glyph d="M647 -240h-497v1649h497v-158h-215v-1335h215v-156z" glyph-name="bracketleft.sc" horiz-adv-x="708"/><glyph d="M526 1276v-119q-139 0 -123 -135l15 -115q18 -151 -72 -223t-270 -72h-25v115h25q84 0 112 48t17 116l-10 92q-14 106 28 160q43 53 144 71q-99 18 -143 72t-29 162l10 94q10 68 -18 116t-111 48h-25v113h25q180 0 270 -73t72 -222l-15 -113q-20 -135 123 -135z" glyph-name="braceright.ordn" horiz-adv-x="561"/><glyph d="M526 180v-119q-139 0 -123 -135l15 -114q18 -150 -72 -223t-270 -72h-25v114h25q84 0 112 48t17 116l-10 92q-14 106 28 160q43 53 144 72q-100 18 -144 72q-43 54 -28 161l10 94q10 68 -18 116t-111 48h-25v113h25q180 0 270 -73t72 -222l-15 -113q-20 -135 123 -135z " glyph-name="braceright.sinf" horiz-adv-x="561"/><glyph d="M90 420v166h213v-166h-213zM299 -307h-205v645h205v-645z" glyph-name="i.sinf" horiz-adv-x="391"/><glyph d="M719 666v-162q-197 0 -170 -187l22 -153q31 -203 -96 -303t-375 -101h-32v152h32q119 0 159 66t28 161l-19 129q-22 145 40 219t206 97q-145 25 -207 97q-61 73 -39 220l19 127q31 227 -187 227h-32v154h32q248 0 374 -100t97 -303l-22 -156q-27 -184 170 -184z" glyph-name="braceright.sc" horiz-adv-x="772"/><glyph d="M37 1157v119q143 0 123 133l-17 115q-20 150 72 222t270 73h25v-113h-25q-147 0 -129 -164l15 -94q14 -104 -31 -160t-145 -74q102 -18 146 -71t30 -160l-15 -92q-18 -164 129 -164h25v-115h-25q-180 0 -271 74t-71 223l17 113q20 135 -123 135z" glyph-name="braceleft.ordn" horiz-adv-x="563"/><glyph d="M37 61v119q143 0 123 133l-17 115q-20 150 72 222t270 73h25v-113h-25q-147 0 -129 -164l15 -94q14 -104 -31 -159t-145 -74q102 -17 146 -71t30 -161l-15 -92q-18 -164 129 -164h25v-114h-25q-180 -1 -271 73t-71 224l17 112q20 135 -123 135z" glyph-name="braceleft.sinf" horiz-adv-x="563"/><glyph d="M53 504v162q197 0 170 182l-20 158q-27 205 97 304t372 99h33v-154h-33q-217 0 -187 -229l19 -125q20 -147 -42 -220t-206 -97q144 -23 206 -97t42 -219l-19 -127q-12 -96 27 -163t160 -66h33v-152h-33q-248 0 -373 100t-96 304l22 155q27 185 -172 185z" glyph-name="braceleft.sc" horiz-adv-x="772"/><glyph d="M461 190q-92 0 -162 -75v-199q70 -76 162 -76q121 0 121 175t-121 175zM94 -307v895h205v-318q109 82 227 82t189 -87t71 -250t-72 -249t-187 -88q-116 0 -228 82v-67h-205z" glyph-name="b.sinf" horiz-adv-x="841"/><glyph d="M350 -207h-200v1581h200v-1581z" glyph-name="bar.aalt" horiz-adv-x="499"/><glyph d="M635 -152l-584 1479h205l586 -1479h-207z" glyph-name="backslash.aalt" horiz-adv-x="880"/><glyph d="M756 190q111 0 207 95v121q-139 27 -187 26q-139 0 -139 -125q0 -117 119 -117zM1448 432q0 274 -158 452t-463 177q-305 0 -476 -180q-171 -181 -171 -457t165 -456t437 -179q88 0 166 17t113 36l35 19l57 -74q-45 -32 -156 -60q-110 -28 -219 -28q-308 0 -500 205 q-192 206 -192 524t201 522t541 203q340 0 526 -201t188 -526q0 -207 -81 -343t-257 -136q-117 0 -173 63t-66 142q-117 -113 -269 -113q-114 1 -186 67t-72 185t76 185t182 67q106 0 267 -37v65q0 72 -30 102q-31 29 -127 29t-253 -65l-64 137q211 80 368 80t229 -69 t71 -216v-270q0 -80 4 -121t27 -75t67 -33q76 0 135 92q58 92 58 270z" glyph-name="at.aalt" horiz-adv-x="1613"/><glyph d="M231 1163l58 193l-148 -146l-84 146l205 45l-205 49l84 143l148 -147l-58 192h168l-55 -190l145 145l84 -145l-196 -45l196 -49l-84 -144l-143 138l53 -185h-168z" glyph-name="asterisk.ordn" horiz-adv-x="630"/><glyph d="M297 338v-614q0 -66 -2 -96q-6 -95 -61 -132q-85 -57 -226 -86l-65 146q109 34 131 58t20 93v631h203zM86 420v166h217v-166h-217z" glyph-name="j.sinf" horiz-adv-x="391"/><glyph d="M231 68l58 192l-148 -145l-84 145l205 45l-205 49l84 144l148 -148l-58 193h168l-55 -191l145 146l84 -146l-196 -45l196 -49l-84 -143l-143 137l53 -184h-168z" glyph-name="asterisk.sinf" horiz-adv-x="630"/><glyph d="M473 1446q0 30 -20 52q-21 22 -61 22t-64 -22t-23 -62q0 -39 74 -109q94 59 94 119zM258 1014q0 -36 32 -62t100 -26t136 47l-174 166q-94 -70 -94 -125zM378 774q-146 0 -234 66q-87 66 -87 166q0 129 183 239q-119 111 -119 206t78 153q79 58 197 59q118 0 191 -58 t72 -143q0 -113 -172 -233l148 -139q45 72 51 151h203q-25 -152 -123 -274l188 -179h-233l-74 68q-123 -82 -269 -82z" glyph-name="ampersand.ordn" horiz-adv-x="964"/><glyph d="M473 350q0 30 -20 52q-21 22 -61 22t-64 -22t-23 -62q0 -39 74 -109q94 59 94 119zM258 -82q0 -36 32 -62t98 -26t138 47l-174 166q-94 -70 -94 -125zM379 -322q-147 0 -235 66q-87 66 -87 166q0 129 183 240q-119 112 -119 206t78 152q79 58 197 59q118 0 191 -58 t72 -142q0 -113 -172 -234l148 -139q45 72 51 151h203q-25 -147 -123 -274l188 -178h-233l-74 69q-121 -84 -268 -84z" glyph-name="ampersand.sinf" horiz-adv-x="966"/><glyph d="M410 897q0 -66 108 -162q133 86 133 164q0 41 -29 72q-30 31 -87 31t-92 -32q-33 -32 -33 -73zM529 182q95 0 196 68l-246 231q-133 -96 -133 -174q0 -49 44 -87t139 -38zM76 299q0 102 66 178q67 76 186 148q-80 76 -122 139t-42 143q0 129 106 208t268 79t261 -79 q100 -79 100 -182t-63 -178t-174 -151l210 -198q61 98 72 215h270q-31 -203 -170 -377l261 -244h-314l-102 96q-167 -114 -371 -114t-323 89t-119 228z" glyph-name="ampersand.sc" horiz-adv-x="1312"/><glyph d="M299 -307h-205v895h205v-498l205 248h233l-229 -256l268 -389h-217l-174 252l-86 -95v-157z" glyph-name="k.sinf" horiz-adv-x="776"/><glyph d="M299 788h-205v895h205v-497l205 248h233l-229 -256l268 -390h-217l-174 252l-86 -96v-156z" glyph-name="k.ordn" horiz-adv-x="776"/><glyph d="M254 -90q0 -76 90 -76t174 62v77q-111 18 -149 19q-115 0 -115 -82zM518 -307v71q-106 -86 -222 -86t-183 60q-66 60 -66 155t70 151t182 56q53 0 219 -28v39q0 49 -25 68q-26 19 -104 19t-233 -44l-64 137q203 61 349 61t214 -58t68 -194v-407h-205z" glyph-name="a.sinf" horiz-adv-x="806"/><glyph d="M90 1473v176h711v-160l-463 -524h469v-177h-746v162l463 523h-434z" glyph-name="Z.ordn" horiz-adv-x="876"/><glyph d="M90 377v176h711v-160l-463 -524h469v-176h-746v162l463 522h-434z" glyph-name="Z.sinf" horiz-adv-x="876"/><glyph d="M475 1282v236h236v-236h-236zM106 942v234h977v-230l-655 -713h666v-233h-1024v229l657 713h-621z" glyph-name="zdotaccent.aalt" horiz-adv-x="1173"/><glyph d="M954 1544l-217 -282h-286l-218 282h205l156 -151l156 151h204zM106 942v234h977v-230l-655 -713h666v-233h-1024v229l657 713h-621z" glyph-name="zcaron.aalt" horiz-adv-x="1173"/><glyph d="M629 1262h-242l254 282h340zM106 942v234h977v-230l-655 -713h666v-233h-1024v229l657 713h-621z" glyph-name="zacute.aalt" horiz-adv-x="1173"/><glyph d="M104 936v240h977v-215l-645 -721h656v-240h-1024v217l643 719h-607z" glyph-name="z.sc" horiz-adv-x="1171"/><glyph d="M297 -307h-203v895h203v-895z" glyph-name="l.sinf" horiz-adv-x="391"/><glyph d="M326 788v340l-326 521h240l192 -349l191 349h239l-325 -523l2 -338h-213z" glyph-name="Y.ordn" horiz-adv-x="860"/><glyph d="M121 559v125h84q-68 109 -68 213q-1 139 101 218t298 79t451 -150l-123 -180q-182 96 -274 96t-128 -29q-38 -30 -38 -67t7 -55q7 -17 10 -27t13 -26t26 -41q15 -25 22 -31h346v-125h-281q10 -35 13 -74h268v-125h-289q-39 -84 -104 -127h512v-233h-867v188q16 6 42 18 t79 55q53 44 76 99h-176v125h186q-4 31 -26 74h-160z" glyph-name="lira.oldstyle" horiz-adv-x="1067"/><glyph d="M90 100v90h66q-50 84 -50 172t74 146t216 59q142 0 327 -110l-90 -133q-210 109 -289 48q-27 -22 -27 -58t60 -124h248v-90h-203q8 -31 10 -53h193v-88h-209q-23 -55 -74 -92h369v-174h-633v141q45 15 87 49q42 35 56 76h-131v88h137q-6 23 -18 53h-119z" glyph-name="lira.sinf" horiz-adv-x="786"/><glyph d="M434 1489q-118 1 -117 -79q0 -36 60 -124h248v-88h-203q8 -39 10 -55h193v-88h-209q-25 -61 -74 -92h369v-175h-633v142q45 15 87 49q42 35 56 76h-131v88h137q-6 29 -18 55h-119v88h66q-50 84 -50 172t74 146t216 59q142 0 327 -111l-90 -133q-135 70 -199 70z" glyph-name="lira.ordn" horiz-adv-x="786"/><glyph d="M324 -307v340l-326 520h240l192 -348l191 348h239l-325 -522l2 -338h-213z" glyph-name="Y.sinf" horiz-adv-x="860"/><glyph d="M823 1262h-241l-351 282h336zM467 0v461l-451 715h318l270 -488l275 488h317l-448 -711l2 -465h-283z" glyph-name="ygrave.aalt" horiz-adv-x="1214"/><glyph d="M303 1282v236h238v-236h-238zM674 1282v236h237v-236h-237zM467 0v461l-451 715h318l270 -488l275 488h317l-448 -711l2 -465h-283z" glyph-name="ydieresis.aalt" horiz-adv-x="1214"/><glyph d="M641 1262h-242l254 282h338zM467 0v461l-451 715h318l270 -488l275 488h317l-448 -711l2 -465h-283z" glyph-name="yacute.aalt" horiz-adv-x="1214"/><glyph d="M467 0v461l-451 715h318l270 -488l275 488h317l-448 -711l2 -465h-283z" glyph-name="y.sc" horiz-adv-x="1214"/><glyph d="M33 1649h246l167 -306l170 306h244l-285 -426l302 -435h-252l-179 299l-178 -299h-252l301 435z" glyph-name="X.ordn" horiz-adv-x="892"/><glyph d="M33 553h246l167 -305l170 305h244l-285 -426l302 -434h-252l-179 299l-178 -299h-252l301 434z" glyph-name="X.sinf" horiz-adv-x="892"/><glyph d="M299 338v-80q109 94 241 94t175 -106q117 106 243 106q203 0 203 -207v-452h-205v405q0 47 -15 72t-60 25q-76 0 -150 -74v-428h-205v405q0 96 -75 97q-76 0 -152 -76v-426h-205v645h205z" glyph-name="m.sinf" horiz-adv-x="1247"/><glyph d="M37 1176h325l240 -424l240 424h329l-397 -582l420 -594h-340l-250 414l-252 -414h-338l416 596z" glyph-name="x.sc" horiz-adv-x="1208"/><glyph d="M791 788l-154 568l-154 -568h-209l-251 861h241l133 -584l156 584h170l154 -584l135 584h241l-254 -861h-208z" glyph-name="W.ordn" horiz-adv-x="1273"/><glyph d="M788 -307l-153 567l-154 -567h-209l-252 860h242l133 -582l156 582h170l153 -582l136 582h241l-254 -860h-209z" glyph-name="W.sinf" horiz-adv-x="1271"/><glyph d="M1094 1262h-240l-352 282h336zM1102 0l-219 801l-215 -801h-281l-348 1176h323l191 -822l217 822h227l215 -822l193 822h324l-349 -1176h-278z" glyph-name="wgrave.aalt" horiz-adv-x="1767"/><glyph d="M952 1282v236h236v-236h-236zM586 1282v236h237v-236h-237zM1102 0l-219 801l-215 -801h-281l-348 1176h323l191 -822l217 822h227l215 -822l193 822h324l-349 -1176h-278z" glyph-name="wdieresis.aalt" horiz-adv-x="1767"/><glyph d="M1028 1544l217 -282h-205l-155 153l-156 -153h-205l217 282h287zM1102 0l-219 801l-215 -801h-281l-348 1176h323l191 -822l217 822h227l215 -822l193 822h324l-349 -1176h-278z" glyph-name="wcircumflex.aalt" horiz-adv-x="1767"/><glyph d="M918 1262h-242l256 282h336zM1102 0l-219 801l-215 -801h-281l-348 1176h323l191 -822l217 822h227l215 -822l193 822h324l-349 -1176h-278z" glyph-name="wacute.aalt" horiz-adv-x="1767"/><glyph d="M1102 0l-219 801l-215 -801h-281l-348 1176h323l191 -822l217 822h227l215 -822l193 822h324l-349 -1176h-278z" glyph-name="w.sc" horiz-adv-x="1767"/><glyph d="M258 1649l209 -639l209 639h246l-336 -861h-236l-338 861h246z" glyph-name="V.ordn" horiz-adv-x="931"/><glyph d="M256 553l209 -637l209 637h246l-336 -860h-236l-338 860h246z" glyph-name="V.sinf" horiz-adv-x="931"/><glyph d="M430 461q86 0 148 65q-2 90 -48 134t-116 44t-108 -36q-38 -37 -38 -88t38 -85t124 -34zM250 156q104 0 186 51t119 160q-84 -61 -210 -61t-207 74q-81 76 -81 198q1 122 97 209t270 87t271 -110t98 -270q0 -220 -150 -364t-391 -144q-81 0 -137 14l49 164q39 -8 86 -8z " glyph-name="nine.dnom" horiz-adv-x="862"/><glyph d="M430 1034q86 0 148 66q-2 90 -48 134t-116 44t-108 -37t-38 -88t38 -85t124 -34zM250 729q104 0 186 51t119 160q-84 -61 -210 -61q-126 1 -207 75t-81 197q1 123 97 210t270 87t271 -110t98 -271q0 -219 -150 -363t-391 -145q-81 0 -137 14l49 164q39 -8 86 -8z" glyph-name="nine.frac" horiz-adv-x="862"/><glyph d="M604 465q106 0 180 41t111 94v6q0 152 -78 239q-79 87 -199 87t-185 -71t-65 -167t66 -162q64 -66 170 -67zM380 -47q94 0 188 36t176 129q83 93 120 234q-135 -116 -341 -116t-334 124t-128 329q0 204 151 348t402 145q289 0 440 -178t152 -433q0 -397 -238 -633 t-601 -235q-120 0 -187 16l-26 7l71 241q61 -14 155 -14z" glyph-name="nine.oldstyle" horiz-adv-x="1282"/><glyph d="M650 739q108 0 181 43q74 43 109 97q0 155 -78 241t-200 86t-186 -70t-64 -167q0 -96 65 -163t173 -67zM408 227q170 1 309 97t192 305q-137 -119 -343 -119t-333 125t-127 329t150 348t401 144q150 0 266 -51q212 -93 290 -333q36 -108 36 -226q1 -395 -237 -632 t-602 -237q-112 0 -189 17l-24 6l71 240q64 -13 140 -13z" glyph-name="nine.tnum" horiz-adv-x="1382"/><glyph d="M356 1176l295 -881l297 881h328l-467 -1176h-313l-467 1176h327z" glyph-name="v.sc" horiz-adv-x="1302"/><glyph d="M1180 1176v-689q0 -374 -265 -468q-106 -37 -261 -37q-154 0 -262 38q-264 92 -265 467v689h283v-713q0 -115 52 -177t191 -62t191 62t53 177v713h283zM513 1550q53 0 151 -48t124 -48q53 0 107 94l133 -65q-51 -96 -84 -140q-32 -43 -66 -58t-86 -15t-150 49t-126 49 q-53 0 -106 -94l-134 63q86 169 152 198q34 15 85 15z" glyph-name="utilde.aalt"/><glyph d="M299 338v-74q133 88 260 88q203 0 203 -207v-452h-205v405q0 96 -80 97q-92 0 -178 -74v-428h-205v645h205z" glyph-name="n.sinf" horiz-adv-x="847"/><glyph d="M870 1649v-502q0 -177 -83 -275t-300 -98t-301 98t-84 275v502h211v-523q0 -82 37 -127t136 -45t137 45q37 45 36 127v523h211z" glyph-name="U.ordn" horiz-adv-x="972"/><glyph d="M1180 1176v-689q0 -374 -265 -468q-106 -37 -261 -37q-154 0 -262 38q-264 92 -265 467v689h283v-713q0 -115 52 -177t191 -62t191 62t53 177v713h283zM565 1470q0 -38 25 -62q26 -24 62 -24t62 25t26 61t-26 63q-26 26 -63 26t-61 -26t-25 -63zM424 1470q0 96 66 163 q67 67 161 67t162 -68t68 -162t-68 -162t-162 -67q-95 1 -161 67t-66 162z" glyph-name="uring.aalt"/><glyph d="M649 -193q0 -69 106 -69h50l-29 -135h-12q-307 -4 -307 176q0 115 164 203q-289 8 -393 149q-103 141 -101 356v689h283v-713q0 -115 51 -177t191 -62t192 62t51 177v713h283v-689q0 -197 -75 -321t-263 -166q-191 -113 -191 -193z" glyph-name="uogonek.aalt"/><glyph d="M338 1313v174h631v-174h-631zM1180 1176v-689q0 -374 -265 -468q-106 -37 -261 -37q-154 0 -262 38q-264 92 -265 467v689h283v-713q0 -115 52 -177t191 -62t191 62t53 177v713h283z" glyph-name="umacron.aalt"/><glyph d="M563 717l-43 -258h254l43 258h-254zM78 256v203h233l43 258h-202v203h235l41 256h211l-43 -256h254l41 256h209l-41 -256h203v-203h-236l-43 -258h203v-203h-236l-41 -256h-209l41 256h-254l-41 -256h-208l41 256h-201z" glyph-name="numbersign.oldstyle" horiz-adv-x="1339"/><glyph d="M416 215l-31 -186h178l31 186h-178zM59 -123v152h168l31 186h-143v154h168l30 184h156l-29 -184h178l29 184h156l-29 -184h144v-154h-168l-31 -186h145v-152h-170l-28 -184h-156l29 184h-179l-28 -184h-158l29 184h-144z" glyph-name="numbersign.sinf" horiz-adv-x="974"/><glyph d="M416 1311l-31 -187h178l31 187h-178zM59 973v151h168l31 187h-143v153h168l30 185h156l-29 -185h178l29 185h156l-29 -185h144v-153h-168l-31 -187h145v-151h-170l-28 -185h-156l29 185h-179l-28 -185h-158l29 185h-144z" glyph-name="numbersign.ordn" horiz-adv-x="976"/><glyph d="M870 553v-502q0 -176 -83 -274q-83 -99 -300 -99t-301 98t-84 275v502h211v-522q0 -82 37 -127t136 -45t137 45q37 45 36 127v522h211z" glyph-name="U.sinf" horiz-adv-x="972"/><glyph d="M526 1262h-178l166 282h272zM887 1262h-176l166 282h270zM1180 1176v-689q0 -374 -265 -468q-106 -37 -261 -37q-154 0 -262 38q-264 92 -265 467v689h283v-713q0 -115 52 -177t191 -62t191 62t53 177v713h283z" glyph-name="uhungarumlaut.aalt"/><glyph d="M862 1262h-241l-351 282h336zM1180 1176v-689q0 -374 -265 -468q-106 -37 -261 -37q-154 0 -262 38q-264 92 -265 467v689h283v-713q0 -115 52 -177t191 -62t191 62t53 177v713h283z" glyph-name="ugrave.aalt"/><glyph d="M721 1282v236h235v-236h-235zM350 1282v236h236v-236h-236zM1180 1176v-689q0 -374 -265 -468q-106 -37 -261 -37q-154 0 -262 38q-264 92 -265 467v689h283v-713q0 -115 52 -177t191 -62t191 62t53 177v713h283z" glyph-name="udieresis.aalt"/><glyph d="M797 1544l217 -282h-205l-158 153l-153 -153h-205l215 282h289zM1180 1176v-689q0 -374 -265 -468q-106 -37 -261 -37q-154 0 -262 38q-264 92 -265 467v689h283v-713q0 -115 52 -177t191 -62t191 62t53 177v713h283z" glyph-name="ucircumflex.aalt"/><glyph d="M1180 1176v-689q0 -374 -265 -468q-106 -37 -261 -37q-154 0 -262 38q-264 92 -265 467v689h283v-713q0 -115 52 -177t191 -62t191 62t53 177v713h283zM652 1262q-158 0 -246 68t-89 183h183q0 -90 152 -90t153 90h184q0 -117 -89 -184t-248 -67z" glyph-name="ubreve.aalt"/><glyph d="M686 1262h-240l254 282h338zM1180 1176v-689q0 -374 -265 -468q-106 -37 -261 -37q-154 0 -262 38q-264 92 -265 467v689h283v-713q0 -115 52 -177t191 -62t191 62t53 177v713h283z" glyph-name="uacute.aalt"/><glyph d="M1180 1176v-689q0 -374 -265 -468q-106 -37 -261 -37q-154 0 -262 38q-264 92 -265 467v689h283v-713q0 -115 52 -177t191 -62t191 62t53 177v713h283z" glyph-name="u.sc"/><glyph d="M772 1473h-262v-685h-213v685h-262v176h737v-176z" glyph-name="T.ordn" horiz-adv-x="808"/><glyph d="M258 16q0 -182 152 -182t151 181q0 181 -151 182q-152 1 -152 -181zM766 15q0 -161 -92 -249t-264 -88t-264 90t-93 248q0 160 92 248q93 88 265 88t264 -88t92 -249z" glyph-name="o.sinf" horiz-adv-x="819"/><glyph d="M772 377h-262v-684h-213v684h-262v176h737v-176z" glyph-name="T.sinf" horiz-adv-x="808"/><glyph d="M612 453q139 -1 205 33t66 121t-66 119t-205 32h-190v-305h190zM1169 608q0 -387 -505 -387h-242v-221h-283v1176h283v-183h242q248 1 376 -97t129 -288z" glyph-name="thorn.aalt" horiz-adv-x="1234"/><glyph d="M467 0h-211v666l-156 -78l-86 137l252 135h201v-860z" glyph-name="one.dnom" horiz-adv-x="583"/><glyph d="M467 573h-211v666l-156 -78l-86 137l252 136h201v-861z" glyph-name="one.frac" horiz-adv-x="583"/><glyph d="M696 0h-305v889l-250 -131l-121 200l388 218h288v-1176z" glyph-name="one.oldstyle" horiz-adv-x="843"/><glyph d="M141 0v254h420v893l-299 -154l-121 201l441 240h286v-1180h422v-254h-1149z" glyph-name="one.tnum" horiz-adv-x="1382"/><glyph d="M438 -211q98 0 99 78q0 53 -54 133h-77v936h-367v240h1014v-240h-363v-936h-76q80 -100 80 -191t-64 -139q-65 -47 -169 -47t-178 45l57 146q51 -25 98 -25z" glyph-name="tcommaaccent.aalt" horiz-adv-x="1091"/><glyph d="M1081 522q0 -49 109 -86q111 35 110 86q0 30 -30 52t-78 22q-49 0 -80 -24t-31 -50zM1346 205q0 68 -154 119q-154 -55 -154 -119q0 -39 44 -65t110 -26t110 26t44 65zM424 471h-170v551l-133 -66l-70 111l213 109h160v-705zM1087 1176l-587 -1176h-185l590 1176h182z M866 190q0 123 172 195q-125 61 -125 158q0 78 75 126t203 48t202 -48q73 -48 73 -134t-120 -150q170 -74 170 -195q0 -92 -88 -147t-238 -55t-237 55t-87 147z" glyph-name="oneeighth.aalt" horiz-adv-x="1595"/><glyph d="M502 573h-211v666l-156 -78l-86 137l252 136h201v-861zM1268 1434l-674 -1434h-227l673 1434h228zM1716 860v-174h-405l-11 -137q59 18 127 18q156 0 241 -83q85 -82 85 -204t-91 -208t-261 -86t-359 112l93 152q121 -84 239 -84q70 0 116 31t46 82t-41 86t-122 35 t-171 -48l-117 74l50 434h581z" glyph-name="glyph603" horiz-adv-x="1847"/><glyph d="M424 471h-170v551l-133 -66l-70 111l213 109h160v-705zM1087 1176l-587 -1176h-185l590 1176h182zM1470 705v-138h-354l-10 -121q55 16 117 17q133 0 207 -67t74 -167t-79 -171q-78 -70 -223 -70t-305 92l76 119q103 -68 187 -68t126 27q42 26 43 70q0 44 -38 73 q-39 29 -113 29t-152 -39l-90 59l41 355h493z" glyph-name="glyph604" horiz-adv-x="1595"/><glyph d="M907 1544l-217 -282h-289l-217 282h205l156 -151l157 151h205zM1053 936h-363v-936h-284v936h-367v240h1014v-240z" glyph-name="tcaron.aalt" horiz-adv-x="1091"/><glyph d="M1493 139v-139h-594v72q0 96 66 164t178 131q149 75 170 118q6 14 6 34t-30 39q-29 20 -105 20t-191 -66l-75 106q160 98 298 98t208 -56t69 -137q0 -81 -55 -141q-38 -45 -96 -74t-107 -54q-133 -66 -133 -115h391zM1087 1176l-587 -1176h-185l590 1176h182zM424 471 h-170v551l-133 -66l-70 111l213 109h160v-705z" glyph-name="onehalf.aalt" horiz-adv-x="1589"/><glyph d="M246 350v156h168v430h-367v240h1012v-240h-361v-430h166v-156h-166v-350h-284v350h-168z" glyph-name="tbar.aalt" horiz-adv-x="1105"/><glyph d="M1053 936h-363v-936h-284v936h-367v240h1014v-240z" glyph-name="t.sc" horiz-adv-x="1091"/><glyph d="M1200 268v307l-231 -307h231zM424 471h-170v551l-133 -66l-70 111l213 109h160v-705zM1087 1176l-587 -1176h-185l590 1176h182zM1200 0v131h-412v115l355 459h227v-437h119v-137h-119v-131h-170z" glyph-name="onequarter.aalt" horiz-adv-x="1566"/><glyph d="M1348 399q-111 0 -166 -69q2 -88 49 -131t117 -43t108 37t39 87t-39 84t-108 35zM502 573h-211v666l-156 -78l-86 137l252 136h201v-861zM1268 1434l-674 -1434h-227l673 1434h228zM1511 705q-109 -1 -191 -53t-118 -160q86 63 213 63t209 -75q82 -76 82 -198t-97 -209 t-272 -87t-272 108q-96 109 -96 271q0 221 150 365q151 144 390 144q78 0 138 -14l-50 -164q-39 9 -86 9z" glyph-name="glyph610" horiz-adv-x="1794"/><glyph d="M1157 332q-104 0 -151 -62q2 -72 44 -108t108 -37q66 0 100 31q34 32 34 74t-36 72t-99 30zM424 471h-170v551l-133 -66l-70 111l213 109h160v-705zM1087 1176l-587 -1176h-185l590 1176h182zM1270 582q-70 0 -143 -44t-103 -137q72 53 184 53t184 -60q70 -62 70 -162 t-83 -172t-231 -72t-232 89q-83 89 -82 222q0 180 128 299t330 119q79 0 121 -12l-39 -130q-34 7 -104 7z" glyph-name="glyph611" horiz-adv-x="1546"/><glyph d="M817 1038q0 -120 -90 -192t-246 -72q-225 0 -424 121l97 149q66 -36 158 -66t159 -30q125 0 125 72q0 33 -33 52t-122 44t-134 41q-229 76 -229 246q0 115 87 187t261 73q174 0 362 -92l-94 -152q-158 70 -276 70t-119 -72q0 -39 54 -60q28 -11 60 -19t162 -48 q66 -24 111 -48t88 -79t43 -125z" glyph-name="S.ordn" horiz-adv-x="874"/><glyph d="M815 -57q0 -119 -90 -192t-246 -73q-225 0 -424 121l97 150q66 -37 158 -67t159 -29q125 0 125 71q0 33 -33 52t-122 44t-134 41q-229 76 -229 246q0 115 87 188t261 73t362 -93l-94 -151q-158 70 -276 70t-119 -72q0 -53 112 -79q33 -8 164 -48q66 -25 111 -49t88 -78 t43 -125z" glyph-name="S.sinf" horiz-adv-x="874"/><glyph d="M1188 127q61 0 99 23t38 61q0 92 -221 92h-35v139h43q180 0 180 78q0 58 -97 58t-212 -60l-70 105q125 94 304 94q119 0 182 -49t63 -123q0 -109 -131 -156q72 -18 119 -68t47 -127t-71 -142q-71 -64 -224 -64t-323 92l75 113q123 -66 234 -66zM1087 1176l-587 -1176 h-185l590 1176h182zM424 471h-170v551l-133 -66l-70 111l213 109h160v-705z" glyph-name="onethird.aalt" horiz-adv-x="1581"/><glyph d="M1102 336q0 -158 -127 -256t-340 -98q-151 0 -309 49t-267 112l125 201q92 -49 222 -89t213 -40q84 0 134 27q50 26 50 66q-1 40 -21 62t-62 38q-43 16 -196 62q-240 72 -349 165q-89 77 -89 221t121 241t357 97t499 -125l-129 -205q-227 96 -385 97q-70 0 -117 -25 t-47 -65t19 -60q32 -33 183 -74t262 -87t182 -123q71 -76 71 -191zM483 -362v245h224l18 -270l-186 -219l-64 74l111 170h-103z" glyph-name="scommaaccent.aalt" horiz-adv-x="1161"/><glyph d="M1102 336q0 -158 -127 -256t-340 -98q-151 0 -309 49t-267 112l125 201q92 -49 222 -89t213 -40q84 0 134 27q50 26 50 66q-1 40 -21 62t-62 38q-43 16 -196 62q-240 72 -349 165q-89 77 -89 221t121 241t357 97t499 -125l-129 -205q-227 96 -385 97q-70 0 -117 -25 t-47 -65t19 -60q32 -33 183 -74t262 -87t182 -123q71 -76 71 -191zM727 1544l215 -282h-203l-157 153l-156 -153h-205l217 282h289z" glyph-name="scircumflex.aalt" horiz-adv-x="1161"/><glyph d="M544 -377q-103 0 -179 45l57 146q53 -25 100 -25q98 0 99 78q0 47 -43 117q-274 16 -519 159l125 201q92 -49 222 -89t213 -40q84 0 134 27q50 26 50 66q-1 40 -21 62t-62 38q-43 16 -196 62q-240 72 -349 165q-89 77 -89 221t121 241t357 97t499 -125l-129 -205 q-227 96 -385 97q-70 0 -117 -25t-47 -65t19 -60q32 -33 183 -74t262 -87t182 -123q71 -76 71 -205q0 -128 -106 -224t-285 -112q67 -86 67 -177t-65 -139q-66 -47 -169 -47z" glyph-name="scedilla.aalt" horiz-adv-x="1163"/><glyph d="M1102 336q0 -158 -127 -256t-340 -98q-151 0 -309 49t-267 112l125 201q92 -49 222 -89t213 -40q84 0 134 27q50 26 50 66q-1 40 -21 62t-62 38q-43 16 -196 62q-240 72 -349 165q-89 77 -89 221t121 241t357 97t499 -125l-129 -205q-227 96 -385 97q-70 0 -117 -25 t-47 -65t19 -60q32 -33 183 -74t262 -87t182 -123q71 -76 71 -191zM940 1544l-215 -282h-289l-215 282h203l156 -151l157 151h203z" glyph-name="scaron.aalt" horiz-adv-x="1161"/><glyph d="M1102 336q0 -158 -127 -256t-340 -98q-151 0 -309 49t-267 112l125 201q92 -49 222 -89t213 -40q84 0 134 27q50 26 50 66q-1 40 -21 62t-62 38q-43 16 -196 62q-240 72 -349 165q-89 77 -89 221t121 241t357 97t499 -125l-129 -205q-227 96 -385 97q-70 0 -117 -25 t-47 -65t19 -60q32 -33 183 -74t262 -87t182 -123q71 -76 71 -191zM614 1262h-241l256 282h338z" glyph-name="sacute.aalt" horiz-adv-x="1161"/><glyph d="M1102 336q0 -158 -127 -256t-340 -98q-151 0 -309 49t-267 112l125 201q92 -49 222 -89t213 -40q84 0 134 27q50 26 50 66q-1 40 -21 62t-62 38q-43 16 -196 62q-240 72 -349 165q-89 77 -89 221t121 241t357 97t499 -125l-129 -205q-227 96 -385 97q-70 0 -117 -25 t-47 -65t19 -60q32 -33 183 -74t262 -87t182 -123q71 -76 71 -191z" glyph-name="s.sc" horiz-adv-x="1161"/><glyph d="M512 1276q170 0 170 104t-166 105h-188v-209h184zM328 1112v-324h-211v861h411q367 0 367 -271q0 -207 -217 -254l219 -336h-227l-207 324h-135z" glyph-name="R.ordn" horiz-adv-x="962"/><glyph d="M682 285q0 104 -166 104h-188v-209h184q170 1 170 105zM328 16v-323h-211v860h411q367 0 367 -270q0 -207 -217 -254l219 -336h-227l-207 323h-135z" glyph-name="R.sinf" horiz-adv-x="964"/><glyph d="M926 -313v1489h231v-1489h-231zM555 1176h227v-1487h-231v659q-217 0 -354 104t-137 313q0 211 132 311t363 100z" glyph-name="paragraph.aalt" horiz-adv-x="1306"/><glyph d="M522 -362v245h223l19 -270l-189 -219l-61 74l109 170h-101zM920 809q0 147 -232 147h-266v-292h262q116 0 176 32t60 113zM422 444v-444h-283v1176h563q506 0 506 -367q0 -287 -305 -348l307 -461h-305l-284 444h-199z" glyph-name="rcommaaccent.aalt" horiz-adv-x="1286"/><glyph d="M133 180v809q0 192 32 238q48 74 103 98q114 51 262 84l70 -152q-127 -41 -156 -75t-28 -125v-944q0 -90 28 -126t156 -75l-70 -152q-255 55 -322 129q-28 31 -43 54q-32 49 -32 237z" glyph-name="parenleft.sc" horiz-adv-x="657"/><glyph d="M1034 1544l-217 -282h-287l-215 282h205l156 -151l155 151h203zM920 809q0 147 -232 147h-266v-292h262q116 0 176 32t60 113zM422 444v-444h-283v1176h563q506 0 506 -367q0 -287 -305 -348l307 -461h-305l-284 444h-199z" glyph-name="rcaron.aalt" horiz-adv-x="1286"/><glyph d="M709 1262h-244l256 282h338zM920 809q0 147 -232 147h-266v-292h262q116 0 176 32t60 113zM422 444v-444h-283v1176h563q506 0 506 -367q0 -287 -305 -348l307 -461h-305l-284 444h-199z" glyph-name="racute.aalt" horiz-adv-x="1286"/><glyph d="M920 809q0 147 -232 147h-266v-292h262q116 0 176 32t60 113zM422 444v-444h-283v1176h563q506 0 506 -367q0 -287 -305 -348l307 -461h-305l-284 444h-199z" glyph-name="r.sc" horiz-adv-x="1286"/><glyph d="M522 989v-809q0 -193 -32 -237q-49 -75 -102 -99q-113 -51 -261 -84l-70 152q125 39 154 75t29 126v944q0 90 -28 125t-155 75l70 152q255 -55 320 -129q28 -32 43 -54q32 -48 32 -237z" glyph-name="parenright.sc" horiz-adv-x="655"/><glyph d="M1487 860q-150 0 -270 -137v-373q119 -135 270 -135q209 1 209 323t-209 322zM45 858v217h148v55q0 362 344 363q168 0 385 -59v59h295v-537q173 142 361 142t302 -144t115 -416q0 -272 -115 -416t-304 -144t-359 139v-117h-295v1196q-242 43 -320 43q-117 0 -117 -100 v-64h269v-217h-269v-858h-292v858h-148z" glyph-name="f_b.ss01" horiz-adv-x="2072"/><glyph d="M514 -141q225 0 225 264t-225 264t-225 -264t225 -264zM514 567q225 0 334 -123t108 -321q0 -297 -219 -399l137 -103l-139 -143l-221 200q-225 0 -334 123t-108 322q0 199 108 321t334 123z" glyph-name="Q.sinf" horiz-adv-x="1024"/><glyph d="M688 223q315 0 316 365q0 365 -316 364q-315 0 -315 -364t315 -365zM82 589q0 271 148 438t458 167t458 -167t148 -439q0 -412 -305 -549l189 -139l-189 -193l-301 275q-309 0 -458 168q-148 168 -148 439z" glyph-name="q.sc" horiz-adv-x="1376"/><glyph d="M487 1255q166 0 166 110t-166 110h-159v-220h159zM500 1649q366 0 366 -283t-366 -283h-172v-295h-211v861h383z" glyph-name="P.ordn" horiz-adv-x="911"/><glyph d="M563 879q0 71 -39 111q-40 40 -108 40t-107 -39t-39 -113t39 -111q39 -38 108 -38t107 39t39 111zM766 879q0 -145 -93 -229t-257 -85q-164 0 -256 83q-92 82 -92 230t92 232t256 84t257 -85t93 -230zM1339 1176l-645 -1176h-211l645 1176h211zM1409 145q145 0 145 150 q0 74 -38 113q-39 38 -108 38t-108 -38q-38 -38 -38 -113q0 -74 38 -112t109 -38zM1757 296q0 -146 -92 -230t-257 -84t-256 83t-91 230t92 231t256 84t256 -84t92 -230z" glyph-name="percent.oldstyle" horiz-adv-x="1824"/><glyph d="M1114 -90q0 109 -102 108q-102 0 -102 -108t102 -109q102 0 102 109zM1012 139q122 0 188 -60t66 -170t-66 -170q-66 -61 -188 -61t-188 60q-65 60 -64 172q0 111 64 170q65 59 188 59zM965 553l-476 -875h-155l473 875h158zM397 336q0 109 -104 108q-100 0 -100 -108 t102 -109q102 0 102 109zM293 567q123 0 189 -60t65 -170q0 -110 -66 -170q-67 -61 -189 -61t-188 60t-65 170q0 111 65 171q66 60 189 60z" glyph-name="percent.sinf" horiz-adv-x="1306"/><glyph d="M1114 1006q0 109 -102 108q-102 0 -102 -108t102 -109q102 0 102 109zM1012 1235q122 0 188 -60t66 -170t-66 -170q-66 -61 -188 -61t-188 60q-65 60 -64 172q0 111 64 170q65 59 188 59zM965 1649l-476 -875h-155l473 875h158zM397 1432q0 109 -104 108 q-100 0 -100 -108t102 -109q102 0 102 109zM293 1663q123 0 189 -60t65 -170q0 -110 -66 -170q-67 -61 -189 -61t-188 60t-65 170q0 111 65 171q66 60 189 60z" glyph-name="percent.ordn" horiz-adv-x="1306"/><glyph d="M653 269q0 110 -166 110h-159v-219h159q166 -1 166 109zM500 553q366 0 366 -283t-366 -282h-172v-295h-211v860h383z" glyph-name="P.sinf" horiz-adv-x="911"/><glyph d="M883 789q0 153 -234 153h-227v-305h227q234 -1 234 152zM1169 788q0 -383 -505 -382h-242v-406h-283v1176h525q248 0 376 -99t129 -289z" glyph-name="p.sc" horiz-adv-x="1216"/><glyph d="M548 1550q52 0 150 -48t125 -48q55 0 107 94l133 -65q-35 -70 -57 -107q-22 -38 -69 -72q-46 -34 -104 -34q-59 0 -157 49t-125 49q-52 0 -107 -94l-133 63q56 104 88 143q31 40 64 55t85 15zM688 223q315 0 316 365q0 365 -316 364q-315 0 -315 -364t315 -365zM688 1194 q310 0 458 -167t148 -438t-148 -439t-458 -168t-458 168t-148 439t148 438q149 167 458 167z" glyph-name="otilde.aalt" horiz-adv-x="1376"/><glyph d="M513 954q224 0 224 264t-224 265q-224 -1 -224 -265t224 -264zM514 1663q225 0 333 -123q107 -124 107 -322t-108 -321t-332 -123q-225 0 -334 122t-108 323q0 201 108 323t334 121z" glyph-name="O.ordn" horiz-adv-x="1024"/><glyph d="M721 1262h-240l256 282h336zM688 223q315 0 316 365q0 129 -41 211l-445 -537q72 -39 170 -39zM373 588q0 -131 41 -215l446 538q-70 41 -172 41q-315 1 -315 -364zM1294 591q0 -273 -148 -441t-458 -168q-205 0 -340 75l-47 -57h-197l125 150q-147 160 -147 435t148 442 t458 167q201 0 340 -78l49 60h197l-125 -152q145 -160 145 -433z" glyph-name="oslashacute.aalt" horiz-adv-x="1374"/><glyph d="M1341 1176l-645 -1176h-211l645 1176h211zM2343 295q0 74 -38 113q-37 38 -107 38t-109 -38t-39 -113q0 -74 39 -112t109 -38q145 0 145 150zM2546 295q0 -147 -91 -230t-257 -83t-259 83q-92 83 -92 230t92 231q91 84 257 84t258 -84t92 -231zM1556 295q0 74 -38 113 q-39 38 -108 38q-70 0 -108 -38t-38 -113q0 -74 39 -112t107 -38t108 38q38 38 38 112zM1759 296q0 -146 -92 -230t-257 -84t-256 83t-91 230t92 231t256 84t256 -84t92 -230zM565 879q0 71 -39 111q-40 40 -108 40t-107 -39t-39 -113t39 -111q39 -38 108 -38t107 39t39 111 zM768 879q0 -145 -93 -229t-257 -85q-164 0 -256 83q-92 82 -92 230t92 232t256 84t257 -85t93 -230z" glyph-name="perthousand.aalt" horiz-adv-x="2613"/><glyph d="M373 1313v174h628v-174h-628zM688 223q315 0 316 365q0 365 -316 364q-315 0 -315 -364t315 -365zM688 1194q310 0 458 -167t148 -438t-148 -439t-458 -168t-458 168t-148 439t148 438q149 167 458 167z" glyph-name="omacron.aalt" horiz-adv-x="1376"/><glyph d="M444 942v-113h455q-29 113 -227 113h-228zM672 637q201 0 227 113h-455v-113h228zM111 750v79h51v347h524q477 0 502 -347h49v-79h-49q-25 -344 -502 -344h-242v-406h-282v750h-51z" glyph-name="peseta.oldstyle" horiz-adv-x="1296"/><glyph d="M487 160q141 0 162 76h-319v-76h157zM330 379v-78h319q-20 78 -162 78h-157zM82 236v65h37v252h381q344 0 366 -252h37v-65h-37q-20 -248 -366 -248h-170v-295h-211v543h-37z" glyph-name="peseta.sinf" horiz-adv-x="935"/><glyph d="M487 1255q141 0 162 76h-319v-76h157zM330 1475v-78h319q-20 78 -162 78h-157zM82 1331v66h37v252h381q344 0 366 -252h37v-66h-37q-20 -248 -366 -248h-170v-295h-211v543h-37z" glyph-name="peseta.ordn" horiz-adv-x="935"/><glyph d="M289 123q0 -264 224 -264t224 264t-224 264t-224 -264zM514 567q225 0 333 -123q107 -124 107 -322t-108 -321t-332 -123q-225 0 -334 122t-108 323q0 201 108 323t334 121z" glyph-name="O.sinf" horiz-adv-x="1024"/><glyph d="M461 190q-92 0 -162 -75v-199q70 -76 162 -76q121 0 121 175t-121 175zM299 338v-68q113 82 229 82t187 -87t71 -250t-72 -249t-187 -88q-116 0 -228 82v-317h-205v895h205z" glyph-name="p.sinf" horiz-adv-x="841"/><glyph d="M561 1262h-176l166 282h270zM922 1262h-177l164 282h275zM688 223q315 0 316 365q0 365 -316 364q-315 0 -315 -364t315 -365zM688 1194q310 0 458 -167t148 -438t-148 -439t-458 -168t-458 168t-148 439t148 438q149 167 458 167z" glyph-name="ohungarumlaut.aalt" horiz-adv-x="1376"/><glyph d="M315 395h154v-217h256v-151h-256v-217h-154v217h-258v151h258v217z" glyph-name="plus.sinf" horiz-adv-x="782"/><glyph d="M899 1262h-242l-352 282h338zM688 223q315 0 316 365q0 365 -316 364q-315 0 -315 -364t315 -365zM688 1194q310 0 458 -167t148 -438t-148 -439t-458 -168t-458 168t-148 439t148 438q149 167 458 167z" glyph-name="ograve.aalt" horiz-adv-x="1376"/><glyph d="M758 1282v236h235v-236h-235zM385 1282v236h238v-236h-238zM688 223q315 0 316 365q0 365 -316 364q-315 0 -315 -364t315 -365zM688 1194q310 0 458 -167t148 -438t-148 -439t-458 -168t-458 168t-148 439t148 438q149 167 458 167z" glyph-name="odieresis.aalt" horiz-adv-x="1376"/><glyph d="M834 1544l215 -282h-203l-158 153l-156 -153h-204l217 282h289zM688 223q315 0 316 365q0 365 -316 364q-315 0 -315 -364t315 -365zM688 1194q310 0 458 -167t148 -438t-148 -439t-458 -168t-458 168t-148 439t148 438q149 167 458 167z" glyph-name="ocircumflex.aalt" horiz-adv-x="1376"/><glyph d="M461 1286q-92 0 -162 -76v-200q72 -74 162 -74q121 0 121 175t-121 175zM299 1434v-68q113 82 229 82t187 -87t71 -250t-72 -250t-188 -87q-117 0 -227 80v-315h-205v895h205z" glyph-name="p.ordn" horiz-adv-x="841"/><glyph d="M687 1262q-159 0 -247 68t-88 183h185q0 -43 40 -67q41 -24 111 -23q70 0 112 24t42 66h184q0 -117 -90 -184t-249 -67zM688 223q315 0 316 365q0 365 -316 364q-315 0 -315 -364t315 -365zM688 1194q310 0 458 -167t148 -438t-148 -439t-458 -168t-458 168t-148 439 t148 438q149 167 458 167z" glyph-name="obreve.aalt" horiz-adv-x="1376"/><glyph d="M383 -160q86 0 160 76v199q-74 76 -160 75q-121 0 -121 -175t121 -175zM543 -557v317q-113 -82 -229 -82t-188 88t-71 250q0 162 72 249q71 87 187 87t229 -82v68h205v-895h-205z" glyph-name="q.sinf" horiz-adv-x="841"/><glyph d="M383 936q86 0 160 74v200q-74 76 -160 76q-121 0 -121 -175t121 -175zM543 539v315q-111 -80 -228 -80t-189 87t-71 250q0 163 72 250q71 87 187 87t229 -82v68h205v-895h-205z" glyph-name="q.ordn" horiz-adv-x="841"/><glyph d="M721 1262h-240l256 282h336zM688 223q315 0 316 365q0 365 -316 364q-315 0 -315 -364t315 -365zM688 1194q310 0 458 -167t148 -438t-148 -439t-458 -168t-458 168t-148 439t148 438q149 167 458 167z" glyph-name="oacute.aalt" horiz-adv-x="1376"/><glyph d="M627 830q0 60 -46 95q-46 36 -128 36q-127 0 -281 -91l-119 191q235 133 431 133t312 -85t115 -236q0 -151 -130 -237q-109 -74 -283 -118l-13 -129h-174l-14 275q180 34 255 70t75 96zM258 0v274h279v-274h-279z" glyph-name="question.sc" horiz-adv-x="980"/><glyph d="M688 223q315 0 316 365q0 365 -316 364q-315 0 -315 -364t315 -365zM1907 0h-899v47q-137 -66 -320 -65q-309 0 -458 168q-148 168 -148 439t148 438t458 167q182 0 320 -66v48h888v-240h-606v-231h496v-234h-496v-231h617v-240z" glyph-name="oe.aalt" horiz-adv-x="1990"/><glyph d="M725 1176v-275h-281v275h281zM356 346q0 -59 46 -95t128 -36q129 0 279 90l121 -190q-229 -133 -427 -133t-315 85q-116 85 -116 235t124 232t287 121l15 131h172l16 -276q-180 -33 -255 -69t-75 -95z" glyph-name="questiondown.sc" horiz-adv-x="983"/><glyph d="M520 553v-201h-209v201h209zM41 -88q0 106 82 167q82 60 219 95l10 94h127l13 -202q-130 -25 -184 -51q-54 -27 -54 -69t33 -68t90 -25q92 0 201 65l88 -141q-166 -99 -312 -99t-229 64q-84 64 -84 170z" glyph-name="questiondown.sinf" horiz-adv-x="690"/><glyph d="M520 1649v-201h-209v201h209zM254 1042q0 -94 140 -94q74 0 184 66l88 -142q-166 -98 -312 -98t-229 64q-84 64 -84 170t82 167q82 60 219 95l10 94h127l13 -203q-131 -25 -185 -50q-53 -26 -53 -69z" glyph-name="questiondown.ordn" horiz-adv-x="690"/><glyph d="M335 567q144 1 229 -63t85 -170t-82 -167q-82 -60 -219 -95l-10 -95h-127l-12 203q131 24 184 50t53 69t-32 69t-89 25q-94 0 -202 -65l-88 141q166 98 310 98zM170 -307v201h211v-201h-211z" glyph-name="question.sinf" horiz-adv-x="690"/><glyph d="M436 1395q0 94 -140 94q-76 0 -183 -66l-88 142q166 98 310 98q144 1 229 -63t85 -170t-82 -167q-82 -60 -219 -96l-10 -94h-127l-12 203q131 24 184 50t53 69zM170 788v201h211v-201h-211z" glyph-name="question.ordn" horiz-adv-x="690"/><glyph d="M688 223q315 0 316 365q0 365 -316 364q-315 0 -315 -364t315 -365zM688 1194q310 0 458 -167t148 -438t-148 -439t-458 -168t-458 168t-148 439t148 438q149 167 458 167z" glyph-name="o.sc" horiz-adv-x="1376"/><glyph d="M548 1550q52 0 149 -48t126 -48q53 0 107 94l133 -65q-51 -96 -84 -140q-56 -73 -130 -73q-75 0 -173 49t-127 49q-52 0 -105 -94l-133 63q49 96 83 140q34 43 68 58t86 15zM932 1176h282v-1176h-286l-506 784v-784h-283v1176h291l502 -781v781z" glyph-name="ntilde.aalt" horiz-adv-x="1353"/><glyph d="M328 788h-211v861h215l358 -557v557h213v-861h-217l-358 560v-560z" glyph-name="N.ordn" horiz-adv-x="1019"/><glyph d="M328 -307h-211v860h215l358 -557v557h213v-860h-217l-358 559v-559z" glyph-name="N.sinf" horiz-adv-x="1019"/><glyph d="M567 -362v245h224l18 -270l-186 -219l-64 74l109 170h-101zM932 1176h282v-1176h-286l-506 784v-784h-283v1176h291l502 -781v781z" glyph-name="ncommaaccent.aalt" horiz-adv-x="1353"/><glyph d="M1047 1544l-216 -282h-286l-217 282h204l156 -151l158 151h201zM932 1176h282v-1176h-286l-506 784v-784h-283v1176h291l502 -781v781z" glyph-name="ncaron.aalt" horiz-adv-x="1353"/><glyph d="M711 1262h-242l256 282h338zM932 1176h282v-1176h-286l-506 784v-784h-283v1176h291l502 -781v781z" glyph-name="nacute.aalt" horiz-adv-x="1353"/><glyph d="M422 0h-283v1176h291l502 -781v781h282v-1176h-286l-506 784v-784z" glyph-name="n.sc" horiz-adv-x="1353"/><glyph d="M834 788v535l-195 -391h-115l-196 395v-539h-211v861h215l250 -496l247 496h218v-861h-213z" glyph-name="M.ordn" horiz-adv-x="1161"/><glyph d="M834 -307v534l-195 -391h-115l-196 395v-538h-211v860h215l250 -496l247 496h218v-860h-213z" glyph-name="M.sinf" horiz-adv-x="1161"/><glyph d="M1133 0v760l-283 -563h-143l-285 567v-764h-283v1176h291l348 -687l346 687h291v-1176h-282z" glyph-name="m.sc" horiz-adv-x="1554"/><glyph d="M752 788h-635v861h211v-684h424v-177z" glyph-name="L.ordn" horiz-adv-x="784"/><glyph d="M1038 0h-870v383l-125 -66v248l125 66v545h283v-394l235 127v-247l-235 -127v-295h587v-240z" glyph-name="lslash.aalt" horiz-adv-x="1077"/><glyph d="M752 -307h-635v860h211v-684h424v-176z" glyph-name="L.sinf" horiz-adv-x="784"/><glyph d="M299 338v-135q13 40 54 79q77 72 198 64v-190q-162 0 -228 -133q-15 -31 -20 -52l-4 -22v-256h-205v645h205z" glyph-name="r.sinf" horiz-adv-x="579"/><glyph d="M690 510v235h236v-235h-236zM1012 0h-873v1176h283v-943h590v-233z" glyph-name="ldot.aalt" horiz-adv-x="1052"/><glyph d="M453 -362v245h223l18 -270l-186 -219l-62 74l109 170h-102zM1012 0h-873v1176h283v-943h590v-233z" glyph-name="lcommaaccent.aalt" horiz-adv-x="1048"/><glyph d="M500 930v246h225l18 -271l-188 -219l-59 74l106 170h-102zM1012 0h-873v1176h283v-943h590v-233z" glyph-name="lcaron.aalt" horiz-adv-x="1050"/><glyph d="M1513 1493v-547q217 152 420 152q319 0 320 -338v-760h-295v692q0 176 -141 176q-76 0 -160 -43t-144 -96v-729h-294v1360h-129q-102 0 -160 -53t-60 -143q0 -90 39 -150q6 -2 80 -33l-115 -193q-211 86 -358 86q-66 0 -104 -24t-39 -62q-1 -37 25 -54q54 -36 143 -57 q88 -21 112 -28q175 -43 279 -124t104 -229t-116 -233q-116 -86 -316 -86q-145 0 -297 42t-252 98l117 207q92 -45 215 -83t198 -38q75 1 115 25t39 63q0 39 -42 64q-42 26 -118 47q-77 21 -143 37q-135 34 -236 102q-122 82 -122 232t110 238q111 87 308 87q119 0 258 -35 q-25 55 -25 125q0 139 97 222t280 83h407z" glyph-name="s_h.dlig" horiz-adv-x="2371"/><glyph d="M1513 0h-294v1360h-129q-102 0 -160 -53t-60 -143q0 -90 39 -150q6 -2 80 -33l-115 -193q-211 86 -358 86q-66 0 -104 -24t-39 -62q-1 -37 25 -54q54 -36 143 -57q88 -21 112 -28q175 -43 279 -124t104 -229t-116 -233q-116 -86 -316 -86q-145 0 -297 42t-252 98l117 207 q92 -45 215 -83t198 -38q75 1 115 25t39 63q0 39 -42 64q-42 26 -118 47q-77 21 -143 37q-135 34 -236 102q-122 82 -122 232t110 238q111 87 308 87q119 0 258 -35q-25 55 -25 125q0 139 97 222t280 83h407v-864l351 446h336l-365 -428l426 -647h-309l-293 438l-146 -170 v-268z" glyph-name="s_k.dlig" horiz-adv-x="2258"/><glyph d="M1518 0h-295v1360h-133q-102 0 -160 -53t-60 -143q0 -90 39 -150q6 -2 80 -33l-115 -193q-211 86 -358 86q-66 0 -104 -24t-39 -62q-1 -37 25 -54q54 -36 143 -57q88 -21 112 -28q175 -43 279 -124t104 -229t-116 -233q-116 -86 -316 -86q-145 0 -297 42t-252 98l117 207 q92 -45 215 -83t198 -38q75 1 115 25t39 63q0 39 -42 64q-42 26 -118 47q-77 21 -143 37q-135 34 -236 102q-122 82 -122 232t110 238q111 87 308 87q119 0 258 -35q-25 55 -25 125q0 139 97 222t280 83h412v-1493z" glyph-name="s_l.dlig" horiz-adv-x="1650"/><glyph d="M315 1262h-241l256 282h336zM1010 0h-871v1176h285v-943h586v-233z" glyph-name="lacute.aalt" horiz-adv-x="1050"/><glyph d="M1012 0h-873v1176h283v-936h590v-240z" glyph-name="l.sc" horiz-adv-x="1050"/><glyph d="M117 788v861h211v-398l342 398h248l-361 -408l379 -453h-252l-256 308l-100 -115v-193h-211z" glyph-name="K.ordn" horiz-adv-x="948"/><glyph d="M117 -307v860h211v-397l342 397h248l-361 -408l379 -452h-252l-256 307l-100 -113v-194h-211z" glyph-name="K.sinf" horiz-adv-x="948"/><glyph d="M514 -362v245h223l21 -270l-191 -219l-61 74l108 170h-100zM139 0v1176h283v-551l479 551h334l-500 -558l527 -618h-338l-359 428l-143 -162v-266h-283z" glyph-name="kcommaaccent.aalt" horiz-adv-x="1267"/><glyph d="M139 0v1176h283v-551l479 551h334l-500 -558l527 -618h-338l-359 428l-143 -162v-266h-283z" glyph-name="k.sc" horiz-adv-x="1267"/><glyph d="M328 1649v-777q0 -131 -12 -152q-35 -65 -57 -78q-23 -13 -58 -31t-166 -50l-70 154q106 33 129 57t23 90v787h211z" glyph-name="J.ordn" horiz-adv-x="442"/><glyph d="M328 553v-776q0 -132 -12 -153q-35 -65 -57 -78q-70 -41 -120 -54q-49 -14 -104 -27l-70 154q106 33 129 57t23 91v786h211z" glyph-name="J.sinf" horiz-adv-x="442"/><glyph d="M102 -307v221h207l17 -248l-170 -180l-56 68l97 139h-95zM102 68v221h209v-221h-209z" glyph-name="semicolon.sinf" horiz-adv-x="417"/><glyph d="M102 788v222h207l17 -248l-170 -180l-56 67l97 139h-95zM102 1163v221h209v-221h-209z" glyph-name="semicolon.ordn" horiz-adv-x="417"/><glyph d="M422 1544l217 -282h-203l-155 153l-156 -153h-205l217 282h285zM422 1176v-1061q0 -179 -21 -217q-39 -78 -73 -97q-109 -60 -169 -76q-60 -17 -136 -34l-93 207q80 25 121 42t62 44q20 27 23 47t3 69v1076h283z" glyph-name="jcircumflex.aalt" horiz-adv-x="563"/><glyph d="M424 1176v-1061q0 -179 -21 -217q-39 -78 -73 -97q-109 -60 -169 -76q-60 -17 -136 -34l-93 207q80 25 121 42t62 44q20 27 23 47t3 69v1076h283z" glyph-name="j.sc" horiz-adv-x="563"/><glyph d="M147 0q0 106 43 228t120 246t153 212h-418v174h645v-162q-204 -238 -289 -498q-35 -108 -34 -200h-220z" glyph-name="seven.dnom" horiz-adv-x="722"/><glyph d="M147 573q0 106 53 258t198 347q40 53 65 82h-418v174h645v-162q-108 -126 -211 -311q-43 -80 -78 -188t-34 -200h-220z" glyph-name="seven.frac" horiz-adv-x="722"/><glyph d="M215 -258q0 150 49 322q48 172 112 304t160 290t183 264h-674v254h1008v-236q-21 -25 -57 -71t-125 -185t-157 -275q-68 -135 -125 -321q-56 -186 -57 -346h-317z" glyph-name="seven.oldstyle" horiz-adv-x="1083"/><glyph d="M686 0h-317q0 150 49 322t112 304t157 285t185 269h-675v254h1009v-236q-332 -415 -464 -853q-56 -185 -56 -345z" glyph-name="seven.tnum" horiz-adv-x="1382"/><glyph d="M422 0h-283v1176h283v-1176zM140 1550q52 0 150 -48t126 -48q53 0 104 94l133 -65q-35 -70 -57 -107q-22 -38 -69 -72q-46 -34 -104 -34q-57 0 -155 49t-127 49q-51 0 -104 -94l-133 63q86 169 150 198q34 15 86 15z" glyph-name="itilde.aalt" horiz-adv-x="561"/><glyph d="M1071 522q0 -47 111 -86q109 35 108 86q0 30 -30 52t-78 22q-47 0 -79 -24t-32 -50zM1333 205q0 68 -151 119q-72 -27 -112 -54q-40 -28 -40 -66t43 -64t109 -26t108 26t43 65zM334 471h-176q0 88 37 188t109 208t128 169h-369v140h553v-129q-17 -17 -82 -104t-102 -153 q-38 -66 -68 -154q-30 -89 -30 -165zM1079 1176l-587 -1176h-183l586 1176h184zM858 190q0 123 170 195q-121 61 -121 158q0 78 73 126t202 48q130 0 204 -49t74 -134t-125 -149q172 -72 172 -195q0 -92 -87 -147q-88 -55 -238 -55t-237 55t-87 147z" glyph-name="seveneighths.aalt" horiz-adv-x="1579"/><glyph d="M328 788h-211v861h211v-861z" glyph-name="I.ordn" horiz-adv-x="444"/><glyph d="M263 -116q-36 -40 -36 -76q-1 -36 17 -47q37 -23 70 -23h67l-27 -135q-170 0 -246 41t-75 135q0 125 200 221h-92v1176h285v-1176h-6q-55 -32 -88 -54t-69 -62z" glyph-name="iogonek.aalt" horiz-adv-x="563"/><glyph d="M678 -123q0 -92 -74 -145t-203 -54q-188 0 -356 86l82 144q152 -74 249 -74t97 38t-178 73q-238 57 -238 209q0 88 71 143q70 55 210 55t311 -71l-82 -134q-139 51 -223 51t-84 -38q0 -26 39 -37q21 -6 39 -10q18 -3 50 -11t50 -12q240 -57 240 -213z" glyph-name="s.sinf" horiz-adv-x="724"/><glyph d="M-35 1313v174h629v-174h-629zM420 0h-281v1176h281v-1176z" glyph-name="imacron.aalt" horiz-adv-x="561"/><glyph d="M449 399q-111 0 -166 -69q2 -88 49 -131q46 -43 116 -43t109 37t39 87t-40 84t-107 35zM612 705q-106 -1 -189 -53t-120 -160q86 63 213 63t209 -75q82 -76 82 -198t-97 -209t-272 -87t-272 108q-96 109 -96 271q0 221 150 365q151 144 390 144q78 0 138 -14l-48 -164 q-41 9 -88 9z" glyph-name="six.dnom" horiz-adv-x="862"/><glyph d="M449 973q-111 0 -166 -70q2 -88 49 -131q46 -43 116 -43t109 37t39 87t-40 85t-107 35zM612 1278q-106 0 -189 -52t-120 -161q86 63 213 63t209 -74t82 -198q0 -123 -97 -210t-272 -87t-272 109q-96 109 -96 270q0 221 150 366q151 144 390 144q78 0 138 -14l-48 -164 q-41 8 -88 8z" glyph-name="six.frac" horiz-adv-x="862"/><glyph d="M930 465q0 97 -66 163t-172 66q-108 0 -183 -43t-108 -96q0 -154 79 -241t200 -87q122 0 186 71t64 167zM934 1206q-170 0 -309 -96t-195 -305q137 119 344 119t334 -125t127 -329t-150 -348t-399 -145q-290 1 -442 179t-152 432q-2 395 237 632t603 236q119 0 186 -16 l27 -6l-72 -240q-63 12 -139 12z" glyph-name="six.oldstyle" horiz-adv-x="1300"/><glyph d="M967 465q1 97 -65 163t-172 66t-182 -43q-75 -43 -108 -96q0 -154 78 -241t199 -87t185 71t65 167zM956 1206q-94 0 -189 -36t-178 -130t-120 -235q133 119 341 119t336 -125t128 -329t-150 -348t-401 -145q-149 -1 -265 51q-213 95 -291 333q-36 108 -36 227 q-2 395 237 632t601 236q119 0 186 -16l27 -6l-72 -240q-60 12 -154 12z" glyph-name="six.tnum" horiz-adv-x="1382"/><glyph d="M328 -307h-211v860h211v-860z" glyph-name="I.sinf" horiz-adv-x="444"/><glyph d="M492 1262h-242l-352 282h338zM424 0h-285v1176h285v-1176z" glyph-name="igrave.aalt" horiz-adv-x="563"/><glyph d="M350 1282v236h236v-236h-236zM-23 1282v236h238v-236h-238zM424 0h-283v1176h283v-1176z" glyph-name="idieresis.aalt" horiz-adv-x="561"/><glyph d="M831 1327l-585 -1479h-205l584 1479h206z" glyph-name="slash.sc" horiz-adv-x="882"/><glyph d="M424 1544l217 -282h-205l-155 153l-156 -153h-205l217 282h287zM422 0h-283v1176h283v-1176z" glyph-name="icircumflex.aalt" horiz-adv-x="561"/><glyph glyph-name="space.sinf" horiz-adv-x="321"/><glyph glyph-name="space.ordn" horiz-adv-x="321"/><glyph d="M422 0h-283v1176h283v-1176zM618 1513q0 -117 -90 -184t-248 -67q-159 0 -247 68t-88 183h184q0 -43 40 -67t112 -23q73 0 113 24t40 66h184z" glyph-name="ibreve.aalt" horiz-adv-x="561"/><glyph d="M315 1262h-241l256 282h336zM424 0h-285v1176h285v-1176z" glyph-name="iacute.aalt" horiz-adv-x="563"/><glyph d="M117 414v159h153q-12 23 -42 69q-91 139 -92 266q-2 128 100 207t298 79t449 -150l-123 -180q-182 96 -274 96t-128 -29q-38 -30 -38 -80t60 -140t77 -138h289v-159h-275q-25 -119 -120 -181h512v-233h-867v188q18 5 61 29q134 77 150 197h-190z" glyph-name="sterling.aalt" horiz-adv-x="1062"/><glyph d="M983 1176v-1061q0 -158 -11 -187q-12 -28 -24 -58t-32 -45t-51 -38q-65 -50 -279 -96l-92 207q147 48 177 80t29 122v1076h283zM422 0h-283v1176h283v-1176z" glyph-name="ij.aalt" horiz-adv-x="1126"/><glyph d="M422 0h-283v1176h283v-1176z" glyph-name="i.sc" horiz-adv-x="561"/><glyph d="M670 788v365h-342v-365h-211v861h211v-322h342v322h211v-861h-211z" glyph-name="H.ordn" horiz-adv-x="997"/><glyph d="M670 -307v364h-342v-364h-211v860h211v-322h342v322h211v-860h-211z" glyph-name="H.sinf" horiz-adv-x="997"/><glyph d="M444 864v-131h482v131h-482zM926 0v500h-482v-500h-282v864h-135v156h135v156h282v-156h482v156h282v-156h135v-156h-135v-864h-282z" glyph-name="hbar.aalt" horiz-adv-x="1370"/><glyph d="M903 0v500h-481v-500h-283v1176h283v-443h481v443h283v-1176h-283z" glyph-name="h.sc" horiz-adv-x="1325"/><glyph d="M676 788v80q-114 -94 -256 -94t-245 115t-103 331t105 330t281 113q176 0 406 -127l-98 -154q-180 90 -278 90t-147 -68q-50 -70 -50 -188t48 -190t140 -72t197 88v82h-205v166h406v-502h-201z" glyph-name="G.ordn" horiz-adv-x="964"/><glyph d="M399 162q68 0 109 26t41 70q0 109 -248 109h-41v176h47q205 0 205 90q0 67 -111 67t-237 -73l-86 131q158 117 356 116q143 0 216 -60t73 -150q0 -131 -148 -189q81 -25 135 -85t54 -136q0 -113 -82 -191t-266 -78t-379 113l94 144q145 -80 268 -80z" glyph-name="three.dnom" horiz-adv-x="829"/><glyph d="M399 735q68 0 109 26t41 70q0 109 -248 109h-41v176h47q205 0 205 90q0 68 -111 68t-237 -74l-86 131q158 117 356 117q143 0 216 -60t73 -151q0 -131 -148 -188q81 -25 135 -85t54 -137q0 -113 -82 -191t-266 -77q-184 0 -379 113l94 143q145 -80 268 -80z" glyph-name="three.frac" horiz-adv-x="829"/><glyph d="M594 -27q118 -1 188 49t70 126q0 137 -143 185q-120 40 -263 40h-63v256h74q133 0 233 41t101 133q-1 63 -51 100t-142 37q-166 0 -373 -121l-127 193q252 182 547 182q221 0 337 -99t116 -247q0 -219 -242 -320q135 -39 221 -140t86 -232q0 -177 -120 -301 q-60 -63 -165 -101t-245 -39q-305 1 -598 179l135 208q240 -129 424 -129z" glyph-name="three.oldstyle" horiz-adv-x="1239"/><glyph d="M664 236q116 0 188 49t72 125q0 137 -146 185q-120 40 -262 40h-61v256h71q133 0 235 41q101 41 101 133q0 63 -51 100t-143 37q-170 0 -371 -121l-127 193q252 182 547 182q219 0 335 -99t115 -247q0 -219 -239 -319q133 -39 219 -141t86 -232q0 -175 -120 -301 q-59 -63 -165 -101t-246 -39q-305 1 -598 179l138 209q240 -129 422 -129z" glyph-name="three.tnum" horiz-adv-x="1382"/><glyph d="M676 -307v82q-118 -97 -258 -97t-243 115t-103 331t105 330t281 114t406 -128l-98 -153q-180 90 -278 90t-147 -69q-50 -70 -50 -188t48 -190t137 -72t200 89v82h-205v166h406v-502h-201z" glyph-name="G.sinf" horiz-adv-x="964"/><glyph d="M1264 522q0 -49 108 -86q111 35 111 86q0 30 -31 52t-79 22q-49 0 -79 -24t-30 -50zM1526 205q0 68 -152 119q-72 -27 -112 -54q-40 -26 -39 -66q0 -40 42 -65q43 -25 109 -25t109 26t43 65zM1270 1176l-588 -1176h-182l587 1176h183zM379 596q61 0 100 22t39 62 q0 94 -221 94h-35v139h39q182 0 182 78q0 57 -99 57t-208 -59l-70 105q129 94 302 94q121 0 184 -50t63 -124q0 -109 -131 -154q74 -20 120 -69t46 -126t-70 -142t-232 -65t-318 93l75 113q121 -68 234 -68zM1049 190q0 125 172 195q-123 63 -123 149t73 135q74 48 202 48 t203 -48t75 -134t-123 -150q170 -74 170 -195q0 -92 -87 -147t-237 -55t-238 55t-87 147z" glyph-name="threeeighths.aalt" horiz-adv-x="1769"/><glyph d="M1468 1434l-675 -1434h-226l674 1434h227zM430 735q68 0 109 26t41 70q0 109 -248 109h-41v176h47q205 0 205 90q0 68 -111 68t-237 -74l-86 131q158 117 356 117q143 0 216 -60t73 -151q0 -131 -148 -188q84 -23 136 -83t52 -156t-81 -174q-82 -78 -262 -77 q-180 0 -383 113l94 143q145 -80 268 -80zM1915 860v-174h-406l-8 -135q61 16 127 16q156 0 240 -82q84 -83 84 -205t-91 -208t-266 -86t-352 112l90 152q125 -84 240 -84q70 0 117 31t47 82t-42 86t-125 35t-169 -48l-117 74l47 434h584z" glyph-name="glyph736" horiz-adv-x="2039"/><glyph d="M1270 1176l-588 -1176h-182l587 1176h183zM379 596q61 0 100 22t39 62q0 94 -221 94h-35v139h39q182 0 182 78q0 57 -99 57t-208 -59l-70 105q129 94 302 94q121 0 184 -50t63 -124q0 -109 -131 -154q74 -20 120 -69t46 -126t-70 -142t-232 -65t-318 93l75 113 q121 -68 234 -68zM1653 705v-138h-355l-10 -121q55 16 117 17q133 0 206 -67t73 -167t-78 -171q-78 -70 -226 -70t-301 92l76 119q98 -68 205 -68q66 0 108 27q42 26 43 70q0 44 -38 73q-39 29 -114 29t-149 -39l-94 59l43 355h494z" glyph-name="glyph737" horiz-adv-x="1767"/><glyph d="M518 1282v236h238v-236h-238zM920 0v115q-162 -133 -340 -133q-213 0 -355 155q-141 156 -141 452q0 297 144 451t387 154t556 -174l-133 -207q-244 127 -382 127t-210 -94t-72 -260t70 -265q68 -99 194 -99t282 122v117h-287v223h553v-684h-266z" glyph-name="gdotaccent.aalt" horiz-adv-x="1290"/><glyph d="M553 -362v245h223l19 -270l-187 -219l-63 74l110 170h-102zM920 0v115q-162 -133 -340 -133q-213 0 -355 155q-141 156 -141 452q0 297 144 451t387 154t556 -174l-133 -207q-244 127 -382 127t-210 -94t-72 -260t70 -265q68 -99 194 -99t282 122v117h-287v223h553v-684 h-266z" glyph-name="gcommaaccent.aalt" horiz-adv-x="1290"/><glyph d="M1380 268v307l-229 -307h229zM1270 1176l-588 -1176h-182l587 1176h183zM379 596q61 0 100 22t39 62q0 94 -221 94h-35v139h39q182 0 182 78q0 57 -99 57t-208 -59l-70 105q129 94 302 94q121 0 184 -50t63 -124q0 -109 -131 -154q74 -20 120 -69t46 -126t-70 -142 t-232 -65t-318 93l75 113q121 -68 234 -68zM969 131v115l358 459h225v-437h119v-137h-119v-131h-172v131h-411z" glyph-name="threequarters.aalt" horiz-adv-x="1740"/><glyph d="M634 1262q-159 0 -247 68t-88 183h184q0 -43 40 -67t111 -23q70 0 112 24t42 66h183q0 -117 -89 -184t-248 -67zM920 0v115q-162 -133 -340 -133q-213 0 -355 155q-141 156 -141 452q0 297 144 451t387 154t556 -174l-133 -207q-244 127 -382 127t-210 -94t-72 -260 t70 -265q68 -99 194 -99t282 122v117h-287v223h553v-684h-266z" glyph-name="gbreve.aalt" horiz-adv-x="1290"/><glyph d="M920 0v115q-162 -133 -340 -133q-213 0 -355 155q-141 156 -141 452q0 297 144 451t387 154t556 -174l-133 -207q-244 127 -382 127t-210 -94t-72 -260t70 -265q68 -99 194 -99t282 122v117h-287v223h553v-684h-266z" glyph-name="g.sc" horiz-adv-x="1290"/><glyph d="M35 190v148h92v162l207 24v-186h180v-148h-180v-276q0 -59 53 -59q16 0 102 28l70 -149q-117 -55 -225 -56q-207 0 -207 236v276h-92z" glyph-name="t.sinf" horiz-adv-x="589"/><glyph d="M766 1473h-438v-168h348v-175h-348v-342h-211v861h649v-176z" glyph-name="F.ordn" horiz-adv-x="808"/><glyph d="M766 377h-438v-168h348v-174h-348v-342h-211v860h649v-176z" glyph-name="F.sinf" horiz-adv-x="808"/><glyph d="M1032 942h-610v-240h481v-231h-481v-471h-283v1176h893v-234z" glyph-name="f.sc" horiz-adv-x="1077"/><glyph d="M756 174v-174h-699v90q0 117 75 199t206 162q48 23 76 41t51 32q76 46 76 98q0 34 -33 56t-92 22q-96 0 -240 -79l-94 133q180 121 364 120q147 0 229 -69q81 -70 81 -182t-102 -193q-54 -43 -86 -62t-103 -59q-152 -80 -152 -135h443z" glyph-name="two.dnom" horiz-adv-x="833"/><glyph d="M756 748v-175h-699v91q0 116 75 198t206 162q16 8 46 26t44 25q113 65 113 112q0 43 -33 65t-92 22q-96 0 -240 -80l-94 133q182 121 346 121t246 -70t82 -181t-102 -193q-54 -42 -86 -62t-103 -59q-152 -80 -152 -135h443z" glyph-name="two.frac" horiz-adv-x="833"/><glyph d="M76 0v137q0 160 110 266q111 106 317 198t256 128q51 35 61 59q11 25 11 46q0 55 -49 86t-137 30q-176 0 -397 -131l-135 191q272 184 559 184q217 0 338 -91t120 -255q0 -135 -98 -243q-93 -101 -398 -228q-171 -72 -206 -129h705v-248h-1057z" glyph-name="two.oldstyle" horiz-adv-x="1232"/><glyph d="M1217 254v-254h-1082v141q0 211 145 360q109 111 264 211q60 38 103 67q43 28 61 40l54 36q35 24 50 37q52 45 72 80q21 35 21 89q0 53 -55 97t-156 44q-172 0 -383 -133l-139 199q274 188 561 188q229 0 356 -110q125 -111 125 -294t-145 -314q-105 -93 -295 -208 q-140 -78 -206 -140t-66 -136h715z" glyph-name="two.tnum" horiz-adv-x="1382"/><glyph d="M1524 1434l-674 -1434h-225l673 1434h226zM780 748v-175h-698v91q0 117 78 201t250 186q155 86 155 138q1 41 -31 63t-92 22q-98 0 -241 -80l-95 133q182 121 347 121t246 -70t81 -182t-101 -192q-54 -42 -86 -62t-104 -59q-150 -78 -149 -135h440zM1972 860v-174h-405 l-11 -137q57 18 130 18q156 0 240 -82q84 -83 83 -205q0 -122 -90 -208t-261 -86t-360 112l95 152q121 -84 239 -84q70 0 116 31t46 82t-41 86t-124 35t-169 -48l-119 74l50 434h581z" glyph-name="glyph751" horiz-adv-x="2088"/><glyph d="M1313 1176l-590 -1176h-180l587 1176h183zM674 608v-137h-594v72q0 96 68 167t216 150q26 14 38 22t32 18q68 38 68 74t-31 55t-105 19t-188 -65l-76 107q154 98 294 98t208 -56q70 -56 70 -150t-89 -159q-51 -37 -176 -101q-124 -63 -124 -114h389zM1698 705v-138h-355 l-10 -121q55 16 115 17q133 0 207 -67t74 -167t-78 -171q-77 -70 -223 -70t-306 92l74 119q112 -68 192 -68t122 27q42 26 42 70t-36 73q-37 29 -113 29t-150 -39l-92 59l41 355h496z" glyph-name="glyph752" horiz-adv-x="1808"/><glyph d="M53 1257v89h88q29 158 126 238t248 79q151 0 384 -123l-98 -156q-166 88 -269 89q-125 0 -167 -127h284v-89h-303v-38q0 -31 2 -45h301v-89h-282q45 -121 161 -121t273 89l98 -156q-233 -123 -383 -123t-246 79t-127 232h-90v89h78v83h-78z" glyph-name="Euro.ordn" horiz-adv-x="950"/><glyph d="M53 162v88h88q29 158 126 238t248 79q151 0 384 -123l-98 -155q-166 88 -269 88q-125 0 -167 -127h284v-88h-303v-39q0 -31 2 -45h301v-88h-282q45 -121 161 -121t273 88l98 -156q-233 -123 -383 -123t-246 79t-127 233h-90v88h78v84h-78z" glyph-name="Euro.sinf" horiz-adv-x="950"/><glyph d="M80 639v125h121q41 210 175 320t344 110t521 -170l-129 -205q-231 121 -373 121q-174 0 -235 -176h397v-125h-422v-113h422v-125h-395q66 -166 233 -165q141 0 373 120l129 -206q-315 -168 -522 -168t-340 106t-176 313h-123v125h106v113h-106z" glyph-name="Euro.oldstyle" horiz-adv-x="1323"/><glyph d="M1415 127q63 0 102 23q38 23 37 61q0 92 -223 92h-33v139h39q182 0 183 78q0 58 -102 58t-206 -60l-71 105q133 94 301 94q123 0 186 -49t64 -123q0 -106 -133 -156q75 -18 121 -67t46 -127t-72 -143q-72 -64 -226 -64t-322 92l76 113q123 -66 233 -66zM1315 1176 l-588 -1176h-182l590 1176h180zM678 608v-137h-596v72q0 96 64 163t221 154q25 14 37 22t32 18q68 41 68 75q0 35 -31 54t-105 19t-188 -65l-76 107q154 98 294 98t210 -56t70 -143q0 -129 -165 -217q-30 -16 -93 -47q-133 -66 -133 -117h391z" glyph-name="twothirds.aalt" horiz-adv-x="1802"/><glyph d="M975 588q0 196 -91 272t-286 76h-143v-238h252v-219h-252v-239h143q195 0 286 76t91 272zM1255 588q0 -307 -158 -448q-159 -140 -472 -140h-455v479h-131v219h131v478h455q313 0 471 -140t159 -448z" glyph-name="eth.aalt" horiz-adv-x="1341"/><glyph d="M774 788h-657v861h649v-176h-438v-166h360v-174h-360v-168h446v-177z" glyph-name="E.ordn" horiz-adv-x="843"/><glyph d="M842 -193q0 -69 105 -69h50l-28 -135h-13q-309 -4 -309 176q0 127 201 221h-709v1176h893v-234h-610v-237h500v-234h-500v-238h618v-233h-6q-57 -35 -88 -54q-32 -18 -68 -60t-36 -79z" glyph-name="eogonek.aalt" horiz-adv-x="1124"/><glyph d="M1214 1176v-1106q0 -90 -9 -138t-48 -97q-39 -50 -120 -82t-220 -62l-92 207q104 32 146 54t55 54l-504 778v-784h-283v1176h291l502 -781v781h282z" glyph-name="eng.aalt" horiz-adv-x="1353"/><glyph d="M274 1313v174h629v-174h-629zM1040 0h-901v1176h893v-234h-610v-237h500v-234h-500v-238h618v-233z" glyph-name="emacron.aalt" horiz-adv-x="1124"/><glyph d="M774 -307h-657v860h649v-176h-438v-166h360v-174h-360v-168h446v-176z" glyph-name="E.sinf" horiz-adv-x="843"/><glyph d="M799 1262h-242l-350 282h336zM1040 0h-901v1176h893v-234h-610v-237h500v-234h-500v-238h618v-233z" glyph-name="egrave.aalt" horiz-adv-x="1124"/><glyph d="M551 -307v74q-131 -88 -258 -89q-205 0 -205 207v453h203v-406q0 -96 82 -96q92 0 178 74v428h203v-645h-203z" glyph-name="u.sinf" horiz-adv-x="847"/><glyph d="M471 1282v236h238v-236h-238zM1040 0h-901v1176h893v-234h-610v-237h500v-234h-500v-238h618v-233z" glyph-name="edotaccent.aalt" horiz-adv-x="1124"/><glyph d="M657 1282v236h236v-236h-236zM285 1282v236h237v-236h-237zM1040 0h-901v1176h893v-234h-610v-237h500v-234h-500v-238h618v-233z" glyph-name="edieresis.aalt" horiz-adv-x="1124"/><glyph d="M733 1544l215 -282h-203l-157 153l-154 -153h-205l215 282h289zM1040 0h-901v1176h893v-234h-610v-237h500v-234h-500v-238h618v-233z" glyph-name="ecircumflex.aalt" horiz-adv-x="1124"/><glyph d="M948 1544l-215 -282h-289l-215 282h205l154 -151l157 151h203zM1040 0h-901v1176h893v-234h-610v-237h500v-234h-500v-238h618v-233z" glyph-name="ecaron.aalt" horiz-adv-x="1124"/><glyph d="M436 -362v245h226l18 -270l-191 -219l-59 74l107 170h-101zM1053 936h-363v-936h-284v936h-367v240h1014v-240z" glyph-name="uni021A.aalt" horiz-adv-x="1091"/><glyph d="M623 1262h-240l254 282h338zM1040 0h-901v1176h893v-234h-610v-237h500v-234h-500v-238h618v-233z" glyph-name="eacute.aalt" horiz-adv-x="1124"/><glyph d="M1040 0h-901v1176h893v-234h-610v-237h500v-234h-500v-238h618v-233z" glyph-name="e.sc" horiz-adv-x="1124"/><glyph d="M539 715l82 -355l96 355h-178zM1190 715l94 -357l84 357h-178zM94 414v159h193l-41 142h-152v157h105l-90 304h321l72 -304h256l82 304h225l82 -304h258l70 304h321l-90 -304h104v-157h-151l-41 -142h192v-159h-239l-123 -414h-279l-217 791l-217 -791h-278l-123 414 h-240z" glyph-name="uni20A9.oldstyle" horiz-adv-x="1904"/><glyph d="M866 221l68 -256l59 256h-127zM397 221l58 -256l69 256h-127zM72 0v117h137l-31 104h-106v117h71l-61 215h240l49 -215h184l57 215h166l58 -215h184l49 215h240l-64 -215h74v-117h-107l-30 -104h137v-117h-172l-88 -307h-209l-156 569l-153 -569h-207l-90 307h-172z" glyph-name="uni20A9.sinf" horiz-adv-x="1392"/><glyph d="M866 1317l68 -256l59 256h-127zM397 1317l58 -256l69 256h-127zM72 1096v116h137l-31 105h-106v117h71l-61 215h240l49 -215h184l57 215h166l58 -215h184l49 215h240l-64 -215h74v-117h-107l-30 -105h137v-116h-172l-88 -308h-209l-156 570l-153 -570h-207l-90 308h-172z " glyph-name="uni20A9.ordn" horiz-adv-x="1392"/><glyph d="M698 1219q0 143 -65 198q-66 55 -203 56h-100v-508h100q137 0 203 55q65 56 65 199zM909 1219q0 -225 -115 -328q-116 -102 -343 -103h-334v861h334q227 -1 343 -103t115 -327z" glyph-name="D.ordn" horiz-adv-x="983"/><glyph d="M1819 809q0 84 -33 125t-109 41q-143 0 -143 -166t142 -166t143 166zM1368 233v158h621v-158h-621zM2038 809q0 -170 -93 -260t-267 -90t-267 90q-92 90 -92 260t92 261t266 91q173 0 267 -91t94 -261zM428 0h-283v1176h289l504 -785v785h283v-1176h-287l-506 784v-784z " glyph-name="afii61352.oldstyle" horiz-adv-x="2125"/><glyph d="M1819 809q0 84 -33 125t-109 41q-143 0 -143 -166t142 -166t143 166zM1368 233v158h621v-158h-621zM2038 809q0 -170 -93 -260t-267 -90t-267 90q-92 90 -92 260t92 261t266 91q173 0 267 -91t94 -261zM428 0h-283v1176h289l504 -785v785h283v-1176h-287l-506 784v-784z " glyph-name="afii61352.sc" horiz-adv-x="2121"/><glyph d="M698 123q0 143 -65 199q-66 55 -203 55h-100v-508h100q137 0 203 55q65 56 65 199zM909 123q0 -225 -115 -328q-116 -102 -343 -102h-334v860h334q227 0 343 -102q115 -103 115 -328z" glyph-name="D.sinf" horiz-adv-x="983"/><glyph d="M156 588q0 -238 143 -390t397 -153q254 0 399 153q144 152 144 390t-144 390q-145 152 -399 152t-397 -152t-143 -390zM86 588q0 264 163 435t449 171t446 -171q161 -171 161 -435t-161 -435t-447 -171q-287 0 -449 171t-162 435zM750 582q161 0 161 144t-161 144h-156 v-288h156zM750 940q247 0 247 -216t-247 -216h-156v-275h-86v707h242z" glyph-name="uni2117.aalt" horiz-adv-x="1390"/><glyph d="M975 588q0 196 -91 272t-286 76h-143v-238h252v-219h-252v-239h143q195 0 286 76t91 272zM1255 588q0 -307 -158 -448q-159 -140 -472 -140h-455v479h-131v219h131v478h455q313 0 471 -140t159 -448z" glyph-name="dcroat.aalt" horiz-adv-x="1341"/><glyph d="M1042 1544l-215 -282h-288l-215 282h204l154 -151l156 151h204zM944 588q0 198 -91 276t-286 78h-143v-709h143q195 0 286 78t91 277zM1229 588q0 -308 -160 -448t-475 -140h-455v1176h455q315 0 475 -140t160 -448z" glyph-name="dcaron.aalt" horiz-adv-x="1314"/><glyph d="M944 588q0 196 -91 272t-286 76h-143v-696h143q195 0 286 76t91 272zM1229 588q0 -308 -160 -448t-475 -140h-455v1176h455q315 0 475 -140t160 -448z" glyph-name="d.sc" horiz-adv-x="1314"/><glyph d="M551 788v72q-135 -86 -258 -86q-205 0 -205 207v453h203v-406q0 -96 82 -96q96 0 178 74v428h203v-646h-203z" glyph-name="u.ordn" horiz-adv-x="847"/><glyph d="M291 1218q0 -116 49 -185t144 -69t261 89l99 -156q-233 -123 -398 -123t-270 114q-104 114 -104 331t104 331t270 113q166 0 398 -123l-99 -156q-172 88 -264 88t-141 -68q-49 -70 -49 -186z" glyph-name="C.ordn" horiz-adv-x="890"/><glyph d="M481 377q-92 0 -141 -69q-49 -70 -49 -186t49 -184t144 -69q95 0 261 88l99 -156q-233 -123 -398 -123t-270 114q-104 114 -104 331t104 331q211 231 668 -10l-99 -155q-172 88 -264 88z" glyph-name="C.sinf" horiz-adv-x="890"/><glyph d="M475 -307h-203l-268 645h219l150 -442l151 442h217z" glyph-name="v.sinf" horiz-adv-x="745"/><glyph d="M475 788h-203l-268 646h219l150 -445l151 445h217z" glyph-name="v.ordn" horiz-adv-x="747"/><glyph d="M514 1282v236h238v-236h-238zM648 940q-134 0 -204 -95t-70 -257t70 -257t202 -95t364 120l133 -204q-315 -170 -543 -170t-373 153q-143 154 -143 452q0 299 143 453t372 154t544 -170l-133 -207q-228 123 -362 123z" glyph-name="cdotaccent.aalt" horiz-adv-x="1193"/><glyph d="M492 -211q98 0 98 78q0 55 -47 119q-207 18 -332 171t-125 441t143 442t371 154t545 -170l-133 -207q-228 123 -362 123t-204 -95t-70 -257t70 -257t202 -95t364 120l133 -204q-281 -150 -467 -166q68 -86 68 -177t-66 -139q-66 -47 -168 -47t-180 45l61 146 q49 -25 99 -25z" glyph-name="ccedilla.aalt" horiz-adv-x="1196"/><glyph d="M999 1544l-215 -282h-288l-217 282h204l156 -151l158 151h202zM648 940q-134 0 -204 -95t-70 -257t70 -257t202 -95t364 120l133 -204q-315 -170 -543 -170t-373 153q-143 154 -143 452q0 299 143 453t372 154t544 -170l-133 -207q-228 123 -362 123z" glyph-name="ccaron.aalt" horiz-adv-x="1193"/><glyph d="M713 1262h-242l256 282h336zM648 940q-134 0 -204 -95t-70 -257t70 -257t202 -95t364 120l133 -204q-315 -170 -543 -170t-373 153q-143 154 -143 452q0 299 143 453t372 154t544 -170l-133 -207q-228 123 -362 123z" glyph-name="cacute.aalt" horiz-adv-x="1193"/><glyph d="M648 940q-134 0 -204 -95t-70 -257t70 -257t202 -95t364 120l133 -204q-315 -170 -543 -170t-373 153q-143 154 -143 452q0 299 143 453t372 154t544 -170l-133 -207q-228 123 -362 123z" glyph-name="c.sc" horiz-adv-x="1193"/><glyph d="M674 -307l-129 413l-129 -413h-191l-209 645h215l105 -438l125 438h166l125 -438l104 438h217l-207 -645h-192z" glyph-name="w.sinf" horiz-adv-x="1093"/><glyph d="M674 1056q0 108 -189 107h-157v-215h176q170 0 170 108zM473 1313q152 0 152 88t-148 88h-149v-176h145zM883 1020q0 -231 -334 -232h-432v861h375q344 0 344 -209q0 -80 -48 -131t-102 -62q70 -11 134 -67t63 -160z" glyph-name="B.ordn" horiz-adv-x="946"/><glyph d="M504 -147q170 -1 170 107t-189 108h-157v-215h176zM473 217q152 0 152 88t-148 88h-149v-176h145zM883 -76q0 -231 -334 -231h-432v860h375q344 0 344 -209q0 -80 -48 -131t-102 -61q70 -10 134 -67t63 -161z" glyph-name="B.sinf" horiz-adv-x="948"/><glyph d="M557 -307l-154 219l-151 -219h-242l269 321l-254 324h233l145 -213l146 213h233l-252 -322l267 -323h-240z" glyph-name="x.sinf" horiz-adv-x="806"/><glyph d="M911 365q0 152 -268 151h-221v-299h254q235 1 235 148zM842 842q0 117 -209 116h-211v-241h207q213 0 213 125zM1190 312q0 -146 -113 -230q-113 -82 -344 -82h-594v1176h512q471 0 471 -285q0 -111 -66 -181t-138 -81q96 -15 184 -93t88 -224z" glyph-name="b.sc" horiz-adv-x="1261"/><glyph d="M653 930l-166 -492h332zM513 1550q53 0 151 -48t124 -48q53 0 107 94l133 -65q-51 -96 -84 -140q-32 -43 -66 -58t-86 -15t-150 49t-126 49q-53 0 -106 -94l-134 63q86 169 152 198q34 15 85 15zM967 0l-74 217h-479l-74 -217h-309l467 1176h311l469 -1176h-311z" glyph-name="atilde.aalt" horiz-adv-x="1310"/><glyph d="M465 1468l-119 -358h236zM688 788l-51 156h-344l-51 -156h-232l338 861h236l336 -861h-232z" glyph-name="A.ordn" horiz-adv-x="931"/><glyph d="M565 1470q0 -38 26 -62q27 -24 63 -24t62 25t26 61t-26 63q-26 26 -63 26t-63 -26t-25 -63zM653 930l-166 -492h332zM424 1470q0 94 66 162q67 68 163 68t163 -68t67 -162t-67 -162t-163 -67q-97 -1 -163 67t-66 162zM967 0l-74 217h-479l-74 -217h-309l467 1176h311 l469 -1176h-311z" glyph-name="aring.aalt" horiz-adv-x="1310"/><glyph d="M653 930l-166 -492h332zM1077 -193q0 -69 107 -69h51l-29 -135q-170 0 -244 42t-75 134q0 127 200 221h-120l-74 217h-479l-74 -217h-309l467 1176h311l469 -1176h-6q-55 -32 -88 -54t-70 -62t-37 -77z" glyph-name="aogonek.aalt" horiz-adv-x="1310"/><glyph d="M653 930l-166 -492h332zM340 1313v174h629v-174h-629zM967 0l-74 217h-479l-74 -217h-309l467 1176h311l469 -1176h-311z" glyph-name="amacron.aalt" horiz-adv-x="1310"/><glyph d="M182 473v160h217l-344 543h320l270 -488l275 488h317l-344 -543h215v-160h-320v-84h320v-156h-320v-233h-282v233h-324v156h324v84h-324z" glyph-name="yen.oldstyle" horiz-adv-x="1292"/><glyph d="M115 47v115h149l-244 391h238l191 -350l194 350h238l-246 -391h151v-115h-223l-8 -14v-53h231v-119h-231v-168h-209v168h-231v119h231v51l-10 16h-221z" glyph-name="yen.sinf" horiz-adv-x="903"/><glyph d="M117 1143v114h149l-243 392h237l191 -351l194 351h238l-246 -392h151v-114h-223l-8 -15v-53h231v-119h-231v-168h-209v168h-231v119h231v51l-10 17h-221z" glyph-name="yen.ordn" horiz-adv-x="905"/><glyph d="M465 373l-119 -359h236zM688 -307l-51 155h-344l-51 -155h-232l338 860h236l336 -860h-232z" glyph-name="A.sinf" horiz-adv-x="931"/><glyph d="M4 338h221l150 -406l149 406h217l-370 -895h-217l116 254z" glyph-name="y.sinf" horiz-adv-x="745"/><glyph d="M653 930l-166 -492h332zM864 1262h-243l-349 282h336zM967 0l-74 217h-479l-74 -217h-309l467 1176h311l469 -1176h-311z" glyph-name="agrave.aalt" horiz-adv-x="1310"/><glyph d="M721 1282v236h237v-236h-237zM350 1282v236h238v-236h-238zM653 930l-166 -492h332zM967 0l-74 217h-479l-74 -217h-309l467 1176h311l469 -1176h-311z" glyph-name="adieresis.aalt" horiz-adv-x="1310"/><glyph d="M653 930l-166 -492h332zM797 1544l217 -282h-205l-156 153l-153 -153h-205l215 282h287zM967 0l-74 217h-479l-74 -217h-309l467 1176h311l469 -1176h-311z" glyph-name="acircumflex.aalt" horiz-adv-x="1310"/><glyph d="M653 930l-166 -492h332zM654 1262q-158 0 -246 68t-89 183h183q0 -90 151 -90q72 0 113 24t41 66h182q0 -117 -88 -184t-247 -67zM967 0l-74 217h-479l-74 -217h-309l467 1176h311l469 -1176h-311z" glyph-name="abreve.aalt" horiz-adv-x="1310"/><glyph d="M653 930l-166 -492h332zM688 1262h-239l253 282h338zM967 0l-74 217h-479l-74 -217h-309l467 1176h311l469 -1176h-311z" glyph-name="aacute.aalt" horiz-adv-x="1310"/></font>
</defs>
</svg>
